<svg width="766" height="100" viewBox="0 0 766 100" fill="none" xmlns="http://www.w3.org/2000/svg">
<path d="M271.42 67V58.4102H274.66C275.23 58.4102 275.666 58.4375 275.967 58.4922C276.389 58.5625 276.742 58.6973 277.027 58.8965C277.312 59.0918 277.541 59.3672 277.713 59.7227C277.889 60.0781 277.977 60.4688 277.977 60.8945C277.977 61.625 277.744 62.2441 277.279 62.752C276.814 63.2559 275.975 63.5078 274.76 63.5078H272.557V67H271.42ZM272.557 62.4941H274.777C275.512 62.4941 276.033 62.3574 276.342 62.084C276.65 61.8105 276.805 61.4258 276.805 60.9297C276.805 60.5703 276.713 60.2637 276.529 60.0098C276.35 59.752 276.111 59.582 275.814 59.5C275.623 59.4492 275.27 59.4238 274.754 59.4238H272.557V62.4941ZM282.951 66.2324C282.561 66.5645 282.184 66.7988 281.82 66.9355C281.461 67.0723 281.074 67.1406 280.66 67.1406C279.977 67.1406 279.451 66.9746 279.084 66.6426C278.717 66.3066 278.533 65.8789 278.533 65.3594C278.533 65.0547 278.602 64.7773 278.738 64.5273C278.879 64.2734 279.061 64.0703 279.283 63.918C279.51 63.7656 279.764 63.6504 280.045 63.5723C280.252 63.5176 280.564 63.4648 280.982 63.4141C281.834 63.3125 282.461 63.1914 282.863 63.0508C282.867 62.9062 282.869 62.8145 282.869 62.7754C282.869 62.3457 282.77 62.043 282.57 61.8672C282.301 61.6289 281.9 61.5098 281.369 61.5098C280.873 61.5098 280.506 61.5977 280.268 61.7734C280.033 61.9453 279.859 62.252 279.746 62.6934L278.715 62.5527C278.809 62.1113 278.963 61.7559 279.178 61.4863C279.393 61.2129 279.703 61.0039 280.109 60.8594C280.516 60.7109 280.986 60.6367 281.521 60.6367C282.053 60.6367 282.484 60.6992 282.816 60.8242C283.148 60.9492 283.393 61.1074 283.549 61.2988C283.705 61.4863 283.814 61.7246 283.877 62.0137C283.912 62.1934 283.93 62.5176 283.93 62.9863V64.3926C283.93 65.373 283.951 65.9941 283.994 66.2559C284.041 66.5137 284.131 66.7617 284.264 67H283.162C283.053 66.7812 282.982 66.5254 282.951 66.2324ZM282.863 63.877C282.48 64.0332 281.906 64.166 281.141 64.2754C280.707 64.3379 280.4 64.4082 280.221 64.4863C280.041 64.5645 279.902 64.6797 279.805 64.832C279.707 64.9805 279.658 65.1465 279.658 65.3301C279.658 65.6113 279.764 65.8457 279.975 66.0332C280.189 66.2207 280.502 66.3145 280.912 66.3145C281.318 66.3145 281.68 66.2266 281.996 66.0508C282.312 65.8711 282.545 65.627 282.693 65.3184C282.807 65.0801 282.863 64.7285 282.863 64.2637V63.877ZM286.807 64.1875V63.3613C287.252 63.3574 287.555 63.3398 287.715 63.3086C287.879 63.2773 288.033 63.1836 288.178 63.0273C288.322 62.8711 288.395 62.6758 288.395 62.4414C288.395 62.1562 288.299 61.9297 288.107 61.7617C287.92 61.5898 287.676 61.5039 287.375 61.5039C286.781 61.5039 286.365 61.8535 286.127 62.5527L285.125 62.3887C285.438 61.2207 286.191 60.6367 287.387 60.6367C288.051 60.6367 288.57 60.8184 288.945 61.1816C289.324 61.5449 289.514 61.9785 289.514 62.4824C289.514 62.9902 289.268 63.3945 288.775 63.6953C289.088 63.8633 289.322 64.0781 289.479 64.3398C289.635 64.5977 289.713 64.9043 289.713 65.2598C289.713 65.8184 289.51 66.2715 289.104 66.6191C288.697 66.9668 288.129 67.1406 287.398 67.1406C285.98 67.1406 285.158 66.5098 284.932 65.248L285.922 65.0371C286.012 65.4355 286.193 65.7441 286.467 65.9629C286.744 66.1816 287.061 66.291 287.416 66.291C287.771 66.291 288.066 66.1914 288.301 65.9922C288.539 65.7891 288.658 65.5312 288.658 65.2188C288.658 64.9766 288.584 64.7656 288.436 64.5859C288.287 64.4062 288.129 64.2949 287.961 64.252C287.793 64.2051 287.488 64.1816 287.047 64.1816C287.012 64.1816 286.932 64.1836 286.807 64.1875ZM290.938 69.3848V60.7773H291.898V61.5859C292.125 61.2695 292.381 61.0332 292.666 60.877C292.951 60.7168 293.297 60.6367 293.703 60.6367C294.234 60.6367 294.703 60.7734 295.109 61.0469C295.516 61.3203 295.822 61.707 296.029 62.207C296.236 62.7031 296.34 63.248 296.34 63.8418C296.34 64.4785 296.225 65.0527 295.994 65.5645C295.768 66.0723 295.436 66.4629 294.998 66.7363C294.564 67.0059 294.107 67.1406 293.627 67.1406C293.275 67.1406 292.959 67.0664 292.678 66.918C292.4 66.7695 292.172 66.582 291.992 66.3555V69.3848H290.938ZM291.893 63.9238C291.893 64.7246 292.055 65.3164 292.379 65.6992C292.703 66.082 293.096 66.2734 293.557 66.2734C294.025 66.2734 294.426 66.0762 294.758 65.6816C295.094 65.2832 295.262 64.668 295.262 63.8359C295.262 63.043 295.098 62.4492 294.77 62.0547C294.445 61.6602 294.057 61.4629 293.604 61.4629C293.154 61.4629 292.756 61.6738 292.408 62.0957C292.064 62.5137 291.893 63.123 291.893 63.9238ZM301.877 64.9961L302.967 65.1309C302.795 65.7676 302.477 66.2617 302.012 66.6133C301.547 66.9648 300.953 67.1406 300.23 67.1406C299.32 67.1406 298.598 66.8613 298.062 66.3027C297.531 65.7402 297.266 64.9531 297.266 63.9414C297.266 62.8945 297.535 62.082 298.074 61.5039C298.613 60.9258 299.312 60.6367 300.172 60.6367C301.004 60.6367 301.684 60.9199 302.211 61.4863C302.738 62.0527 303.002 62.8496 303.002 63.877C303.002 63.9395 303 64.0332 302.996 64.1582H298.355C298.395 64.8418 298.588 65.3652 298.936 65.7285C299.283 66.0918 299.717 66.2734 300.236 66.2734C300.623 66.2734 300.953 66.1719 301.227 65.9688C301.5 65.7656 301.717 65.4414 301.877 64.9961ZM298.414 63.291H301.889C301.842 62.7676 301.709 62.375 301.49 62.1133C301.154 61.707 300.719 61.5039 300.184 61.5039C299.699 61.5039 299.291 61.666 298.959 61.9902C298.631 62.3145 298.449 62.748 298.414 63.291ZM304.332 60.7773H305.387V66.127H307.789V60.7773H308.844V66.127H311.252V60.7773H312.301V67H304.332V60.7773ZM318.189 64.9961L319.279 65.1309C319.107 65.7676 318.789 66.2617 318.324 66.6133C317.859 66.9648 317.266 67.1406 316.543 67.1406C315.633 67.1406 314.91 66.8613 314.375 66.3027C313.844 65.7402 313.578 64.9531 313.578 63.9414C313.578 62.8945 313.848 62.082 314.387 61.5039C314.926 60.9258 315.625 60.6367 316.484 60.6367C317.316 60.6367 317.996 60.9199 318.523 61.4863C319.051 62.0527 319.314 62.8496 319.314 63.877C319.314 63.9395 319.312 64.0332 319.309 64.1582H314.668C314.707 64.8418 314.9 65.3652 315.248 65.7285C315.596 66.0918 316.029 66.2734 316.549 66.2734C316.936 66.2734 317.266 66.1719 317.539 65.9688C317.812 65.7656 318.029 65.4414 318.189 64.9961ZM314.727 63.291H318.201C318.154 62.7676 318.021 62.375 317.803 62.1133C317.467 61.707 317.031 61.5039 316.496 61.5039C316.012 61.5039 315.604 61.666 315.271 61.9902C314.943 62.3145 314.762 62.748 314.727 63.291ZM320.615 60.7773H321.67V63.3672H324.594V60.7773H325.648V67H324.594V64.2402H321.67V67H320.615V60.7773ZM327.242 60.7773H328.297V65.5234L331.221 60.7773H332.357V67H331.303V62.2832L328.379 67H327.242V60.7773ZM338.205 64.9961L339.295 65.1309C339.123 65.7676 338.805 66.2617 338.34 66.6133C337.875 66.9648 337.281 67.1406 336.559 67.1406C335.648 67.1406 334.926 66.8613 334.391 66.3027C333.859 65.7402 333.594 64.9531 333.594 63.9414C333.594 62.8945 333.863 62.082 334.402 61.5039C334.941 60.9258 335.641 60.6367 336.5 60.6367C337.332 60.6367 338.012 60.9199 338.539 61.4863C339.066 62.0527 339.33 62.8496 339.33 63.877C339.33 63.9395 339.328 64.0332 339.324 64.1582H334.684C334.723 64.8418 334.916 65.3652 335.264 65.7285C335.611 66.0918 336.045 66.2734 336.564 66.2734C336.951 66.2734 337.281 66.1719 337.555 65.9688C337.828 65.7656 338.045 65.4414 338.205 64.9961ZM334.742 63.291H338.217C338.17 62.7676 338.037 62.375 337.818 62.1133C337.482 61.707 337.047 61.5039 336.512 61.5039C336.027 61.5039 335.619 61.666 335.287 61.9902C334.959 62.3145 334.777 62.748 334.742 63.291ZM343.965 60.7773H345.02V65.5234L347.943 60.7773H349.08V67H348.025V62.2832L345.102 67H343.965V60.7773ZM352.045 64.1875V63.3613C352.49 63.3574 352.793 63.3398 352.953 63.3086C353.117 63.2773 353.271 63.1836 353.416 63.0273C353.561 62.8711 353.633 62.6758 353.633 62.4414C353.633 62.1562 353.537 61.9297 353.346 61.7617C353.158 61.5898 352.914 61.5039 352.613 61.5039C352.02 61.5039 351.604 61.8535 351.365 62.5527L350.363 62.3887C350.676 61.2207 351.43 60.6367 352.625 60.6367C353.289 60.6367 353.809 60.8184 354.184 61.1816C354.562 61.5449 354.752 61.9785 354.752 62.4824C354.752 62.9902 354.506 63.3945 354.014 63.6953C354.326 63.8633 354.561 64.0781 354.717 64.3398C354.873 64.5977 354.951 64.9043 354.951 65.2598C354.951 65.8184 354.748 66.2715 354.342 66.6191C353.936 66.9668 353.367 67.1406 352.637 67.1406C351.219 67.1406 350.396 66.5098 350.17 65.248L351.16 65.0371C351.25 65.4355 351.432 65.7441 351.705 65.9629C351.982 66.1816 352.299 66.291 352.654 66.291C353.01 66.291 353.305 66.1914 353.539 65.9922C353.777 65.7891 353.896 65.5312 353.896 65.2188C353.896 64.9766 353.822 64.7656 353.674 64.5859C353.525 64.4062 353.367 64.2949 353.199 64.252C353.031 64.2051 352.727 64.1816 352.285 64.1816C352.25 64.1816 352.17 64.1836 352.045 64.1875ZM355.643 63.8887C355.643 62.7363 355.963 61.8828 356.604 61.3281C357.139 60.8672 357.791 60.6367 358.561 60.6367C359.416 60.6367 360.115 60.918 360.658 61.4805C361.201 62.0391 361.473 62.8125 361.473 63.8008C361.473 64.6016 361.352 65.2324 361.109 65.6934C360.871 66.1504 360.521 66.5059 360.061 66.7598C359.604 67.0137 359.104 67.1406 358.561 67.1406C357.689 67.1406 356.984 66.8613 356.445 66.3027C355.91 65.7441 355.643 64.9395 355.643 63.8887ZM356.727 63.8887C356.727 64.6855 356.9 65.2832 357.248 65.6816C357.596 66.0762 358.033 66.2734 358.561 66.2734C359.084 66.2734 359.52 66.0742 359.867 65.6758C360.215 65.2773 360.389 64.6699 360.389 63.8535C360.389 63.084 360.213 62.502 359.861 62.1074C359.514 61.709 359.08 61.5098 358.561 61.5098C358.033 61.5098 357.596 61.707 357.248 62.1016C356.9 62.4961 356.727 63.0918 356.727 63.8887ZM367.273 58.2051L368.205 58.2168C368.162 58.6348 368.068 58.9258 367.924 59.0898C367.783 59.2539 367.6 59.3594 367.373 59.4062C367.15 59.4531 366.711 59.4766 366.055 59.4766C365.184 59.4766 364.59 59.5605 364.273 59.7285C363.957 59.8965 363.729 60.166 363.588 60.5371C363.451 60.9043 363.375 61.3789 363.359 61.9609C363.625 61.5664 363.936 61.2715 364.291 61.0762C364.646 60.877 365.047 60.7773 365.492 60.7773C366.309 60.7773 366.984 61.0586 367.52 61.6211C368.055 62.1797 368.322 62.9375 368.322 63.8945C368.322 64.6211 368.188 65.2168 367.918 65.6816C367.648 66.1465 367.328 66.5059 366.957 66.7598C366.59 67.0137 366.088 67.1406 365.451 67.1406C364.713 67.1406 364.139 66.9727 363.729 66.6367C363.318 66.2969 363.004 65.8633 362.785 65.3359C362.566 64.8086 362.457 63.8906 362.457 62.582C362.457 60.9375 362.734 59.8301 363.289 59.2598C363.848 58.6895 364.705 58.4043 365.861 58.4043C366.58 58.4043 366.988 58.3926 367.086 58.3691C367.184 58.3457 367.246 58.291 367.273 58.2051ZM367.221 63.8652C367.221 63.2168 367.066 62.6855 366.758 62.2715C366.453 61.8574 366.021 61.6504 365.463 61.6504C364.881 61.6504 364.432 61.8691 364.115 62.3066C363.799 62.7441 363.641 63.3281 363.641 64.0586C363.641 64.7812 363.814 65.334 364.162 65.7168C364.514 66.0996 364.945 66.291 365.457 66.291C365.98 66.291 366.404 66.0703 366.729 65.6289C367.057 65.1836 367.221 64.5957 367.221 63.8652ZM369.594 69.3848V60.7773H370.555V61.5859C370.781 61.2695 371.037 61.0332 371.322 60.877C371.607 60.7168 371.953 60.6367 372.359 60.6367C372.891 60.6367 373.359 60.7734 373.766 61.0469C374.172 61.3203 374.479 61.707 374.686 62.207C374.893 62.7031 374.996 63.248 374.996 63.8418C374.996 64.4785 374.881 65.0527 374.65 65.5645C374.424 66.0723 374.092 66.4629 373.654 66.7363C373.221 67.0059 372.764 67.1406 372.283 67.1406C371.932 67.1406 371.615 67.0664 371.334 66.918C371.057 66.7695 370.828 66.582 370.648 66.3555V69.3848H369.594ZM370.549 63.9238C370.549 64.7246 370.711 65.3164 371.035 65.6992C371.359 66.082 371.752 66.2734 372.213 66.2734C372.682 66.2734 373.082 66.0762 373.414 65.6816C373.75 65.2832 373.918 64.668 373.918 63.8359C373.918 63.043 373.754 62.4492 373.426 62.0547C373.102 61.6602 372.713 61.4629 372.26 61.4629C371.811 61.4629 371.412 61.6738 371.064 62.0957C370.721 62.5137 370.549 63.123 370.549 63.9238ZM380.334 66.2324C379.943 66.5645 379.566 66.7988 379.203 66.9355C378.844 67.0723 378.457 67.1406 378.043 67.1406C377.359 67.1406 376.834 66.9746 376.467 66.6426C376.1 66.3066 375.916 65.8789 375.916 65.3594C375.916 65.0547 375.984 64.7773 376.121 64.5273C376.262 64.2734 376.443 64.0703 376.666 63.918C376.893 63.7656 377.146 63.6504 377.428 63.5723C377.635 63.5176 377.947 63.4648 378.365 63.4141C379.217 63.3125 379.844 63.1914 380.246 63.0508C380.25 62.9062 380.252 62.8145 380.252 62.7754C380.252 62.3457 380.152 62.043 379.953 61.8672C379.684 61.6289 379.283 61.5098 378.752 61.5098C378.256 61.5098 377.889 61.5977 377.65 61.7734C377.416 61.9453 377.242 62.252 377.129 62.6934L376.098 62.5527C376.191 62.1113 376.346 61.7559 376.561 61.4863C376.775 61.2129 377.086 61.0039 377.492 60.8594C377.898 60.7109 378.369 60.6367 378.904 60.6367C379.436 60.6367 379.867 60.6992 380.199 60.8242C380.531 60.9492 380.775 61.1074 380.932 61.2988C381.088 61.4863 381.197 61.7246 381.26 62.0137C381.295 62.1934 381.312 62.5176 381.312 62.9863V64.3926C381.312 65.373 381.334 65.9941 381.377 66.2559C381.424 66.5137 381.514 66.7617 381.646 67H380.545C380.436 66.7812 380.365 66.5254 380.334 66.2324ZM380.246 63.877C379.863 64.0332 379.289 64.166 378.523 64.2754C378.09 64.3379 377.783 64.4082 377.604 64.4863C377.424 64.5645 377.285 64.6797 377.188 64.832C377.09 64.9805 377.041 65.1465 377.041 65.3301C377.041 65.6113 377.146 65.8457 377.357 66.0332C377.572 66.2207 377.885 66.3145 378.295 66.3145C378.701 66.3145 379.062 66.2266 379.379 66.0508C379.695 65.8711 379.928 65.627 380.076 65.3184C380.189 65.0801 380.246 64.7285 380.246 64.2637V63.877ZM386.715 60.7773V63.4668C387.051 63.4668 387.287 63.4023 387.424 63.2734C387.561 63.1445 387.76 62.7695 388.021 62.1484C388.268 61.5586 388.488 61.1816 388.684 61.0176C388.875 60.8574 389.18 60.7773 389.598 60.7773H389.984V61.6504L389.697 61.6445C389.416 61.6445 389.236 61.6855 389.158 61.7676C389.076 61.8535 388.951 62.1094 388.783 62.5352C388.627 62.9414 388.482 63.2227 388.35 63.3789C388.217 63.5352 388.01 63.6777 387.729 63.8066C388.186 63.9277 388.631 64.3496 389.064 65.0723L390.225 67H389.064L387.934 65.0723C387.703 64.6816 387.502 64.4258 387.33 64.3047C387.158 64.1836 386.953 64.123 386.715 64.123V67H385.637V64.123C385.402 64.123 385.199 64.1836 385.027 64.3047C384.855 64.4219 384.654 64.6777 384.424 65.0723L383.293 67H382.133L383.287 65.0723C383.725 64.3496 384.172 63.9277 384.629 63.8066C384.316 63.6621 384.098 63.5059 383.973 63.3379C383.848 63.166 383.66 62.7598 383.41 62.1191C383.324 61.9043 383.232 61.7715 383.135 61.7207C383.033 61.6699 382.883 61.6445 382.684 61.6445C382.633 61.6445 382.529 61.6465 382.373 61.6504V60.7773H382.52C382.926 60.7773 383.211 60.8027 383.375 60.8535C383.543 60.9004 383.691 61.0039 383.82 61.1641C383.953 61.3203 384.125 61.6484 384.336 62.1484C384.594 62.7617 384.789 63.1348 384.922 63.2676C385.059 63.4004 385.297 63.4668 385.637 63.4668V60.7773H386.715ZM395.24 64.9961L396.33 65.1309C396.158 65.7676 395.84 66.2617 395.375 66.6133C394.91 66.9648 394.316 67.1406 393.594 67.1406C392.684 67.1406 391.961 66.8613 391.426 66.3027C390.895 65.7402 390.629 64.9531 390.629 63.9414C390.629 62.8945 390.898 62.082 391.438 61.5039C391.977 60.9258 392.676 60.6367 393.535 60.6367C394.367 60.6367 395.047 60.9199 395.574 61.4863C396.102 62.0527 396.365 62.8496 396.365 63.877C396.365 63.9395 396.363 64.0332 396.359 64.1582H391.719C391.758 64.8418 391.951 65.3652 392.299 65.7285C392.646 66.0918 393.08 66.2734 393.6 66.2734C393.986 66.2734 394.316 66.1719 394.59 65.9688C394.863 65.7656 395.08 65.4414 395.24 64.9961ZM391.777 63.291H395.252C395.205 62.7676 395.072 62.375 394.854 62.1133C394.518 61.707 394.082 61.5039 393.547 61.5039C393.062 61.5039 392.654 61.666 392.322 61.9902C391.994 62.3145 391.812 62.748 391.777 63.291ZM397.666 60.7773H398.721V63.3672H401.645V60.7773H402.699V67H401.645V64.2402H398.721V67H397.666V60.7773ZM404.293 60.7773H405.348V65.5234L408.271 60.7773H409.408V67H408.354V62.2832L405.43 67H404.293V60.7773ZM415.895 60.7773V67H414.846V64.5742H414.236C413.865 64.5742 413.588 64.623 413.404 64.7207C413.225 64.8145 412.961 65.1211 412.613 65.6406L411.693 67H410.387L411.523 65.3242C411.871 64.8125 412.217 64.5234 412.561 64.457C411.959 64.375 411.512 64.1582 411.219 63.8066C410.93 63.4551 410.785 63.0508 410.785 62.5938C410.785 62.0547 410.975 61.6172 411.354 61.2812C411.736 60.9453 412.289 60.7773 413.012 60.7773H415.895ZM414.846 61.6504H413.346C412.717 61.6504 412.311 61.748 412.127 61.9434C411.947 62.1387 411.857 62.3672 411.857 62.6289C411.857 63 411.99 63.2734 412.256 63.4492C412.525 63.6211 413 63.707 413.68 63.707H414.846V61.6504ZM417.793 61.9785V60.7773H418.994V61.9785H417.793ZM417.793 67V65.7988H418.994V67H417.793ZM427.859 67H426.805V60.2793C426.551 60.5215 426.217 60.7637 425.803 61.0059C425.393 61.248 425.023 61.4297 424.695 61.5508V60.5312C425.285 60.2539 425.801 59.918 426.242 59.5234C426.684 59.1289 426.996 58.7461 427.18 58.375H427.859V67ZM436.109 65.9863V67H430.432C430.424 66.7461 430.465 66.502 430.555 66.2676C430.699 65.8809 430.93 65.5 431.246 65.125C431.566 64.75 432.027 64.3164 432.629 63.8242C433.562 63.0586 434.193 62.4531 434.521 62.0078C434.85 61.5586 435.014 61.1348 435.014 60.7363C435.014 60.3184 434.863 59.9668 434.562 59.6816C434.266 59.3926 433.877 59.248 433.396 59.248C432.889 59.248 432.482 59.4004 432.178 59.7051C431.873 60.0098 431.719 60.4316 431.715 60.9707L430.631 60.8594C430.705 60.0508 430.984 59.4355 431.469 59.0137C431.953 58.5879 432.604 58.375 433.42 58.375C434.244 58.375 434.896 58.6035 435.377 59.0605C435.857 59.5176 436.098 60.084 436.098 60.7598C436.098 61.1035 436.027 61.4414 435.887 61.7734C435.746 62.1055 435.512 62.4551 435.184 62.8223C434.859 63.1895 434.318 63.6934 433.561 64.334C432.928 64.8652 432.521 65.2266 432.342 65.418C432.162 65.6055 432.014 65.7949 431.896 65.9863H436.109ZM437.246 62.7637C437.246 61.748 437.35 60.9316 437.557 60.3145C437.768 59.6934 438.078 59.2148 438.488 58.8789C438.902 58.543 439.422 58.375 440.047 58.375C440.508 58.375 440.912 58.4688 441.26 58.6562C441.607 58.8398 441.895 59.1074 442.121 59.459C442.348 59.8066 442.525 60.2324 442.654 60.7363C442.783 61.2363 442.848 61.9121 442.848 62.7637C442.848 63.7715 442.744 64.5859 442.537 65.207C442.33 65.8242 442.02 66.3027 441.605 66.6426C441.195 66.9785 440.676 67.1465 440.047 67.1465C439.219 67.1465 438.568 66.8496 438.096 66.2559C437.529 65.541 437.246 64.377 437.246 62.7637ZM438.33 62.7637C438.33 64.1738 438.494 65.1133 438.822 65.582C439.154 66.0469 439.562 66.2793 440.047 66.2793C440.531 66.2793 440.938 66.0449 441.266 65.5762C441.598 65.1074 441.764 64.1699 441.764 62.7637C441.764 61.3496 441.598 60.4102 441.266 59.9453C440.938 59.4805 440.527 59.248 440.035 59.248C439.551 59.248 439.164 59.4531 438.875 59.8633C438.512 60.3867 438.33 61.3535 438.33 62.7637ZM449.398 60.5137L448.35 60.5957C448.256 60.1816 448.123 59.8809 447.951 59.6934C447.666 59.3926 447.314 59.2422 446.896 59.2422C446.561 59.2422 446.266 59.3359 446.012 59.5234C445.68 59.7656 445.418 60.1191 445.227 60.584C445.035 61.0488 444.936 61.7109 444.928 62.5703C445.182 62.1836 445.492 61.8965 445.859 61.709C446.227 61.5215 446.611 61.4277 447.014 61.4277C447.717 61.4277 448.314 61.6875 448.807 62.207C449.303 62.7227 449.551 63.3906 449.551 64.2109C449.551 64.75 449.434 65.252 449.199 65.7168C448.969 66.1777 448.65 66.5312 448.244 66.7773C447.838 67.0234 447.377 67.1465 446.861 67.1465C445.982 67.1465 445.266 66.8242 444.711 66.1797C444.156 65.5312 443.879 64.4648 443.879 62.9805C443.879 61.3203 444.186 60.1133 444.799 59.3594C445.334 58.7031 446.055 58.375 446.961 58.375C447.637 58.375 448.189 58.5645 448.619 58.9434C449.053 59.3223 449.312 59.8457 449.398 60.5137ZM445.092 64.2168C445.092 64.5801 445.168 64.9277 445.32 65.2598C445.477 65.5918 445.693 65.8457 445.971 66.0215C446.248 66.1934 446.539 66.2793 446.844 66.2793C447.289 66.2793 447.672 66.0996 447.992 65.7402C448.312 65.3809 448.473 64.8926 448.473 64.2754C448.473 63.6816 448.314 63.2148 447.998 62.875C447.682 62.5312 447.283 62.3594 446.803 62.3594C446.326 62.3594 445.922 62.5312 445.59 62.875C445.258 63.2148 445.092 63.6621 445.092 64.2168ZM453.535 67L455.809 63.7656L453.705 60.7773H455.023L455.979 62.2363C456.158 62.5137 456.303 62.7461 456.412 62.9336C456.584 62.6758 456.742 62.4473 456.887 62.248L457.936 60.7773H459.195L457.045 63.707L459.359 67H458.064L456.787 65.0664L456.447 64.5449L454.812 67H453.535ZM467.258 67H466.203V60.2793C465.949 60.5215 465.615 60.7637 465.201 61.0059C464.791 61.248 464.422 61.4297 464.094 61.5508V60.5312C464.684 60.2539 465.199 59.918 465.641 59.5234C466.082 59.1289 466.395 58.7461 466.578 58.375H467.258V67ZM469.965 62.7637C469.965 61.748 470.068 60.9316 470.275 60.3145C470.486 59.6934 470.797 59.2148 471.207 58.8789C471.621 58.543 472.141 58.375 472.766 58.375C473.227 58.375 473.631 58.4688 473.979 58.6562C474.326 58.8398 474.613 59.1074 474.84 59.459C475.066 59.8066 475.244 60.2324 475.373 60.7363C475.502 61.2363 475.566 61.9121 475.566 62.7637C475.566 63.7715 475.463 64.5859 475.256 65.207C475.049 65.8242 474.738 66.3027 474.324 66.6426C473.914 66.9785 473.395 67.1465 472.766 67.1465C471.938 67.1465 471.287 66.8496 470.814 66.2559C470.248 65.541 469.965 64.377 469.965 62.7637ZM471.049 62.7637C471.049 64.1738 471.213 65.1133 471.541 65.582C471.873 66.0469 472.281 66.2793 472.766 66.2793C473.25 66.2793 473.656 66.0449 473.984 65.5762C474.316 65.1074 474.482 64.1699 474.482 62.7637C474.482 61.3496 474.316 60.4102 473.984 59.9453C473.656 59.4805 473.246 59.248 472.754 59.248C472.27 59.248 471.883 59.4531 471.594 59.8633C471.23 60.3867 471.049 61.3535 471.049 62.7637ZM476.645 62.7637C476.645 61.748 476.748 60.9316 476.955 60.3145C477.166 59.6934 477.477 59.2148 477.887 58.8789C478.301 58.543 478.82 58.375 479.445 58.375C479.906 58.375 480.311 58.4688 480.658 58.6562C481.006 58.8398 481.293 59.1074 481.52 59.459C481.746 59.8066 481.924 60.2324 482.053 60.7363C482.182 61.2363 482.246 61.9121 482.246 62.7637C482.246 63.7715 482.143 64.5859 481.936 65.207C481.729 65.8242 481.418 66.3027 481.004 66.6426C480.594 66.9785 480.074 67.1465 479.445 67.1465C478.617 67.1465 477.967 66.8496 477.494 66.2559C476.928 65.541 476.645 64.377 476.645 62.7637ZM477.729 62.7637C477.729 64.1738 477.893 65.1133 478.221 65.582C478.553 66.0469 478.961 66.2793 479.445 66.2793C479.93 66.2793 480.336 66.0449 480.664 65.5762C480.996 65.1074 481.162 64.1699 481.162 62.7637C481.162 61.3496 480.996 60.4102 480.664 59.9453C480.336 59.4805 479.926 59.248 479.434 59.248C478.949 59.248 478.562 59.4531 478.273 59.8633C477.91 60.3867 477.729 61.3535 477.729 62.7637ZM483.617 69.3848V60.7773H484.578V61.5859C484.805 61.2695 485.061 61.0332 485.346 60.877C485.631 60.7168 485.977 60.6367 486.383 60.6367C486.914 60.6367 487.383 60.7734 487.789 61.0469C488.195 61.3203 488.502 61.707 488.709 62.207C488.916 62.7031 489.02 63.248 489.02 63.8418C489.02 64.4785 488.904 65.0527 488.674 65.5645C488.447 66.0723 488.115 66.4629 487.678 66.7363C487.244 67.0059 486.787 67.1406 486.307 67.1406C485.955 67.1406 485.639 67.0664 485.357 66.918C485.08 66.7695 484.852 66.582 484.672 66.3555V69.3848H483.617ZM484.572 63.9238C484.572 64.7246 484.734 65.3164 485.059 65.6992C485.383 66.082 485.775 66.2734 486.236 66.2734C486.705 66.2734 487.105 66.0762 487.438 65.6816C487.773 65.2832 487.941 64.668 487.941 63.8359C487.941 63.043 487.777 62.4492 487.449 62.0547C487.125 61.6602 486.736 61.4629 486.283 61.4629C485.834 61.4629 485.436 61.6738 485.088 62.0957C484.744 62.5137 484.572 63.123 484.572 63.9238ZM489.594 67L491.867 63.7656L489.764 60.7773H491.082L492.037 62.2363C492.217 62.5137 492.361 62.7461 492.471 62.9336C492.643 62.6758 492.801 62.4473 492.945 62.248L493.994 60.7773H495.254L493.104 63.707L495.418 67H494.123L492.846 65.0664L492.506 64.5449L490.871 67H489.594ZM280.191 81V72.4102H281.902L283.936 78.4922C284.123 79.0586 284.26 79.4824 284.346 79.7637C284.443 79.4512 284.596 78.9922 284.803 78.3867L286.859 72.4102H288.389V81H287.293V73.8105L284.797 81H283.771L281.287 73.6875V81H280.191ZM294.289 80.2324C293.898 80.5645 293.521 80.7988 293.158 80.9355C292.799 81.0723 292.412 81.1406 291.998 81.1406C291.314 81.1406 290.789 80.9746 290.422 80.6426C290.055 80.3066 289.871 79.8789 289.871 79.3594C289.871 79.0547 289.939 78.7773 290.076 78.5273C290.217 78.2734 290.398 78.0703 290.621 77.918C290.848 77.7656 291.102 77.6504 291.383 77.5723C291.59 77.5176 291.902 77.4648 292.32 77.4141C293.172 77.3125 293.799 77.1914 294.201 77.0508C294.205 76.9062 294.207 76.8145 294.207 76.7754C294.207 76.3457 294.107 76.043 293.908 75.8672C293.639 75.6289 293.238 75.5098 292.707 75.5098C292.211 75.5098 291.844 75.5977 291.605 75.7734C291.371 75.9453 291.197 76.252 291.084 76.6934L290.053 76.5527C290.146 76.1113 290.301 75.7559 290.516 75.4863C290.73 75.2129 291.041 75.0039 291.447 74.8594C291.854 74.7109 292.324 74.6367 292.859 74.6367C293.391 74.6367 293.822 74.6992 294.154 74.8242C294.486 74.9492 294.73 75.1074 294.887 75.2988C295.043 75.4863 295.152 75.7246 295.215 76.0137C295.25 76.1934 295.268 76.5176 295.268 76.9863V78.3926C295.268 79.373 295.289 79.9941 295.332 80.2559C295.379 80.5137 295.469 80.7617 295.602 81H294.5C294.391 80.7812 294.32 80.5254 294.289 80.2324ZM294.201 77.877C293.818 78.0332 293.244 78.166 292.479 78.2754C292.045 78.3379 291.738 78.4082 291.559 78.4863C291.379 78.5645 291.24 78.6797 291.143 78.832C291.045 78.9805 290.996 79.1465 290.996 79.3301C290.996 79.6113 291.102 79.8457 291.312 80.0332C291.527 80.2207 291.84 80.3145 292.25 80.3145C292.656 80.3145 293.018 80.2266 293.334 80.0508C293.65 79.8711 293.883 79.627 294.031 79.3184C294.145 79.0801 294.201 78.7285 294.201 78.2637V77.877ZM296.902 74.7773H297.957V77.4668C298.293 77.4668 298.527 77.4023 298.66 77.2734C298.797 77.1445 298.996 76.7695 299.258 76.1484C299.465 75.6562 299.633 75.332 299.762 75.1758C299.891 75.0195 300.039 74.9141 300.207 74.8594C300.375 74.8047 300.645 74.7773 301.016 74.7773H301.227V75.6504L300.934 75.6445C300.656 75.6445 300.479 75.6855 300.4 75.7676C300.318 75.8535 300.193 76.1094 300.025 76.5352C299.865 76.9414 299.719 77.2227 299.586 77.3789C299.453 77.5352 299.248 77.6777 298.971 77.8066C299.424 77.9277 299.869 78.3496 300.307 79.0723L301.461 81H300.301L299.176 79.0723C298.945 78.6855 298.744 78.4316 298.572 78.3105C298.4 78.1855 298.195 78.123 297.957 78.123V81H296.902V74.7773ZM306.359 78.7207L307.396 78.8555C307.283 79.5703 306.992 80.1309 306.523 80.5371C306.059 80.9395 305.486 81.1406 304.807 81.1406C303.955 81.1406 303.27 80.8633 302.75 80.3086C302.234 79.75 301.977 78.9512 301.977 77.9121C301.977 77.2402 302.088 76.6523 302.311 76.1484C302.533 75.6445 302.871 75.2676 303.324 75.0176C303.781 74.7637 304.277 74.6367 304.812 74.6367C305.488 74.6367 306.041 74.8086 306.471 75.1523C306.9 75.4922 307.176 75.9766 307.297 76.6055L306.271 76.7637C306.174 76.3457 306 76.0312 305.75 75.8203C305.504 75.6094 305.205 75.5039 304.854 75.5039C304.322 75.5039 303.891 75.6953 303.559 76.0781C303.227 76.457 303.061 77.0586 303.061 77.8828C303.061 78.7188 303.221 79.3262 303.541 79.7051C303.861 80.084 304.279 80.2734 304.795 80.2734C305.209 80.2734 305.555 80.1465 305.832 79.8926C306.109 79.6387 306.285 79.248 306.359 78.7207ZM308.299 74.7773H309.354V79.5234L312.277 74.7773H313.414V81H312.359V76.2832L309.436 81H308.299V74.7773ZM315.031 74.7773H316.672L318.307 79.7578L320.123 74.7773H321.641V81H320.586V75.9902L318.746 81H317.803L316.062 75.75V81H315.031V74.7773ZM327.312 80.2324C326.922 80.5645 326.545 80.7988 326.182 80.9355C325.822 81.0723 325.436 81.1406 325.021 81.1406C324.338 81.1406 323.812 80.9746 323.445 80.6426C323.078 80.3066 322.895 79.8789 322.895 79.3594C322.895 79.0547 322.963 78.7773 323.1 78.5273C323.24 78.2734 323.422 78.0703 323.645 77.918C323.871 77.7656 324.125 77.6504 324.406 77.5723C324.613 77.5176 324.926 77.4648 325.344 77.4141C326.195 77.3125 326.822 77.1914 327.225 77.0508C327.229 76.9062 327.23 76.8145 327.23 76.7754C327.23 76.3457 327.131 76.043 326.932 75.8672C326.662 75.6289 326.262 75.5098 325.73 75.5098C325.234 75.5098 324.867 75.5977 324.629 75.7734C324.395 75.9453 324.221 76.252 324.107 76.6934L323.076 76.5527C323.17 76.1113 323.324 75.7559 323.539 75.4863C323.754 75.2129 324.064 75.0039 324.471 74.8594C324.877 74.7109 325.348 74.6367 325.883 74.6367C326.414 74.6367 326.846 74.6992 327.178 74.8242C327.51 74.9492 327.754 75.1074 327.91 75.2988C328.066 75.4863 328.176 75.7246 328.238 76.0137C328.273 76.1934 328.291 76.5176 328.291 76.9863V78.3926C328.291 79.373 328.312 79.9941 328.355 80.2559C328.402 80.5137 328.492 80.7617 328.625 81H327.523C327.414 80.7812 327.344 80.5254 327.312 80.2324ZM327.225 77.877C326.842 78.0332 326.268 78.166 325.502 78.2754C325.068 78.3379 324.762 78.4082 324.582 78.4863C324.402 78.5645 324.264 78.6797 324.166 78.832C324.068 78.9805 324.02 79.1465 324.02 79.3301C324.02 79.6113 324.125 79.8457 324.336 80.0332C324.551 80.2207 324.863 80.3145 325.273 80.3145C325.68 80.3145 326.041 80.2266 326.357 80.0508C326.674 79.8711 326.906 79.627 327.055 79.3184C327.168 79.0801 327.225 78.7285 327.225 78.2637V77.877ZM330.447 74.7773H335.346V81H334.297V75.6504H331.502V78.75C331.502 79.4727 331.479 79.9492 331.432 80.1797C331.385 80.4102 331.256 80.6113 331.045 80.7832C330.834 80.9551 330.529 81.041 330.131 81.041C329.885 81.041 329.602 81.0254 329.281 80.9941V80.1152H329.744C329.963 80.1152 330.119 80.0938 330.213 80.0508C330.307 80.0039 330.369 79.9316 330.4 79.834C330.432 79.7363 330.447 79.418 330.447 78.8789V74.7773ZM336.922 74.7773H337.977V77.209H339.312C340.184 77.209 340.854 77.3789 341.322 77.7188C341.795 78.0547 342.031 78.5195 342.031 79.1133C342.031 79.6328 341.834 80.0781 341.439 80.4492C341.049 80.8164 340.422 81 339.559 81H336.922V74.7773ZM337.977 80.1328H339.084C339.752 80.1328 340.229 80.0508 340.514 79.8867C340.799 79.7227 340.941 79.4668 340.941 79.1191C340.941 78.8496 340.836 78.6094 340.625 78.3984C340.414 78.1875 339.947 78.082 339.225 78.082H337.977V80.1328ZM349.121 74.7773H350.176V81H349.121V74.7773ZM343.221 74.7773H344.275V77.209H345.611C346.482 77.209 347.152 77.3789 347.621 77.7188C348.094 78.0547 348.33 78.5195 348.33 79.1133C348.33 79.6328 348.133 80.0781 347.738 80.4492C347.348 80.8164 346.721 81 345.857 81H343.221V74.7773ZM344.275 80.1328H345.383C346.051 80.1328 346.527 80.0508 346.812 79.8867C347.098 79.7227 347.24 79.4668 347.24 79.1191C347.24 78.8496 347.135 78.6094 346.924 78.3984C346.713 78.1875 346.246 78.082 345.523 78.082H344.275V80.1328ZM351.828 74.7773H352.883V77.3672H355.807V74.7773H356.861V81H355.807V78.2402H352.883V81H351.828V74.7773ZM358.455 74.7773H359.51V79.5234L362.434 74.7773H363.57V81H362.516V76.2832L359.592 81H358.455V74.7773ZM362.117 72.4219H362.838C362.779 72.9102 362.6 73.2852 362.299 73.5469C362.002 73.8086 361.605 73.9395 361.109 73.9395C360.609 73.9395 360.209 73.8105 359.908 73.5527C359.611 73.291 359.434 72.9141 359.375 72.4219H360.096C360.15 72.6875 360.258 72.8867 360.418 73.0195C360.582 73.1484 360.801 73.2129 361.074 73.2129C361.391 73.2129 361.629 73.1504 361.789 73.0254C361.953 72.8965 362.062 72.6953 362.117 72.4219ZM368.498 83.3848V74.7773H369.459V75.5859C369.686 75.2695 369.941 75.0332 370.227 74.877C370.512 74.7168 370.857 74.6367 371.264 74.6367C371.795 74.6367 372.264 74.7734 372.67 75.0469C373.076 75.3203 373.383 75.707 373.59 76.207C373.797 76.7031 373.9 77.248 373.9 77.8418C373.9 78.4785 373.785 79.0527 373.555 79.5645C373.328 80.0723 372.996 80.4629 372.559 80.7363C372.125 81.0059 371.668 81.1406 371.188 81.1406C370.836 81.1406 370.52 81.0664 370.238 80.918C369.961 80.7695 369.732 80.582 369.553 80.3555V83.3848H368.498ZM369.453 77.9238C369.453 78.7246 369.615 79.3164 369.939 79.6992C370.264 80.082 370.656 80.2734 371.117 80.2734C371.586 80.2734 371.986 80.0762 372.318 79.6816C372.654 79.2832 372.822 78.668 372.822 77.8359C372.822 77.043 372.658 76.4492 372.33 76.0547C372.006 75.6602 371.617 75.4629 371.164 75.4629C370.715 75.4629 370.316 75.6738 369.969 76.0957C369.625 76.5137 369.453 77.123 369.453 77.9238ZM379.238 80.2324C378.848 80.5645 378.471 80.7988 378.107 80.9355C377.748 81.0723 377.361 81.1406 376.947 81.1406C376.264 81.1406 375.738 80.9746 375.371 80.6426C375.004 80.3066 374.82 79.8789 374.82 79.3594C374.82 79.0547 374.889 78.7773 375.025 78.5273C375.166 78.2734 375.348 78.0703 375.57 77.918C375.797 77.7656 376.051 77.6504 376.332 77.5723C376.539 77.5176 376.852 77.4648 377.27 77.4141C378.121 77.3125 378.748 77.1914 379.15 77.0508C379.154 76.9062 379.156 76.8145 379.156 76.7754C379.156 76.3457 379.057 76.043 378.857 75.8672C378.588 75.6289 378.188 75.5098 377.656 75.5098C377.16 75.5098 376.793 75.5977 376.555 75.7734C376.32 75.9453 376.146 76.252 376.033 76.6934L375.002 76.5527C375.096 76.1113 375.25 75.7559 375.465 75.4863C375.68 75.2129 375.99 75.0039 376.396 74.8594C376.803 74.7109 377.273 74.6367 377.809 74.6367C378.34 74.6367 378.771 74.6992 379.104 74.8242C379.436 74.9492 379.68 75.1074 379.836 75.2988C379.992 75.4863 380.102 75.7246 380.164 76.0137C380.199 76.1934 380.217 76.5176 380.217 76.9863V78.3926C380.217 79.373 380.238 79.9941 380.281 80.2559C380.328 80.5137 380.418 80.7617 380.551 81H379.449C379.34 80.7812 379.27 80.5254 379.238 80.2324ZM379.15 77.877C378.768 78.0332 378.193 78.166 377.428 78.2754C376.994 78.3379 376.688 78.4082 376.508 78.4863C376.328 78.5645 376.189 78.6797 376.092 78.832C375.994 78.9805 375.945 79.1465 375.945 79.3301C375.945 79.6113 376.051 79.8457 376.262 80.0332C376.477 80.2207 376.789 80.3145 377.199 80.3145C377.605 80.3145 377.967 80.2266 378.283 80.0508C378.6 79.8711 378.832 79.627 378.98 79.3184C379.094 79.0801 379.15 78.7285 379.15 78.2637V77.877ZM383.094 78.1875V77.3613C383.539 77.3574 383.842 77.3398 384.002 77.3086C384.166 77.2773 384.32 77.1836 384.465 77.0273C384.609 76.8711 384.682 76.6758 384.682 76.4414C384.682 76.1562 384.586 75.9297 384.395 75.7617C384.207 75.5898 383.963 75.5039 383.662 75.5039C383.068 75.5039 382.652 75.8535 382.414 76.5527L381.412 76.3887C381.725 75.2207 382.479 74.6367 383.674 74.6367C384.338 74.6367 384.857 74.8184 385.232 75.1816C385.611 75.5449 385.801 75.9785 385.801 76.4824C385.801 76.9902 385.555 77.3945 385.062 77.6953C385.375 77.8633 385.609 78.0781 385.766 78.3398C385.922 78.5977 386 78.9043 386 79.2598C386 79.8184 385.797 80.2715 385.391 80.6191C384.984 80.9668 384.416 81.1406 383.686 81.1406C382.268 81.1406 381.445 80.5098 381.219 79.248L382.209 79.0371C382.299 79.4355 382.48 79.7441 382.754 79.9629C383.031 80.1816 383.348 80.291 383.703 80.291C384.059 80.291 384.354 80.1914 384.588 79.9922C384.826 79.7891 384.945 79.5312 384.945 79.2188C384.945 78.9766 384.871 78.7656 384.723 78.5859C384.574 78.4062 384.416 78.2949 384.248 78.252C384.08 78.2051 383.775 78.1816 383.334 78.1816C383.299 78.1816 383.219 78.1836 383.094 78.1875ZM387.254 74.7773H388.895L390.529 79.7578L392.346 74.7773H393.863V81H392.809V75.9902L390.969 81H390.025L388.285 75.75V81H387.254V74.7773ZM399.734 78.9961L400.824 79.1309C400.652 79.7676 400.334 80.2617 399.869 80.6133C399.404 80.9648 398.811 81.1406 398.088 81.1406C397.178 81.1406 396.455 80.8613 395.92 80.3027C395.389 79.7402 395.123 78.9531 395.123 77.9414C395.123 76.8945 395.393 76.082 395.932 75.5039C396.471 74.9258 397.17 74.6367 398.029 74.6367C398.861 74.6367 399.541 74.9199 400.068 75.4863C400.596 76.0527 400.859 76.8496 400.859 77.877C400.859 77.9395 400.857 78.0332 400.854 78.1582H396.213C396.252 78.8418 396.445 79.3652 396.793 79.7285C397.141 80.0918 397.574 80.2734 398.094 80.2734C398.48 80.2734 398.811 80.1719 399.084 79.9688C399.357 79.7656 399.574 79.4414 399.734 78.9961ZM396.271 77.291H399.746C399.699 76.7676 399.566 76.375 399.348 76.1133C399.012 75.707 398.576 75.5039 398.041 75.5039C397.557 75.5039 397.148 75.666 396.816 75.9902C396.488 76.3145 396.307 76.748 396.271 77.291ZM402.154 83.3848V74.7773H403.115V75.5859C403.342 75.2695 403.598 75.0332 403.883 74.877C404.168 74.7168 404.514 74.6367 404.92 74.6367C405.451 74.6367 405.92 74.7734 406.326 75.0469C406.732 75.3203 407.039 75.707 407.246 76.207C407.453 76.7031 407.557 77.248 407.557 77.8418C407.557 78.4785 407.441 79.0527 407.211 79.5645C406.984 80.0723 406.652 80.4629 406.215 80.7363C405.781 81.0059 405.324 81.1406 404.844 81.1406C404.492 81.1406 404.176 81.0664 403.895 80.918C403.617 80.7695 403.389 80.582 403.209 80.3555V83.3848H402.154ZM403.109 77.9238C403.109 78.7246 403.271 79.3164 403.596 79.6992C403.92 80.082 404.312 80.2734 404.773 80.2734C405.242 80.2734 405.643 80.0762 405.975 79.6816C406.311 79.2832 406.479 78.668 406.479 77.8359C406.479 77.043 406.314 76.4492 405.986 76.0547C405.662 75.6602 405.273 75.4629 404.82 75.4629C404.371 75.4629 403.973 75.6738 403.625 76.0957C403.281 76.5137 403.109 77.123 403.109 77.9238ZM415.795 72.4102H416.85V75.3809C417.068 75.1309 417.309 74.9453 417.57 74.8242C417.832 74.6992 418.113 74.6367 418.414 74.6367C419.152 74.6367 419.736 74.9453 420.166 75.5625C420.6 76.1758 420.816 76.9492 420.816 77.8828C420.816 78.8555 420.584 79.6426 420.119 80.2441C419.654 80.8418 419.076 81.1406 418.385 81.1406C418.158 81.1406 417.928 81.1055 417.693 81.0352C417.459 80.9648 417.178 80.7734 416.85 80.4609V83.3848H415.795V80.4609C415.584 80.6875 415.35 80.8574 415.092 80.9707C414.838 81.084 414.562 81.1406 414.266 81.1406C413.613 81.1406 413.043 80.8555 412.555 80.2852C412.066 79.7109 411.822 78.8906 411.822 77.8242C411.822 76.9219 412.043 76.166 412.484 75.5566C412.926 74.9434 413.52 74.6367 414.266 74.6367C414.578 74.6367 414.861 74.6992 415.115 74.8242C415.369 74.9453 415.596 75.1309 415.795 75.3809V72.4102ZM416.844 77.9121C416.844 78.8496 416.973 79.4805 417.23 79.8047C417.488 80.125 417.811 80.2852 418.197 80.2852C418.627 80.2852 418.992 80.0879 419.293 79.6934C419.598 79.2949 419.75 78.6777 419.75 77.8418C419.75 77.0527 419.609 76.4648 419.328 76.0781C419.051 75.6914 418.693 75.498 418.256 75.498C417.787 75.498 417.434 75.6992 417.195 76.1016C416.961 76.5039 416.844 77.1074 416.844 77.9121ZM412.895 77.7949C412.895 78.6738 413.041 79.3066 413.334 79.6934C413.631 80.0801 413.998 80.2734 414.436 80.2734C414.893 80.2734 415.234 80.082 415.461 79.6992C415.688 79.3125 415.801 78.7344 415.801 77.9648C415.801 77.1445 415.682 76.5293 415.443 76.1191C415.205 75.709 414.846 75.5039 414.365 75.5039C413.932 75.5039 413.578 75.7051 413.305 76.1074C413.031 76.5059 412.895 77.0684 412.895 77.7949ZM426.113 80.2324C425.723 80.5645 425.346 80.7988 424.982 80.9355C424.623 81.0723 424.236 81.1406 423.822 81.1406C423.139 81.1406 422.613 80.9746 422.246 80.6426C421.879 80.3066 421.695 79.8789 421.695 79.3594C421.695 79.0547 421.764 78.7773 421.9 78.5273C422.041 78.2734 422.223 78.0703 422.445 77.918C422.672 77.7656 422.926 77.6504 423.207 77.5723C423.414 77.5176 423.727 77.4648 424.145 77.4141C424.996 77.3125 425.623 77.1914 426.025 77.0508C426.029 76.9062 426.031 76.8145 426.031 76.7754C426.031 76.3457 425.932 76.043 425.732 75.8672C425.463 75.6289 425.062 75.5098 424.531 75.5098C424.035 75.5098 423.668 75.5977 423.43 75.7734C423.195 75.9453 423.021 76.252 422.908 76.6934L421.877 76.5527C421.971 76.1113 422.125 75.7559 422.34 75.4863C422.555 75.2129 422.865 75.0039 423.271 74.8594C423.678 74.7109 424.148 74.6367 424.684 74.6367C425.215 74.6367 425.646 74.6992 425.979 74.8242C426.311 74.9492 426.555 75.1074 426.711 75.2988C426.867 75.4863 426.977 75.7246 427.039 76.0137C427.074 76.1934 427.092 76.5176 427.092 76.9863V78.3926C427.092 79.373 427.113 79.9941 427.156 80.2559C427.203 80.5137 427.293 80.7617 427.426 81H426.324C426.215 80.7812 426.145 80.5254 426.113 80.2324ZM426.025 77.877C425.643 78.0332 425.068 78.166 424.303 78.2754C423.869 78.3379 423.562 78.4082 423.383 78.4863C423.203 78.5645 423.064 78.6797 422.967 78.832C422.869 78.9805 422.82 79.1465 422.82 79.3301C422.82 79.6113 422.926 79.8457 423.137 80.0332C423.352 80.2207 423.664 80.3145 424.074 80.3145C424.48 80.3145 424.842 80.2266 425.158 80.0508C425.475 79.8711 425.707 79.627 425.855 79.3184C425.969 79.0801 426.025 78.7285 426.025 78.2637V77.877ZM428.732 74.7773H429.787V79.5234L432.711 74.7773H433.848V81H432.793V76.2832L429.869 81H428.732V74.7773ZM432.395 72.4219H433.115C433.057 72.9102 432.877 73.2852 432.576 73.5469C432.279 73.8086 431.883 73.9395 431.387 73.9395C430.887 73.9395 430.486 73.8105 430.186 73.5527C429.889 73.291 429.711 72.9141 429.652 72.4219H430.373C430.428 72.6875 430.535 72.8867 430.695 73.0195C430.859 73.1484 431.078 73.2129 431.352 73.2129C431.668 73.2129 431.906 73.1504 432.066 73.0254C432.23 72.8965 432.34 72.6953 432.395 72.4219ZM435.951 74.7773H440.85V81H439.801V75.6504H437.006V78.75C437.006 79.4727 436.982 79.9492 436.936 80.1797C436.889 80.4102 436.76 80.6113 436.549 80.7832C436.338 80.9551 436.033 81.041 435.635 81.041C435.389 81.041 435.105 81.0254 434.785 80.9941V80.1152H435.248C435.467 80.1152 435.623 80.0938 435.717 80.0508C435.811 80.0039 435.873 79.9316 435.904 79.834C435.936 79.7363 435.951 79.418 435.951 78.8789V74.7773ZM446.504 80.2324C446.113 80.5645 445.736 80.7988 445.373 80.9355C445.014 81.0723 444.627 81.1406 444.213 81.1406C443.529 81.1406 443.004 80.9746 442.637 80.6426C442.27 80.3066 442.086 79.8789 442.086 79.3594C442.086 79.0547 442.154 78.7773 442.291 78.5273C442.432 78.2734 442.613 78.0703 442.836 77.918C443.062 77.7656 443.316 77.6504 443.598 77.5723C443.805 77.5176 444.117 77.4648 444.535 77.4141C445.387 77.3125 446.014 77.1914 446.416 77.0508C446.42 76.9062 446.422 76.8145 446.422 76.7754C446.422 76.3457 446.322 76.043 446.123 75.8672C445.854 75.6289 445.453 75.5098 444.922 75.5098C444.426 75.5098 444.059 75.5977 443.82 75.7734C443.586 75.9453 443.412 76.252 443.299 76.6934L442.268 76.5527C442.361 76.1113 442.516 75.7559 442.73 75.4863C442.945 75.2129 443.256 75.0039 443.662 74.8594C444.068 74.7109 444.539 74.6367 445.074 74.6367C445.605 74.6367 446.037 74.6992 446.369 74.8242C446.701 74.9492 446.945 75.1074 447.102 75.2988C447.258 75.4863 447.367 75.7246 447.43 76.0137C447.465 76.1934 447.482 76.5176 447.482 76.9863V78.3926C447.482 79.373 447.504 79.9941 447.547 80.2559C447.594 80.5137 447.684 80.7617 447.816 81H446.715C446.605 80.7812 446.535 80.5254 446.504 80.2324ZM446.416 77.877C446.033 78.0332 445.459 78.166 444.693 78.2754C444.26 78.3379 443.953 78.4082 443.773 78.4863C443.594 78.5645 443.455 78.6797 443.357 78.832C443.26 78.9805 443.211 79.1465 443.211 79.3301C443.211 79.6113 443.316 79.8457 443.527 80.0332C443.742 80.2207 444.055 80.3145 444.465 80.3145C444.871 80.3145 445.232 80.2266 445.549 80.0508C445.865 79.8711 446.098 79.627 446.246 79.3184C446.359 79.0801 446.416 78.7285 446.416 78.2637V77.877ZM449.416 75.9785V74.7773H450.617V75.9785H449.416ZM449.416 81V79.7988H450.617V81H449.416ZM459.482 81H458.428V74.2793C458.174 74.5215 457.84 74.7637 457.426 75.0059C457.016 75.248 456.646 75.4297 456.318 75.5508V74.5312C456.908 74.2539 457.424 73.918 457.865 73.5234C458.307 73.1289 458.619 72.7461 458.803 72.375H459.482V81ZM462.189 76.7637C462.189 75.748 462.293 74.9316 462.5 74.3145C462.711 73.6934 463.021 73.2148 463.432 72.8789C463.846 72.543 464.365 72.375 464.99 72.375C465.451 72.375 465.855 72.4688 466.203 72.6562C466.551 72.8398 466.838 73.1074 467.064 73.459C467.291 73.8066 467.469 74.2324 467.598 74.7363C467.727 75.2363 467.791 75.9121 467.791 76.7637C467.791 77.7715 467.688 78.5859 467.48 79.207C467.273 79.8242 466.963 80.3027 466.549 80.6426C466.139 80.9785 465.619 81.1465 464.99 81.1465C464.162 81.1465 463.512 80.8496 463.039 80.2559C462.473 79.541 462.189 78.377 462.189 76.7637ZM463.273 76.7637C463.273 78.1738 463.438 79.1133 463.766 79.582C464.098 80.0469 464.506 80.2793 464.99 80.2793C465.475 80.2793 465.881 80.0449 466.209 79.5762C466.541 79.1074 466.707 78.1699 466.707 76.7637C466.707 75.3496 466.541 74.4102 466.209 73.9453C465.881 73.4805 465.471 73.248 464.979 73.248C464.494 73.248 464.107 73.4531 463.818 73.8633C463.455 74.3867 463.273 75.3535 463.273 76.7637ZM472.531 74.7773H474.172L475.807 79.7578L477.623 74.7773H479.141V81H478.086V75.9902L476.246 81H475.303L473.562 75.75V81H472.531V74.7773ZM485.17 72.2051L486.102 72.2168C486.059 72.6348 485.965 72.9258 485.82 73.0898C485.68 73.2539 485.496 73.3594 485.27 73.4062C485.047 73.4531 484.607 73.4766 483.951 73.4766C483.08 73.4766 482.486 73.5605 482.17 73.7285C481.854 73.8965 481.625 74.166 481.484 74.5371C481.348 74.9043 481.271 75.3789 481.256 75.9609C481.521 75.5664 481.832 75.2715 482.188 75.0762C482.543 74.877 482.943 74.7773 483.389 74.7773C484.205 74.7773 484.881 75.0586 485.416 75.6211C485.951 76.1797 486.219 76.9375 486.219 77.8945C486.219 78.6211 486.084 79.2168 485.814 79.6816C485.545 80.1465 485.225 80.5059 484.854 80.7598C484.486 81.0137 483.984 81.1406 483.348 81.1406C482.609 81.1406 482.035 80.9727 481.625 80.6367C481.215 80.2969 480.9 79.8633 480.682 79.3359C480.463 78.8086 480.354 77.8906 480.354 76.582C480.354 74.9375 480.631 73.8301 481.186 73.2598C481.744 72.6895 482.602 72.4043 483.758 72.4043C484.477 72.4043 484.885 72.3926 484.982 72.3691C485.08 72.3457 485.143 72.291 485.17 72.2051ZM485.117 77.8652C485.117 77.2168 484.963 76.6855 484.654 76.2715C484.35 75.8574 483.918 75.6504 483.359 75.6504C482.777 75.6504 482.328 75.8691 482.012 76.3066C481.695 76.7441 481.537 77.3281 481.537 78.0586C481.537 78.7812 481.711 79.334 482.059 79.7168C482.41 80.0996 482.842 80.291 483.354 80.291C483.877 80.291 484.301 80.0703 484.625 79.6289C484.953 79.1836 485.117 78.5957 485.117 77.8652Z" fill="#BBBBBC"/>
<path fill-rule="evenodd" clip-rule="evenodd" d="M383 20C383.552 20 384 20.4477 384 21V35C384 35.5523 383.552 36 383 36C382.448 36 382 35.5523 382 35V21C382 20.4477 382.448 20 383 20Z" fill="#BBBBBC"/>
<path fill-rule="evenodd" clip-rule="evenodd" d="M375 28C375 27.4477 375.448 27 376 27H390C390.552 27 391 27.4477 391 28C391 28.5523 390.552 29 390 29H376C375.448 29 375 28.5523 375 28Z" fill="#BBBBBC"/>
<rect x="0.5" y="0.5" width="765" height="99" rx="4.5" stroke="white"/>
</svg>
