<svg width="766" height="168" viewBox="0 0 766 168" fill="none" xmlns="http://www.w3.org/2000/svg">
<path fill-rule="evenodd" clip-rule="evenodd" d="M382 49.3335C382.737 49.3335 383.334 49.9304 383.334 50.6668V69.3335C383.334 70.0699 382.737 70.6668 382 70.6668C381.264 70.6668 380.667 70.0699 380.667 69.3335V50.6668C380.667 49.9304 381.264 49.3335 382 49.3335Z" fill="#BBBBBC"/>
<path fill-rule="evenodd" clip-rule="evenodd" d="M371.333 59.9998C371.333 59.2635 371.93 58.6665 372.666 58.6665H391.333C392.069 58.6665 392.666 59.2635 392.666 59.9998C392.666 60.7362 392.069 61.3332 391.333 61.3332H372.666C371.93 61.3332 371.333 60.7362 371.333 59.9998Z" fill="#BBBBBC"/>
<rect x="0.5" y="0.5" width="765" height="167" rx="4.5" stroke="white"/>
<path d="M262.823 106V95.9785H266.604C267.269 95.9785 267.777 96.0104 268.128 96.0742C268.62 96.1562 269.033 96.3135 269.365 96.5459C269.698 96.7738 269.965 97.0951 270.165 97.5098C270.37 97.9245 270.473 98.3802 270.473 98.877C270.473 99.7292 270.201 100.451 269.659 101.044C269.117 101.632 268.137 101.926 266.72 101.926H264.149V106H262.823ZM264.149 100.743H266.74C267.597 100.743 268.205 100.584 268.565 100.265C268.925 99.9456 269.105 99.4967 269.105 98.918C269.105 98.4987 268.998 98.141 268.784 97.8447C268.575 97.5439 268.297 97.3457 267.95 97.25C267.727 97.1908 267.314 97.1611 266.713 97.1611H264.149V100.743ZM276.276 105.104C275.821 105.492 275.381 105.765 274.957 105.925C274.538 106.084 274.087 106.164 273.604 106.164C272.806 106.164 272.193 105.97 271.765 105.583C271.336 105.191 271.122 104.692 271.122 104.086C271.122 103.73 271.202 103.407 271.361 103.115C271.525 102.819 271.737 102.582 271.997 102.404C272.261 102.227 272.558 102.092 272.886 102.001C273.127 101.937 273.492 101.876 273.979 101.816C274.973 101.698 275.704 101.557 276.174 101.393C276.178 101.224 276.181 101.117 276.181 101.071C276.181 100.57 276.064 100.217 275.832 100.012C275.518 99.7337 275.05 99.5947 274.431 99.5947C273.852 99.5947 273.424 99.6973 273.146 99.9023C272.872 100.103 272.669 100.461 272.537 100.976L271.334 100.812C271.443 100.297 271.623 99.8818 271.874 99.5674C272.125 99.2484 272.487 99.0046 272.961 98.8359C273.435 98.6628 273.984 98.5762 274.608 98.5762C275.228 98.5762 275.732 98.6491 276.119 98.7949C276.507 98.9408 276.791 99.1253 276.974 99.3486C277.156 99.5674 277.284 99.8454 277.356 100.183C277.397 100.392 277.418 100.771 277.418 101.317V102.958C277.418 104.102 277.443 104.826 277.493 105.132C277.548 105.433 277.653 105.722 277.808 106H276.522C276.395 105.745 276.313 105.446 276.276 105.104ZM276.174 102.356C275.727 102.539 275.057 102.694 274.164 102.821C273.658 102.894 273.3 102.976 273.091 103.067C272.881 103.159 272.719 103.293 272.605 103.471C272.492 103.644 272.435 103.838 272.435 104.052C272.435 104.38 272.558 104.653 272.804 104.872C273.054 105.091 273.419 105.2 273.897 105.2C274.371 105.2 274.793 105.098 275.162 104.893C275.531 104.683 275.802 104.398 275.976 104.038C276.108 103.76 276.174 103.35 276.174 102.808V102.356ZM280.774 102.719V101.755C281.294 101.75 281.647 101.73 281.834 101.693C282.025 101.657 282.205 101.548 282.374 101.365C282.543 101.183 282.627 100.955 282.627 100.682C282.627 100.349 282.515 100.085 282.292 99.8887C282.073 99.6882 281.788 99.5879 281.438 99.5879C280.745 99.5879 280.259 99.9958 279.981 100.812L278.812 100.62C279.177 99.2575 280.057 98.5762 281.451 98.5762C282.226 98.5762 282.832 98.7881 283.27 99.2119C283.712 99.6357 283.933 100.142 283.933 100.729C283.933 101.322 283.646 101.794 283.071 102.145C283.436 102.34 283.709 102.591 283.892 102.896C284.074 103.197 284.165 103.555 284.165 103.97C284.165 104.621 283.928 105.15 283.454 105.556C282.98 105.961 282.317 106.164 281.465 106.164C279.811 106.164 278.851 105.428 278.587 103.956L279.742 103.71C279.847 104.175 280.059 104.535 280.378 104.79C280.701 105.045 281.071 105.173 281.485 105.173C281.9 105.173 282.244 105.057 282.518 104.824C282.796 104.587 282.935 104.286 282.935 103.922C282.935 103.639 282.848 103.393 282.675 103.184C282.502 102.974 282.317 102.844 282.121 102.794C281.925 102.739 281.57 102.712 281.055 102.712C281.014 102.712 280.92 102.714 280.774 102.719ZM285.594 108.782V98.7402H286.715V99.6836C286.979 99.3145 287.278 99.0387 287.61 98.8564C287.943 98.6696 288.346 98.5762 288.82 98.5762C289.44 98.5762 289.987 98.7357 290.461 99.0547C290.935 99.3737 291.293 99.8249 291.534 100.408C291.776 100.987 291.896 101.623 291.896 102.315C291.896 103.058 291.762 103.728 291.493 104.325C291.229 104.918 290.841 105.373 290.331 105.692C289.825 106.007 289.292 106.164 288.731 106.164C288.321 106.164 287.952 106.077 287.624 105.904C287.3 105.731 287.034 105.512 286.824 105.248V108.782H285.594ZM286.708 102.411C286.708 103.345 286.897 104.036 287.275 104.482C287.654 104.929 288.112 105.152 288.649 105.152C289.196 105.152 289.663 104.922 290.051 104.462C290.443 103.997 290.639 103.279 290.639 102.309C290.639 101.383 290.447 100.691 290.064 100.23C289.686 99.7702 289.233 99.54 288.704 99.54C288.18 99.54 287.715 99.7861 287.31 100.278C286.909 100.766 286.708 101.477 286.708 102.411ZM298.356 103.662L299.628 103.819C299.427 104.562 299.056 105.139 298.514 105.549C297.971 105.959 297.279 106.164 296.436 106.164C295.374 106.164 294.531 105.838 293.906 105.187C293.286 104.53 292.977 103.612 292.977 102.432C292.977 101.21 293.291 100.262 293.92 99.5879C294.549 98.9134 295.365 98.5762 296.367 98.5762C297.338 98.5762 298.131 98.9066 298.746 99.5674C299.361 100.228 299.669 101.158 299.669 102.356C299.669 102.429 299.667 102.539 299.662 102.685H294.248C294.294 103.482 294.519 104.093 294.925 104.517C295.33 104.94 295.836 105.152 296.442 105.152C296.894 105.152 297.279 105.034 297.598 104.797C297.917 104.56 298.17 104.182 298.356 103.662ZM294.316 101.673H298.37C298.315 101.062 298.16 100.604 297.905 100.299C297.513 99.8249 297.005 99.5879 296.381 99.5879C295.816 99.5879 295.34 99.777 294.952 100.155C294.569 100.534 294.357 101.039 294.316 101.673ZM301.221 98.7402H302.451V104.981H305.254V98.7402H306.484V104.981H309.294V98.7402H310.518V106H301.221V98.7402ZM317.388 103.662L318.659 103.819C318.459 104.562 318.087 105.139 317.545 105.549C317.003 105.959 316.31 106.164 315.467 106.164C314.405 106.164 313.562 105.838 312.938 105.187C312.318 104.53 312.008 103.612 312.008 102.432C312.008 101.21 312.322 100.262 312.951 99.5879C313.58 98.9134 314.396 98.5762 315.398 98.5762C316.369 98.5762 317.162 98.9066 317.777 99.5674C318.393 100.228 318.7 101.158 318.7 102.356C318.7 102.429 318.698 102.539 318.693 102.685H313.279C313.325 103.482 313.55 104.093 313.956 104.517C314.362 104.94 314.868 105.152 315.474 105.152C315.925 105.152 316.31 105.034 316.629 104.797C316.948 104.56 317.201 104.182 317.388 103.662ZM313.348 101.673H317.401C317.347 101.062 317.192 100.604 316.937 100.299C316.545 99.8249 316.036 99.5879 315.412 99.5879C314.847 99.5879 314.371 99.777 313.983 100.155C313.601 100.534 313.389 101.039 313.348 101.673ZM320.218 98.7402H321.448V101.762H324.859V98.7402H326.09V106H324.859V102.78H321.448V106H320.218V98.7402ZM327.949 98.7402H329.18V104.277L332.591 98.7402H333.917V106H332.687V100.497L329.275 106H327.949V98.7402ZM340.739 103.662L342.011 103.819C341.81 104.562 341.439 105.139 340.896 105.549C340.354 105.959 339.661 106.164 338.818 106.164C337.757 106.164 336.913 105.838 336.289 105.187C335.669 104.53 335.359 103.612 335.359 102.432C335.359 101.21 335.674 100.262 336.303 99.5879C336.932 98.9134 337.747 98.5762 338.75 98.5762C339.721 98.5762 340.514 98.9066 341.129 99.5674C341.744 100.228 342.052 101.158 342.052 102.356C342.052 102.429 342.049 102.539 342.045 102.685H336.631C336.676 103.482 336.902 104.093 337.308 104.517C337.713 104.94 338.219 105.152 338.825 105.152C339.276 105.152 339.661 105.034 339.98 104.797C340.299 104.56 340.552 104.182 340.739 103.662ZM336.699 101.673H340.753C340.698 101.062 340.543 100.604 340.288 100.299C339.896 99.8249 339.388 99.5879 338.764 99.5879C338.199 99.5879 337.722 99.777 337.335 100.155C336.952 100.534 336.74 101.039 336.699 101.673ZM347.459 98.7402H348.689V104.277L352.101 98.7402H353.427V106H352.196V100.497L348.785 106H347.459V98.7402ZM356.886 102.719V101.755C357.405 101.75 357.758 101.73 357.945 101.693C358.137 101.657 358.317 101.548 358.485 101.365C358.654 101.183 358.738 100.955 358.738 100.682C358.738 100.349 358.627 100.085 358.403 99.8887C358.185 99.6882 357.9 99.5879 357.549 99.5879C356.856 99.5879 356.371 99.9958 356.093 100.812L354.924 100.62C355.288 99.2575 356.168 98.5762 357.562 98.5762C358.337 98.5762 358.943 98.7881 359.381 99.2119C359.823 99.6357 360.044 100.142 360.044 100.729C360.044 101.322 359.757 101.794 359.183 102.145C359.547 102.34 359.821 102.591 360.003 102.896C360.185 103.197 360.276 103.555 360.276 103.97C360.276 104.621 360.039 105.15 359.565 105.556C359.091 105.961 358.428 106.164 357.576 106.164C355.922 106.164 354.963 105.428 354.698 103.956L355.854 103.71C355.958 104.175 356.17 104.535 356.489 104.79C356.813 105.045 357.182 105.173 357.597 105.173C358.011 105.173 358.355 105.057 358.629 104.824C358.907 104.587 359.046 104.286 359.046 103.922C359.046 103.639 358.959 103.393 358.786 103.184C358.613 102.974 358.428 102.844 358.232 102.794C358.036 102.739 357.681 102.712 357.166 102.712C357.125 102.712 357.032 102.714 356.886 102.719ZM361.083 102.37C361.083 101.026 361.457 100.03 362.204 99.3828C362.828 98.8451 363.59 98.5762 364.487 98.5762C365.485 98.5762 366.301 98.9043 366.935 99.5605C367.568 100.212 367.885 101.115 367.885 102.268C367.885 103.202 367.743 103.938 367.461 104.476C367.183 105.009 366.775 105.424 366.237 105.72C365.704 106.016 365.121 106.164 364.487 106.164C363.471 106.164 362.648 105.838 362.02 105.187C361.395 104.535 361.083 103.596 361.083 102.37ZM362.348 102.37C362.348 103.3 362.55 103.997 362.956 104.462C363.362 104.922 363.872 105.152 364.487 105.152C365.098 105.152 365.606 104.92 366.012 104.455C366.417 103.99 366.62 103.282 366.62 102.329C366.62 101.431 366.415 100.752 366.005 100.292C365.599 99.8271 365.093 99.5947 364.487 99.5947C363.872 99.5947 363.362 99.8249 362.956 100.285C362.55 100.745 362.348 101.44 362.348 102.37ZM374.652 95.7393L375.739 95.7529C375.689 96.2406 375.58 96.5801 375.411 96.7715C375.247 96.9629 375.033 97.0859 374.769 97.1406C374.509 97.1953 373.996 97.2227 373.23 97.2227C372.214 97.2227 371.521 97.3206 371.152 97.5166C370.783 97.7126 370.517 98.027 370.353 98.46C370.193 98.8883 370.104 99.4421 370.086 100.121C370.396 99.6608 370.758 99.3167 371.173 99.0889C371.588 98.8564 372.055 98.7402 372.574 98.7402C373.527 98.7402 374.315 99.0684 374.939 99.7246C375.564 100.376 375.876 101.26 375.876 102.377C375.876 103.225 375.719 103.92 375.404 104.462C375.09 105.004 374.716 105.424 374.283 105.72C373.855 106.016 373.269 106.164 372.526 106.164C371.665 106.164 370.995 105.968 370.517 105.576C370.038 105.18 369.671 104.674 369.416 104.059C369.161 103.443 369.033 102.372 369.033 100.846C369.033 98.9271 369.357 97.6351 370.004 96.9697C370.656 96.3044 371.656 95.9717 373.005 95.9717C373.843 95.9717 374.32 95.958 374.434 95.9307C374.548 95.9033 374.62 95.8395 374.652 95.7393ZM374.591 102.343C374.591 101.586 374.411 100.966 374.051 100.483C373.695 100 373.192 99.7588 372.54 99.7588C371.861 99.7588 371.337 100.014 370.968 100.524C370.599 101.035 370.414 101.716 370.414 102.568C370.414 103.411 370.617 104.056 371.022 104.503C371.433 104.95 371.936 105.173 372.533 105.173C373.144 105.173 373.638 104.915 374.017 104.4C374.399 103.881 374.591 103.195 374.591 102.343ZM377.359 108.782V98.7402H378.48V99.6836C378.745 99.3145 379.043 99.0387 379.376 98.8564C379.709 98.6696 380.112 98.5762 380.586 98.5762C381.206 98.5762 381.753 98.7357 382.227 99.0547C382.701 99.3737 383.058 99.8249 383.3 100.408C383.541 100.987 383.662 101.623 383.662 102.315C383.662 103.058 383.528 103.728 383.259 104.325C382.994 104.918 382.607 105.373 382.097 105.692C381.591 106.007 381.058 106.164 380.497 106.164C380.087 106.164 379.718 106.077 379.39 105.904C379.066 105.731 378.799 105.512 378.59 105.248V108.782H377.359ZM378.474 102.411C378.474 103.345 378.663 104.036 379.041 104.482C379.419 104.929 379.877 105.152 380.415 105.152C380.962 105.152 381.429 104.922 381.816 104.462C382.208 103.997 382.404 103.279 382.404 102.309C382.404 101.383 382.213 100.691 381.83 100.23C381.452 99.7702 380.998 99.54 380.47 99.54C379.946 99.54 379.481 99.7861 379.075 100.278C378.674 100.766 378.474 101.477 378.474 102.411ZM389.89 105.104C389.434 105.492 388.994 105.765 388.57 105.925C388.151 106.084 387.7 106.164 387.217 106.164C386.419 106.164 385.806 105.97 385.378 105.583C384.95 105.191 384.735 104.692 384.735 104.086C384.735 103.73 384.815 103.407 384.975 103.115C385.139 102.819 385.351 102.582 385.61 102.404C385.875 102.227 386.171 102.092 386.499 102.001C386.741 101.937 387.105 101.876 387.593 101.816C388.586 101.698 389.318 101.557 389.787 101.393C389.792 101.224 389.794 101.117 389.794 101.071C389.794 100.57 389.678 100.217 389.445 100.012C389.131 99.7337 388.664 99.5947 388.044 99.5947C387.465 99.5947 387.037 99.6973 386.759 99.9023C386.485 100.103 386.283 100.461 386.15 100.976L384.947 100.812C385.057 100.297 385.237 99.8818 385.487 99.5674C385.738 99.2484 386.1 99.0046 386.574 98.8359C387.048 98.6628 387.597 98.5762 388.222 98.5762C388.841 98.5762 389.345 98.6491 389.732 98.7949C390.12 98.9408 390.405 99.1253 390.587 99.3486C390.769 99.5674 390.897 99.8454 390.97 100.183C391.011 100.392 391.031 100.771 391.031 101.317V102.958C391.031 104.102 391.056 104.826 391.106 105.132C391.161 105.433 391.266 105.722 391.421 106H390.136C390.008 105.745 389.926 105.446 389.89 105.104ZM389.787 102.356C389.34 102.539 388.671 102.694 387.777 102.821C387.271 102.894 386.914 102.976 386.704 103.067C386.494 103.159 386.333 103.293 386.219 103.471C386.105 103.644 386.048 103.838 386.048 104.052C386.048 104.38 386.171 104.653 386.417 104.872C386.668 105.091 387.032 105.2 387.511 105.2C387.985 105.2 388.406 105.098 388.775 104.893C389.145 104.683 389.416 104.398 389.589 104.038C389.721 103.76 389.787 103.35 389.787 102.808V102.356ZM397.334 98.7402V101.878C397.726 101.878 398.002 101.803 398.161 101.652C398.321 101.502 398.553 101.064 398.858 100.34C399.146 99.6517 399.403 99.2119 399.631 99.0205C399.854 98.8337 400.21 98.7402 400.697 98.7402H401.148V99.7588L400.813 99.752C400.485 99.752 400.276 99.7998 400.185 99.8955C400.089 99.9958 399.943 100.294 399.747 100.791C399.565 101.265 399.396 101.593 399.241 101.775C399.086 101.958 398.845 102.124 398.517 102.274C399.05 102.416 399.569 102.908 400.075 103.751L401.429 106H400.075L398.756 103.751C398.487 103.295 398.252 102.997 398.052 102.855C397.851 102.714 397.612 102.644 397.334 102.644V106H396.076V102.644C395.803 102.644 395.566 102.714 395.365 102.855C395.165 102.992 394.93 103.291 394.661 103.751L393.342 106H391.988L393.335 103.751C393.845 102.908 394.367 102.416 394.9 102.274C394.536 102.106 394.281 101.924 394.135 101.728C393.989 101.527 393.77 101.053 393.479 100.306C393.378 100.055 393.271 99.9001 393.157 99.8408C393.039 99.7816 392.863 99.752 392.631 99.752C392.572 99.752 392.451 99.7542 392.269 99.7588V98.7402H392.439C392.913 98.7402 393.246 98.7699 393.438 98.8291C393.633 98.8838 393.807 99.0046 393.957 99.1914C394.112 99.3737 394.312 99.7565 394.559 100.34C394.859 101.055 395.087 101.491 395.242 101.646C395.402 101.8 395.68 101.878 396.076 101.878V98.7402H397.334ZM407.28 103.662L408.552 103.819C408.351 104.562 407.98 105.139 407.438 105.549C406.895 105.959 406.202 106.164 405.359 106.164C404.298 106.164 403.454 105.838 402.83 105.187C402.21 104.53 401.9 103.612 401.9 102.432C401.9 101.21 402.215 100.262 402.844 99.5879C403.473 98.9134 404.288 98.5762 405.291 98.5762C406.262 98.5762 407.055 98.9066 407.67 99.5674C408.285 100.228 408.593 101.158 408.593 102.356C408.593 102.429 408.59 102.539 408.586 102.685H403.172C403.217 103.482 403.443 104.093 403.849 104.517C404.254 104.94 404.76 105.152 405.366 105.152C405.817 105.152 406.202 105.034 406.521 104.797C406.84 104.56 407.093 104.182 407.28 103.662ZM403.24 101.673H407.294C407.239 101.062 407.084 100.604 406.829 100.299C406.437 99.8249 405.929 99.5879 405.305 99.5879C404.74 99.5879 404.263 99.777 403.876 100.155C403.493 100.534 403.281 101.039 403.24 101.673ZM410.11 98.7402H411.341V101.762H414.752V98.7402H415.982V106H414.752V102.78H411.341V106H410.11V98.7402ZM417.842 98.7402H419.072V104.277L422.483 98.7402H423.81V106H422.579V100.497L419.168 106H417.842V98.7402ZM431.377 98.7402V106H430.153V103.17H429.442C429.009 103.17 428.686 103.227 428.472 103.341C428.262 103.45 427.954 103.808 427.549 104.414L426.476 106H424.951L426.277 104.045C426.683 103.448 427.086 103.111 427.487 103.033C426.785 102.938 426.264 102.685 425.922 102.274C425.585 101.864 425.416 101.393 425.416 100.859C425.416 100.23 425.637 99.7201 426.079 99.3281C426.526 98.9362 427.171 98.7402 428.014 98.7402H431.377ZM430.153 99.7588H428.403C427.67 99.7588 427.196 99.8727 426.981 100.101C426.772 100.328 426.667 100.595 426.667 100.9C426.667 101.333 426.822 101.652 427.132 101.857C427.446 102.058 428 102.158 428.793 102.158H430.153V99.7588ZM433.592 100.142V98.7402H434.993V100.142H433.592ZM433.592 106V104.599H434.993V106H433.592ZM445.336 106H444.105V98.1592C443.809 98.4417 443.42 98.7243 442.937 99.0068C442.458 99.2894 442.027 99.5013 441.645 99.6426V98.4531C442.333 98.1296 442.934 97.7376 443.449 97.2773C443.964 96.8171 444.329 96.3704 444.543 95.9375H445.336V106ZM448.501 103.354L449.731 103.19C449.873 103.888 450.112 104.391 450.449 104.701C450.791 105.007 451.206 105.159 451.693 105.159C452.272 105.159 452.76 104.959 453.156 104.558C453.557 104.157 453.758 103.66 453.758 103.067C453.758 102.502 453.573 102.037 453.204 101.673C452.835 101.304 452.366 101.119 451.796 101.119C451.563 101.119 451.274 101.165 450.928 101.256L451.064 100.176C451.146 100.185 451.213 100.189 451.263 100.189C451.787 100.189 452.258 100.053 452.678 99.7793C453.097 99.5059 453.307 99.0843 453.307 98.5146C453.307 98.0635 453.154 97.6898 452.849 97.3936C452.543 97.0973 452.149 96.9492 451.666 96.9492C451.188 96.9492 450.789 97.0996 450.47 97.4004C450.151 97.7012 449.946 98.1523 449.854 98.7539L448.624 98.5352C448.774 97.7103 449.116 97.0723 449.649 96.6211C450.183 96.1654 450.846 95.9375 451.639 95.9375C452.186 95.9375 452.689 96.056 453.149 96.293C453.61 96.5254 453.961 96.8444 454.202 97.25C454.448 97.6556 454.571 98.0863 454.571 98.542C454.571 98.9749 454.455 99.3691 454.223 99.7246C453.99 100.08 453.646 100.363 453.19 100.572C453.783 100.709 454.243 100.994 454.571 101.427C454.899 101.855 455.063 102.393 455.063 103.04C455.063 103.915 454.744 104.658 454.106 105.269C453.468 105.875 452.662 106.178 451.687 106.178C450.807 106.178 450.076 105.916 449.492 105.392C448.913 104.868 448.583 104.188 448.501 103.354ZM462.672 98.4326L461.448 98.5283C461.339 98.0452 461.184 97.6943 460.983 97.4756C460.651 97.1247 460.241 96.9492 459.753 96.9492C459.361 96.9492 459.017 97.0586 458.721 97.2773C458.333 97.5599 458.028 97.9723 457.805 98.5146C457.581 99.057 457.465 99.8294 457.456 100.832C457.752 100.381 458.115 100.046 458.543 99.8271C458.971 99.6084 459.42 99.499 459.89 99.499C460.71 99.499 461.407 99.8021 461.981 100.408C462.56 101.01 462.85 101.789 462.85 102.746C462.85 103.375 462.713 103.961 462.439 104.503C462.171 105.041 461.799 105.453 461.325 105.74C460.851 106.027 460.313 106.171 459.712 106.171C458.687 106.171 457.85 105.795 457.203 105.043C456.556 104.286 456.232 103.042 456.232 101.311C456.232 99.3737 456.59 97.9655 457.306 97.0859C457.93 96.3203 458.771 95.9375 459.828 95.9375C460.617 95.9375 461.261 96.1585 461.763 96.6006C462.269 97.0426 462.572 97.6533 462.672 98.4326ZM457.647 102.753C457.647 103.177 457.736 103.582 457.914 103.97C458.096 104.357 458.349 104.653 458.673 104.858C458.996 105.059 459.336 105.159 459.691 105.159C460.211 105.159 460.658 104.95 461.031 104.53C461.405 104.111 461.592 103.541 461.592 102.821C461.592 102.129 461.407 101.584 461.038 101.188C460.669 100.786 460.204 100.586 459.644 100.586C459.088 100.586 458.616 100.786 458.229 101.188C457.841 101.584 457.647 102.106 457.647 102.753ZM470.465 98.4326L469.241 98.5283C469.132 98.0452 468.977 97.6943 468.776 97.4756C468.444 97.1247 468.034 96.9492 467.546 96.9492C467.154 96.9492 466.81 97.0586 466.514 97.2773C466.126 97.5599 465.821 97.9723 465.598 98.5146C465.374 99.057 465.258 99.8294 465.249 100.832C465.545 100.381 465.908 100.046 466.336 99.8271C466.764 99.6084 467.213 99.499 467.683 99.499C468.503 99.499 469.2 99.8021 469.774 100.408C470.353 101.01 470.643 101.789 470.643 102.746C470.643 103.375 470.506 103.961 470.232 104.503C469.964 105.041 469.592 105.453 469.118 105.74C468.644 106.027 468.106 106.171 467.505 106.171C466.479 106.171 465.643 105.795 464.996 105.043C464.349 104.286 464.025 103.042 464.025 101.311C464.025 99.3737 464.383 97.9655 465.099 97.0859C465.723 96.3203 466.564 95.9375 467.621 95.9375C468.41 95.9375 469.054 96.1585 469.556 96.6006C470.062 97.0426 470.365 97.6533 470.465 98.4326ZM465.44 102.753C465.44 103.177 465.529 103.582 465.707 103.97C465.889 104.357 466.142 104.653 466.466 104.858C466.789 105.059 467.129 105.159 467.484 105.159C468.004 105.159 468.451 104.95 468.824 104.53C469.198 104.111 469.385 103.541 469.385 102.821C469.385 102.129 469.2 101.584 468.831 101.188C468.462 100.786 467.997 100.586 467.437 100.586C466.881 100.586 466.409 100.786 466.021 101.188C465.634 101.584 465.44 102.106 465.44 102.753ZM475.291 106L477.943 102.227L475.489 98.7402H477.027L478.142 100.442C478.351 100.766 478.52 101.037 478.647 101.256C478.848 100.955 479.033 100.688 479.201 100.456L480.425 98.7402H481.895L479.386 102.158L482.086 106H480.575L479.085 103.744L478.688 103.136L476.781 106H475.291ZM486.673 103.354L487.903 103.19C488.045 103.888 488.284 104.391 488.621 104.701C488.963 105.007 489.378 105.159 489.865 105.159C490.444 105.159 490.932 104.959 491.328 104.558C491.729 104.157 491.93 103.66 491.93 103.067C491.93 102.502 491.745 102.037 491.376 101.673C491.007 101.304 490.537 101.119 489.968 101.119C489.735 101.119 489.446 101.165 489.1 101.256L489.236 100.176C489.318 100.185 489.384 100.189 489.435 100.189C489.959 100.189 490.43 100.053 490.85 99.7793C491.269 99.5059 491.479 99.0843 491.479 98.5146C491.479 98.0635 491.326 97.6898 491.021 97.3936C490.715 97.0973 490.321 96.9492 489.838 96.9492C489.359 96.9492 488.961 97.0996 488.642 97.4004C488.323 97.7012 488.118 98.1523 488.026 98.7539L486.796 98.5352C486.946 97.7103 487.288 97.0723 487.821 96.6211C488.354 96.1654 489.018 95.9375 489.811 95.9375C490.357 95.9375 490.861 96.056 491.321 96.293C491.782 96.5254 492.132 96.8444 492.374 97.25C492.62 97.6556 492.743 98.0863 492.743 98.542C492.743 98.9749 492.627 99.3691 492.395 99.7246C492.162 100.08 491.818 100.363 491.362 100.572C491.955 100.709 492.415 100.994 492.743 101.427C493.071 101.855 493.235 102.393 493.235 103.04C493.235 103.915 492.916 104.658 492.278 105.269C491.64 105.875 490.834 106.178 489.858 106.178C488.979 106.178 488.247 105.916 487.664 105.392C487.085 104.868 486.755 104.188 486.673 103.354ZM494.459 101.058C494.459 99.8727 494.58 98.9202 494.821 98.2002C495.067 97.4756 495.43 96.9173 495.908 96.5254C496.391 96.1335 496.997 95.9375 497.727 95.9375C498.264 95.9375 498.736 96.0469 499.142 96.2656C499.547 96.4798 499.882 96.792 500.146 97.2021C500.411 97.6077 500.618 98.1045 500.769 98.6924C500.919 99.2757 500.994 100.064 500.994 101.058C500.994 102.233 500.873 103.184 500.632 103.908C500.39 104.628 500.028 105.187 499.545 105.583C499.066 105.975 498.46 106.171 497.727 106.171C496.76 106.171 496.002 105.825 495.45 105.132C494.789 104.298 494.459 102.94 494.459 101.058ZM495.724 101.058C495.724 102.703 495.915 103.799 496.298 104.346C496.685 104.888 497.161 105.159 497.727 105.159C498.292 105.159 498.766 104.886 499.148 104.339C499.536 103.792 499.729 102.698 499.729 101.058C499.729 99.4079 499.536 98.3118 499.148 97.7695C498.766 97.2272 498.287 96.9561 497.713 96.9561C497.148 96.9561 496.697 97.1953 496.359 97.6738C495.936 98.2845 495.724 99.4124 495.724 101.058ZM502.252 101.058C502.252 99.8727 502.373 98.9202 502.614 98.2002C502.86 97.4756 503.223 96.9173 503.701 96.5254C504.184 96.1335 504.79 95.9375 505.52 95.9375C506.057 95.9375 506.529 96.0469 506.935 96.2656C507.34 96.4798 507.675 96.792 507.939 97.2021C508.204 97.6077 508.411 98.1045 508.562 98.6924C508.712 99.2757 508.787 100.064 508.787 101.058C508.787 102.233 508.666 103.184 508.425 103.908C508.183 104.628 507.821 105.187 507.338 105.583C506.859 105.975 506.253 106.171 505.52 106.171C504.553 106.171 503.795 105.825 503.243 105.132C502.582 104.298 502.252 102.94 502.252 101.058ZM503.517 101.058C503.517 102.703 503.708 103.799 504.091 104.346C504.478 104.888 504.954 105.159 505.52 105.159C506.085 105.159 506.559 104.886 506.941 104.339C507.329 103.792 507.522 102.698 507.522 101.058C507.522 99.4079 507.329 98.3118 506.941 97.7695C506.559 97.2272 506.08 96.9561 505.506 96.9561C504.941 96.9561 504.49 97.1953 504.152 97.6738C503.729 98.2845 503.517 99.4124 503.517 101.058ZM510.387 108.782V98.7402H511.508V99.6836C511.772 99.3145 512.071 99.0387 512.403 98.8564C512.736 98.6696 513.139 98.5762 513.613 98.5762C514.233 98.5762 514.78 98.7357 515.254 99.0547C515.728 99.3737 516.086 99.8249 516.327 100.408C516.569 100.987 516.689 101.623 516.689 102.315C516.689 103.058 516.555 103.728 516.286 104.325C516.022 104.918 515.634 105.373 515.124 105.692C514.618 106.007 514.085 106.164 513.524 106.164C513.114 106.164 512.745 106.077 512.417 105.904C512.093 105.731 511.827 105.512 511.617 105.248V108.782H510.387ZM511.501 102.411C511.501 103.345 511.69 104.036 512.068 104.482C512.447 104.929 512.905 105.152 513.442 105.152C513.989 105.152 514.456 104.922 514.844 104.462C515.236 103.997 515.432 103.279 515.432 102.309C515.432 101.383 515.24 100.691 514.857 100.23C514.479 99.7702 514.026 99.54 513.497 99.54C512.973 99.54 512.508 99.7861 512.103 100.278C511.701 100.766 511.501 101.477 511.501 102.411ZM517.359 106L520.012 102.227L517.558 98.7402H519.096L520.21 100.442C520.42 100.766 520.588 101.037 520.716 101.256C520.916 100.955 521.101 100.688 521.27 100.456L522.493 98.7402H523.963L521.454 102.158L524.154 106H522.644L521.153 103.744L520.757 103.136L518.85 106H517.359ZM273.057 122V111.979H275.053L277.425 119.074C277.644 119.735 277.803 120.229 277.903 120.558C278.017 120.193 278.195 119.658 278.437 118.951L280.836 111.979H282.62V122H281.342V113.612L278.43 122H277.233L274.335 113.469V122H273.057ZM289.504 121.104C289.048 121.492 288.608 121.765 288.185 121.925C287.765 122.084 287.314 122.164 286.831 122.164C286.034 122.164 285.421 121.97 284.992 121.583C284.564 121.191 284.35 120.692 284.35 120.086C284.35 119.73 284.429 119.407 284.589 119.115C284.753 118.819 284.965 118.582 285.225 118.404C285.489 118.227 285.785 118.092 286.113 118.001C286.355 117.937 286.719 117.876 287.207 117.816C288.201 117.698 288.932 117.557 289.401 117.393C289.406 117.224 289.408 117.117 289.408 117.071C289.408 116.57 289.292 116.217 289.06 116.012C288.745 115.734 288.278 115.595 287.658 115.595C287.079 115.595 286.651 115.697 286.373 115.902C286.1 116.103 285.897 116.461 285.765 116.976L284.562 116.812C284.671 116.297 284.851 115.882 285.102 115.567C285.352 115.248 285.715 115.005 286.188 114.836C286.662 114.663 287.212 114.576 287.836 114.576C288.456 114.576 288.959 114.649 289.347 114.795C289.734 114.941 290.019 115.125 290.201 115.349C290.383 115.567 290.511 115.845 290.584 116.183C290.625 116.392 290.646 116.771 290.646 117.317V118.958C290.646 120.102 290.671 120.826 290.721 121.132C290.775 121.433 290.88 121.722 291.035 122H289.75C289.622 121.745 289.54 121.446 289.504 121.104ZM289.401 118.356C288.955 118.539 288.285 118.694 287.392 118.821C286.886 118.894 286.528 118.976 286.318 119.067C286.109 119.159 285.947 119.293 285.833 119.471C285.719 119.644 285.662 119.838 285.662 120.052C285.662 120.38 285.785 120.653 286.031 120.872C286.282 121.091 286.646 121.2 287.125 121.2C287.599 121.2 288.021 121.098 288.39 120.893C288.759 120.683 289.03 120.398 289.203 120.038C289.335 119.76 289.401 119.35 289.401 118.808V118.356ZM292.553 114.74H293.783V117.878C294.175 117.878 294.449 117.803 294.604 117.652C294.763 117.502 294.995 117.064 295.301 116.34C295.542 115.766 295.738 115.387 295.889 115.205C296.039 115.023 296.212 114.9 296.408 114.836C296.604 114.772 296.919 114.74 297.352 114.74H297.598V115.759L297.256 115.752C296.932 115.752 296.725 115.8 296.634 115.896C296.538 115.996 296.392 116.294 296.196 116.791C296.009 117.265 295.839 117.593 295.684 117.775C295.529 117.958 295.289 118.124 294.966 118.274C295.494 118.416 296.014 118.908 296.524 119.751L297.871 122H296.518L295.205 119.751C294.936 119.3 294.701 119.004 294.501 118.862C294.3 118.716 294.061 118.644 293.783 118.644V122H292.553V114.74ZM303.586 119.341L304.796 119.498C304.664 120.332 304.324 120.986 303.777 121.46C303.235 121.929 302.567 122.164 301.774 122.164C300.781 122.164 299.981 121.84 299.375 121.193C298.773 120.542 298.473 119.61 298.473 118.397C298.473 117.614 298.603 116.928 298.862 116.34C299.122 115.752 299.516 115.312 300.045 115.021C300.578 114.724 301.157 114.576 301.781 114.576C302.57 114.576 303.215 114.777 303.716 115.178C304.217 115.574 304.538 116.139 304.68 116.873L303.483 117.058C303.369 116.57 303.167 116.203 302.875 115.957C302.588 115.711 302.239 115.588 301.829 115.588C301.209 115.588 300.706 115.811 300.318 116.258C299.931 116.7 299.737 117.402 299.737 118.363C299.737 119.339 299.924 120.047 300.298 120.489C300.672 120.931 301.159 121.152 301.761 121.152C302.244 121.152 302.647 121.004 302.971 120.708C303.294 120.412 303.499 119.956 303.586 119.341ZM305.849 114.74H307.079V120.277L310.49 114.74H311.816V122H310.586V116.497L307.175 122H305.849V114.74ZM313.703 114.74H315.617L317.524 120.551L319.644 114.74H321.414V122H320.184V116.155L318.037 122H316.937L314.906 115.875V122H313.703V114.74ZM328.031 121.104C327.576 121.492 327.136 121.765 326.712 121.925C326.293 122.084 325.841 122.164 325.358 122.164C324.561 122.164 323.948 121.97 323.52 121.583C323.091 121.191 322.877 120.692 322.877 120.086C322.877 119.73 322.957 119.407 323.116 119.115C323.28 118.819 323.492 118.582 323.752 118.404C324.016 118.227 324.312 118.092 324.641 118.001C324.882 117.937 325.247 117.876 325.734 117.816C326.728 117.698 327.459 117.557 327.929 117.393C327.933 117.224 327.936 117.117 327.936 117.071C327.936 116.57 327.819 116.217 327.587 116.012C327.272 115.734 326.805 115.595 326.186 115.595C325.607 115.595 325.178 115.697 324.9 115.902C324.627 116.103 324.424 116.461 324.292 116.976L323.089 116.812C323.198 116.297 323.378 115.882 323.629 115.567C323.88 115.248 324.242 115.005 324.716 114.836C325.19 114.663 325.739 114.576 326.363 114.576C326.983 114.576 327.487 114.649 327.874 114.795C328.261 114.941 328.546 115.125 328.729 115.349C328.911 115.567 329.038 115.845 329.111 116.183C329.152 116.392 329.173 116.771 329.173 117.317V118.958C329.173 120.102 329.198 120.826 329.248 121.132C329.303 121.433 329.408 121.722 329.562 122H328.277C328.15 121.745 328.068 121.446 328.031 121.104ZM327.929 118.356C327.482 118.539 326.812 118.694 325.919 118.821C325.413 118.894 325.055 118.976 324.846 119.067C324.636 119.159 324.474 119.293 324.36 119.471C324.246 119.644 324.189 119.838 324.189 120.052C324.189 120.38 324.312 120.653 324.559 120.872C324.809 121.091 325.174 121.2 325.652 121.2C326.126 121.2 326.548 121.098 326.917 120.893C327.286 120.683 327.557 120.398 327.73 120.038C327.863 119.76 327.929 119.35 327.929 118.808V118.356ZM331.688 114.74H337.403V122H336.18V115.759H332.919V119.375C332.919 120.218 332.892 120.774 332.837 121.043C332.782 121.312 332.632 121.547 332.386 121.747C332.14 121.948 331.784 122.048 331.319 122.048C331.032 122.048 330.702 122.03 330.328 121.993V120.968H330.868C331.123 120.968 331.306 120.943 331.415 120.893C331.524 120.838 331.597 120.754 331.634 120.64C331.67 120.526 331.688 120.154 331.688 119.525V114.74ZM339.242 114.74H340.473V117.577H342.031C343.048 117.577 343.829 117.775 344.376 118.172C344.927 118.564 345.203 119.106 345.203 119.799C345.203 120.405 344.973 120.924 344.513 121.357C344.057 121.786 343.326 122 342.318 122H339.242V114.74ZM340.473 120.988H341.765C342.544 120.988 343.1 120.893 343.433 120.701C343.765 120.51 343.932 120.211 343.932 119.806C343.932 119.491 343.809 119.211 343.562 118.965C343.316 118.719 342.772 118.596 341.929 118.596H340.473V120.988ZM353.475 114.74H354.705V122H353.475V114.74ZM346.591 114.74H347.821V117.577H349.38C350.396 117.577 351.178 117.775 351.725 118.172C352.276 118.564 352.552 119.106 352.552 119.799C352.552 120.405 352.322 120.924 351.861 121.357C351.406 121.786 350.674 122 349.667 122H346.591V114.74ZM347.821 120.988H349.113C349.893 120.988 350.449 120.893 350.781 120.701C351.114 120.51 351.28 120.211 351.28 119.806C351.28 119.491 351.157 119.211 350.911 118.965C350.665 118.719 350.12 118.596 349.277 118.596H347.821V120.988ZM356.633 114.74H357.863V117.762H361.274V114.74H362.505V122H361.274V118.78H357.863V122H356.633V114.74ZM364.364 114.74H365.595V120.277L369.006 114.74H370.332V122H369.102V116.497L365.69 122H364.364V114.74ZM368.637 111.992H369.478C369.409 112.562 369.2 112.999 368.849 113.305C368.502 113.61 368.04 113.763 367.461 113.763C366.878 113.763 366.41 113.612 366.06 113.312C365.713 113.006 365.506 112.566 365.438 111.992H366.278C366.342 112.302 366.467 112.535 366.654 112.689C366.846 112.84 367.101 112.915 367.42 112.915C367.789 112.915 368.067 112.842 368.254 112.696C368.445 112.546 368.573 112.311 368.637 111.992ZM376.081 124.782V114.74H377.202V115.684C377.466 115.314 377.765 115.039 378.098 114.856C378.43 114.67 378.834 114.576 379.308 114.576C379.927 114.576 380.474 114.736 380.948 115.055C381.422 115.374 381.78 115.825 382.021 116.408C382.263 116.987 382.384 117.623 382.384 118.315C382.384 119.058 382.249 119.728 381.98 120.325C381.716 120.918 381.329 121.373 380.818 121.692C380.312 122.007 379.779 122.164 379.219 122.164C378.809 122.164 378.439 122.077 378.111 121.904C377.788 121.731 377.521 121.512 377.312 121.248V124.782H376.081ZM377.195 118.411C377.195 119.345 377.384 120.036 377.763 120.482C378.141 120.929 378.599 121.152 379.137 121.152C379.684 121.152 380.151 120.922 380.538 120.462C380.93 119.997 381.126 119.279 381.126 118.309C381.126 117.383 380.935 116.691 380.552 116.23C380.174 115.77 379.72 115.54 379.191 115.54C378.667 115.54 378.202 115.786 377.797 116.278C377.396 116.766 377.195 117.477 377.195 118.411ZM388.611 121.104C388.156 121.492 387.716 121.765 387.292 121.925C386.873 122.084 386.422 122.164 385.938 122.164C385.141 122.164 384.528 121.97 384.1 121.583C383.671 121.191 383.457 120.692 383.457 120.086C383.457 119.73 383.537 119.407 383.696 119.115C383.86 118.819 384.072 118.582 384.332 118.404C384.596 118.227 384.893 118.092 385.221 118.001C385.462 117.937 385.827 117.876 386.314 117.816C387.308 117.698 388.039 117.557 388.509 117.393C388.513 117.224 388.516 117.117 388.516 117.071C388.516 116.57 388.399 116.217 388.167 116.012C387.853 115.734 387.385 115.595 386.766 115.595C386.187 115.595 385.758 115.697 385.48 115.902C385.207 116.103 385.004 116.461 384.872 116.976L383.669 116.812C383.778 116.297 383.958 115.882 384.209 115.567C384.46 115.248 384.822 115.005 385.296 114.836C385.77 114.663 386.319 114.576 386.943 114.576C387.563 114.576 388.067 114.649 388.454 114.795C388.841 114.941 389.126 115.125 389.309 115.349C389.491 115.567 389.618 115.845 389.691 116.183C389.732 116.392 389.753 116.771 389.753 117.317V118.958C389.753 120.102 389.778 120.826 389.828 121.132C389.883 121.433 389.988 121.722 390.143 122H388.857C388.73 121.745 388.648 121.446 388.611 121.104ZM388.509 118.356C388.062 118.539 387.392 118.694 386.499 118.821C385.993 118.894 385.635 118.976 385.426 119.067C385.216 119.159 385.054 119.293 384.94 119.471C384.826 119.644 384.77 119.838 384.77 120.052C384.77 120.38 384.893 120.653 385.139 120.872C385.389 121.091 385.754 121.2 386.232 121.2C386.706 121.2 387.128 121.098 387.497 120.893C387.866 120.683 388.137 120.398 388.311 120.038C388.443 119.76 388.509 119.35 388.509 118.808V118.356ZM393.109 118.719V117.755C393.629 117.75 393.982 117.73 394.169 117.693C394.36 117.657 394.54 117.548 394.709 117.365C394.878 117.183 394.962 116.955 394.962 116.682C394.962 116.349 394.85 116.085 394.627 115.889C394.408 115.688 394.123 115.588 393.772 115.588C393.08 115.588 392.594 115.996 392.316 116.812L391.147 116.62C391.512 115.257 392.392 114.576 393.786 114.576C394.561 114.576 395.167 114.788 395.604 115.212C396.047 115.636 396.268 116.142 396.268 116.729C396.268 117.322 395.98 117.794 395.406 118.145C395.771 118.34 396.044 118.591 396.227 118.896C396.409 119.197 396.5 119.555 396.5 119.97C396.5 120.621 396.263 121.15 395.789 121.556C395.315 121.961 394.652 122.164 393.8 122.164C392.146 122.164 391.186 121.428 390.922 119.956L392.077 119.71C392.182 120.175 392.394 120.535 392.713 120.79C393.036 121.045 393.406 121.173 393.82 121.173C394.235 121.173 394.579 121.057 394.853 120.824C395.131 120.587 395.27 120.286 395.27 119.922C395.27 119.639 395.183 119.393 395.01 119.184C394.837 118.974 394.652 118.844 394.456 118.794C394.26 118.739 393.905 118.712 393.39 118.712C393.349 118.712 393.255 118.714 393.109 118.719ZM397.963 114.74H399.877L401.784 120.551L403.903 114.74H405.674V122H404.443V116.155L402.297 122H401.196L399.166 115.875V122H397.963V114.74ZM412.523 119.662L413.795 119.819C413.594 120.562 413.223 121.139 412.681 121.549C412.138 121.959 411.446 122.164 410.603 122.164C409.541 122.164 408.698 121.838 408.073 121.187C407.453 120.53 407.144 119.612 407.144 118.432C407.144 117.21 407.458 116.262 408.087 115.588C408.716 114.913 409.532 114.576 410.534 114.576C411.505 114.576 412.298 114.907 412.913 115.567C413.528 116.228 413.836 117.158 413.836 118.356C413.836 118.429 413.834 118.539 413.829 118.685H408.415C408.461 119.482 408.686 120.093 409.092 120.517C409.497 120.94 410.003 121.152 410.609 121.152C411.061 121.152 411.446 121.034 411.765 120.797C412.084 120.56 412.337 120.182 412.523 119.662ZM408.483 117.673H412.537C412.482 117.062 412.327 116.604 412.072 116.299C411.68 115.825 411.172 115.588 410.548 115.588C409.983 115.588 409.507 115.777 409.119 116.155C408.736 116.534 408.524 117.039 408.483 117.673ZM415.347 124.782V114.74H416.468V115.684C416.732 115.314 417.031 115.039 417.363 114.856C417.696 114.67 418.099 114.576 418.573 114.576C419.193 114.576 419.74 114.736 420.214 115.055C420.688 115.374 421.046 115.825 421.287 116.408C421.529 116.987 421.649 117.623 421.649 118.315C421.649 119.058 421.515 119.728 421.246 120.325C420.982 120.918 420.594 121.373 420.084 121.692C419.578 122.007 419.045 122.164 418.484 122.164C418.074 122.164 417.705 122.077 417.377 121.904C417.053 121.731 416.787 121.512 416.577 121.248V124.782H415.347ZM416.461 118.411C416.461 119.345 416.65 120.036 417.028 120.482C417.407 120.929 417.865 121.152 418.402 121.152C418.949 121.152 419.416 120.922 419.804 120.462C420.196 119.997 420.392 119.279 420.392 118.309C420.392 117.383 420.2 116.691 419.817 116.23C419.439 115.77 418.986 115.54 418.457 115.54C417.933 115.54 417.468 115.786 417.062 116.278C416.661 116.766 416.461 117.477 416.461 118.411ZM431.261 111.979H432.491V115.444C432.746 115.153 433.027 114.936 433.332 114.795C433.637 114.649 433.965 114.576 434.316 114.576C435.178 114.576 435.859 114.936 436.36 115.656C436.866 116.372 437.119 117.274 437.119 118.363C437.119 119.498 436.848 120.416 436.306 121.118C435.763 121.815 435.089 122.164 434.282 122.164C434.018 122.164 433.749 122.123 433.476 122.041C433.202 121.959 432.874 121.736 432.491 121.371V124.782H431.261V121.371C431.015 121.635 430.741 121.834 430.44 121.966C430.144 122.098 429.823 122.164 429.477 122.164C428.715 122.164 428.05 121.831 427.48 121.166C426.911 120.496 426.626 119.539 426.626 118.295C426.626 117.242 426.883 116.36 427.398 115.649C427.913 114.934 428.606 114.576 429.477 114.576C429.841 114.576 430.172 114.649 430.468 114.795C430.764 114.936 431.028 115.153 431.261 115.444V111.979ZM432.484 118.397C432.484 119.491 432.635 120.227 432.936 120.605C433.236 120.979 433.612 121.166 434.063 121.166C434.565 121.166 434.991 120.936 435.342 120.476C435.697 120.011 435.875 119.291 435.875 118.315C435.875 117.395 435.711 116.709 435.383 116.258C435.059 115.807 434.642 115.581 434.132 115.581C433.585 115.581 433.173 115.816 432.895 116.285C432.621 116.755 432.484 117.459 432.484 118.397ZM427.877 118.261C427.877 119.286 428.048 120.024 428.39 120.476C428.736 120.927 429.164 121.152 429.675 121.152C430.208 121.152 430.607 120.929 430.871 120.482C431.135 120.031 431.268 119.357 431.268 118.459C431.268 117.502 431.129 116.784 430.851 116.306C430.573 115.827 430.153 115.588 429.593 115.588C429.087 115.588 428.674 115.823 428.355 116.292C428.036 116.757 427.877 117.413 427.877 118.261ZM443.299 121.104C442.843 121.492 442.403 121.765 441.979 121.925C441.56 122.084 441.109 122.164 440.626 122.164C439.828 122.164 439.215 121.97 438.787 121.583C438.359 121.191 438.145 120.692 438.145 120.086C438.145 119.73 438.224 119.407 438.384 119.115C438.548 118.819 438.76 118.582 439.02 118.404C439.284 118.227 439.58 118.092 439.908 118.001C440.15 117.937 440.514 117.876 441.002 117.816C441.995 117.698 442.727 117.557 443.196 117.393C443.201 117.224 443.203 117.117 443.203 117.071C443.203 116.57 443.087 116.217 442.854 116.012C442.54 115.734 442.073 115.595 441.453 115.595C440.874 115.595 440.446 115.697 440.168 115.902C439.895 116.103 439.692 116.461 439.56 116.976L438.356 116.812C438.466 116.297 438.646 115.882 438.896 115.567C439.147 115.248 439.509 115.005 439.983 114.836C440.457 114.663 441.007 114.576 441.631 114.576C442.251 114.576 442.754 114.649 443.142 114.795C443.529 114.941 443.814 115.125 443.996 115.349C444.178 115.567 444.306 115.845 444.379 116.183C444.42 116.392 444.44 116.771 444.44 117.317V118.958C444.44 120.102 444.465 120.826 444.516 121.132C444.57 121.433 444.675 121.722 444.83 122H443.545C443.417 121.745 443.335 121.446 443.299 121.104ZM443.196 118.356C442.75 118.539 442.08 118.694 441.187 118.821C440.681 118.894 440.323 118.976 440.113 119.067C439.904 119.159 439.742 119.293 439.628 119.471C439.514 119.644 439.457 119.838 439.457 120.052C439.457 120.38 439.58 120.653 439.826 120.872C440.077 121.091 440.441 121.2 440.92 121.2C441.394 121.2 441.815 121.098 442.185 120.893C442.554 120.683 442.825 120.398 442.998 120.038C443.13 119.76 443.196 119.35 443.196 118.808V118.356ZM446.354 114.74H447.585V120.277L450.996 114.74H452.322V122H451.092V116.497L447.681 122H446.354V114.74ZM450.627 111.992H451.468C451.399 112.562 451.19 112.999 450.839 113.305C450.493 113.61 450.03 113.763 449.451 113.763C448.868 113.763 448.401 113.612 448.05 113.312C447.703 113.006 447.496 112.566 447.428 111.992H448.269C448.332 112.302 448.458 112.535 448.645 112.689C448.836 112.84 449.091 112.915 449.41 112.915C449.779 112.915 450.057 112.842 450.244 112.696C450.436 112.546 450.563 112.311 450.627 111.992ZM454.776 114.74H460.491V122H459.268V115.759H456.007V119.375C456.007 120.218 455.979 120.774 455.925 121.043C455.87 121.312 455.72 121.547 455.474 121.747C455.228 121.948 454.872 122.048 454.407 122.048C454.12 122.048 453.79 122.03 453.416 121.993V120.968H453.956C454.211 120.968 454.394 120.943 454.503 120.893C454.612 120.838 454.685 120.754 454.722 120.64C454.758 120.526 454.776 120.154 454.776 119.525V114.74ZM467.088 121.104C466.632 121.492 466.192 121.765 465.769 121.925C465.349 122.084 464.898 122.164 464.415 122.164C463.618 122.164 463.005 121.97 462.576 121.583C462.148 121.191 461.934 120.692 461.934 120.086C461.934 119.73 462.013 119.407 462.173 119.115C462.337 118.819 462.549 118.582 462.809 118.404C463.073 118.227 463.369 118.092 463.697 118.001C463.939 117.937 464.303 117.876 464.791 117.816C465.785 117.698 466.516 117.557 466.985 117.393C466.99 117.224 466.992 117.117 466.992 117.071C466.992 116.57 466.876 116.217 466.644 116.012C466.329 115.734 465.862 115.595 465.242 115.595C464.663 115.595 464.235 115.697 463.957 115.902C463.684 116.103 463.481 116.461 463.349 116.976L462.146 116.812C462.255 116.297 462.435 115.882 462.686 115.567C462.936 115.248 463.299 115.005 463.772 114.836C464.246 114.663 464.796 114.576 465.42 114.576C466.04 114.576 466.543 114.649 466.931 114.795C467.318 114.941 467.603 115.125 467.785 115.349C467.967 115.567 468.095 115.845 468.168 116.183C468.209 116.392 468.229 116.771 468.229 117.317V118.958C468.229 120.102 468.255 120.826 468.305 121.132C468.359 121.433 468.464 121.722 468.619 122H467.334C467.206 121.745 467.124 121.446 467.088 121.104ZM466.985 118.356C466.539 118.539 465.869 118.694 464.976 118.821C464.47 118.894 464.112 118.976 463.902 119.067C463.693 119.159 463.531 119.293 463.417 119.471C463.303 119.644 463.246 119.838 463.246 120.052C463.246 120.38 463.369 120.653 463.615 120.872C463.866 121.091 464.23 121.2 464.709 121.2C465.183 121.2 465.604 121.098 465.974 120.893C466.343 120.683 466.614 120.398 466.787 120.038C466.919 119.76 466.985 119.35 466.985 118.808V118.356ZM470.485 116.142V114.74H471.887V116.142H470.485ZM470.485 122V120.599H471.887V122H470.485ZM482.229 122H480.999V114.159C480.703 114.442 480.313 114.724 479.83 115.007C479.352 115.289 478.921 115.501 478.538 115.643V114.453C479.226 114.13 479.828 113.738 480.343 113.277C480.858 112.817 481.222 112.37 481.437 111.938H482.229V122ZM485.388 117.058C485.388 115.873 485.508 114.92 485.75 114.2C485.996 113.476 486.358 112.917 486.837 112.525C487.32 112.133 487.926 111.938 488.655 111.938C489.193 111.938 489.665 112.047 490.07 112.266C490.476 112.48 490.811 112.792 491.075 113.202C491.34 113.608 491.547 114.104 491.697 114.692C491.848 115.276 491.923 116.064 491.923 117.058C491.923 118.233 491.802 119.184 491.561 119.908C491.319 120.628 490.957 121.187 490.474 121.583C489.995 121.975 489.389 122.171 488.655 122.171C487.689 122.171 486.93 121.825 486.379 121.132C485.718 120.298 485.388 118.94 485.388 117.058ZM486.652 117.058C486.652 118.703 486.844 119.799 487.227 120.346C487.614 120.888 488.09 121.159 488.655 121.159C489.22 121.159 489.694 120.886 490.077 120.339C490.465 119.792 490.658 118.698 490.658 117.058C490.658 115.408 490.465 114.312 490.077 113.77C489.694 113.227 489.216 112.956 488.642 112.956C488.076 112.956 487.625 113.195 487.288 113.674C486.864 114.285 486.652 115.412 486.652 117.058ZM497.453 114.74H499.367L501.274 120.551L503.394 114.74H505.164V122H503.934V116.155L501.787 122H500.687L498.656 115.875V122H497.453V114.74ZM512.198 111.739L513.285 111.753C513.235 112.241 513.126 112.58 512.957 112.771C512.793 112.963 512.579 113.086 512.314 113.141C512.055 113.195 511.542 113.223 510.776 113.223C509.76 113.223 509.067 113.321 508.698 113.517C508.329 113.713 508.062 114.027 507.898 114.46C507.739 114.888 507.65 115.442 507.632 116.121C507.942 115.661 508.304 115.317 508.719 115.089C509.133 114.856 509.601 114.74 510.12 114.74C511.073 114.74 511.861 115.068 512.485 115.725C513.11 116.376 513.422 117.26 513.422 118.377C513.422 119.225 513.265 119.92 512.95 120.462C512.636 121.004 512.262 121.424 511.829 121.72C511.401 122.016 510.815 122.164 510.072 122.164C509.211 122.164 508.541 121.968 508.062 121.576C507.584 121.18 507.217 120.674 506.962 120.059C506.707 119.443 506.579 118.372 506.579 116.846C506.579 114.927 506.903 113.635 507.55 112.97C508.201 112.304 509.202 111.972 510.551 111.972C511.389 111.972 511.866 111.958 511.979 111.931C512.093 111.903 512.166 111.84 512.198 111.739ZM512.137 118.343C512.137 117.586 511.957 116.966 511.597 116.483C511.241 116 510.738 115.759 510.086 115.759C509.407 115.759 508.883 116.014 508.514 116.524C508.145 117.035 507.96 117.716 507.96 118.568C507.96 119.411 508.163 120.056 508.568 120.503C508.979 120.95 509.482 121.173 510.079 121.173C510.69 121.173 511.184 120.915 511.562 120.4C511.945 119.881 512.137 119.195 512.137 118.343Z" fill="#BBBBBC"/>
</svg>
