<svg width="244" height="100" viewBox="0 0 244 100" fill="none" xmlns="http://www.w3.org/2000/svg">
<path d="M40.5635 66V55.9785H44.3438C45.0091 55.9785 45.5173 56.0104 45.8682 56.0742C46.3604 56.1562 46.7728 56.3135 47.1055 56.5459C47.4382 56.7738 47.7048 57.0951 47.9053 57.5098C48.1104 57.9245 48.2129 58.3802 48.2129 58.877C48.2129 59.7292 47.9417 60.4515 47.3994 61.0439C46.8571 61.6318 45.8773 61.9258 44.46 61.9258H41.8896V66H40.5635ZM41.8896 60.7432H44.4805C45.3372 60.7432 45.9456 60.5837 46.3057 60.2646C46.6657 59.9456 46.8457 59.4967 46.8457 58.918C46.8457 58.4987 46.7386 58.141 46.5244 57.8447C46.3148 57.5439 46.0368 57.3457 45.6904 57.25C45.4671 57.1908 45.0547 57.1611 44.4531 57.1611H41.8896V60.7432ZM54.0166 65.1045C53.5609 65.4919 53.1211 65.7653 52.6973 65.9248C52.278 66.0843 51.8268 66.1641 51.3438 66.1641C50.5462 66.1641 49.9333 65.9704 49.5049 65.583C49.0765 65.1911 48.8623 64.6921 48.8623 64.0859C48.8623 63.7305 48.9421 63.4069 49.1016 63.1152C49.2656 62.819 49.4775 62.582 49.7373 62.4043C50.0016 62.2266 50.2979 62.0921 50.626 62.001C50.8675 61.9372 51.2321 61.8757 51.7197 61.8164C52.7132 61.6979 53.4447 61.5566 53.9141 61.3926C53.9186 61.224 53.9209 61.1169 53.9209 61.0713C53.9209 60.57 53.8047 60.2168 53.5723 60.0117C53.2578 59.7337 52.7907 59.5947 52.1709 59.5947C51.5921 59.5947 51.1637 59.6973 50.8857 59.9023C50.6123 60.1029 50.4095 60.4606 50.2773 60.9756L49.0742 60.8115C49.1836 60.2965 49.3636 59.8818 49.6143 59.5674C49.8649 59.2484 50.2272 59.0046 50.7012 58.8359C51.1751 58.6628 51.7243 58.5762 52.3486 58.5762C52.9684 58.5762 53.472 58.6491 53.8594 58.7949C54.2467 58.9408 54.5316 59.1253 54.7139 59.3486C54.8962 59.5674 55.0238 59.8454 55.0967 60.1826C55.1377 60.3923 55.1582 60.7705 55.1582 61.3174V62.958C55.1582 64.1019 55.1833 64.8265 55.2334 65.1318C55.2881 65.4326 55.3929 65.722 55.5479 66H54.2627C54.1351 65.7448 54.0531 65.4463 54.0166 65.1045ZM53.9141 62.3564C53.4674 62.5387 52.7975 62.6937 51.9043 62.8213C51.3984 62.8942 51.0407 62.9762 50.8311 63.0674C50.6214 63.1585 50.4596 63.293 50.3457 63.4707C50.2318 63.6439 50.1748 63.8376 50.1748 64.0518C50.1748 64.3799 50.2979 64.6533 50.5439 64.8721C50.7946 65.0908 51.1592 65.2002 51.6377 65.2002C52.1117 65.2002 52.5332 65.0977 52.9023 64.8926C53.2715 64.6829 53.5426 64.3981 53.7158 64.0381C53.848 63.7601 53.9141 63.3499 53.9141 62.8076V62.3564ZM58.5146 62.7188V61.7549C59.0342 61.7503 59.3874 61.7298 59.5742 61.6934C59.7656 61.6569 59.9456 61.5475 60.1143 61.3652C60.2829 61.1829 60.3672 60.9551 60.3672 60.6816C60.3672 60.349 60.2555 60.0846 60.0322 59.8887C59.8135 59.6882 59.5286 59.5879 59.1777 59.5879C58.485 59.5879 57.9997 59.9958 57.7217 60.8115L56.5527 60.6201C56.9173 59.2575 57.7969 58.5762 59.1914 58.5762C59.9661 58.5762 60.5723 58.7881 61.0098 59.2119C61.4518 59.6357 61.6729 60.1416 61.6729 60.7295C61.6729 61.3219 61.3857 61.7936 60.8115 62.1445C61.1761 62.3405 61.4495 62.5911 61.6318 62.8965C61.8141 63.1973 61.9053 63.555 61.9053 63.9697C61.9053 64.6214 61.6683 65.1501 61.1943 65.5557C60.7204 65.9613 60.0573 66.1641 59.2051 66.1641C57.5508 66.1641 56.5915 65.4281 56.3271 63.9561L57.4824 63.71C57.5872 64.1748 57.7992 64.5348 58.1182 64.79C58.4417 65.0452 58.8109 65.1729 59.2256 65.1729C59.6403 65.1729 59.9844 65.0566 60.2578 64.8242C60.5358 64.5872 60.6748 64.2865 60.6748 63.9219C60.6748 63.6393 60.5882 63.3932 60.415 63.1836C60.2419 62.974 60.0573 62.8441 59.8613 62.7939C59.6654 62.7393 59.3099 62.7119 58.7949 62.7119C58.7539 62.7119 58.6605 62.7142 58.5146 62.7188ZM63.334 68.7822V58.7402H64.4551V59.6836C64.7194 59.3145 65.0179 59.0387 65.3506 58.8564C65.6833 58.6696 66.0866 58.5762 66.5605 58.5762C67.1803 58.5762 67.7272 58.7357 68.2012 59.0547C68.6751 59.3737 69.0329 59.8249 69.2744 60.4082C69.516 60.987 69.6367 61.6227 69.6367 62.3154C69.6367 63.0583 69.5023 63.7282 69.2334 64.3252C68.9691 64.9176 68.5817 65.3734 68.0713 65.6924C67.5654 66.0068 67.0322 66.1641 66.4717 66.1641C66.0615 66.1641 65.6924 66.0775 65.3643 65.9043C65.0407 65.7311 64.7741 65.5124 64.5645 65.248V68.7822H63.334ZM64.4482 62.4111C64.4482 63.3454 64.6374 64.0358 65.0156 64.4824C65.3939 64.929 65.8519 65.1523 66.3896 65.1523C66.9365 65.1523 67.4036 64.9222 67.791 64.4619C68.1829 63.9971 68.3789 63.2793 68.3789 62.3086C68.3789 61.3835 68.1875 60.6908 67.8047 60.2305C67.4264 59.7702 66.973 59.54 66.4443 59.54C65.9202 59.54 65.4554 59.7861 65.0498 60.2783C64.6488 60.766 64.4482 61.4769 64.4482 62.4111ZM76.0967 63.6621L77.3682 63.8193C77.1676 64.5622 76.7962 65.1387 76.2539 65.5488C75.7116 65.959 75.0189 66.1641 74.1758 66.1641C73.1139 66.1641 72.2708 65.8382 71.6465 65.1865C71.0267 64.5303 70.7168 63.612 70.7168 62.4316C70.7168 61.2103 71.0312 60.2624 71.6602 59.5879C72.2891 58.9134 73.1048 58.5762 74.1074 58.5762C75.0781 58.5762 75.8711 58.9066 76.4863 59.5674C77.1016 60.2282 77.4092 61.1579 77.4092 62.3564C77.4092 62.4294 77.4069 62.5387 77.4023 62.6846H71.9883C72.0339 63.4821 72.2594 64.0928 72.665 64.5166C73.0706 64.9404 73.5765 65.1523 74.1826 65.1523C74.6338 65.1523 75.0189 65.0339 75.3379 64.7969C75.6569 64.5599 75.9098 64.1816 76.0967 63.6621ZM72.0566 61.6729H76.1104C76.0557 61.0622 75.9007 60.6042 75.6455 60.2988C75.2536 59.8249 74.7454 59.5879 74.1211 59.5879C73.556 59.5879 73.0798 59.777 72.6924 60.1553C72.3096 60.5335 72.0977 61.0394 72.0566 61.6729ZM78.9609 58.7402H80.1914V64.9814H82.9941V58.7402H84.2246V64.9814H87.0342V58.7402H88.2578V66H78.9609V58.7402ZM95.1279 63.6621L96.3994 63.8193C96.1989 64.5622 95.8275 65.1387 95.2852 65.5488C94.7428 65.959 94.0501 66.1641 93.207 66.1641C92.1452 66.1641 91.3021 65.8382 90.6777 65.1865C90.0579 64.5303 89.748 63.612 89.748 62.4316C89.748 61.2103 90.0625 60.2624 90.6914 59.5879C91.3203 58.9134 92.1361 58.5762 93.1387 58.5762C94.1094 58.5762 94.9023 58.9066 95.5176 59.5674C96.1328 60.2282 96.4404 61.1579 96.4404 62.3564C96.4404 62.4294 96.4382 62.5387 96.4336 62.6846H91.0195C91.0651 63.4821 91.2907 64.0928 91.6963 64.5166C92.1019 64.9404 92.6077 65.1523 93.2139 65.1523C93.665 65.1523 94.0501 65.0339 94.3691 64.7969C94.6882 64.5599 94.9411 64.1816 95.1279 63.6621ZM91.0879 61.6729H95.1416C95.0869 61.0622 94.932 60.6042 94.6768 60.2988C94.2848 59.8249 93.7767 59.5879 93.1523 59.5879C92.5872 59.5879 92.111 59.777 91.7236 60.1553C91.3408 60.5335 91.1289 61.0394 91.0879 61.6729ZM97.958 58.7402H99.1885V61.7617H102.6V58.7402H103.83V66H102.6V62.7803H99.1885V66H97.958V58.7402ZM105.689 58.7402H106.92V64.2773L110.331 58.7402H111.657V66H110.427V60.4971L107.016 66H105.689V58.7402ZM118.479 63.6621L119.751 63.8193C119.55 64.5622 119.179 65.1387 118.637 65.5488C118.094 65.959 117.402 66.1641 116.559 66.1641C115.497 66.1641 114.654 65.8382 114.029 65.1865C113.41 64.5303 113.1 63.612 113.1 62.4316C113.1 61.2103 113.414 60.2624 114.043 59.5879C114.672 58.9134 115.488 58.5762 116.49 58.5762C117.461 58.5762 118.254 58.9066 118.869 59.5674C119.484 60.2282 119.792 61.1579 119.792 62.3564C119.792 62.4294 119.79 62.5387 119.785 62.6846H114.371C114.417 63.4821 114.642 64.0928 115.048 64.5166C115.453 64.9404 115.959 65.1523 116.565 65.1523C117.017 65.1523 117.402 65.0339 117.721 64.7969C118.04 64.5599 118.293 64.1816 118.479 63.6621ZM114.439 61.6729H118.493C118.438 61.0622 118.284 60.6042 118.028 60.2988C117.636 59.8249 117.128 59.5879 116.504 59.5879C115.939 59.5879 115.463 59.777 115.075 60.1553C114.692 60.5335 114.48 61.0394 114.439 61.6729ZM121.645 60.1416V58.7402H123.046V60.1416H121.645ZM121.645 66V64.5986H123.046V66H121.645ZM128.761 63.3545L129.991 63.1904C130.132 63.8877 130.372 64.3913 130.709 64.7012C131.051 65.0065 131.465 65.1592 131.953 65.1592C132.532 65.1592 133.02 64.9587 133.416 64.5576C133.817 64.1566 134.018 63.6598 134.018 63.0674C134.018 62.5023 133.833 62.0374 133.464 61.6729C133.095 61.3037 132.625 61.1191 132.056 61.1191C131.823 61.1191 131.534 61.1647 131.188 61.2559L131.324 60.1758C131.406 60.1849 131.472 60.1895 131.522 60.1895C132.047 60.1895 132.518 60.0527 132.938 59.7793C133.357 59.5059 133.566 59.0843 133.566 58.5146C133.566 58.0635 133.414 57.6898 133.108 57.3936C132.803 57.0973 132.409 56.9492 131.926 56.9492C131.447 56.9492 131.049 57.0996 130.729 57.4004C130.41 57.7012 130.205 58.1523 130.114 58.7539L128.884 58.5352C129.034 57.7103 129.376 57.0723 129.909 56.6211C130.442 56.1654 131.105 55.9375 131.898 55.9375C132.445 55.9375 132.949 56.056 133.409 56.293C133.869 56.5254 134.22 56.8444 134.462 57.25C134.708 57.6556 134.831 58.0863 134.831 58.542C134.831 58.9749 134.715 59.3691 134.482 59.7246C134.25 60.0801 133.906 60.3626 133.45 60.5723C134.043 60.709 134.503 60.9938 134.831 61.4268C135.159 61.8551 135.323 62.3929 135.323 63.04C135.323 63.915 135.004 64.6579 134.366 65.2686C133.728 65.8747 132.922 66.1777 131.946 66.1777C131.067 66.1777 130.335 65.9157 129.752 65.3916C129.173 64.8675 128.843 64.1885 128.761 63.3545ZM136.731 63.6826L137.914 63.5732C138.014 64.1292 138.206 64.5326 138.488 64.7832C138.771 65.0339 139.133 65.1592 139.575 65.1592C139.953 65.1592 140.284 65.0726 140.566 64.8994C140.854 64.7262 141.088 64.4961 141.271 64.209C141.453 63.9173 141.605 63.5254 141.729 63.0332C141.852 62.541 141.913 62.0397 141.913 61.5293C141.913 61.4746 141.911 61.3926 141.906 61.2832C141.66 61.6751 141.323 61.9941 140.895 62.2402C140.471 62.4818 140.01 62.6025 139.514 62.6025C138.684 62.6025 137.982 62.3018 137.408 61.7002C136.834 61.0986 136.547 60.3057 136.547 59.3213C136.547 58.305 136.845 57.487 137.442 56.8672C138.044 56.2474 138.796 55.9375 139.698 55.9375C140.35 55.9375 140.945 56.113 141.482 56.4639C142.025 56.8148 142.435 57.3161 142.713 57.9678C142.995 58.6149 143.137 59.5537 143.137 60.7842C143.137 62.0648 142.998 63.0856 142.72 63.8467C142.442 64.6032 142.027 65.1797 141.476 65.5762C140.929 65.9727 140.286 66.1709 139.548 66.1709C138.764 66.1709 138.124 65.9544 137.627 65.5215C137.13 65.084 136.832 64.471 136.731 63.6826ZM141.77 59.2598C141.77 58.5534 141.58 57.9928 141.202 57.5781C140.828 57.1634 140.377 56.9561 139.849 56.9561C139.302 56.9561 138.826 57.1794 138.42 57.626C138.014 58.0726 137.812 58.6514 137.812 59.3623C137.812 60.0003 138.003 60.5199 138.386 60.9209C138.773 61.3174 139.249 61.5156 139.814 61.5156C140.384 61.5156 140.851 61.3174 141.216 60.9209C141.585 60.5199 141.77 59.9661 141.77 59.2598ZM148.975 66H147.744V58.1592C147.448 58.4417 147.058 58.7243 146.575 59.0068C146.097 59.2894 145.666 59.5013 145.283 59.6426V58.4531C145.971 58.1296 146.573 57.7376 147.088 57.2773C147.603 56.8171 147.967 56.3704 148.182 55.9375H148.975V66ZM155.551 66L158.203 62.2266L155.749 58.7402H157.287L158.401 60.4424C158.611 60.766 158.78 61.0371 158.907 61.2559C159.108 60.9551 159.292 60.6885 159.461 60.4561L160.685 58.7402H162.154L159.646 62.1582L162.346 66H160.835L159.345 63.7441L158.948 63.1357L157.041 66H155.551ZM171.561 66H170.33V58.1592C170.034 58.4417 169.644 58.7243 169.161 59.0068C168.683 59.2894 168.252 59.5013 167.869 59.6426V58.4531C168.557 58.1296 169.159 57.7376 169.674 57.2773C170.189 56.8171 170.553 56.3704 170.768 55.9375H171.561V66ZM174.719 61.0576C174.719 59.8727 174.84 58.9202 175.081 58.2002C175.327 57.4756 175.689 56.9173 176.168 56.5254C176.651 56.1335 177.257 55.9375 177.986 55.9375C178.524 55.9375 178.996 56.0469 179.401 56.2656C179.807 56.4798 180.142 56.792 180.406 57.2021C180.671 57.6077 180.878 58.1045 181.028 58.6924C181.179 59.2757 181.254 60.0641 181.254 61.0576C181.254 62.2334 181.133 63.1836 180.892 63.9082C180.65 64.6283 180.288 65.1865 179.805 65.583C179.326 65.9749 178.72 66.1709 177.986 66.1709C177.02 66.1709 176.261 65.8245 175.71 65.1318C175.049 64.2979 174.719 62.9398 174.719 61.0576ZM175.983 61.0576C175.983 62.7028 176.175 63.7988 176.558 64.3457C176.945 64.888 177.421 65.1592 177.986 65.1592C178.551 65.1592 179.025 64.8857 179.408 64.3389C179.796 63.792 179.989 62.6982 179.989 61.0576C179.989 59.4079 179.796 58.3118 179.408 57.7695C179.025 57.2272 178.547 56.9561 177.973 56.9561C177.408 56.9561 176.956 57.1953 176.619 57.6738C176.195 58.2845 175.983 59.4124 175.983 61.0576ZM182.512 61.0576C182.512 59.8727 182.632 58.9202 182.874 58.2002C183.12 57.4756 183.482 56.9173 183.961 56.5254C184.444 56.1335 185.05 55.9375 185.779 55.9375C186.317 55.9375 186.789 56.0469 187.194 56.2656C187.6 56.4798 187.935 56.792 188.199 57.2021C188.464 57.6077 188.671 58.1045 188.821 58.6924C188.972 59.2757 189.047 60.0641 189.047 61.0576C189.047 62.2334 188.926 63.1836 188.685 63.9082C188.443 64.6283 188.081 65.1865 187.598 65.583C187.119 65.9749 186.513 66.1709 185.779 66.1709C184.813 66.1709 184.054 65.8245 183.503 65.1318C182.842 64.2979 182.512 62.9398 182.512 61.0576ZM183.776 61.0576C183.776 62.7028 183.968 63.7988 184.351 64.3457C184.738 64.888 185.214 65.1592 185.779 65.1592C186.344 65.1592 186.818 64.8857 187.201 64.3389C187.589 63.792 187.782 62.6982 187.782 61.0576C187.782 59.4079 187.589 58.3118 187.201 57.7695C186.818 57.2272 186.34 56.9561 185.766 56.9561C185.201 56.9561 184.749 57.1953 184.412 57.6738C183.988 58.2845 183.776 59.4124 183.776 61.0576ZM190.646 68.7822V58.7402H191.768V59.6836C192.032 59.3145 192.33 59.0387 192.663 58.8564C192.996 58.6696 193.399 58.5762 193.873 58.5762C194.493 58.5762 195.04 58.7357 195.514 59.0547C195.988 59.3737 196.345 59.8249 196.587 60.4082C196.828 60.987 196.949 61.6227 196.949 62.3154C196.949 63.0583 196.815 63.7282 196.546 64.3252C196.282 64.9176 195.894 65.3734 195.384 65.6924C194.878 66.0068 194.345 66.1641 193.784 66.1641C193.374 66.1641 193.005 66.0775 192.677 65.9043C192.353 65.7311 192.087 65.5124 191.877 65.248V68.7822H190.646ZM191.761 62.4111C191.761 63.3454 191.95 64.0358 192.328 64.4824C192.706 64.929 193.164 65.1523 193.702 65.1523C194.249 65.1523 194.716 64.9222 195.104 64.4619C195.495 63.9971 195.691 63.2793 195.691 62.3086C195.691 61.3835 195.5 60.6908 195.117 60.2305C194.739 59.7702 194.285 59.54 193.757 59.54C193.233 59.54 192.768 59.7861 192.362 60.2783C191.961 60.766 191.761 61.4769 191.761 62.4111ZM197.619 66L200.271 62.2266L197.817 58.7402H199.355L200.47 60.4424C200.679 60.766 200.848 61.0371 200.976 61.2559C201.176 60.9551 201.361 60.6885 201.529 60.4561L202.753 58.7402H204.223L201.714 62.1582L204.414 66H202.903L201.413 63.7441L201.017 63.1357L199.109 66H197.619ZM53.1279 82V71.9785H56.9082C57.5736 71.9785 58.0817 72.0104 58.4326 72.0742C58.9248 72.1562 59.3372 72.3135 59.6699 72.5459C60.0026 72.7738 60.2692 73.0951 60.4697 73.5098C60.6748 73.9245 60.7773 74.3802 60.7773 74.877C60.7773 75.7292 60.5062 76.4515 59.9639 77.0439C59.4215 77.6318 58.4417 77.9258 57.0244 77.9258H54.4541V82H53.1279ZM54.4541 76.7432H57.0449C57.9017 76.7432 58.5101 76.5837 58.8701 76.2646C59.2301 75.9456 59.4102 75.4967 59.4102 74.918C59.4102 74.4987 59.3031 74.141 59.0889 73.8447C58.8792 73.5439 58.6012 73.3457 58.2549 73.25C58.0316 73.1908 57.6191 73.1611 57.0176 73.1611H54.4541V76.7432ZM66.5811 81.1045C66.1253 81.4919 65.6855 81.7653 65.2617 81.9248C64.8424 82.0843 64.3913 82.1641 63.9082 82.1641C63.1107 82.1641 62.4977 81.9704 62.0693 81.583C61.641 81.1911 61.4268 80.6921 61.4268 80.0859C61.4268 79.7305 61.5065 79.4069 61.666 79.1152C61.8301 78.819 62.042 78.582 62.3018 78.4043C62.5661 78.2266 62.8623 78.0921 63.1904 78.001C63.432 77.9372 63.7965 77.8757 64.2842 77.8164C65.2777 77.6979 66.0091 77.5566 66.4785 77.3926C66.4831 77.224 66.4854 77.1169 66.4854 77.0713C66.4854 76.57 66.3691 76.2168 66.1367 76.0117C65.8223 75.7337 65.3551 75.5947 64.7354 75.5947C64.1566 75.5947 63.7282 75.6973 63.4502 75.9023C63.1768 76.1029 62.974 76.4606 62.8418 76.9756L61.6387 76.8115C61.748 76.2965 61.9281 75.8818 62.1787 75.5674C62.4294 75.2484 62.7917 75.0046 63.2656 74.8359C63.7396 74.6628 64.2887 74.5762 64.9131 74.5762C65.5329 74.5762 66.0365 74.6491 66.4238 74.7949C66.8112 74.9408 67.096 75.1253 67.2783 75.3486C67.4606 75.5674 67.5882 75.8454 67.6611 76.1826C67.7021 76.3923 67.7227 76.7705 67.7227 77.3174V78.958C67.7227 80.1019 67.7477 80.8265 67.7979 81.1318C67.8525 81.4326 67.9574 81.722 68.1123 82H66.8271C66.6995 81.7448 66.6175 81.4463 66.5811 81.1045ZM66.4785 78.3564C66.0319 78.5387 65.362 78.6937 64.4688 78.8213C63.9629 78.8942 63.6051 78.9762 63.3955 79.0674C63.1859 79.1585 63.0241 79.293 62.9102 79.4707C62.7962 79.6439 62.7393 79.8376 62.7393 80.0518C62.7393 80.3799 62.8623 80.6533 63.1084 80.8721C63.359 81.0908 63.7236 81.2002 64.2021 81.2002C64.6761 81.2002 65.0977 81.0977 65.4668 80.8926C65.8359 80.6829 66.1071 80.3981 66.2803 80.0381C66.4124 79.7601 66.4785 79.3499 66.4785 78.8076V78.3564ZM71.0791 78.7188V77.7549C71.5986 77.7503 71.9518 77.7298 72.1387 77.6934C72.3301 77.6569 72.5101 77.5475 72.6787 77.3652C72.8473 77.1829 72.9316 76.9551 72.9316 76.6816C72.9316 76.349 72.82 76.0846 72.5967 75.8887C72.3779 75.6882 72.0931 75.5879 71.7422 75.5879C71.0495 75.5879 70.5641 75.9958 70.2861 76.8115L69.1172 76.6201C69.4818 75.2575 70.3613 74.5762 71.7559 74.5762C72.5306 74.5762 73.1367 74.7881 73.5742 75.2119C74.0163 75.6357 74.2373 76.1416 74.2373 76.7295C74.2373 77.3219 73.9502 77.7936 73.376 78.1445C73.7406 78.3405 74.014 78.5911 74.1963 78.8965C74.3786 79.1973 74.4697 79.555 74.4697 79.9697C74.4697 80.6214 74.2327 81.1501 73.7588 81.5557C73.2848 81.9613 72.6217 82.1641 71.7695 82.1641C70.1152 82.1641 69.1559 81.4281 68.8916 79.9561L70.0469 79.71C70.1517 80.1748 70.3636 80.5348 70.6826 80.79C71.0062 81.0452 71.3753 81.1729 71.79 81.1729C72.2048 81.1729 72.5488 81.0566 72.8223 80.8242C73.1003 80.5872 73.2393 80.2865 73.2393 79.9219C73.2393 79.6393 73.1527 79.3932 72.9795 79.1836C72.8063 78.974 72.6217 78.8441 72.4258 78.7939C72.2298 78.7393 71.8743 78.7119 71.3594 78.7119C71.3184 78.7119 71.2249 78.7142 71.0791 78.7188ZM75.9326 74.7402H77.8467L79.7539 80.5508L81.873 74.7402H83.6436V82H82.4131V76.1553L80.2666 82H79.166L77.1357 75.875V82H75.9326V74.7402ZM90.4932 79.6621L91.7646 79.8193C91.5641 80.5622 91.1927 81.1387 90.6504 81.5488C90.1081 81.959 89.4154 82.1641 88.5723 82.1641C87.5104 82.1641 86.6673 81.8382 86.043 81.1865C85.4232 80.5303 85.1133 79.612 85.1133 78.4316C85.1133 77.2103 85.4277 76.2624 86.0566 75.5879C86.6855 74.9134 87.5013 74.5762 88.5039 74.5762C89.4746 74.5762 90.2676 74.9066 90.8828 75.5674C91.498 76.2282 91.8057 77.1579 91.8057 78.3564C91.8057 78.4294 91.8034 78.5387 91.7988 78.6846H86.3848C86.4303 79.4821 86.6559 80.0928 87.0615 80.5166C87.4671 80.9404 87.973 81.1523 88.5791 81.1523C89.0303 81.1523 89.4154 81.0339 89.7344 80.7969C90.0534 80.5599 90.3063 80.1816 90.4932 79.6621ZM86.4531 77.6729H90.5068C90.4521 77.0622 90.2972 76.6042 90.042 76.2988C89.6501 75.8249 89.1419 75.5879 88.5176 75.5879C87.9525 75.5879 87.4762 75.777 87.0889 76.1553C86.7061 76.5335 86.4941 77.0394 86.4531 77.6729ZM93.3164 84.7822V74.7402H94.4375V75.6836C94.7018 75.3145 95.0003 75.0387 95.333 74.8564C95.6657 74.6696 96.069 74.5762 96.543 74.5762C97.1628 74.5762 97.7096 74.7357 98.1836 75.0547C98.6576 75.3737 99.0153 75.8249 99.2568 76.4082C99.4984 76.987 99.6191 77.6227 99.6191 78.3154C99.6191 79.0583 99.4847 79.7282 99.2158 80.3252C98.9515 80.9176 98.5641 81.3734 98.0537 81.6924C97.5479 82.0068 97.0146 82.1641 96.4541 82.1641C96.0439 82.1641 95.6748 82.0775 95.3467 81.9043C95.0231 81.7311 94.7565 81.5124 94.5469 81.248V84.7822H93.3164ZM94.4307 78.4111C94.4307 79.3454 94.6198 80.0358 94.998 80.4824C95.3763 80.929 95.8343 81.1523 96.3721 81.1523C96.9189 81.1523 97.3861 80.9222 97.7734 80.4619C98.1654 79.9971 98.3613 79.2793 98.3613 78.3086C98.3613 77.3835 98.1699 76.6908 97.7871 76.2305C97.4089 75.7702 96.9554 75.54 96.4268 75.54C95.9027 75.54 95.4378 75.7861 95.0322 76.2783C94.6312 76.766 94.4307 77.4769 94.4307 78.4111ZM109.23 71.9785H110.461V75.4443C110.716 75.1527 110.996 74.9362 111.302 74.7949C111.607 74.6491 111.935 74.5762 112.286 74.5762C113.147 74.5762 113.829 74.9362 114.33 75.6562C114.836 76.3717 115.089 77.2741 115.089 78.3633C115.089 79.498 114.818 80.4163 114.275 81.1182C113.733 81.8154 113.059 82.1641 112.252 82.1641C111.988 82.1641 111.719 82.123 111.445 82.041C111.172 81.959 110.844 81.7357 110.461 81.3711V84.7822H109.23V81.3711C108.984 81.6354 108.711 81.8337 108.41 81.9658C108.114 82.098 107.793 82.1641 107.446 82.1641C106.685 82.1641 106.02 81.8314 105.45 81.166C104.881 80.4961 104.596 79.5391 104.596 78.2949C104.596 77.2422 104.853 76.3604 105.368 75.6494C105.883 74.9339 106.576 74.5762 107.446 74.5762C107.811 74.5762 108.141 74.6491 108.438 74.7949C108.734 74.9362 108.998 75.1527 109.23 75.4443V71.9785ZM110.454 78.3975C110.454 79.4912 110.604 80.2272 110.905 80.6055C111.206 80.9792 111.582 81.166 112.033 81.166C112.535 81.166 112.961 80.9359 113.312 80.4756C113.667 80.0107 113.845 79.2907 113.845 78.3154C113.845 77.3949 113.681 76.709 113.353 76.2578C113.029 75.8066 112.612 75.5811 112.102 75.5811C111.555 75.5811 111.142 75.8158 110.864 76.2852C110.591 76.7546 110.454 77.4587 110.454 78.3975ZM105.847 78.2607C105.847 79.2861 106.018 80.0244 106.359 80.4756C106.706 80.9268 107.134 81.1523 107.645 81.1523C108.178 81.1523 108.576 80.929 108.841 80.4824C109.105 80.0312 109.237 79.3568 109.237 78.459C109.237 77.502 109.098 76.7842 108.82 76.3057C108.542 75.8271 108.123 75.5879 107.562 75.5879C107.057 75.5879 106.644 75.8226 106.325 76.292C106.006 76.7568 105.847 77.4131 105.847 78.2607ZM121.269 81.1045C120.813 81.4919 120.373 81.7653 119.949 81.9248C119.53 82.0843 119.079 82.1641 118.596 82.1641C117.798 82.1641 117.185 81.9704 116.757 81.583C116.328 81.1911 116.114 80.6921 116.114 80.0859C116.114 79.7305 116.194 79.4069 116.354 79.1152C116.518 78.819 116.729 78.582 116.989 78.4043C117.254 78.2266 117.55 78.0921 117.878 78.001C118.119 77.9372 118.484 77.8757 118.972 77.8164C119.965 77.6979 120.697 77.5566 121.166 77.3926C121.171 77.224 121.173 77.1169 121.173 77.0713C121.173 76.57 121.057 76.2168 120.824 76.0117C120.51 75.7337 120.043 75.5947 119.423 75.5947C118.844 75.5947 118.416 75.6973 118.138 75.9023C117.864 76.1029 117.661 76.4606 117.529 76.9756L116.326 76.8115C116.436 76.2965 116.616 75.8818 116.866 75.5674C117.117 75.2484 117.479 75.0046 117.953 74.8359C118.427 74.6628 118.976 74.5762 119.601 74.5762C120.22 74.5762 120.724 74.6491 121.111 74.7949C121.499 74.9408 121.784 75.1253 121.966 75.3486C122.148 75.5674 122.276 75.8454 122.349 76.1826C122.39 76.3923 122.41 76.7705 122.41 77.3174V78.958C122.41 80.1019 122.435 80.8265 122.485 81.1318C122.54 81.4326 122.645 81.722 122.8 82H121.515C121.387 81.7448 121.305 81.4463 121.269 81.1045ZM121.166 78.3564C120.719 78.5387 120.049 78.6937 119.156 78.8213C118.65 78.8942 118.293 78.9762 118.083 79.0674C117.873 79.1585 117.712 79.293 117.598 79.4707C117.484 79.6439 117.427 79.8376 117.427 80.0518C117.427 80.3799 117.55 80.6533 117.796 80.8721C118.047 81.0908 118.411 81.2002 118.89 81.2002C119.364 81.2002 119.785 81.0977 120.154 80.8926C120.523 80.6829 120.795 80.3981 120.968 80.0381C121.1 79.7601 121.166 79.3499 121.166 78.8076V78.3564ZM124.324 74.7402H125.555V80.2773L128.966 74.7402H130.292V82H129.062V76.4971L125.65 82H124.324V74.7402ZM128.597 71.9922H129.438C129.369 72.5618 129.16 72.9993 128.809 73.3047C128.462 73.61 128 73.7627 127.421 73.7627C126.838 73.7627 126.37 73.6123 126.02 73.3115C125.673 73.0062 125.466 72.5664 125.397 71.9922H126.238C126.302 72.3021 126.427 72.5345 126.614 72.6895C126.806 72.8398 127.061 72.915 127.38 72.915C127.749 72.915 128.027 72.8421 128.214 72.6963C128.405 72.5459 128.533 72.3112 128.597 71.9922ZM132.746 74.7402H138.461V82H137.237V75.7588H133.977V79.375C133.977 80.2181 133.949 80.7741 133.895 81.043C133.84 81.3118 133.689 81.5465 133.443 81.7471C133.197 81.9476 132.842 82.0479 132.377 82.0479C132.09 82.0479 131.759 82.0296 131.386 81.9932V80.9678H131.926C132.181 80.9678 132.363 80.9427 132.473 80.8926C132.582 80.8379 132.655 80.7536 132.691 80.6396C132.728 80.5257 132.746 80.1543 132.746 79.5254V74.7402ZM145.058 81.1045C144.602 81.4919 144.162 81.7653 143.738 81.9248C143.319 82.0843 142.868 82.1641 142.385 82.1641C141.587 82.1641 140.974 81.9704 140.546 81.583C140.118 81.1911 139.903 80.6921 139.903 80.0859C139.903 79.7305 139.983 79.4069 140.143 79.1152C140.307 78.819 140.519 78.582 140.778 78.4043C141.043 78.2266 141.339 78.0921 141.667 78.001C141.909 77.9372 142.273 77.8757 142.761 77.8164C143.754 77.6979 144.486 77.5566 144.955 77.3926C144.96 77.224 144.962 77.1169 144.962 77.0713C144.962 76.57 144.846 76.2168 144.613 76.0117C144.299 75.7337 143.832 75.5947 143.212 75.5947C142.633 75.5947 142.205 75.6973 141.927 75.9023C141.653 76.1029 141.451 76.4606 141.318 76.9756L140.115 76.8115C140.225 76.2965 140.405 75.8818 140.655 75.5674C140.906 75.2484 141.268 75.0046 141.742 74.8359C142.216 74.6628 142.765 74.5762 143.39 74.5762C144.009 74.5762 144.513 74.6491 144.9 74.7949C145.288 74.9408 145.573 75.1253 145.755 75.3486C145.937 75.5674 146.065 75.8454 146.138 76.1826C146.179 76.3923 146.199 76.7705 146.199 77.3174V78.958C146.199 80.1019 146.224 80.8265 146.274 81.1318C146.329 81.4326 146.434 81.722 146.589 82H145.304C145.176 81.7448 145.094 81.4463 145.058 81.1045ZM144.955 78.3564C144.508 78.5387 143.839 78.6937 142.945 78.8213C142.439 78.8942 142.082 78.9762 141.872 79.0674C141.662 79.1585 141.501 79.293 141.387 79.4707C141.273 79.6439 141.216 79.8376 141.216 80.0518C141.216 80.3799 141.339 80.6533 141.585 80.8721C141.836 81.0908 142.2 81.2002 142.679 81.2002C143.153 81.2002 143.574 81.0977 143.943 80.8926C144.312 80.6829 144.584 80.3981 144.757 80.0381C144.889 79.7601 144.955 79.3499 144.955 78.8076V78.3564ZM148.455 76.1416V74.7402H149.856V76.1416H148.455ZM148.455 82V80.5986H149.856V82H148.455ZM160.199 82H158.969V74.1592C158.673 74.4417 158.283 74.7243 157.8 75.0068C157.321 75.2894 156.891 75.5013 156.508 75.6426V74.4531C157.196 74.1296 157.798 73.7376 158.312 73.2773C158.827 72.8171 159.192 72.3704 159.406 71.9375H160.199V82ZM163.357 77.0576C163.357 75.8727 163.478 74.9202 163.72 74.2002C163.966 73.4756 164.328 72.9173 164.807 72.5254C165.29 72.1335 165.896 71.9375 166.625 71.9375C167.163 71.9375 167.634 72.0469 168.04 72.2656C168.446 72.4798 168.781 72.792 169.045 73.2021C169.309 73.6077 169.517 74.1045 169.667 74.6924C169.817 75.2757 169.893 76.0641 169.893 77.0576C169.893 78.2334 169.772 79.1836 169.53 79.9082C169.289 80.6283 168.926 81.1865 168.443 81.583C167.965 81.9749 167.359 82.1709 166.625 82.1709C165.659 82.1709 164.9 81.8245 164.349 81.1318C163.688 80.2979 163.357 78.9398 163.357 77.0576ZM164.622 77.0576C164.622 78.7028 164.813 79.7988 165.196 80.3457C165.584 80.888 166.06 81.1592 166.625 81.1592C167.19 81.1592 167.664 80.8857 168.047 80.3389C168.434 79.792 168.628 78.6982 168.628 77.0576C168.628 75.4079 168.434 74.3118 168.047 73.7695C167.664 73.2272 167.186 72.9561 166.611 72.9561C166.046 72.9561 165.595 73.1953 165.258 73.6738C164.834 74.2845 164.622 75.4124 164.622 77.0576ZM175.423 74.7402H177.337L179.244 80.5508L181.363 74.7402H183.134V82H181.903V76.1553L179.757 82H178.656L176.626 75.875V82H175.423V74.7402ZM190.168 71.7393L191.255 71.7529C191.205 72.2406 191.095 72.5801 190.927 72.7715C190.763 72.9629 190.549 73.0859 190.284 73.1406C190.024 73.1953 189.512 73.2227 188.746 73.2227C187.73 73.2227 187.037 73.3206 186.668 73.5166C186.299 73.7126 186.032 74.027 185.868 74.46C185.709 74.8883 185.62 75.4421 185.602 76.1211C185.911 75.6608 186.274 75.3167 186.688 75.0889C187.103 74.8564 187.57 74.7402 188.09 74.7402C189.042 74.7402 189.831 75.0684 190.455 75.7246C191.079 76.3763 191.392 77.2604 191.392 78.377C191.392 79.2246 191.234 79.9196 190.92 80.4619C190.605 81.0042 190.232 81.4235 189.799 81.7197C189.37 82.016 188.785 82.1641 188.042 82.1641C187.181 82.1641 186.511 81.9681 186.032 81.5762C185.554 81.1797 185.187 80.6738 184.932 80.0586C184.676 79.4434 184.549 78.3724 184.549 76.8457C184.549 74.9271 184.872 73.6351 185.52 72.9697C186.171 72.3044 187.172 71.9717 188.521 71.9717C189.359 71.9717 189.835 71.958 189.949 71.9307C190.063 71.9033 190.136 71.8395 190.168 71.7393ZM190.106 78.3428C190.106 77.5863 189.926 76.9665 189.566 76.4834C189.211 76.0003 188.707 75.7588 188.056 75.7588C187.377 75.7588 186.853 76.014 186.483 76.5244C186.114 77.0348 185.93 77.7161 185.93 78.5684C185.93 79.4115 186.132 80.0563 186.538 80.5029C186.948 80.9495 187.452 81.1729 188.049 81.1729C188.66 81.1729 189.154 80.9154 189.532 80.4004C189.915 79.8809 190.106 79.195 190.106 78.3428Z" fill="#BBBBBC"/>
<path fill-rule="evenodd" clip-rule="evenodd" d="M122.5 19.8335C123.03 19.8335 123.459 20.2626 123.459 20.7918V34.2085C123.459 34.7378 123.03 35.1668 122.5 35.1668C121.971 35.1668 121.542 34.7378 121.542 34.2085V20.7918C121.542 20.2626 121.971 19.8335 122.5 19.8335Z" fill="#BBBBBC"/>
<path fill-rule="evenodd" clip-rule="evenodd" d="M114.833 27.4998C114.833 26.9706 115.262 26.5415 115.791 26.5415H129.208C129.737 26.5415 130.166 26.9706 130.166 27.4998C130.166 28.0291 129.737 28.4582 129.208 28.4582H115.791C115.262 28.4582 114.833 28.0291 114.833 27.4998Z" fill="#BBBBBC"/>
<rect x="0.5" y="0.5" width="243" height="99" rx="4.5" stroke="white"/>
</svg>
