<svg width="16" height="16" viewBox="0 0 16 16" fill="none" xmlns="http://www.w3.org/2000/svg">
<path d="M2.33357 14.6666C2.00024 14.6666 1.6669 14.5999 1.33357 14.3999C0.400236 13.8666 0.0669022 12.5999 0.600236 11.6666L6.2669 2.19993C6.4669 1.93327 6.6669 1.6666 6.93357 1.53327C7.40024 1.2666 7.93357 1.19993 8.4669 1.33327C9.00024 1.4666 9.40024 1.79993 9.73357 2.2666L15.3336 11.6666C15.5336 11.9999 15.6002 12.3333 15.6002 12.6666C15.6002 13.1999 15.4002 13.7333 15.0002 14.0666C14.6669 14.4666 14.2002 14.6666 13.6669 14.6666H2.33357ZM7.40024 2.93327L1.80024 12.3333C1.60024 12.6666 1.73357 13.0666 2.0669 13.2666C2.13357 13.3333 2.2669 13.3333 2.33357 13.3333H13.6002C13.8002 13.3333 13.9336 13.2666 14.0669 13.1333C14.2002 12.9999 14.2669 12.8666 14.2669 12.6666C14.2669 12.5333 14.2669 12.4666 14.2002 12.3333L8.60024 2.93327C8.40024 2.59993 8.00024 2.53327 7.6669 2.6666C7.53357 2.73327 7.4669 2.79993 7.40024 2.93327Z" fill="#D80808"/>
<path d="M8.00024 9.33327C7.60024 9.33327 7.33357 9.0666 7.33357 8.6666V5.99993C7.33357 5.59993 7.60024 5.33327 8.00024 5.33327C8.40024 5.33327 8.6669 5.59993 8.6669 5.99993V8.6666C8.6669 9.0666 8.40024 9.33327 8.00024 9.33327Z" fill="#D80808"/>
<path d="M8.00024 11.9999C7.80024 11.9999 7.6669 11.9333 7.53357 11.7999C7.40024 11.6666 7.33357 11.5333 7.33357 11.3333C7.33357 11.2666 7.33357 11.1333 7.40024 11.0666C7.4669 10.9999 7.4669 10.9333 7.53357 10.8666C7.60024 10.7999 7.6669 10.7333 7.73357 10.7333C7.8669 10.6666 8.00024 10.6666 8.13357 10.6666C8.20024 10.6666 8.20024 10.6666 8.2669 10.7333C8.33357 10.7333 8.33357 10.7333 8.40024 10.7999C8.40024 10.7999 8.4669 10.8666 8.53357 10.8666C8.60024 10.9333 8.6669 10.9999 8.6669 11.0666C8.6669 11.1333 8.73357 11.2666 8.73357 11.3333C8.73357 11.5333 8.6669 11.6666 8.53357 11.7999C8.33357 11.9333 8.20024 11.9999 8.00024 11.9999Z" fill="#D80808"/>
</svg>
