<svg width="24" height="24" viewBox="0 0 24 24" fill="none" xmlns="http://www.w3.org/2000/svg">
<path d="M3.49999 21.9999C2.99999 21.9999 2.49999 21.8999 1.99999 21.5999C0.599987 20.7999 0.0999871 18.8999 0.899987 17.4999L9.39999 3.2999C9.69999 2.8999 9.99999 2.4999 10.4 2.2999C11.1 1.8999 11.9 1.7999 12.7 1.9999C13.5 2.1999 14.1 2.6999 14.6 3.3999L23 17.4999C23.3 17.9999 23.4 18.4999 23.4 18.9999C23.4 19.7999 23.1 20.5999 22.5 21.0999C22 21.6999 21.3 21.9999 20.5 21.9999H3.49999ZM11.1 4.3999L2.69999 18.4999C2.39999 18.9999 2.59999 19.5999 3.09999 19.8999C3.19999 19.9999 3.39999 19.9999 3.49999 19.9999H20.4C20.7 19.9999 20.9 19.8999 21.1 19.6999C21.3 19.4999 21.4 19.2999 21.4 18.9999C21.4 18.7999 21.4 18.6999 21.3 18.4999L12.9 4.3999C12.6 3.8999 12 3.7999 11.5 3.9999C11.3 4.0999 11.2 4.1999 11.1 4.3999Z" fill="black"/>
<path d="M12 13.9999C11.4 13.9999 11 13.5999 11 12.9999V8.9999C11 8.3999 11.4 7.9999 12 7.9999C12.6 7.9999 13 8.3999 13 8.9999V12.9999C13 13.5999 12.6 13.9999 12 13.9999Z" fill="black"/>
<path d="M12 17.9999C11.7 17.9999 11.5 17.8999 11.3 17.6999C11.1 17.4999 11 17.2999 11 16.9999C11 16.8999 11 16.6999 11.1 16.5999C11.2 16.4999 11.2 16.3999 11.3 16.2999C11.4 16.1999 11.5 16.0999 11.6 16.0999C11.8 15.9999 12 15.9999 12.2 15.9999C12.3 15.9999 12.3 15.9999 12.4 16.0999C12.5 16.0999 12.5 16.0999 12.6 16.1999C12.6 16.1999 12.7 16.2999 12.8 16.2999C12.9 16.3999 13 16.4999 13 16.5999C13 16.6999 13.1 16.8999 13.1 16.9999C13.1 17.2999 13 17.4999 12.8 17.6999C12.5 17.8999 12.3 17.9999 12 17.9999Z" fill="black"/>
</svg>
