<svg width="129" height="77" viewBox="0 0 129 77" fill="none" xmlns="http://www.w3.org/2000/svg">
<path fill-rule="evenodd" clip-rule="evenodd" d="M127.426 2.4493C129.525 4.54837 129.525 7.95163 127.426 10.0507L76.3632 61.1132C74.2641 63.2123 70.8609 63.2123 68.7618 61.1132L45.6875 38.0389L9.1757 74.5507C7.07663 76.6498 3.67337 76.6498 1.5743 74.5507C-0.524767 72.4516 -0.524767 69.0484 1.5743 66.9493L41.8868 26.6368C43.9859 24.5377 47.3891 24.5377 49.4882 26.6368L72.5625 49.7111L119.824 2.4493C121.923 0.350233 125.327 0.350233 127.426 2.4493Z" fill="#F7F7F7"/>
<path fill-rule="evenodd" clip-rule="evenodd" d="M86 6.25C86 3.28147 88.4065 0.875 91.375 0.875H123.625C126.594 0.875 129 3.28147 129 6.25V38.5C129 41.4685 126.594 43.875 123.625 43.875C120.656 43.875 118.25 41.4685 118.25 38.5V11.625H91.375C88.4065 11.625 86 9.21853 86 6.25Z" fill="#F7F7F7"/>
</svg>
