<svg width="96" height="96" viewBox="0 0 96 96" fill="none" xmlns="http://www.w3.org/2000/svg">
<path d="M37.75 52.4102H38.8047V55.3809C39.0234 55.1309 39.2637 54.9453 39.5254 54.8242C39.7871 54.6992 40.0684 54.6367 40.3691 54.6367C41.1074 54.6367 41.6914 54.9453 42.1211 55.5625C42.5547 56.1758 42.7715 56.9492 42.7715 57.8828C42.7715 58.8555 42.5391 59.6426 42.0742 60.2441C41.6094 60.8418 41.0312 61.1406 40.3398 61.1406C40.1133 61.1406 39.8828 61.1055 39.6484 61.0352C39.4141 60.9648 39.1328 60.7734 38.8047 60.4609V63.3848H37.75V60.4609C37.5391 60.6875 37.3047 60.8574 37.0469 60.9707C36.793 61.084 36.5176 61.1406 36.2207 61.1406C35.5684 61.1406 34.998 60.8555 34.5098 60.2852C34.0215 59.7109 33.7773 58.8906 33.7773 57.8242C33.7773 56.9219 33.998 56.166 34.4395 55.5566C34.8809 54.9434 35.4746 54.6367 36.2207 54.6367C36.5332 54.6367 36.8164 54.6992 37.0703 54.8242C37.3242 54.9453 37.5508 55.1309 37.75 55.3809V52.4102ZM38.7988 57.9121C38.7988 58.8496 38.9277 59.4805 39.1855 59.8047C39.4434 60.125 39.7656 60.2852 40.1523 60.2852C40.582 60.2852 40.9473 60.0879 41.248 59.6934C41.5527 59.2949 41.7051 58.6777 41.7051 57.8418C41.7051 57.0527 41.5645 56.4648 41.2832 56.0781C41.0059 55.6914 40.6484 55.498 40.2109 55.498C39.7422 55.498 39.3887 55.6992 39.1504 56.1016C38.916 56.5039 38.7988 57.1074 38.7988 57.9121ZM34.8496 57.7949C34.8496 58.6738 34.9961 59.3066 35.2891 59.6934C35.5859 60.0801 35.9531 60.2734 36.3906 60.2734C36.8477 60.2734 37.1895 60.082 37.416 59.6992C37.6426 59.3125 37.7559 58.7344 37.7559 57.9648C37.7559 57.1445 37.6367 56.5293 37.3984 56.1191C37.1602 55.709 36.8008 55.5039 36.3203 55.5039C35.8867 55.5039 35.5332 55.7051 35.2598 56.1074C34.9863 56.5059 34.8496 57.0684 34.8496 57.7949ZM43.6152 57.8887C43.6152 56.7363 43.9355 55.8828 44.5762 55.3281C45.1113 54.8672 45.7637 54.6367 46.5332 54.6367C47.3887 54.6367 48.0879 54.918 48.6309 55.4805C49.1738 56.0391 49.4453 56.8125 49.4453 57.8008C49.4453 58.6016 49.3242 59.2324 49.082 59.6934C48.8438 60.1504 48.4941 60.5059 48.0332 60.7598C47.5762 61.0137 47.0762 61.1406 46.5332 61.1406C45.6621 61.1406 44.957 60.8613 44.418 60.3027C43.8828 59.7441 43.6152 58.9395 43.6152 57.8887ZM44.6992 57.8887C44.6992 58.6855 44.873 59.2832 45.2207 59.6816C45.5684 60.0762 46.0059 60.2734 46.5332 60.2734C47.0566 60.2734 47.4922 60.0742 47.8398 59.6758C48.1875 59.2773 48.3613 58.6699 48.3613 57.8535C48.3613 57.084 48.1855 56.502 47.834 56.1074C47.4863 55.709 47.0527 55.5098 46.5332 55.5098C46.0059 55.5098 45.5684 55.707 45.2207 56.1016C44.873 56.4961 44.6992 57.0918 44.6992 57.8887ZM49.8496 54.7773H54.9062V55.6504H52.9023V61H51.8535V55.6504H49.8496V54.7773ZM55.3809 57.8887C55.3809 56.7363 55.7012 55.8828 56.3418 55.3281C56.877 54.8672 57.5293 54.6367 58.2988 54.6367C59.1543 54.6367 59.8535 54.918 60.3965 55.4805C60.9395 56.0391 61.2109 56.8125 61.2109 57.8008C61.2109 58.6016 61.0898 59.2324 60.8477 59.6934C60.6094 60.1504 60.2598 60.5059 59.7988 60.7598C59.3418 61.0137 58.8418 61.1406 58.2988 61.1406C57.4277 61.1406 56.7227 60.8613 56.1836 60.3027C55.6484 59.7441 55.3809 58.9395 55.3809 57.8887ZM56.4648 57.8887C56.4648 58.6855 56.6387 59.2832 56.9863 59.6816C57.334 60.0762 57.7715 60.2734 58.2988 60.2734C58.8223 60.2734 59.2578 60.0742 59.6055 59.6758C59.9531 59.2773 60.127 58.6699 60.127 57.8535C60.127 57.084 59.9512 56.502 59.5996 56.1074C59.252 55.709 58.8184 55.5098 58.2988 55.5098C57.7715 55.5098 57.334 55.707 56.9863 56.1016C56.6387 56.4961 56.4648 57.0918 56.4648 57.8887ZM14.248 75V68.7773H15.1914V69.6504C15.3867 69.3457 15.6465 69.1016 15.9707 68.918C16.2949 68.7305 16.6641 68.6367 17.0781 68.6367C17.5391 68.6367 17.916 68.7324 18.209 68.9238C18.5059 69.1152 18.7148 69.3828 18.8359 69.7266C19.3281 69 19.9688 68.6367 20.7578 68.6367C21.375 68.6367 21.8496 68.8086 22.1816 69.1523C22.5137 69.4922 22.6797 70.0176 22.6797 70.7285V75H21.6309V71.0801C21.6309 70.6582 21.5957 70.3555 21.5254 70.1719C21.459 69.9844 21.3359 69.834 21.1562 69.7207C20.9766 69.6074 20.7656 69.5508 20.5234 69.5508C20.0859 69.5508 19.7227 69.6973 19.4336 69.9902C19.1445 70.2793 19 70.7441 19 71.3848V75H17.9453V70.957C17.9453 70.4883 17.8594 70.1367 17.6875 69.9023C17.5156 69.668 17.2344 69.5508 16.8438 69.5508C16.5469 69.5508 16.2715 69.6289 16.0176 69.7852C15.7676 69.9414 15.5859 70.1699 15.4727 70.4707C15.3594 70.7715 15.3027 71.2051 15.3027 71.7715V75H14.248ZM24.25 67.623V66.4102H25.3047V67.623H24.25ZM24.25 75V68.7773H25.3047V75H24.25ZM26.916 75V68.7773H27.8652V69.6621C28.3223 68.9785 28.9824 68.6367 29.8457 68.6367C30.2207 68.6367 30.5645 68.7051 30.877 68.8418C31.1934 68.9746 31.4297 69.1504 31.5859 69.3691C31.7422 69.5879 31.8516 69.8477 31.9141 70.1484C31.9531 70.3438 31.9727 70.6855 31.9727 71.1738V75H30.918V71.2148C30.918 70.7852 30.877 70.4648 30.7949 70.2539C30.7129 70.0391 30.5664 69.8691 30.3555 69.7441C30.1484 69.6152 29.9043 69.5508 29.623 69.5508C29.1738 69.5508 28.7852 69.6934 28.457 69.9785C28.1328 70.2637 27.9707 70.8047 27.9707 71.6016V75H26.916ZM36.8008 73.0137L37.8145 72.9199C37.9004 73.3965 38.0645 73.7422 38.3066 73.957C38.5488 74.1719 38.8594 74.2793 39.2383 74.2793C39.5625 74.2793 39.8457 74.2051 40.0879 74.0566C40.334 73.9082 40.5352 73.7109 40.6914 73.4648C40.8477 73.2148 40.9785 72.8789 41.084 72.457C41.1895 72.0352 41.2422 71.6055 41.2422 71.168C41.2422 71.1211 41.2402 71.0508 41.2363 70.957C41.0254 71.293 40.7363 71.5664 40.3691 71.7773C40.0059 71.9844 39.6113 72.0879 39.1855 72.0879C38.4746 72.0879 37.873 71.8301 37.3809 71.3145C36.8887 70.7988 36.6426 70.1191 36.6426 69.2754C36.6426 68.4043 36.8984 67.7031 37.4102 67.1719C37.9258 66.6406 38.5703 66.375 39.3438 66.375C39.9023 66.375 40.4121 66.5254 40.873 66.8262C41.3379 67.127 41.6895 67.5566 41.9277 68.1152C42.1699 68.6699 42.291 69.4746 42.291 70.5293C42.291 71.627 42.1719 72.502 41.9336 73.1543C41.6953 73.8027 41.3398 74.2969 40.8672 74.6367C40.3984 74.9766 39.8477 75.1465 39.2148 75.1465C38.543 75.1465 37.9941 74.9609 37.5684 74.5898C37.1426 74.2148 36.8867 73.6895 36.8008 73.0137ZM41.1191 69.2227C41.1191 68.6172 40.957 68.1367 40.6328 67.7812C40.3125 67.4258 39.9258 67.248 39.4727 67.248C39.0039 67.248 38.5957 67.4395 38.248 67.8223C37.9004 68.2051 37.7266 68.7012 37.7266 69.3105C37.7266 69.8574 37.8906 70.3027 38.2188 70.6465C38.5508 70.9863 38.959 71.1562 39.4434 71.1562C39.9316 71.1562 40.332 70.9863 40.6445 70.6465C40.9609 70.3027 41.1191 69.8281 41.1191 69.2227ZM48.7949 68.5137L47.7461 68.5957C47.6523 68.1816 47.5195 67.8809 47.3477 67.6934C47.0625 67.3926 46.7109 67.2422 46.293 67.2422C45.957 67.2422 45.6621 67.3359 45.4082 67.5234C45.0762 67.7656 44.8145 68.1191 44.623 68.584C44.4316 69.0488 44.332 69.7109 44.3242 70.5703C44.5781 70.1836 44.8887 69.8965 45.2559 69.709C45.623 69.5215 46.0078 69.4277 46.4102 69.4277C47.1133 69.4277 47.7109 69.6875 48.2031 70.207C48.6992 70.7227 48.9473 71.3906 48.9473 72.2109C48.9473 72.75 48.8301 73.252 48.5957 73.7168C48.3652 74.1777 48.0469 74.5312 47.6406 74.7773C47.2344 75.0234 46.7734 75.1465 46.2578 75.1465C45.3789 75.1465 44.6621 74.8242 44.1074 74.1797C43.5527 73.5312 43.2754 72.4648 43.2754 70.9805C43.2754 69.3203 43.582 68.1133 44.1953 67.3594C44.7305 66.7031 45.4512 66.375 46.3574 66.375C47.0332 66.375 47.5859 66.5645 48.0156 66.9434C48.4492 67.3223 48.709 67.8457 48.7949 68.5137ZM44.4883 72.2168C44.4883 72.5801 44.5645 72.9277 44.7168 73.2598C44.873 73.5918 45.0898 73.8457 45.3672 74.0215C45.6445 74.1934 45.9355 74.2793 46.2402 74.2793C46.6855 74.2793 47.0684 74.0996 47.3887 73.7402C47.709 73.3809 47.8691 72.8926 47.8691 72.2754C47.8691 71.6816 47.7109 71.2148 47.3945 70.875C47.0781 70.5312 46.6797 70.3594 46.1992 70.3594C45.7227 70.3594 45.3184 70.5312 44.9863 70.875C44.6543 71.2148 44.4883 71.6621 44.4883 72.2168ZM49.5918 75L51.8652 71.7656L49.7617 68.7773H51.0801L52.0352 70.2363C52.2148 70.5137 52.3594 70.7461 52.4688 70.9336C52.6406 70.6758 52.7988 70.4473 52.9434 70.248L53.9922 68.7773H55.252L53.1016 71.707L55.416 75H54.1211L52.8438 73.0664L52.5039 72.5449L50.8691 75H49.5918ZM56.1602 73.0137L57.1738 72.9199C57.2598 73.3965 57.4238 73.7422 57.666 73.957C57.9082 74.1719 58.2188 74.2793 58.5977 74.2793C58.9219 74.2793 59.2051 74.2051 59.4473 74.0566C59.6934 73.9082 59.8945 73.7109 60.0508 73.4648C60.207 73.2148 60.3379 72.8789 60.4434 72.457C60.5488 72.0352 60.6016 71.6055 60.6016 71.168C60.6016 71.1211 60.5996 71.0508 60.5957 70.957C60.3848 71.293 60.0957 71.5664 59.7285 71.7773C59.3652 71.9844 58.9707 72.0879 58.5449 72.0879C57.834 72.0879 57.2324 71.8301 56.7402 71.3145C56.248 70.7988 56.002 70.1191 56.002 69.2754C56.002 68.4043 56.2578 67.7031 56.7695 67.1719C57.2852 66.6406 57.9297 66.375 58.7031 66.375C59.2617 66.375 59.7715 66.5254 60.2324 66.8262C60.6973 67.127 61.0488 67.5566 61.2871 68.1152C61.5293 68.6699 61.6504 69.4746 61.6504 70.5293C61.6504 71.627 61.5312 72.502 61.293 73.1543C61.0547 73.8027 60.6992 74.2969 60.2266 74.6367C59.7578 74.9766 59.207 75.1465 58.5742 75.1465C57.9023 75.1465 57.3535 74.9609 56.9277 74.5898C56.502 74.2148 56.2461 73.6895 56.1602 73.0137ZM60.4785 69.2227C60.4785 68.6172 60.3164 68.1367 59.9922 67.7812C59.6719 67.4258 59.2852 67.248 58.832 67.248C58.3633 67.248 57.9551 67.4395 57.6074 67.8223C57.2598 68.2051 57.0859 68.7012 57.0859 69.3105C57.0859 69.8574 57.25 70.3027 57.5781 70.6465C57.9102 70.9863 58.3184 71.1562 58.8027 71.1562C59.291 71.1562 59.6914 70.9863 60.0039 70.6465C60.3203 70.3027 60.4785 69.8281 60.4785 69.2227ZM68.1543 68.5137L67.1055 68.5957C67.0117 68.1816 66.8789 67.8809 66.707 67.6934C66.4219 67.3926 66.0703 67.2422 65.6523 67.2422C65.3164 67.2422 65.0215 67.3359 64.7676 67.5234C64.4355 67.7656 64.1738 68.1191 63.9824 68.584C63.791 69.0488 63.6914 69.7109 63.6836 70.5703C63.9375 70.1836 64.248 69.8965 64.6152 69.709C64.9824 69.5215 65.3672 69.4277 65.7695 69.4277C66.4727 69.4277 67.0703 69.6875 67.5625 70.207C68.0586 70.7227 68.3066 71.3906 68.3066 72.2109C68.3066 72.75 68.1895 73.252 67.9551 73.7168C67.7246 74.1777 67.4062 74.5312 67 74.7773C66.5938 75.0234 66.1328 75.1465 65.6172 75.1465C64.7383 75.1465 64.0215 74.8242 63.4668 74.1797C62.9121 73.5312 62.6348 72.4648 62.6348 70.9805C62.6348 69.3203 62.9414 68.1133 63.5547 67.3594C64.0898 66.7031 64.8105 66.375 65.7168 66.375C66.3926 66.375 66.9453 66.5645 67.375 66.9434C67.8086 67.3223 68.0684 67.8457 68.1543 68.5137ZM63.8477 72.2168C63.8477 72.5801 63.9238 72.9277 64.0762 73.2598C64.2324 73.5918 64.4492 73.8457 64.7266 74.0215C65.0039 74.1934 65.2949 74.2793 65.5996 74.2793C66.0449 74.2793 66.4277 74.0996 66.748 73.7402C67.0684 73.3809 67.2285 72.8926 67.2285 72.2754C67.2285 71.6816 67.0703 71.2148 66.7539 70.875C66.4375 70.5312 66.0391 70.3594 65.5586 70.3594C65.082 70.3594 64.6777 70.5312 64.3457 70.875C64.0137 71.2148 63.8477 71.6621 63.8477 72.2168ZM69.6543 77.3848V68.7773H70.6152V69.5859C70.8418 69.2695 71.0977 69.0332 71.3828 68.877C71.668 68.7168 72.0137 68.6367 72.4199 68.6367C72.9512 68.6367 73.4199 68.7734 73.8262 69.0469C74.2324 69.3203 74.5391 69.707 74.7461 70.207C74.9531 70.7031 75.0566 71.248 75.0566 71.8418C75.0566 72.4785 74.9414 73.0527 74.7109 73.5645C74.4844 74.0723 74.1523 74.4629 73.7148 74.7363C73.2812 75.0059 72.8242 75.1406 72.3438 75.1406C71.9922 75.1406 71.6758 75.0664 71.3945 74.918C71.1172 74.7695 70.8887 74.582 70.709 74.3555V77.3848H69.6543ZM70.6094 71.9238C70.6094 72.7246 70.7715 73.3164 71.0957 73.6992C71.4199 74.082 71.8125 74.2734 72.2734 74.2734C72.7422 74.2734 73.1426 74.0762 73.4746 73.6816C73.8105 73.2832 73.9785 72.668 73.9785 71.8359C73.9785 71.043 73.8145 70.4492 73.4863 70.0547C73.1621 69.6602 72.7734 69.4629 72.3203 69.4629C71.8711 69.4629 71.4727 69.6738 71.125 70.0957C70.7812 70.5137 70.6094 71.123 70.6094 71.9238ZM75.6309 75L77.9043 71.7656L75.8008 68.7773H77.1191L78.0742 70.2363C78.2539 70.5137 78.3984 70.7461 78.5078 70.9336C78.6797 70.6758 78.8379 70.4473 78.9824 70.248L80.0312 68.7773H81.291L79.1406 71.707L81.4551 75H80.1602L78.8828 73.0664L78.543 72.5449L76.9082 75H75.6309Z" fill="#EBEBEB"/>
<path fill-rule="evenodd" clip-rule="evenodd" d="M47 22C47.5523 22 48 22.4477 48 23V37C48 37.5523 47.5523 38 47 38C46.4477 38 46 37.5523 46 37V23C46 22.4477 46.4477 22 47 22Z" fill="#EBEBEB"/>
<path fill-rule="evenodd" clip-rule="evenodd" d="M39 30C39 29.4477 39.4477 29 40 29H54C54.5523 29 55 29.4477 55 30C55 30.5523 54.5523 31 54 31H40C39.4477 31 39 30.5523 39 30Z" fill="#EBEBEB"/>
</svg>
