<svg width="32" height="32" viewBox="0 0 32 32" fill="none" xmlns="http://www.w3.org/2000/svg">
<path fill-rule="evenodd" clip-rule="evenodd" d="M23.9998 12C24.7362 12 25.3332 12.597 25.3332 13.3333V26.6667C25.3332 27.403 24.7362 28 23.9998 28C23.2635 28 22.6665 27.403 22.6665 26.6667V13.3333C22.6665 12.597 23.2635 12 23.9998 12Z" fill="black"/>
<path fill-rule="evenodd" clip-rule="evenodd" d="M15.9998 4C16.7362 4 17.3332 4.59695 17.3332 5.33333V26.6667C17.3332 27.403 16.7362 28 15.9998 28C15.2635 28 14.6665 27.403 14.6665 26.6667V5.33333C14.6665 4.59695 15.2635 4 15.9998 4Z" fill="black"/>
<path fill-rule="evenodd" clip-rule="evenodd" d="M7.99984 17.3333C8.73622 17.3333 9.33317 17.9302 9.33317 18.6666V26.6666C9.33317 27.403 8.73622 27.9999 7.99984 27.9999C7.26346 27.9999 6.6665 27.403 6.6665 26.6666V18.6666C6.6665 17.9302 7.26346 17.3333 7.99984 17.3333Z" fill="black"/>
</svg>
