<svg width="20" height="20" viewBox="0 0 20 20" fill="none" xmlns="http://www.w3.org/2000/svg">
<path fill-rule="evenodd" clip-rule="evenodd" d="M10.0003 7.5C10.4606 7.5 10.8337 7.8731 10.8337 8.33333V16.6667C10.8337 17.1269 10.4606 17.5 10.0003 17.5C9.54009 17.5 9.16699 17.1269 9.16699 16.6667V8.33333C9.16699 7.8731 9.54009 7.5 10.0003 7.5Z" fill="#333333"/>
<path fill-rule="evenodd" clip-rule="evenodd" d="M15.0003 2.5C15.4606 2.5 15.8337 2.8731 15.8337 3.33333V16.6667C15.8337 17.1269 15.4606 17.5 15.0003 17.5C14.5401 17.5 14.167 17.1269 14.167 16.6667V3.33333C14.167 2.8731 14.5401 2.5 15.0003 2.5Z" fill="#333333"/>
<path fill-rule="evenodd" clip-rule="evenodd" d="M5.00033 12.5C5.46056 12.5 5.83366 12.8731 5.83366 13.3333V16.6667C5.83366 17.1269 5.46056 17.5 5.00033 17.5C4.54009 17.5 4.16699 17.1269 4.16699 16.6667V13.3333C4.16699 12.8731 4.54009 12.5 5.00033 12.5Z" fill="#333333"/>
</svg>
