<svg width="24" height="24" viewBox="0 0 24 24" fill="none" xmlns="http://www.w3.org/2000/svg">
<path fill-rule="evenodd" clip-rule="evenodd" d="M11.5559 2.34523C11.5556 2.34538 11.5553 2.34553 11.555 2.34568L3.5572 6.34458L3.55499 6.34568C3.38838 6.42847 3.24817 6.55609 3.15013 6.7142C3.05211 6.87226 3.00012 7.05451 2.99999 7.24049C2.99999 7.24043 2.99999 7.24055 2.99999 7.24049V16.7671C2.99869 16.9535 3.04948 17.1365 3.14666 17.2955C3.24368 17.4543 3.38307 17.5828 3.54914 17.6667C3.54887 17.6666 3.54942 17.6668 3.54914 17.6667L11.5472 21.6657C11.6861 21.7352 11.8396 21.7716 11.995 21.7716C12.1503 21.7716 12.3036 21.7354 12.4425 21.6659L20.4428 17.6657L20.445 17.6646C20.6116 17.5818 20.7518 17.4542 20.8498 17.2961C20.9479 17.138 20.9999 16.9557 21 16.7696V7.24068C20.9999 7.05464 20.9479 6.87231 20.8498 6.7142C20.7518 6.55609 20.6116 6.42847 20.445 6.34568L20.4428 6.34458L12.445 2.34568C12.4447 2.34553 12.4444 2.34538 12.4441 2.34523C12.306 2.27681 12.1541 2.24121 12 2.24121C11.8459 2.24121 11.6939 2.27681 11.5559 2.34523ZM12.89 1.45015L13.335 0.554619C12.9202 0.348483 12.4632 0.241211 12 0.241211C11.5368 0.241211 11.0798 0.348483 10.665 0.554619L10.6628 0.555723L2.66499 4.55462C2.66458 4.55482 2.66416 4.55503 2.66375 4.55523C2.16448 4.80361 1.7443 5.18625 1.45041 5.66019C1.15627 6.13452 1.00028 6.68149 0.999988 7.23962L0.999987 16.757C0.996817 17.3148 1.14921 17.8624 1.44009 18.3384C1.73164 18.8155 2.15071 19.2016 2.65001 19.4532L2.65277 19.4546L10.6525 23.4544C11.0693 23.663 11.5289 23.7716 11.995 23.7716C12.4609 23.7716 12.9205 23.663 13.3372 23.4546C13.3373 23.4545 13.3371 23.4546 13.3372 23.4546L21.335 19.4557C21.3353 19.4555 21.3357 19.4553 21.336 19.4552C21.8354 19.2068 22.2556 18.8241 22.5496 18.3501C22.8437 17.8758 22.9997 17.3288 23 16.7707V7.24015C22.9997 6.68202 22.8437 6.13451 22.5496 5.66019C22.2557 5.18626 21.8355 4.80364 21.3363 4.55526C21.3358 4.55504 21.3354 4.55483 21.335 4.55462L13.3372 0.555723L12.89 1.45015Z" fill="black"/>
<path fill-rule="evenodd" clip-rule="evenodd" d="M1.42556 5.71294C1.67255 5.21896 2.27322 5.01873 2.7672 5.26572L12 9.88212L21.2328 5.26572C21.7268 5.01873 22.3274 5.21896 22.5744 5.71294C22.8214 6.20691 22.6212 6.80759 22.1272 7.05458L12.4472 11.8946C12.1657 12.0353 11.8343 12.0353 11.5528 11.8946L1.87277 7.05458C1.3788 6.80759 1.17857 6.20691 1.42556 5.71294Z" fill="black"/>
<path fill-rule="evenodd" clip-rule="evenodd" d="M12 10.0001C12.5523 10.0001 13 10.4479 13 11.0001V22.7602C13 23.3124 12.5523 23.7602 12 23.7602C11.4477 23.7602 11 23.3124 11 22.7602V11.0001C11 10.4479 11.4477 10.0001 12 10.0001Z" fill="black"/>
</svg>
