<svg width="16" height="16" viewBox="0 0 16 16" fill="none" xmlns="http://www.w3.org/2000/svg">
<path d="M5.30469 5.2959H8.60791C9.28467 5.2959 9.79134 5.41943 10.1279 5.6665C10.4645 5.91357 10.6328 6.28597 10.6328 6.78369C10.6328 7.10238 10.5397 7.37988 10.3535 7.61621C10.1709 7.85254 9.93994 8.01009 9.66064 8.08887C10.0545 8.18555 10.3481 8.36637 10.5415 8.63135C10.7349 8.89632 10.8315 9.18636 10.8315 9.50146C10.8315 9.94548 10.6686 10.3071 10.3428 10.5864C10.0169 10.8621 9.53532 11 8.89795 11H5.30469V5.2959ZM6.82471 7.66455H7.79688C8.26595 7.66455 8.60433 7.60547 8.81201 7.4873C9.02327 7.36914 9.12891 7.18294 9.12891 6.92871C9.12891 6.6888 9.03044 6.51872 8.8335 6.41846C8.64014 6.31462 8.2946 6.2627 7.79688 6.2627H6.82471V7.66455ZM6.82471 10.0332H8.01709C8.44678 10.0332 8.76009 9.98128 8.95703 9.87744C9.15397 9.7736 9.25244 9.5874 9.25244 9.31885C9.25244 9.03955 9.13965 8.84798 8.91406 8.74414C8.68848 8.63672 8.24984 8.58301 7.59814 8.58301H6.82471V10.0332Z" fill="black"/>
<path fill-rule="evenodd" clip-rule="evenodd" d="M8.00033 2.00033C4.68662 2.00033 2.00033 4.68662 2.00033 8.00033C2.00033 11.314 4.68662 14.0003 8.00033 14.0003C11.314 14.0003 14.0003 11.314 14.0003 8.00033C14.0003 4.68662 11.314 2.00033 8.00033 2.00033ZM0.666992 8.00033C0.666992 3.95024 3.95024 0.666992 8.00033 0.666992C12.0504 0.666992 15.3337 3.95024 15.3337 8.00033C15.3337 12.0504 12.0504 15.3337 8.00033 15.3337C3.95024 15.3337 0.666992 12.0504 0.666992 8.00033Z" fill="black"/>
</svg>
