<svg width="32" height="32" viewBox="0 0 32 32" fill="none" xmlns="http://www.w3.org/2000/svg">
<path fill-rule="evenodd" clip-rule="evenodd" d="M5.33325 10.6667C4.59687 10.6667 3.99992 11.2637 3.99992 12.0001V25.3334C3.99992 26.0698 4.59687 26.6667 5.33325 26.6667H26.6666C27.403 26.6667 27.9999 26.0698 27.9999 25.3334V12.0001C27.9999 11.2637 27.403 10.6667 26.6666 10.6667H5.33325ZM1.33325 12.0001C1.33325 9.79094 3.12411 8.00008 5.33325 8.00008H26.6666C28.8757 8.00008 30.6666 9.79094 30.6666 12.0001V25.3334C30.6666 27.5426 28.8757 29.3334 26.6666 29.3334H5.33325C3.12411 29.3334 1.33325 27.5426 1.33325 25.3334V12.0001Z" fill="black"/>
<path fill-rule="evenodd" clip-rule="evenodd" d="M10.5048 3.83832C11.255 3.08818 12.2724 2.66675 13.3333 2.66675H18.6666C19.7274 2.66675 20.7449 3.08818 21.495 3.83832C22.2452 4.58847 22.6666 5.60588 22.6666 6.66675V28.0001C22.6666 28.7365 22.0696 29.3334 21.3333 29.3334C20.5969 29.3334 19.9999 28.7365 19.9999 28.0001V6.66675C19.9999 6.31313 19.8594 5.97399 19.6094 5.72394C19.3593 5.47389 19.0202 5.33341 18.6666 5.33341H13.3333C12.9796 5.33341 12.6405 5.47389 12.3904 5.72394C12.1404 5.97399 11.9999 6.31313 11.9999 6.66675V28.0001C11.9999 28.7365 11.403 29.3334 10.6666 29.3334C9.93021 29.3334 9.33325 28.7365 9.33325 28.0001V6.66675C9.33325 5.60588 9.75468 4.58847 10.5048 3.83832Z" fill="black"/>
</svg>
