<svg width="16" height="16" viewBox="0 0 16 16" fill="none" xmlns="http://www.w3.org/2000/svg">
<path fill-rule="evenodd" clip-rule="evenodd" d="M2.66675 5.3335C2.29856 5.3335 2.00008 5.63197 2.00008 6.00016V12.6668C2.00008 13.035 2.29856 13.3335 2.66675 13.3335H13.3334C13.7016 13.3335 14.0001 13.035 14.0001 12.6668V6.00016C14.0001 5.63197 13.7016 5.3335 13.3334 5.3335H2.66675ZM0.666748 6.00016C0.666748 4.89559 1.56218 4.00016 2.66675 4.00016H13.3334C14.438 4.00016 15.3334 4.89559 15.3334 6.00016V12.6668C15.3334 13.7714 14.438 14.6668 13.3334 14.6668H2.66675C1.56218 14.6668 0.666748 13.7714 0.666748 12.6668V6.00016Z" fill="#BBBBBC"/>
<path fill-rule="evenodd" clip-rule="evenodd" d="M5.25253 1.91928C5.62761 1.54421 6.13631 1.3335 6.66675 1.3335H9.33341C9.86385 1.3335 10.3726 1.54421 10.7476 1.91928C11.1227 2.29436 11.3334 2.80306 11.3334 3.3335V14.0002C11.3334 14.3684 11.0349 14.6668 10.6667 14.6668C10.2986 14.6668 10.0001 14.3684 10.0001 14.0002V3.3335C10.0001 3.15669 9.92984 2.98712 9.80482 2.86209C9.67979 2.73707 9.51023 2.66683 9.33341 2.66683H6.66675C6.48994 2.66683 6.32037 2.73707 6.19534 2.86209C6.07032 2.98712 6.00008 3.15669 6.00008 3.3335V14.0002C6.00008 14.3684 5.7016 14.6668 5.33341 14.6668C4.96522 14.6668 4.66675 14.3684 4.66675 14.0002V3.3335C4.66675 2.80306 4.87746 2.29436 5.25253 1.91928Z" fill="#BBBBBC"/>
</svg>
