<svg width="24" height="24" viewBox="0 0 24 24" fill="none" xmlns="http://www.w3.org/2000/svg">
<path fill-rule="evenodd" clip-rule="evenodd" d="M10.0007 12C10.0007 10.8954 10.8961 10 12.0007 10C13.1052 10 14.0007 10.8954 14.0007 12C14.0007 13.1046 13.1052 14 12.0007 14C10.8961 14 10.0007 13.1046 10.0007 12Z" fill="black"/>
<path fill-rule="evenodd" clip-rule="evenodd" d="M10.0007 5C10.0007 3.89543 10.8961 3 12.0007 3C13.1052 3 14.0007 3.89543 14.0007 5C14.0007 6.10457 13.1052 7 12.0007 7C10.8961 7 10.0007 6.10457 10.0007 5Z" fill="black"/>
<path fill-rule="evenodd" clip-rule="evenodd" d="M10.0007 19C10.0007 17.8954 10.8961 17 12.0007 17C13.1052 17 14.0007 17.8954 14.0007 19C14.0007 20.1046 13.1052 21 12.0007 21C10.8961 21 10.0007 20.1046 10.0007 19Z" fill="black"/>
</svg>
