<svg width="16" height="16" viewBox="0 0 16 16" fill="none" xmlns="http://www.w3.org/2000/svg">
<path fill-rule="evenodd" clip-rule="evenodd" d="M15.1381 2.19526C15.3984 2.45561 15.3984 2.87772 15.1381 3.13807L8.47141 9.80474C8.21107 10.0651 7.78896 10.0651 7.52861 9.80474L5.52861 7.80474C5.26826 7.54439 5.26826 7.12228 5.52861 6.86193C5.78896 6.60158 6.21107 6.60158 6.47141 6.86193L8.00001 8.39052L14.1953 2.19526C14.4556 1.93491 14.8777 1.93491 15.1381 2.19526Z" fill="black"/>
<path fill-rule="evenodd" clip-rule="evenodd" d="M3.33334 2.66683C3.15653 2.66683 2.98696 2.73707 2.86194 2.86209C2.73691 2.98712 2.66668 3.15669 2.66668 3.3335V12.6668C2.66668 12.8436 2.73691 13.0132 2.86194 13.1382C2.98696 13.2633 3.15653 13.3335 3.33334 13.3335H12.6667C12.8435 13.3335 13.0131 13.2633 13.1381 13.1382C13.2631 13.0132 13.3333 12.8436 13.3333 12.6668V8.00016C13.3333 7.63197 13.6318 7.3335 14 7.3335C14.3682 7.3335 14.6667 7.63197 14.6667 8.00016V12.6668C14.6667 13.1973 14.456 13.706 14.0809 14.081C13.7058 14.4561 13.1971 14.6668 12.6667 14.6668H3.33334C2.80291 14.6668 2.2942 14.4561 1.91913 14.081C1.54406 13.706 1.33334 13.1973 1.33334 12.6668V3.3335C1.33334 2.80306 1.54406 2.29436 1.91913 1.91928C2.2942 1.54421 2.80291 1.3335 3.33334 1.3335H10.6667C11.0349 1.3335 11.3333 1.63197 11.3333 2.00016C11.3333 2.36835 11.0349 2.66683 10.6667 2.66683H3.33334Z" fill="black"/>
</svg>
