<svg width="16" height="16" viewBox="0 0 16 16" fill="none" xmlns="http://www.w3.org/2000/svg">
<path fill-rule="evenodd" clip-rule="evenodd" d="M0.666504 7.99984C0.666504 3.94975 3.94975 0.666504 7.99984 0.666504C12.0499 0.666504 15.3332 3.94975 15.3332 7.99984C15.3332 12.0499 12.0499 15.3332 7.99984 15.3332C3.94975 15.3332 0.666504 12.0499 0.666504 7.99984Z" fill="black"/>
<path fill-rule="evenodd" clip-rule="evenodd" d="M11.5403 5.36182C11.8007 5.62217 11.8007 6.04428 11.5403 6.30463L7.40223 10.638C7.14188 10.8983 6.71977 10.8983 6.45942 10.638L4.45942 8.63796C4.19907 8.37761 4.19907 7.9555 4.45942 7.69515C4.71977 7.4348 5.14188 7.4348 5.40223 7.69515L6.93083 9.22375L10.5975 5.36182C10.8578 5.10147 11.28 5.10147 11.5403 5.36182Z" fill="white"/>
</svg>
