<svg width="16" height="16" viewBox="0 0 16 16" fill="none" xmlns="http://www.w3.org/2000/svg">
<path fill-rule="evenodd" clip-rule="evenodd" d="M0.666992 7.99996C0.666992 3.94987 3.95024 0.666626 8.00033 0.666626C12.0504 0.666626 15.3337 3.94987 15.3337 7.99996C15.3337 12.05 12.0504 15.3333 8.00033 15.3333C3.95024 15.3333 0.666992 12.05 0.666992 7.99996Z" fill="#33CC00"/>
<path fill-rule="evenodd" clip-rule="evenodd" d="M11.5408 5.36194C11.8011 5.62229 11.8011 6.0444 11.5408 6.30475L7.40272 10.6381C7.14237 10.8984 6.72026 10.8984 6.45991 10.6381L4.45991 8.63808C4.19956 8.37773 4.19956 7.95562 4.45991 7.69527C4.72026 7.43492 5.14237 7.43492 5.40272 7.69527L6.93131 9.22387L10.598 5.36194C10.8583 5.10159 11.2804 5.10159 11.5408 5.36194Z" fill="white"/>
</svg>
