<svg width="22" height="22" viewBox="0 0 22 22" fill="none" xmlns="http://www.w3.org/2000/svg">
<path fill-rule="evenodd" clip-rule="evenodd" d="M0 11C0 4.92487 4.92487 0 11 0C17.0751 0 22 4.92487 22 11C22 17.0751 17.0751 22 11 22C4.92487 22 0 17.0751 0 11Z" fill="black"/>
<path fill-rule="evenodd" clip-rule="evenodd" d="M16.3107 7.04291C16.7012 7.43343 16.7012 8.0666 16.3107 8.45712L10.1036 14.9571C9.71304 15.3476 9.07987 15.3476 8.68935 14.9571L5.68935 11.9571C5.29882 11.5666 5.29882 10.9334 5.68935 10.5429C6.07987 10.1524 6.71304 10.1524 7.10356 10.5429L9.39645 12.8358L14.8965 7.04291C15.287 6.65238 15.9201 6.65238 16.3107 7.04291Z" fill="white"/>
</svg>
