<svg width="32" height="32" viewBox="0 0 32 32" fill="none" xmlns="http://www.w3.org/2000/svg">
<path fill-rule="evenodd" clip-rule="evenodd" d="M8 6.66667C7.64638 6.66667 7.30724 6.80714 7.05719 7.05719C6.80714 7.30724 6.66667 7.64638 6.66667 8V26.6667C6.66667 27.0203 6.80714 27.3594 7.05719 27.6095C7.30724 27.8595 7.64638 28 8 28H24C24.3536 28 24.6928 27.8595 24.9428 27.6095C25.1929 27.3594 25.3333 27.0203 25.3333 26.6667V8C25.3333 7.64638 25.1929 7.30724 24.9428 7.05719C24.6928 6.80714 24.3536 6.66667 24 6.66667H21.3333C20.597 6.66667 20 6.06971 20 5.33333C20 4.59695 20.597 4 21.3333 4H24C25.0609 4 26.0783 4.42143 26.8284 5.17157C27.5786 5.92172 28 6.93913 28 8V26.6667C28 27.7275 27.5786 28.7449 26.8284 29.4951C26.0783 30.2452 25.0609 30.6667 24 30.6667H8C6.93913 30.6667 5.92172 30.2452 5.17157 29.4951C4.42143 28.7449 4 27.7275 4 26.6667V8C4 6.93913 4.42143 5.92172 5.17157 5.17157C5.92172 4.42143 6.93913 4 8 4H10.6667C11.403 4 12 4.59695 12 5.33333C12 6.06971 11.403 6.66667 10.6667 6.66667H8Z" fill="black"/>
<path fill-rule="evenodd" clip-rule="evenodd" d="M9.3335 3.99992C9.3335 2.52716 10.5274 1.33325 12.0002 1.33325H20.0002C21.4729 1.33325 22.6668 2.52716 22.6668 3.99992V6.66658C22.6668 8.13934 21.4729 9.33325 20.0002 9.33325H12.0002C10.5274 9.33325 9.3335 8.13934 9.3335 6.66658V3.99992ZM20.0002 3.99992H12.0002V6.66658H20.0002V3.99992Z" fill="black"/>
</svg>
