<svg width="34" height="34" viewBox="0 0 34 34" fill="none" xmlns="http://www.w3.org/2000/svg">
<path fill-rule="evenodd" clip-rule="evenodd" d="M11.3136 11.3432C11.7041 10.9527 12.3372 10.9527 12.7278 11.3432L22.6273 21.2427C23.0178 21.6332 23.0178 22.2664 22.6273 22.6569C22.2367 23.0474 21.6036 23.0474 21.213 22.6569L11.3136 12.7574C10.923 12.3669 10.923 11.7337 11.3136 11.3432Z" fill="white"/>
<path fill-rule="evenodd" clip-rule="evenodd" d="M11.3136 22.6568C10.923 22.2663 10.923 21.6331 11.3136 21.2426L21.213 11.3431C21.6036 10.9526 22.2367 10.9526 22.6273 11.3431C23.0178 11.7336 23.0178 12.3668 22.6273 12.7573L12.7278 22.6568C12.3372 23.0473 11.7041 23.0473 11.3136 22.6568Z" fill="white"/>
</svg>
