<svg width="24" height="24" viewBox="0 0 24 24" fill="none" xmlns="http://www.w3.org/2000/svg">
<g clip-path="url(#clip0_0_1629)">
<path fill-rule="evenodd" clip-rule="evenodd" d="M8 18C8.55228 18 9 18.4477 9 19V21C9 21.5523 8.55228 22 8 22C7.44772 22 7 21.5523 7 21V19C7 18.4477 7.44772 18 8 18Z" fill="black"/>
<path fill-rule="evenodd" clip-rule="evenodd" d="M8 12C8.55228 12 9 12.4477 9 13V15C9 15.5523 8.55228 16 8 16C7.44772 16 7 15.5523 7 15V13C7 12.4477 7.44772 12 8 12Z" fill="black"/>
<path fill-rule="evenodd" clip-rule="evenodd" d="M16 18C16.5523 18 17 18.4477 17 19V21C17 21.5523 16.5523 22 16 22C15.4477 22 15 21.5523 15 21V19C15 18.4477 15.4477 18 16 18Z" fill="black"/>
<path fill-rule="evenodd" clip-rule="evenodd" d="M16 12C16.5523 12 17 12.4477 17 13V15C17 15.5523 16.5523 16 16 16C15.4477 16 15 15.5523 15 15V13C15 12.4477 15.4477 12 16 12Z" fill="black"/>
<path fill-rule="evenodd" clip-rule="evenodd" d="M12 20C12.5523 20 13 20.4477 13 21V23C13 23.5523 12.5523 24 12 24C11.4477 24 11 23.5523 11 23V21C11 20.4477 11.4477 20 12 20Z" fill="black"/>
<path fill-rule="evenodd" clip-rule="evenodd" d="M12 14C12.5523 14 13 14.4477 13 15V17C13 17.5523 12.5523 18 12 18C11.4477 18 11 17.5523 11 17V15C11 14.4477 11.4477 14 12 14Z" fill="black"/>
<path fill-rule="evenodd" clip-rule="evenodd" d="M8.08235 0.0467898C9.50123 -0.0976905 10.9341 0.0971033 12.2629 0.615115C13.5918 1.13313 14.7784 1.95952 15.7252 3.02619C16.498 3.89686 17.0928 4.90727 17.4793 6.0002H18.0012C19.3783 6.00182 20.713 6.47715 21.7812 7.3464C22.8494 8.21566 23.586 9.42591 23.8675 10.774C24.1489 12.1221 23.958 13.526 23.3268 14.7501C22.6957 15.9741 21.6626 16.9437 20.4011 17.4962C19.8953 17.7178 19.3055 17.4873 19.084 16.9814C18.8624 16.4755 19.0929 15.8858 19.5988 15.6642C20.4398 15.2959 21.1285 14.6494 21.5493 13.8334C21.97 13.0174 22.0973 12.0815 21.9097 11.1827C21.722 10.284 21.231 9.47717 20.5188 8.89767C19.8068 8.31825 18.9172 8.00137 17.9992 8.0002C17.9991 8.0002 17.9993 8.0002 17.9992 8.0002H16.74C16.284 8.0002 15.8857 7.69174 15.7717 7.25024C15.4944 6.17619 14.9657 5.18344 14.2294 4.35381C13.493 3.52418 12.5701 2.88143 11.5365 2.47853C10.503 2.07563 9.38853 1.92413 8.28496 2.0365C7.18139 2.14887 6.12032 2.52191 5.18922 3.12486C4.25812 3.72781 3.48364 4.54341 2.92963 5.50443C2.37561 6.46546 2.05792 7.54439 2.00275 8.65229C1.94757 9.7602 2.15648 10.8654 2.61226 11.8767C3.06805 12.888 3.75765 13.7765 4.62424 14.469C5.05569 14.8138 5.12596 15.443 4.78119 15.8745C4.43642 16.3059 3.80716 16.3762 3.37571 16.0314C2.26153 15.1411 1.3749 13.9987 0.788889 12.6984C0.202881 11.3982 -0.0657213 9.97726 0.00522189 8.55281C0.0761651 7.12836 0.484622 5.74116 1.19693 4.50556C1.90923 3.26996 2.90498 2.22133 4.10212 1.44611C5.29925 0.670887 6.66347 0.19127 8.08235 0.0467898Z" fill="black"/>
</g>
<defs>
<clipPath id="clip0_0_1629">
<rect width="24" height="24" fill="white"/>
</clipPath>
</defs>
</svg>
