<svg width="24" height="24" viewBox="0 0 24 24" fill="none" xmlns="http://www.w3.org/2000/svg">
<g clip-path="url(#clip0_0_1630)">
<path fill-rule="evenodd" clip-rule="evenodd" d="M16 12C16.5523 12 17 12.4477 17 13V21C17 21.5523 16.5523 22 16 22C15.4477 22 15 21.5523 15 21V13C15 12.4477 15.4477 12 16 12Z" fill="black"/>
<path fill-rule="evenodd" clip-rule="evenodd" d="M8 12C8.55228 12 9 12.4477 9 13V21C9 21.5523 8.55228 22 8 22C7.44772 22 7 21.5523 7 21V13C7 12.4477 7.44772 12 8 12Z" fill="black"/>
<path fill-rule="evenodd" clip-rule="evenodd" d="M12 14C12.5523 14 13 14.4477 13 15V23C13 23.5523 12.5523 24 12 24C11.4477 24 11 23.5523 11 23V15C11 14.4477 11.4477 14 12 14Z" fill="black"/>
<path fill-rule="evenodd" clip-rule="evenodd" d="M8.08238 0.0467898C9.50126 -0.0976905 10.9342 0.0971033 12.263 0.615115C13.5918 1.13313 14.7785 1.95952 15.7252 3.02619C16.498 3.89686 17.0928 4.90727 17.4793 6.0002H18.0012C19.3784 6.00182 20.7131 6.47715 21.7812 7.3464C22.8494 8.21566 23.5861 9.42591 23.8675 10.774C24.1489 12.1221 23.958 13.526 23.3269 14.7501C22.6957 15.9741 21.6627 16.9437 20.4012 17.4962C19.8953 17.7178 19.3056 17.4873 19.084 16.9814C18.8624 16.4755 19.0929 15.8858 19.5988 15.6642C20.4398 15.2959 21.1285 14.6494 21.5493 13.8334C21.9701 13.0174 22.0973 12.0815 21.9097 11.1827C21.7221 10.284 21.231 9.47717 20.5189 8.89767C19.8068 8.31825 18.9172 8.00137 17.9992 8.0002C17.9991 8.0002 17.9993 8.0002 17.9992 8.0002H16.74C16.284 8.0002 15.8858 7.69174 15.7718 7.25024C15.4944 6.17619 14.9658 5.18344 14.2294 4.35381C13.4931 3.52418 12.5701 2.88143 11.5366 2.47853C10.503 2.07563 9.38856 1.92413 8.28499 2.0365C7.18142 2.14887 6.12035 2.52191 5.18925 3.12486C4.25815 3.72781 3.48367 4.54341 2.92966 5.50443C2.37564 6.46546 2.05795 7.54439 2.00278 8.65229C1.9476 9.7602 2.15651 10.8654 2.61229 11.8767C3.06808 12.888 3.75768 13.7765 4.62427 14.469C5.05572 14.8138 5.12599 15.443 4.78122 15.8745C4.43645 16.3059 3.80719 16.3762 3.37574 16.0314C2.26156 15.1411 1.37493 13.9987 0.788919 12.6984C0.202911 11.3982 -0.0656908 9.97726 0.00525241 8.55281C0.0761956 7.12836 0.484653 5.74116 1.19696 4.50556C1.90926 3.26996 2.90502 2.22133 4.10215 1.44611C5.29928 0.670887 6.6635 0.19127 8.08238 0.0467898Z" fill="black"/>
</g>
<defs>
<clipPath id="clip0_0_1630">
<rect width="24" height="24" fill="white"/>
</clipPath>
</defs>
</svg>
