<svg width="24" height="24" viewBox="0 0 24 24" fill="none" xmlns="http://www.w3.org/2000/svg">
<g clip-path="url(#clip0_0_1628)">
<path d="M16.74 10H18C19.3261 10 20.5978 10.5268 21.5355 11.4645C22.4732 12.4021 23 13.6739 23 15C23 16.3261 22.4732 17.5979 21.5355 18.5355C20.5978 19.4732 19.3261 20 18 20H8.99999C7.50347 20.0011 6.03663 19.5824 4.76617 18.7916C3.4957 18.0007 2.47255 16.8693 1.81296 15.526C1.15338 14.1826 0.883813 12.6812 1.0349 11.1924C1.18598 9.70348 1.75165 8.28683 2.66764 7.10338C3.58363 5.91993 4.8132 5.01714 6.21664 4.49759C7.62008 3.97804 9.14112 3.86256 10.6069 4.16428C12.0727 4.46599 13.4245 5.1728 14.5086 6.2044C15.5928 7.23599 16.3659 8.551 16.74 10Z" stroke="black" stroke-width="2" stroke-linecap="round" stroke-linejoin="round"/>
</g>
<defs>
<clipPath id="clip0_0_1628">
<rect width="24" height="24" fill="white"/>
</clipPath>
</defs>
</svg>
