<svg width="16" height="16" viewBox="0 0 16 16" fill="none" xmlns="http://www.w3.org/2000/svg">
<path fill-rule="evenodd" clip-rule="evenodd" d="M6.66666 7.99984C6.66666 7.26346 7.26361 6.6665 7.99999 6.6665C8.73637 6.6665 9.33332 7.26346 9.33332 7.99984C9.33332 8.73622 8.73637 9.33317 7.99999 9.33317C7.26361 9.33317 6.66666 8.73622 6.66666 7.99984Z" fill="black"/>
<path fill-rule="evenodd" clip-rule="evenodd" d="M6.66666 3.33333C6.66666 2.59695 7.26361 2 7.99999 2C8.73637 2 9.33332 2.59695 9.33332 3.33333C9.33332 4.06971 8.73637 4.66667 7.99999 4.66667C7.26361 4.66667 6.66666 4.06971 6.66666 3.33333Z" fill="black"/>
<path fill-rule="evenodd" clip-rule="evenodd" d="M6.66666 12.6668C6.66666 11.9304 7.26361 11.3335 7.99999 11.3335C8.73637 11.3335 9.33332 11.9304 9.33332 12.6668C9.33332 13.4032 8.73637 14.0002 7.99999 14.0002C7.26361 14.0002 6.66666 13.4032 6.66666 12.6668Z" fill="black"/>
</svg>
