<svg width="12" height="10" viewBox="0 0 12 10" fill="none" xmlns="http://www.w3.org/2000/svg">
<path fill-rule="evenodd" clip-rule="evenodd" d="M10 5C10 5.39449 9.70152 5.71429 9.33333 5.71429H2.66667C2.29848 5.71429 2 5.39449 2 5C2 4.60551 2.29848 4.28571 2.66667 4.28571H9.33333C9.70152 4.28571 10 4.60551 10 5Z" fill="black"/>
<path fill-rule="evenodd" clip-rule="evenodd" d="M12 0.714286C12 1.10878 11.7015 1.42857 11.3333 1.42857L0.666667 1.42857C0.298477 1.42857 -1.60941e-08 1.10877 0 0.714286C1.60941e-08 0.319797 0.298477 -1.72437e-08 0.666667 0L11.3333 3.40598e-07C11.7015 3.57842e-07 12 0.319797 12 0.714286Z" fill="black"/>
<path fill-rule="evenodd" clip-rule="evenodd" d="M8.66667 9.28571C8.66667 9.6802 8.36819 10 8 10H4C3.63181 10 3.33333 9.6802 3.33333 9.28571C3.33333 8.89122 3.63181 8.57143 4 8.57143H8C8.36819 8.57143 8.66667 8.89122 8.66667 9.28571Z" fill="black"/>
</svg>
