<svg width="32" height="32" viewBox="0 0 32 32" fill="none" xmlns="http://www.w3.org/2000/svg">
<path fill-rule="evenodd" clip-rule="evenodd" d="M14.667 13.3334C13.9306 13.3334 13.3337 13.9304 13.3337 14.6667V26.6667C13.3337 27.4031 13.9306 28.0001 14.667 28.0001H26.667C27.4034 28.0001 28.0003 27.4031 28.0003 26.6667V14.6667C28.0003 13.9304 27.4034 13.3334 26.667 13.3334H14.667ZM10.667 14.6667C10.667 12.4576 12.4579 10.6667 14.667 10.6667H26.667C28.8761 10.6667 30.667 12.4576 30.667 14.6667V26.6667C30.667 28.8759 28.8761 30.6667 26.667 30.6667H14.667C12.4579 30.6667 10.667 28.8759 10.667 26.6667V14.6667Z" fill="black"/>
<path fill-rule="evenodd" clip-rule="evenodd" d="M5.33301 3.99992C4.97939 3.99992 4.64025 4.14039 4.3902 4.39044C4.14015 4.64049 3.99967 4.97963 3.99967 5.33325V17.3333C3.99967 17.6869 4.14015 18.026 4.3902 18.2761C4.64025 18.5261 4.97939 18.6666 5.33301 18.6666H6.66634C7.40272 18.6666 7.99967 19.2635 7.99967 19.9999C7.99967 20.7363 7.40272 21.3333 6.66634 21.3333H5.33301C4.27214 21.3333 3.25473 20.9118 2.50458 20.1617C1.75444 19.4115 1.33301 18.3941 1.33301 17.3333V5.33325C1.33301 4.27239 1.75443 3.25497 2.50458 2.50482C3.25473 1.75468 4.27214 1.33325 5.33301 1.33325H17.333C18.3939 1.33325 19.4113 1.75468 20.1614 2.50482C20.9116 3.25497 21.333 4.27239 21.333 5.33325V6.66659C21.333 7.40297 20.7361 7.99992 19.9997 7.99992C19.2633 7.99992 18.6663 7.40297 18.6663 6.66659V5.33325C18.6663 4.97963 18.5259 4.64049 18.2758 4.39044C18.0258 4.14039 17.6866 3.99992 17.333 3.99992H5.33301Z" fill="black"/>
</svg>
