<svg width="14" height="14" viewBox="0 0 14 14" fill="none" xmlns="http://www.w3.org/2000/svg">
<path fill-rule="evenodd" clip-rule="evenodd" d="M8.33752 1.92085C8.56533 1.69305 8.93467 1.69305 9.16248 1.92085L12.0791 4.83752C12.307 5.06533 12.307 5.43467 12.0791 5.66248L9.16248 8.57915C8.93467 8.80695 8.56533 8.80695 8.33752 8.57915C8.10971 8.35134 8.10971 7.98199 8.33752 7.75419L10.8417 5.25L8.33752 2.74581C8.10971 2.51801 8.10971 2.14866 8.33752 1.92085Z" fill="white"/>
<path fill-rule="evenodd" clip-rule="evenodd" d="M4.66667 5.83333C4.20254 5.83333 3.75742 6.01771 3.42923 6.3459C3.10104 6.67409 2.91667 7.1192 2.91667 7.58333V11.6667C2.91667 11.9888 2.6555 12.25 2.33333 12.25C2.01117 12.25 1.75 11.9888 1.75 11.6667V7.58333C1.75 6.80979 2.05729 6.06792 2.60427 5.52094C3.15125 4.97396 3.89312 4.66667 4.66667 4.66667H11.6667C11.9888 4.66667 12.25 4.92783 12.25 5.25C12.25 5.57217 11.9888 5.83333 11.6667 5.83333H4.66667Z" fill="white"/>
</svg>
