<svg width="31" height="24" viewBox="0 0 31 24" fill="none" xmlns="http://www.w3.org/2000/svg">
<path fill-rule="evenodd" clip-rule="evenodd" d="M11.4645 15.4645C12.4021 14.5268 13.6739 14 15 14H23C24.3261 14 25.5979 14.5268 26.5355 15.4645C27.4732 16.4021 28 17.6739 28 19V21C28 21.5523 27.5523 22 27 22C26.4477 22 26 21.5523 26 21V19C26 18.2044 25.6839 17.4413 25.1213 16.8787C24.5587 16.3161 23.7956 16 23 16H15C14.2044 16 13.4413 16.3161 12.8787 16.8787C12.3161 17.4413 12 18.2044 12 19V21C12 21.5523 11.5523 22 11 22C10.4477 22 10 21.5523 10 21V19C10 17.6739 10.5268 16.4021 11.4645 15.4645Z" fill="black"/>
<path fill-rule="evenodd" clip-rule="evenodd" d="M19 4C17.3431 4 16 5.34315 16 7C16 8.65685 17.3431 10 19 10C20.6569 10 22 8.65685 22 7C22 5.34315 20.6569 4 19 4ZM14 7C14 4.23858 16.2386 2 19 2C21.7614 2 24 4.23858 24 7C24 9.76142 21.7614 12 19 12C16.2386 12 14 9.76142 14 7Z" fill="black"/>
<path fill-rule="evenodd" clip-rule="evenodd" d="M6 7C6.27614 7 6.5 7.22386 6.5 7.5V14.5C6.5 14.7761 6.27614 15 6 15C5.72386 15 5.5 14.7761 5.5 14.5V7.5C5.5 7.22386 5.72386 7 6 7Z" fill="black"/>
<path fill-rule="evenodd" clip-rule="evenodd" d="M2 11C2 10.7239 2.22386 10.5 2.5 10.5H9.5C9.77614 10.5 10 10.7239 10 11C10 11.2761 9.77614 11.5 9.5 11.5H2.5C2.22386 11.5 2 11.2761 2 11Z" fill="black"/>
</svg>
