<svg width="34" height="24" viewBox="0 0 34 24" fill="none" xmlns="http://www.w3.org/2000/svg">
<path fill-rule="evenodd" clip-rule="evenodd" d="M11.4645 15.4645C12.4021 14.5268 13.6739 14 15 14H23C24.3261 14 25.5979 14.5268 26.5355 15.4645C27.4732 16.4021 28 17.6739 28 19V21C28 21.5523 27.5523 22 27 22C26.4477 22 26 21.5523 26 21V19C26 18.2044 25.6839 17.4413 25.1213 16.8787C24.5587 16.3161 23.7956 16 23 16H15C14.2044 16 13.4413 16.3161 12.8787 16.8787C12.3161 17.4413 12 18.2044 12 19V21C12 21.5523 11.5523 22 11 22C10.4477 22 10 21.5523 10 21V19C10 17.6739 10.5268 16.4021 11.4645 15.4645Z" fill="black"/>
<path fill-rule="evenodd" clip-rule="evenodd" d="M19 4C17.3431 4 16 5.34315 16 7C16 8.65685 17.3431 10 19 10C20.6569 10 22 8.65685 22 7C22 5.34315 20.6569 4 19 4ZM14 7C14 4.23858 16.2386 2 19 2C21.7614 2 24 4.23858 24 7C24 9.76142 21.7614 12 19 12C16.2386 12 14 9.76142 14 7Z" fill="black"/>
<path fill-rule="evenodd" clip-rule="evenodd" d="M29.0318 14.8801C29.1698 14.3454 29.7153 14.0238 30.25 14.1619C31.3227 14.4388 32.273 15.0642 32.9517 15.9398C33.6304 16.8153 33.9992 17.8915 34 18.9994L34 21.0001C34 21.5524 33.5523 22.0001 33 22.0001C32.4477 22.0001 32 21.5524 32 21.0001L32 19.0009C32 19.0008 32 19.001 32 19.0009C31.9994 18.3363 31.7782 17.6904 31.371 17.1651C30.9638 16.6398 30.3936 16.2645 29.75 16.0984C29.2153 15.9603 28.8937 15.4149 29.0318 14.8801Z" fill="black"/>
<path fill-rule="evenodd" clip-rule="evenodd" d="M25.0312 2.88208C25.1682 2.34706 25.713 2.02439 26.248 2.16137C27.3236 2.43675 28.2768 3.06225 28.9576 3.93926C29.6383 4.81627 30.0078 5.89491 30.0078 7.00512C30.0078 8.11534 29.6383 9.19397 28.9576 10.071C28.2768 10.948 27.3236 11.5735 26.248 11.8489C25.713 11.9859 25.1682 11.6632 25.0312 11.1282C24.8943 10.5931 25.2169 10.0484 25.752 9.91137C26.3973 9.74615 26.9692 9.37085 27.3777 8.84464C27.7861 8.31843 28.0078 7.67125 28.0078 7.00512C28.0078 6.339 27.7861 5.69181 27.3777 5.16561C26.9692 4.6394 26.3973 4.2641 25.752 4.09887C25.2169 3.96189 24.8943 3.41711 25.0312 2.88208Z" fill="black"/>
<path fill-rule="evenodd" clip-rule="evenodd" d="M6 7C6.27614 7 6.5 7.22386 6.5 7.5V14.5C6.5 14.7761 6.27614 15 6 15C5.72386 15 5.5 14.7761 5.5 14.5V7.5C5.5 7.22386 5.72386 7 6 7Z" fill="black"/>
<path fill-rule="evenodd" clip-rule="evenodd" d="M2 11C2 10.7239 2.22386 10.5 2.5 10.5H9.5C9.77614 10.5 10 10.7239 10 11C10 11.2761 9.77614 11.5 9.5 11.5H2.5C2.22386 11.5 2 11.2761 2 11Z" fill="black"/>
</svg>
