<svg width="16" height="16" viewBox="0 0 16 16" fill="none" xmlns="http://www.w3.org/2000/svg">
<path fill-rule="evenodd" clip-rule="evenodd" d="M12.4716 3.5286C12.7319 3.78895 12.7319 4.21106 12.4716 4.47141L4.47157 12.4714C4.21122 12.7318 3.78911 12.7318 3.52876 12.4714C3.26841 12.2111 3.26841 11.7889 3.52876 11.5286L11.5288 3.5286C11.7891 3.26825 12.2112 3.26825 12.4716 3.5286Z" fill="black"/>
<path fill-rule="evenodd" clip-rule="evenodd" d="M3.52876 3.5286C3.78911 3.26825 4.21122 3.26825 4.47157 3.5286L12.4716 11.5286C12.7319 11.7889 12.7319 12.2111 12.4716 12.4714C12.2112 12.7318 11.7891 12.7318 11.5288 12.4714L3.52876 4.47141C3.26841 4.21106 3.26841 3.78895 3.52876 3.5286Z" fill="black"/>
</svg>
