<svg width="16" height="16" viewBox="0 0 16 16" fill="none" xmlns="http://www.w3.org/2000/svg">
<path fill-rule="evenodd" clip-rule="evenodd" d="M13.7096 2.21049C13.5472 2.0711 13.3393 1.99619 13.1253 1.99997L13.1135 2.00008H12.0002V8.00008H13.1135L13.1253 8.00018C13.3393 8.00397 13.5472 7.92906 13.7096 7.78967C13.8622 7.65868 13.9646 7.47931 14.0002 7.28217V2.71799C13.9646 2.52084 13.8622 2.34148 13.7096 2.21049ZM10.6668 8.52527L8.26163 13.937C8.06071 13.8729 7.87594 13.7615 7.72404 13.6096C7.47399 13.3595 7.33352 13.0204 7.33352 12.6667V10.0001C7.33352 9.63189 7.03504 9.33341 6.66685 9.33341H2.89352L2.88597 9.33345C2.78933 9.33455 2.69361 9.31462 2.60544 9.27505C2.51727 9.23548 2.43876 9.17721 2.37535 9.10428C2.31193 9.03136 2.26513 8.94551 2.23819 8.8527C2.21128 8.76002 2.20482 8.66259 2.21924 8.56717C2.21922 8.5673 2.21926 8.56704 2.21924 8.56717L3.13931 2.5667C3.16342 2.40773 3.24417 2.26283 3.36668 2.1587C3.48919 2.05457 3.6452 1.99822 3.80598 2.00004L10.6668 2.00008V8.52527ZM13.1081 0.666745C13.6465 0.658789 14.1693 0.847963 14.578 1.19876C14.9883 1.55095 15.255 2.04154 15.3275 2.57738C15.3315 2.607 15.3335 2.63686 15.3335 2.66675V7.33341C15.3335 7.3633 15.3315 7.39315 15.3275 7.42277C15.255 7.95862 14.9883 8.44921 14.578 8.8014C14.1693 9.15219 13.6465 9.34137 13.1082 9.33341H11.7668L9.27606 14.9375C9.16906 15.1783 8.93031 15.3334 8.66685 15.3334C7.95961 15.3334 7.28133 15.0525 6.78123 14.5524C6.28113 14.0523 6.00018 13.374 6.00018 12.6667V10.6667H2.89693C2.60842 10.6694 2.32274 10.6096 2.05949 10.4915C1.79499 10.3728 1.55945 10.198 1.36921 9.97919C1.17896 9.76041 1.03856 9.50288 0.957726 9.22445C0.876891 8.94602 0.857558 8.65335 0.901066 8.3667L1.82105 2.36679C1.82108 2.36659 1.82102 2.36699 1.82105 2.36679C1.89349 1.89012 2.13577 1.45505 2.50315 1.14278C2.86962 0.831278 3.33604 0.662305 3.8169 0.666745H13.1081Z" fill="#996699"/>
</svg>
