<svg width="22" height="23" viewBox="0 0 22 23" fill="none" xmlns="http://www.w3.org/2000/svg">
<path fill-rule="evenodd" clip-rule="evenodd" d="M14.7798 2.3877C13.9836 2.3877 13.2199 2.704 12.6569 3.26703L3.46691 12.457C2.5286 13.3953 2.00146 14.668 2.00146 15.9949C2.00146 17.3219 2.5286 18.5945 3.46691 19.5328C4.40522 20.4711 5.67783 20.9983 7.0048 20.9983C8.33177 20.9983 9.60439 20.4711 10.5427 19.5328L19.7327 10.3428C20.1232 9.95229 20.7564 9.95229 21.1469 10.3428C21.5374 10.7333 21.5374 11.3665 21.1469 11.757L11.9569 20.947C10.6435 22.2604 8.8622 22.9983 7.0048 22.9983C5.1474 22.9983 3.36607 22.2604 2.05269 20.947C0.739314 19.6336 0.00146484 17.8523 0.00146484 15.9949C0.00146484 14.1375 0.739314 12.3562 2.05269 11.0428L11.2427 1.85281C12.1808 0.914714 13.4531 0.387695 14.7798 0.387695C16.1065 0.387695 17.3788 0.914714 18.3169 1.85281C19.255 2.79091 19.782 4.06325 19.782 5.38992C19.782 6.71659 19.255 7.98893 18.3169 8.92703L9.11691 18.117C8.55409 18.6798 7.79075 18.996 6.9948 18.996C6.19886 18.996 5.43551 18.6798 4.87269 18.117C4.30988 17.5542 3.99369 16.7909 3.99369 15.9949C3.99369 15.199 4.30988 14.4356 4.87269 13.8728L13.3631 5.3924C13.7539 5.0021 14.387 5.00247 14.7773 5.39323C15.1676 5.78398 15.1672 6.41715 14.7765 6.80744L6.28691 15.287C6.09942 15.4747 5.99369 15.7296 5.99369 15.9949C5.99369 16.2604 6.09916 16.5151 6.28691 16.7028C6.47465 16.8906 6.72929 16.996 6.9948 16.996C7.26031 16.996 7.51495 16.8906 7.70269 16.7028L16.9027 7.51281C17.4655 6.94982 17.782 6.18598 17.782 5.38992C17.782 4.59368 17.4657 3.83005 16.9027 3.26703C16.3397 2.704 15.576 2.3877 14.7798 2.3877Z" fill="#BBBBBC"/>
</svg>
