<svg width="32" height="32" viewBox="0 0 32 32" fill="none" xmlns="http://www.w3.org/2000/svg">
<path fill-rule="evenodd" clip-rule="evenodd" d="M16.0003 0C16.7367 0 17.3337 0.596954 17.3337 1.33333V30.6667C17.3337 31.403 16.7367 32 16.0003 32C15.2639 32 14.667 31.403 14.667 30.6667V1.33333C14.667 0.596954 15.2639 0 16.0003 0Z" fill="black"/>
<path fill-rule="evenodd" clip-rule="evenodd" d="M8.42435 7.09069C9.54957 5.96548 11.0757 5.33333 12.667 5.33333H22.667C23.4034 5.33333 24.0003 5.93029 24.0003 6.66667C24.0003 7.40305 23.4034 8 22.667 8H12.667C11.7829 8 10.9351 8.35119 10.31 8.97631C9.68485 9.60143 9.33366 10.4493 9.33366 11.3333C9.33366 12.2174 9.68485 13.0652 10.31 13.6904C10.9351 14.3155 11.7829 14.6667 12.667 14.6667H19.3337C20.925 14.6667 22.4511 15.2988 23.5763 16.424C24.7015 17.5492 25.3337 19.0754 25.3337 20.6667C25.3337 22.258 24.7015 23.7841 23.5763 24.9093C22.4511 26.0345 20.925 26.6667 19.3337 26.6667H8.00033C7.26395 26.6667 6.66699 26.0697 6.66699 25.3333C6.66699 24.597 7.26395 24 8.00033 24H19.3337C20.2177 24 21.0656 23.6488 21.6907 23.0237C22.3158 22.3986 22.667 21.5507 22.667 20.6667C22.667 19.7826 22.3158 18.9348 21.6907 18.3096C21.0656 17.6845 20.2177 17.3333 19.3337 17.3333H12.667C11.0757 17.3333 9.54957 16.7012 8.42435 15.576C7.29913 14.4508 6.66699 12.9246 6.66699 11.3333C6.66699 9.74203 7.29913 8.21591 8.42435 7.09069Z" fill="black"/>
</svg>
