<svg width="20" height="12" viewBox="0 0 20 12" fill="none" xmlns="http://www.w3.org/2000/svg">
<path fill-rule="evenodd" clip-rule="evenodd" d="M10.3536 2.64645C10.5488 2.84171 10.5488 3.15829 10.3536 3.35355L4.85355 8.85355C4.65829 9.04882 4.34171 9.04882 4.14645 8.85355L1.64645 6.35355C1.45118 6.15829 1.45118 5.84171 1.64645 5.64645C1.84171 5.45118 2.15829 5.45118 2.35355 5.64645L4.5 7.79289L9.64645 2.64645C9.84171 2.45118 10.1583 2.45118 10.3536 2.64645Z" fill="#33CC00"/>
<path fill-rule="evenodd" clip-rule="evenodd" d="M18.3536 2.64645C18.5488 2.84171 18.5488 3.15829 18.3536 3.35355L12.8536 8.85355C12.6583 9.04882 12.3417 9.04882 12.1464 8.85355L9.64645 6.35355C9.45118 6.15829 9.45118 5.84171 9.64645 5.64645C9.84171 5.45118 10.1583 5.45118 10.3536 5.64645L12.5 7.79289L17.6464 2.64645C17.8417 2.45118 18.1583 2.45118 18.3536 2.64645Z" fill="#33CC00"/>
</svg>
