<svg width="24" height="24" viewBox="0 0 24 24" fill="none" xmlns="http://www.w3.org/2000/svg">
<g clip-path="url(#clip0_0_1653)">
<path fill-rule="evenodd" clip-rule="evenodd" d="M7.29289 16.2929C7.68342 15.9024 8.31658 15.9024 8.70711 16.2929L12 19.5858L15.2929 16.2929C15.6834 15.9024 16.3166 15.9024 16.7071 16.2929C17.0976 16.6834 17.0976 17.3166 16.7071 17.7071L12.7071 21.7071C12.3166 22.0976 11.6834 22.0976 11.2929 21.7071L7.29289 17.7071C6.90237 17.3166 6.90237 16.6834 7.29289 16.2929Z" fill="black"/>
<path fill-rule="evenodd" clip-rule="evenodd" d="M12 11C12.5523 11 13 11.4477 13 12V21C13 21.5523 12.5523 22 12 22C11.4477 22 11 21.5523 11 21V12C11 11.4477 11.4477 11 12 11Z" fill="black"/>
<path fill-rule="evenodd" clip-rule="evenodd" d="M8.66758 1.9941C10.0281 1.94517 11.3819 2.20552 12.6272 2.75554C13.8725 3.30556 14.9768 4.13092 15.857 5.16948C16.5675 6.00784 17.117 6.96749 17.4804 7.99993L17.9992 7.99993C19.2743 7.9991 20.5174 8.40453 21.5465 9.15741C22.5759 9.91044 23.3385 10.9719 23.7237 12.1877C24.1089 13.4036 24.0967 14.7105 23.6888 15.9189C23.2808 17.1273 22.4985 18.1743 21.4552 18.9079C21.0034 19.2256 20.3797 19.1169 20.062 18.6652C19.7443 18.2134 19.853 17.5896 20.3048 17.2719C21.0003 16.7828 21.5219 16.0849 21.7938 15.2793C22.0657 14.4736 22.0739 13.6023 21.8171 12.7918C21.5603 11.9812 21.0519 11.2736 20.3656 10.7716C19.6794 10.2696 18.851 9.99927 18.0008 9.99993H16.74C16.2834 9.99993 15.8848 9.69071 15.7714 9.24848C15.5082 8.22287 15.0158 7.27032 14.3312 6.46255C13.6467 5.65478 12.7878 5.01283 11.8192 4.58504C10.8506 4.15724 9.79761 3.95475 8.73946 3.9928C7.68131 4.03086 6.64557 4.30846 5.71023 4.80472C4.77489 5.30099 3.96432 6.00297 3.33954 6.85783C2.71476 7.71269 2.29204 8.69814 2.10323 9.74001C1.91441 10.7819 1.96441 11.853 2.24946 12.8727C2.5345 13.8925 3.04718 14.8343 3.74887 15.6272C4.11488 16.0408 4.07629 16.6728 3.6627 17.0388C3.24911 17.4048 2.61712 17.3662 2.25111 16.9526C1.34893 15.9331 0.689783 14.7223 0.323292 13.4112C-0.0431988 12.1001 -0.107481 10.7229 0.135283 9.38336C0.378048 8.04382 0.921534 6.7768 1.72483 5.6777C2.52812 4.57859 3.57028 3.67604 4.77286 3.03799C5.97544 2.39994 7.3071 2.04302 8.66758 1.9941Z" fill="black"/>
</g>
<defs>
<clipPath id="clip0_0_1653">
<rect width="24" height="24" fill="white"/>
</clipPath>
</defs>
</svg>
