<svg width="16" height="16" viewBox="0 0 16 16" fill="none" xmlns="http://www.w3.org/2000/svg">
<path fill-rule="evenodd" clip-rule="evenodd" d="M7.9997 1.12646C8.17661 1.12639 8.3463 1.19663 8.4714 1.32173L12.2446 5.09491C12.2446 5.09496 12.2445 5.09485 12.2446 5.09491C13.084 5.93384 13.6559 7.00303 13.8878 8.16695C14.1196 9.33094 14.001 10.5375 13.547 11.6341C13.093 12.7307 12.3239 13.668 11.3372 14.3275C10.3504 14.9869 9.19018 15.3389 8.00333 15.3389C6.81647 15.3389 5.65628 14.9869 4.6695 14.3275C3.68272 13.668 2.91369 12.7307 2.45968 11.6341C2.00567 10.5375 1.88708 9.33094 2.11891 8.16695C2.3507 7.00314 2.92239 5.9342 3.76168 5.09531C3.76181 5.09517 3.76155 5.09544 3.76168 5.09531L7.52817 1.32214C7.65316 1.19694 7.82279 1.12654 7.9997 1.12646ZM8.00041 2.73636L4.70458 6.03802C4.05163 6.69055 3.60687 7.52206 3.42656 8.42739C3.24624 9.33272 3.33848 10.2712 3.6916 11.1241C4.04472 11.977 4.64285 12.706 5.41035 13.2189C6.17785 13.7318 7.08022 14.0056 8.00333 14.0056C8.92644 14.0056 9.82881 13.7318 10.5963 13.2189C11.3638 12.706 11.9619 11.977 12.3151 11.1241C12.6682 10.2712 12.7604 9.33272 12.5801 8.42739C12.3998 7.52206 11.955 6.69055 11.3021 6.03802L8.00041 2.73636Z" fill="black"/>
</svg>
