<svg width="16" height="16" viewBox="0 0 16 16" fill="none" xmlns="http://www.w3.org/2000/svg">
<path fill-rule="evenodd" clip-rule="evenodd" d="M2.66667 8.66659C3.03486 8.66659 3.33333 8.96506 3.33333 9.33325V13.9999C3.33333 14.3681 3.03486 14.6666 2.66667 14.6666C2.29848 14.6666 2 14.3681 2 13.9999V9.33325C2 8.96506 2.29848 8.66659 2.66667 8.66659Z" fill="black"/>
<path fill-rule="evenodd" clip-rule="evenodd" d="M2.66667 1.33325C3.03486 1.33325 3.33333 1.63173 3.33333 1.99992V6.66659C3.33333 7.03477 3.03486 7.33325 2.66667 7.33325C2.29848 7.33325 2 7.03477 2 6.66659V1.99992C2 1.63173 2.29848 1.33325 2.66667 1.33325Z" fill="black"/>
<path fill-rule="evenodd" clip-rule="evenodd" d="M8 7.33325C8.36819 7.33325 8.66667 7.63173 8.66667 7.99992V13.9999C8.66667 14.3681 8.36819 14.6666 8 14.6666C7.63181 14.6666 7.33333 14.3681 7.33333 13.9999V7.99992C7.33333 7.63173 7.63181 7.33325 8 7.33325Z" fill="black"/>
<path fill-rule="evenodd" clip-rule="evenodd" d="M8 1.33325C8.36819 1.33325 8.66667 1.63173 8.66667 1.99992V5.33325C8.66667 5.70144 8.36819 5.99992 8 5.99992C7.63181 5.99992 7.33333 5.70144 7.33333 5.33325V1.99992C7.33333 1.63173 7.63181 1.33325 8 1.33325Z" fill="black"/>
<path fill-rule="evenodd" clip-rule="evenodd" d="M13.3333 9.99992C13.7015 9.99992 14 10.2984 14 10.6666V13.9999C14 14.3681 13.7015 14.6666 13.3333 14.6666C12.9651 14.6666 12.6667 14.3681 12.6667 13.9999V10.6666C12.6667 10.2984 12.9651 9.99992 13.3333 9.99992Z" fill="black"/>
<path fill-rule="evenodd" clip-rule="evenodd" d="M13.3333 1.33325C13.7015 1.33325 14 1.63173 14 1.99992V7.99992C14 8.36811 13.7015 8.66659 13.3333 8.66659C12.9651 8.66659 12.6667 8.36811 12.6667 7.99992V1.99992C12.6667 1.63173 12.9651 1.33325 13.3333 1.33325Z" fill="black"/>
<path fill-rule="evenodd" clip-rule="evenodd" d="M0 9.33325C0 8.96506 0.298477 8.66659 0.666667 8.66659H4.66667C5.03486 8.66659 5.33333 8.96506 5.33333 9.33325C5.33333 9.70144 5.03486 9.99992 4.66667 9.99992H0.666667C0.298477 9.99992 0 9.70144 0 9.33325Z" fill="black"/>
<path fill-rule="evenodd" clip-rule="evenodd" d="M5.33333 5.33325C5.33333 4.96506 5.63181 4.66659 6 4.66659H10C10.3682 4.66659 10.6667 4.96506 10.6667 5.33325C10.6667 5.70144 10.3682 5.99992 10 5.99992H6C5.63181 5.99992 5.33333 5.70144 5.33333 5.33325Z" fill="black"/>
<path fill-rule="evenodd" clip-rule="evenodd" d="M10.6667 10.6666C10.6667 10.2984 10.9651 9.99992 11.3333 9.99992H15.3333C15.7015 9.99992 16 10.2984 16 10.6666C16 11.0348 15.7015 11.3333 15.3333 11.3333H11.3333C10.9651 11.3333 10.6667 11.0348 10.6667 10.6666Z" fill="black"/>
</svg>
