<svg width="16" height="14" viewBox="0 0 16 14" fill="none" xmlns="http://www.w3.org/2000/svg">
<path fill-rule="evenodd" clip-rule="evenodd" d="M2.66667 7.66659C3.03486 7.66659 3.33333 7.96506 3.33333 8.33325V12.9999C3.33333 13.3681 3.03486 13.6666 2.66667 13.6666C2.29848 13.6666 2 13.3681 2 12.9999V8.33325C2 7.96506 2.29848 7.66659 2.66667 7.66659Z" fill="black"/>
<path fill-rule="evenodd" clip-rule="evenodd" d="M2.66667 0.333252C3.03486 0.333252 3.33333 0.631729 3.33333 0.999919V5.66659C3.33333 6.03477 3.03486 6.33325 2.66667 6.33325C2.29848 6.33325 2 6.03477 2 5.66659V0.999919C2 0.631729 2.29848 0.333252 2.66667 0.333252Z" fill="black"/>
<path fill-rule="evenodd" clip-rule="evenodd" d="M8 6.33325C8.36819 6.33325 8.66667 6.63173 8.66667 6.99992V12.9999C8.66667 13.3681 8.36819 13.6666 8 13.6666C7.63181 13.6666 7.33333 13.3681 7.33333 12.9999V6.99992C7.33333 6.63173 7.63181 6.33325 8 6.33325Z" fill="black"/>
<path fill-rule="evenodd" clip-rule="evenodd" d="M8 0.333252C8.36819 0.333252 8.66667 0.631729 8.66667 0.999919V4.33325C8.66667 4.70144 8.36819 4.99992 8 4.99992C7.63181 4.99992 7.33333 4.70144 7.33333 4.33325V0.999919C7.33333 0.631729 7.63181 0.333252 8 0.333252Z" fill="black"/>
<path fill-rule="evenodd" clip-rule="evenodd" d="M13.3333 8.99992C13.7015 8.99992 14 9.2984 14 9.66659V12.9999C14 13.3681 13.7015 13.6666 13.3333 13.6666C12.9651 13.6666 12.6667 13.3681 12.6667 12.9999V9.66659C12.6667 9.2984 12.9651 8.99992 13.3333 8.99992Z" fill="black"/>
<path fill-rule="evenodd" clip-rule="evenodd" d="M13.3333 0.333252C13.7015 0.333252 14 0.631729 14 0.999919V6.99992C14 7.36811 13.7015 7.66659 13.3333 7.66659C12.9651 7.66659 12.6667 7.36811 12.6667 6.99992V0.999919C12.6667 0.631729 12.9651 0.333252 13.3333 0.333252Z" fill="black"/>
<path fill-rule="evenodd" clip-rule="evenodd" d="M0 8.33325C0 7.96506 0.298477 7.66659 0.666667 7.66659H4.66667C5.03486 7.66659 5.33333 7.96506 5.33333 8.33325C5.33333 8.70144 5.03486 8.99992 4.66667 8.99992H0.666667C0.298477 8.99992 0 8.70144 0 8.33325Z" fill="black"/>
<path fill-rule="evenodd" clip-rule="evenodd" d="M5.33333 4.33325C5.33333 3.96506 5.63181 3.66659 6 3.66659H10C10.3682 3.66659 10.6667 3.96506 10.6667 4.33325C10.6667 4.70144 10.3682 4.99992 10 4.99992H6C5.63181 4.99992 5.33333 4.70144 5.33333 4.33325Z" fill="black"/>
<path fill-rule="evenodd" clip-rule="evenodd" d="M10.6667 9.66659C10.6667 9.2984 10.9651 8.99992 11.3333 8.99992H15.3333C15.7015 8.99992 16 9.2984 16 9.66659C16 10.0348 15.7015 10.3333 15.3333 10.3333H11.3333C10.9651 10.3333 10.6667 10.0348 10.6667 9.66659Z" fill="black"/>
</svg>
