<svg width="16" height="16" viewBox="0 0 16 16" fill="none" xmlns="http://www.w3.org/2000/svg">
<path fill-rule="evenodd" clip-rule="evenodd" d="M9.94193 1.6633C10.4678 1.4454 11.0315 1.33325 11.6007 1.33325C12.1699 1.33325 12.7336 1.4454 13.2595 1.6633C13.7852 1.88116 14.263 2.20046 14.6653 2.60295C15.0678 3.00532 15.3873 3.48326 15.6052 4.00904C15.8231 4.53491 15.9352 5.09857 15.9352 5.6678C15.9352 6.23704 15.8231 6.80069 15.6052 7.32657C15.3873 7.8524 15.068 8.33015 14.6654 8.73254C14.6654 8.73258 14.6655 8.7325 14.6654 8.73254L8.7721 14.6259C8.51175 14.8862 8.08964 14.8862 7.82929 14.6259L1.93596 8.73254C1.12314 7.91972 0.666504 6.8173 0.666504 5.6678C0.666504 4.5183 1.12314 3.41588 1.93596 2.60306C2.74878 1.79025 3.8512 1.33361 5.0007 1.33361C6.1502 1.33361 7.25262 1.79025 8.06543 2.60306L8.3007 2.83833L8.53585 2.60318C8.53589 2.60314 8.53581 2.60321 8.53585 2.60318C8.93824 2.20062 9.4161 1.88118 9.94193 1.6633ZM11.6007 2.66659C11.2066 2.66659 10.8164 2.74423 10.4523 2.89508C10.0883 3.04593 9.75747 3.26704 9.47888 3.54576L8.7721 4.25254C8.51175 4.51289 8.08964 4.51289 7.82929 4.25254L7.12263 3.54587C6.55986 2.9831 5.79657 2.66694 5.0007 2.66694C4.20482 2.66694 3.44154 2.9831 2.87877 3.54587C2.316 4.10864 1.99984 4.87192 1.99984 5.6678C1.99984 6.46368 2.316 7.22696 2.87877 7.78973L8.3007 13.2117L13.7226 7.78973C14.0013 7.51114 14.2226 7.18025 14.3734 6.81618C14.5243 6.45211 14.6019 6.06189 14.6019 5.6678C14.6019 5.27372 14.5243 4.8835 14.3734 4.51943C14.2226 4.15536 14.0015 3.82458 13.7227 3.54598C13.4441 3.26726 13.1131 3.04593 12.7491 2.89508C12.385 2.74423 11.9948 2.66659 11.6007 2.66659Z" fill="black"/>
<path d="M7.9375 8.125C7.5516 7.3173 7.20569 6.51423 6.875 5.6875" stroke="black" stroke-linecap="round" stroke-linejoin="round"/>
<path d="M6.8752 5.0625C6.54354 4.37967 5.80744 3.74768 5.1252 3.43056C4.54296 3.15991 4.13614 3.69468 4.48631 4.20139C4.88859 4.78352 5.32396 3.34293 5.24325 3.07639C4.95276 2.11701 3.42388 3.17382 3.30922 3.76736C3.26008 4.02172 3.47064 4.28855 3.73283 4.23611C4.00853 4.18097 3.3765 4.48168 3.37519 4.48264C3.23639 4.58501 3.13279 4.84044 2.96547 4.79861C2.80879 4.75944 3.11057 4.50996 3.18769 4.36806C3.69173 3.44062 3.35455 4.45202 3.13908 4.59722C3.03543 4.66707 3.23489 3.83969 3.13908 4.27083C3.12745 4.3232 2.92143 5.26073 2.88908 4.8125C2.85717 4.37029 2.63161 4.64375 2.50019 4.90278C2.45482 4.99221 2.38433 5.28604 2.40297 5.1875C2.44651 4.95737 2.48631 4.72119 2.48631 4.48611C2.48631 4.4212 2.42113 4.7154 2.47589 4.68056C2.56062 4.62664 2.57808 4.85443 2.61478 4.94792C2.8428 5.52884 3.14397 5.91571 3.57658 6.36111C4.26237 7.06717 3.56016 6.56199 3.23631 6.40278C2.97562 6.27462 2.91296 6.27474 2.95853 6.60417C3.02032 7.05082 3.44902 7.74644 3.34742 8.19097C3.29741 8.40977 3.06881 7.83628 2.962 7.63889C2.84596 7.42443 2.58597 6.94272 2.53144 6.66667C2.44999 6.25429 2.97089 6.8544 2.73283 6.53472C2.65456 6.42961 2.42702 6.11064 2.48978 6.22569C2.6411 6.50311 2.90618 6.79008 3.1495 6.95833C3.73492 7.36314 4.19113 7.53896 4.91686 7.34028C5.23261 7.25384 5.515 7.06302 5.77797 6.86806C6.08434 6.64092 6.23236 6.19369 6.59047 6.0625C6.64835 6.0413 6.72112 6.22419 6.74325 6.16667C6.76213 6.11759 6.89478 5.37425 6.89603 5.36806C7.02041 4.75271 6.74358 4.06855 6.92728 3.47569C6.99365 3.26149 7.61064 3.99818 7.42033 4.18056C7.34641 4.2514 7.08065 4.05052 7.06617 4.04167C6.96262 3.97839 7.21258 4.23734 7.26408 4.34722C7.41193 4.66262 6.47012 3.95975 6.40992 3.90278C6.15057 3.65736 6.16036 3.50336 6.07658 3.19444C5.97195 2.80861 5.71977 3.91714 5.6252 4.30556C5.3088 5.60502 5.1877 6.936 5.1877 8.27083C5.1877 9.372 5.17418 6.06674 5.09047 4.96875C5.07374 4.74929 5.04859 4.13628 4.9377 4.32639C4.55426 4.9837 4.50979 6.03802 4.35436 6.76389C4.31438 6.9506 4.2955 7.14379 4.22936 7.32292C4.21604 7.35901 4.19015 7.25367 4.18769 7.21528C4.15392 6.68608 4.17344 6.15457 4.14603 5.625C4.05593 3.88438 3.99736 6.13398 3.94811 6.06944C3.77329 5.84037 3.71817 4.52232 3.55575 5.375C3.41796 6.0984 3.25057 5.71322 3.22589 5.28125C3.21781 5.13989 3.42237 5.48555 3.52797 5.57986C4.06275 6.05748 4.51431 6.38982 5.22589 6.62847C6.03465 6.89972 6.6482 6.98305 7.41339 6.56597C7.66644 6.42804 7.85729 6.19356 8.04186 5.97222C8.16899 5.81976 8.38214 5.26872 8.35436 5.46528C8.29679 5.87269 8.09068 6.61988 7.76408 5.90278C7.69241 5.7454 7.65515 5.33528 7.52103 5.44444C7.46725 5.48822 7.49044 5.57991 7.46895 5.64583C7.37493 5.93415 7.47063 5.68585 7.34395 5.69792C7.09403 5.72172 7.3301 6.81732 7.30575 6.11111C7.27003 5.07511 6.75791 6.78572 6.33353 6.28472C6.16841 6.08979 6.16186 5.76269 5.97242 5.54167C5.45422 4.9371 5.50251 6.24454 5.65297 6.27778C5.82374 6.31551 6.37728 5.13416 6.42381 4.9375C6.43295 4.89885 6.39567 4.71047 6.29881 4.73611C6.04113 4.80432 5.97972 5.4585 5.95506 5.625C5.86109 6.25925 5.85962 6.72155 5.52797 7.27431C5.2908 7.6696 5.26516 7.77701 5.19811 8.28125C5.19489 8.30549 5.29791 9.71788 4.89603 9.11806C4.78157 8.94722 4.55306 8.48299 4.47936 8.25C4.45921 8.1863 4.5643 8.38837 4.52797 8.44444C4.4363 8.58594 4.25848 8.47036 4.15297 8.48611C4.03756 8.50334 4.28891 8.74896 4.25019 8.82639C4.22796 8.87085 4.08777 8.84715 4.11478 8.88889C4.20144 9.02283 4.67652 9.3867 4.71547 9.41667C4.88878 9.54998 5.26213 9.79143 5.42381 9.96528C5.61931 10.1755 6.21959 11.0455 6.30575 11.1597C6.49888 11.4157 7.49412 13.0602 8.03839 12.6076C8.40617 12.3018 8.77185 11.7277 8.97936 11.3542C9.62035 10.2004 10.1045 8.86031 9.99325 7.51389C9.97136 7.24898 9.80802 6.31141 9.24325 6.36806C8.64334 6.42822 8.11048 7.40389 7.97242 7.79861C7.74773 8.44099 7.6207 9.56836 7.99325 10.2222C8.67643 11.4213 9.6499 9.75411 9.78492 9.23958C9.90241 8.79182 9.96827 8.01055 9.45158 7.70139C9.12605 7.5066 8.76523 7.84035 8.77797 8.14931C8.79399 8.53767 9.26076 8.43268 9.41339 8.29861C9.89367 7.87674 9.04927 7.68715 8.88908 7.50694C8.76715 7.36977 9.10333 7.17478 9.11131 7.15278C9.19059 6.93407 8.64913 7.07019 8.41686 7.08333C8.18403 7.09651 7.95212 7.13532 7.71895 7.13194C7.62968 7.13065 7.42167 7.15075 7.45853 7.06944C7.51731 6.93978 7.70507 6.92504 7.837 6.87153C8.03711 6.79036 8.24341 6.72407 8.45158 6.66667C8.88797 6.54633 9.25807 6.72196 9.51408 6.25C9.63146 6.03362 9.74973 5.69896 9.54881 5.47222C9.3079 5.20037 9.02596 5.59052 9.22242 5.15625C9.32981 4.91886 9.47066 4.70333 9.3995 4.42708C9.38313 4.36351 9.19277 4.33135 9.20506 4.39583C9.22018 4.47526 9.40781 4.41393 9.44117 4.34028C9.57152 4.05241 9.24645 3.91264 9.2502 3.97917C9.28324 4.56578 10.2615 4.10479 10.4724 3.97222C10.5956 3.89484 10.7088 3.79954 10.7641 3.65972C10.7756 3.63069 10.9609 2.89532 10.653 3.09375C10.1726 3.40332 10.6463 3.8438 11.0558 3.75347C11.5277 3.64936 10.8477 3.7449 11.1078 4.02431C11.384 4.32088 11.5582 3.62826 11.462 3.69097C11.3759 3.74713 11.33 3.94953 11.403 4.03125C11.6384 4.29489 11.7062 3.51286 11.7016 3.47917C11.657 3.15685 11.601 3.42559 11.6252 3.45139C11.79 3.62701 12.0121 3.62599 12.2363 3.56944C12.4664 3.51141 12.7054 3.37352 12.8266 3.15972C12.8414 3.13358 12.8313 3.06527 12.8023 3.07292C12.7499 3.08669 12.7141 3.14395 12.6946 3.19444C12.5977 3.44602 12.9076 3.74815 12.8196 3.88194C12.7009 4.06264 12.6229 4.01763 12.6044 4.27083C12.5786 4.62228 12.8172 4.40053 12.5453 4.56944C12.0429 4.88158 11.7822 5.86028 12.712 5.63889C12.8962 5.59502 13.2928 5.16776 13.1842 5.32292C13.1719 5.34054 12.918 5.62729 13.0592 5.69792C13.4216 5.8791 14.1186 4.48303 13.8023 4.73611C13.7408 4.78529 13.6709 4.98788 13.646 4.91319C13.6123 4.81204 13.6603 4.0802 13.4099 4.15972C13.2426 4.21288 13.0804 4.6763 13.2988 4.6875C13.3823 4.69178 13.4332 4.7896 13.4863 4.85417C13.803 5.23895 13.7001 5.60708 13.6078 6.07639C13.552 6.36045 13.5152 6.65133 13.4169 6.92361C13.3955 6.98284 13.2976 6.85357 13.2363 6.86806C13.1391 6.89103 12.8577 7.05091 12.8891 7.21181C12.9417 7.48121 13.7288 7.00664 13.8127 6.97222C13.8511 6.95646 13.896 6.92808 13.9342 6.94444C13.9611 6.95595 13.8898 6.99962 13.8613 6.99306C13.6997 6.95575 13.7203 6.71503 13.7155 6.61806C13.6817 5.9394 13.7632 6.69448 14.0905 6.45833C14.5226 6.1465 15.1809 4.6401 14.9933 5.13889C14.8919 5.40831 14.6911 5.94968 14.3752 6.0625C13.6668 6.3155 13.0333 7.48808 12.6669 8.05208C12.4724 8.35138 11.9956 9.30823 12.1252 8.97569C12.3105 8.50036 12.4407 8.26304 11.9794 7.95833C11.9535 7.94123 11.5984 7.68168 11.4863 7.72917C11.2998 7.8082 11.2518 8.11849 11.0905 8.21528C10.9436 8.30341 10.9454 7.89909 10.9238 7.72917C10.853 7.17223 10.8493 7.30484 10.6217 7.60069C10.2501 8.08382 11.0104 6.44419 11.1634 5.85417C11.1817 5.78341 11.0132 5.81957 10.962 5.76736C10.816 5.61836 10.7921 5.37459 10.6426 5.22917C10.5656 5.15438 10.4908 5.3815 10.4238 5.46528C10.2644 5.66453 10.29 5.50554 10.1391 5.43403C9.90393 5.32264 9.95611 5.7554 9.94464 5.83681C9.86876 6.37554 9.79994 6.93562 9.77103 7.47917C9.74495 7.96941 9.7805 8.46312 9.72936 8.95139C9.68533 9.37184 9.71251 9.2568 9.46547 9.21528C9.15704 9.16344 9.20087 9.15023 9.01408 9.48611C8.82201 9.8315 8.73364 10.2941 8.4377 9.69444C8.1237 9.05819 8.75271 10.238 8.90992 9.83681C8.91517 9.82339 9.01849 9.21595 8.87867 9.14236C8.80961 9.10602 8.74507 9.22488 8.6877 9.27778C8.41147 9.53248 8.33865 9.75585 7.9377 9.82639C7.75102 9.85923 7.55695 9.68927 7.3752 9.74306C7.36375 9.74644 7.22072 9.97383 7.13908 9.85417C7.06782 9.74972 6.92908 9.23529 6.86131 9.13194C6.7571 8.97303 6.64924 9.16321 6.52797 9.09722C6.25407 8.94819 6.09745 8.52273 5.97242 8.29167C5.82943 8.02742 5.78365 7.83997 5.79186 8.26389C5.80768 9.08025 5.86108 8.71781 5.85436 9.5C5.85373 9.5735 5.86962 9.65916 5.82658 9.71875C5.80727 9.74549 5.71127 9.50831 5.72936 9.51736C5.97994 9.64265 5.84689 10.0075 6.22936 10.0521C6.83259 10.1225 7.20035 10.7822 7.14603 11.3472C7.13959 11.4142 7.19783 11.534 7.13214 11.5486C7.09268 11.5574 7.0436 11.4438 7.08353 11.4375C7.2052 11.4183 7.68847 11.9037 7.79533 12.0035C8.12826 12.3142 8.02648 13.0124 8.12867 11.9479C8.14411 11.787 8.19119 10.7634 8.34047 11.5625C8.35842 11.6586 8.38324 12.0562 8.51061 12.1458C8.80506 12.353 9.46779 11.8539 9.6877 11.7361C9.78642 11.6832 10.0599 11.5332 10.0071 11.6319C9.98226 11.6785 9.85413 11.7739 9.88214 11.7292C10.0262 11.499 10.4571 10.9225 10.5835 10.75C11.3108 9.75764 10.8302 10.4574 10.7884 10.4062C10.6142 10.1933 11.6544 8.73928 11.7676 8.46181C11.8044 8.3716 11.5907 8.54391 11.5002 8.57986C11.0084 8.77512 11.1812 7.94454 11.2155 7.76389C11.3839 6.87636 11.4316 7.7278 11.5696 7.90972C11.6393 8.00149 11.7612 7.08857 11.7641 7C11.7686 6.86419 11.9363 6.59641 12.1113 6.70833C12.3493 6.86051 12.3319 7.19588 12.3752 7.43403C12.3832 7.47798 12.3934 7.34552 12.4134 7.30556C12.4904 7.15148 12.5482 7.09567 12.7363 7.17708C12.9722 7.27917 13.2075 7.86439 13.4308 7.84722C13.5992 7.83426 13.793 7.85427 13.4863 8.02778C12.644 8.50437 11.702 8.68222 10.9064 9.27083C10.6067 9.4926 10.1144 10.0254 10.7155 9.38194C11.3423 8.71092 10.7398 9.44893 10.587 9.62153C10.1068 10.1638 9.66914 10.6983 9.26408 11.3021C8.92997 11.8001 8.56999 12.2685 8.46547 12.8681C8.45896 12.9054 8.38908 13.4233 8.38908 13.0208C8.38908 11.562 8.69501 10.0788 8.92033 8.64236C8.94535 8.4829 8.99958 7.39326 9.33353 7.99653C9.48597 8.27191 9.49385 8.25272 9.5627 8.5625" stroke="black" stroke-linecap="round" stroke-linejoin="round"/>
<path d="M10.0001 6.68737C9.34957 6.48988 9.43584 6.1899 9.03831 5.68737C8.58167 5.11011 8.09459 5.1868 7.45151 5.31237C7.24525 5.35265 7.82409 5.11761 8.01401 5.02765C8.16319 4.95698 7.59165 5.23469 7.9654 4.89571C8.24062 4.64608 7.996 4.70679 7.7779 4.63182C7.64641 4.58662 7.70259 4.47039 7.60081 4.45473C7.4897 4.43764 7.82607 4.45815 7.93762 4.47209C8.36023 4.52492 8.20737 4.66087 8.18762 4.93737" stroke="black" stroke-linecap="round" stroke-linejoin="round"/>
<path d="M7.62527 6.87494C7.21616 7.17012 6.79746 7.33594 6.32319 7.51035C4.96676 8.00917 6.67869 7.56456 6.9586 7.54508C7.89754 7.47971 6.68714 8.07563 6.61832 8.37841C6.57401 8.57339 7.63728 8.71701 7.65999 8.72216C8.54718 8.92345 7.51483 8.97334 7.60096 9.44091C7.70895 10.0271 8.67301 9.85904 8.94819 10.2291C9.06971 10.3925 8.22441 10.7794 8.11485 10.8506C8.02616 10.9083 7.75559 11.0416 7.86138 11.0416C7.96223 11.0416 8.57389 10.9371 8.36832 10.8645C8.00836 10.7375 7.58524 10.699 7.28846 10.4305C7.14294 10.2988 7.18539 10.1736 7.11485 10.0208C6.96408 9.6941 7.54364 9.58039 7.71902 9.53119C8.36812 9.34906 9.07131 9.21105 9.67388 8.8923C10.1576 8.63641 10.3515 8.44902 10.7711 8.07633C10.9426 7.92399 11.2942 7.40957 11.3024 7.63883C11.3177 8.06791 10.2627 9.23097 11.594 8.49646C11.8496 8.35545 12.4719 7.72663 12.2503 7.9166C12.0478 8.09018 12.1528 8.27119 12.1044 8.48605C12.047 8.74122 11.9407 9.01952 11.8475 9.26383C11.8265 9.31897 11.7245 9.44022 11.7155 9.38188C11.6695 9.08097 11.8259 8.40575 11.8614 8.22216C11.9096 7.97246 12.1734 6.86103 12.153 6.50688C12.1496 6.44633 12.0735 6.36172 12.0176 6.38535C11.9086 6.43149 11.8571 6.56083 11.7919 6.65966C11.4402 7.19263 12.0454 6.4931 11.7919 6.24299C11.7029 6.15512 11.3993 6.27771 11.3267 6.27077C11.1248 6.25147 10.9722 6.05279 10.8405 5.93744C10.4269 5.57488 10.0512 5.33496 10.4794 4.79855C10.7572 4.45064 10.6851 5.50654 10.7572 5.69438C10.8005 5.80709 10.9598 5.87949 10.9517 5.99994C10.9484 6.04866 10.8273 6.12515 10.8267 6.07633C10.8248 5.93829 10.867 5.54761 10.9169 5.42355C10.9847 5.25508 11.5234 4.07449 10.8336 4.52771C10.5637 4.70503 10.2926 5.06761 10.2017 5.38188C10.182 5.4497 10.1777 5.55674 10.2399 5.59021C10.2929 5.61875 10.3627 5.53606 10.3822 5.4791C10.6108 4.81083 9.57564 4.97304 9.2711 5.00688C9.18159 5.01683 8.71443 5.11073 8.74332 4.86799C8.77236 4.62405 8.68248 4.77018 8.50027 4.74994" stroke="black" stroke-linecap="round" stroke-linejoin="round"/>
<path d="M9.87483 3.93756C10.0724 3.76631 10.2498 3.6239 9.854 3.64589C9.72161 3.65324 9.34985 3.70555 9.47205 3.757C9.80763 3.8983 10.4773 3.09261 10.7846 2.95145C11.2014 2.75993 11.8902 2.63133 12.2776 2.96533C12.8205 3.43334 12.8757 4.67808 12.4096 5.17714C12.2106 5.39018 11.694 5.74063 11.3748 5.52783C11.1079 5.34986 11.3419 4.88791 11.4304 4.69797C11.6784 4.16541 11.6714 4.54233 11.7429 4.882C11.7849 5.08135 11.7679 4.4738 11.7498 4.27089C11.7447 4.21356 11.7622 4.10422 11.7047 4.10422C11.6331 4.10422 11.6051 4.20892 11.5693 4.27089C11.476 4.43221 11.4022 4.60401 11.3193 4.77089C11.0633 5.28612 10.817 5.80864 10.5137 6.29867C10.465 6.37744 9.95298 7.08298 10.0276 7.0695C10.7879 6.93222 11.5631 6.60872 12.3054 6.40283C12.5986 6.32149 12.8905 6.23401 13.1873 6.16672C13.1919 6.16569 13.7684 5.97035 13.8609 6.1945C14.1243 6.83248 13.0097 7.84262 12.6734 8.23617C12.1633 8.83319 11.2769 9.50417 11.0832 10.3056C11.0306 10.5229 11.4933 10.1143 11.663 9.96881C11.8923 9.77225 11.8695 9.83811 11.9165 9.59381C12.0332 8.98719 11.9144 9.30149 12.2672 8.48617C12.6283 7.65157 13.0305 6.82071 13.4373 6.007C13.6086 5.66445 13.8514 5.33877 13.9721 4.97228C14.1296 4.49359 13.9937 4.01948 13.6005 3.70492C13.4614 3.59366 12.9666 3.38028 13.1283 3.45492C13.4552 3.60581 13.5854 3.66684 13.4373 4.00006" stroke="black" stroke-linecap="round" stroke-linejoin="round"/>
<path d="M4.31252 8.5C4.25435 8.40925 4.08602 8.00406 3.89585 8.14236C3.80394 8.2092 3.84276 8.26326 3.8403 8.15972C3.83607 7.98241 3.47919 7.74435 3.4028 7.67014C2.83262 7.11625 2.24287 6.49394 1.99655 5.71875C1.76816 5.00001 2.32692 4.1731 2.81252 3.6875" stroke="black" stroke-linecap="round" stroke-linejoin="round"/>
</svg>
