<svg width="48" height="48" viewBox="0 0 48 48" fill="none" xmlns="http://www.w3.org/2000/svg">
<rect width="48" height="48" rx="24" fill="#333333"/>
<path fill-rule="evenodd" clip-rule="evenodd" d="M23.6489 13.0637C23.8753 12.9788 24.1247 12.9788 24.3511 13.0637L32.3511 16.0637C32.7414 16.21 33 16.5832 33 17V24C33 27.4464 30.7183 30.2003 28.6585 32.0026C27.6076 32.9221 26.5615 33.6408 25.78 34.1292C25.3882 34.3741 25.0603 34.5627 24.8281 34.6913C24.7119 34.7556 24.6194 34.805 24.5547 34.839C24.5223 34.856 24.4968 34.8692 24.4788 34.8784L24.4573 34.8894L24.4508 34.8926L24.4486 34.8937C24.4483 34.8939 24.4472 34.8944 24 34C23.5528 34.8944 23.5525 34.8943 23.5522 34.8941L23.5492 34.8926L23.5427 34.8894L23.5212 34.8784C23.5032 34.8692 23.4777 34.856 23.4453 34.839C23.3806 34.805 23.2881 34.7556 23.1719 34.6913C22.9397 34.5627 22.6118 34.3741 22.22 34.1292C21.4385 33.6408 20.3924 32.9221 19.3415 32.0026C17.2817 30.2003 15 27.4464 15 24V17C15 16.5832 15.2586 16.21 15.6489 16.0637L23.6489 13.0637ZM24 34L23.5522 34.8941C23.8337 35.0349 24.1657 35.0352 24.4472 34.8944L24 34ZM24 32.8628C24.1916 32.7541 24.4367 32.6103 24.72 32.4333C25.4385 31.9842 26.3924 31.3279 27.3415 30.4974C29.2817 28.7997 31 26.5536 31 24V17.693L24 15.068L17 17.693V24C17 26.5536 18.7183 28.7997 20.6585 30.4974C21.6076 31.3279 22.5615 31.9842 23.28 32.4333C23.5633 32.6103 23.8084 32.7541 24 32.8628Z" fill="white"/>
</svg>
