<svg width="24" height="24" viewBox="0 0 24 24" fill="none" xmlns="http://www.w3.org/2000/svg">
<path fill-rule="evenodd" clip-rule="evenodd" d="M12 9C10.3431 9 9 10.3431 9 12C9 13.6569 10.3431 15 12 15C13.6569 15 15 13.6569 15 12C15 10.3431 13.6569 9 12 9ZM7 12C7 9.23858 9.23858 7 12 7C14.7614 7 17 9.23858 17 12C17 14.7614 14.7614 17 12 17C9.23858 17 7 14.7614 7 12Z" fill="black"/>
<path fill-rule="evenodd" clip-rule="evenodd" d="M0.0499878 12C0.0499878 11.4477 0.497703 11 1.04999 11H6.99999C7.55227 11 7.99999 11.4477 7.99999 12C7.99999 12.5523 7.55227 13 6.99999 13H1.04999C0.497703 13 0.0499878 12.5523 0.0499878 12Z" fill="black"/>
<path fill-rule="evenodd" clip-rule="evenodd" d="M16.01 12C16.01 11.4477 16.4577 11 17.01 11H22.96C23.5123 11 23.96 11.4477 23.96 12C23.96 12.5523 23.5123 13 22.96 13H17.01C16.4577 13 16.01 12.5523 16.01 12Z" fill="black"/>
</svg>
