<svg width="24" height="24" viewBox="0 0 24 24" fill="none" xmlns="http://www.w3.org/2000/svg">
<g clip-path="url(#clip0_0_1678)">
<path d="M16 23.0001C15.4 23.0001 15 22.6001 15 22.0001V18.1001C15.1 17.3001 14.8 16.7001 14.3 16.2001C14 15.9001 13.9 15.5001 14.1 15.2001C14.2 14.8001 14.6 14.6001 14.9 14.5001C17.8 14.2001 20.5 13.2001 20.5 8.50014C20.5 7.40014 20.1 6.30014 19.3 5.40014C19 5.10014 19 4.70014 19.1 4.40014C19.4 3.60014 19.4 2.80014 19.2 2.00014C18.7 2.10014 17.9 2.40014 16.6 3.30014C16.4 3.50014 16.1 3.50014 15.8 3.40014C13.7 2.80014 11.4 2.80014 9.29998 3.40014C8.99998 3.50014 8.69998 3.50014 8.39998 3.30014C7.19998 2.40014 6.29998 2.10014 5.79998 2.00014C5.59998 2.80014 5.59998 3.60014 5.89998 4.40014C5.99998 4.80014 5.99998 5.20014 5.69998 5.40014C4.89998 6.30014 4.49998 7.40014 4.49998 8.50014C4.49998 13.2001 7.19998 14.2001 10.1 14.5001C10.5 14.5001 10.8 14.8001 10.9 15.2001C11 15.6001 10.9 16.0001 10.7 16.2001C10.2 16.7001 9.99998 17.3001 9.99998 18.0001V18.9001V19.0001V21.9001C9.99998 22.5001 9.59998 22.9001 8.99998 22.9001C8.39998 22.9001 7.99998 22.5001 7.99998 21.9001V20.2001C4.99998 20.7001 3.69998 19.0001 2.79998 17.9001C2.39998 17.4001 2.09998 17.0001 1.69998 16.9001C1.19998 16.8001 0.799984 16.2001 0.999984 15.7001C1.09998 15.2001 1.69998 14.8001 2.19998 15.0001C3.19998 15.3001 3.79998 16.0001 4.39998 16.7001C5.19998 17.8001 5.89998 18.6001 7.99998 18.2001V18.1001C7.99998 17.5001 8.09998 16.8001 8.29998 16.3001C5.49998 15.7001 2.49998 13.9001 2.49998 8.60014C2.49998 7.10014 2.99998 5.70014 3.89998 4.60014C3.49998 3.20014 3.59998 1.90014 4.19998 0.600141C4.29998 0.300141 4.49998 0.10014 4.79998 0.000140496C5.19998 -0.0998595 6.49998 -0.29986 9.19998 1.40014C11.4 0.900141 13.7 0.900141 15.8 1.40014C18.4 -0.29986 19.8 -0.0998595 20.2 0.000140496C20.5 0.10014 20.7 0.300141 20.8 0.600141C21.3 1.90014 21.4 3.20014 21.1 4.50014C22 5.60014 22.5 7.00014 22.5 8.50014C22.5 14.2001 19.1 15.7001 16.7 16.3001C16.9 16.9001 17 17.6001 17 18.2001V22.0001C17 22.6001 16.6 23.0001 16 23.0001Z" fill="black"/>
</g>
<defs>
<clipPath id="clip0_0_1678">
<rect width="24" height="24" fill="white"/>
</clipPath>
</defs>
</svg>
