<svg width="24" height="24" viewBox="0 0 24 24" fill="none" xmlns="http://www.w3.org/2000/svg">
<g clip-path="url(#clip0)">
<path d="M15.9999 22.9999C15.3999 22.9999 14.9999 22.5999 14.9999 21.9999V18.0999C15.0999 17.2999 14.7999 16.6999 14.2999 16.1999C13.9999 15.8999 13.8999 15.4999 14.0999 15.1999C14.1999 14.7999 14.5999 14.5999 14.8999 14.4999C17.7999 14.1999 20.4999 13.1999 20.4999 8.4999C20.4999 7.3999 20.0999 6.2999 19.2999 5.3999C18.9999 5.0999 18.9999 4.6999 19.0999 4.3999C19.3999 3.5999 19.3999 2.7999 19.1999 1.9999C18.6999 2.0999 17.8999 2.3999 16.5999 3.2999C16.3999 3.4999 16.0999 3.4999 15.7999 3.3999C13.6999 2.7999 11.3999 2.7999 9.29986 3.3999C8.99986 3.4999 8.69986 3.4999 8.39986 3.2999C7.19986 2.3999 6.29986 2.0999 5.79986 1.9999C5.59986 2.7999 5.59986 3.5999 5.89986 4.3999C5.99986 4.7999 5.99986 5.1999 5.69986 5.3999C4.89986 6.2999 4.49986 7.3999 4.49986 8.4999C4.49986 13.1999 7.19986 14.1999 10.0999 14.4999C10.4999 14.4999 10.7999 14.7999 10.8999 15.1999C10.9999 15.5999 10.8999 15.9999 10.6999 16.1999C10.1999 16.6999 9.99986 17.2999 9.99986 17.9999V18.8999V18.9999V21.8999C9.99986 22.4999 9.59986 22.8999 8.99986 22.8999C8.39986 22.8999 7.99986 22.4999 7.99986 21.8999V20.1999C4.99986 20.6999 3.69986 18.9999 2.79986 17.8999C2.39986 17.3999 2.09986 16.9999 1.69986 16.8999C1.19986 16.7999 0.799862 16.1999 0.999862 15.6999C1.09986 15.1999 1.69986 14.7999 2.19986 14.9999C3.19986 15.2999 3.79986 15.9999 4.39986 16.6999C5.19986 17.7999 5.89986 18.5999 7.99986 18.1999V18.0999C7.99986 17.4999 8.09986 16.7999 8.29986 16.2999C5.49986 15.6999 2.49986 13.8999 2.49986 8.5999C2.49986 7.0999 2.99986 5.6999 3.89986 4.5999C3.49986 3.1999 3.59986 1.8999 4.19986 0.599896C4.29986 0.299896 4.49986 0.0998964 4.79986 -0.000103645C5.19986 -0.100104 6.49986 -0.300104 9.19986 1.3999C11.3999 0.899896 13.6999 0.899896 15.7999 1.3999C18.3999 -0.300104 19.7999 -0.100104 20.1999 -0.000103645C20.4999 0.0998964 20.6999 0.299896 20.7999 0.599896C21.2999 1.8999 21.3999 3.1999 21.0999 4.4999C21.9999 5.5999 22.4999 6.9999 22.4999 8.4999C22.4999 14.1999 19.0999 15.6999 16.6999 16.2999C16.8999 16.8999 16.9999 17.5999 16.9999 18.1999V21.9999C16.9999 22.5999 16.5999 22.9999 15.9999 22.9999Z" fill="black"/>
</g>
<defs>
<clipPath id="clip0">
<rect width="24" height="24" fill="white"/>
</clipPath>
</defs>
</svg>
