<svg width="24" height="24" viewBox="0 0 24 24" fill="none" xmlns="http://www.w3.org/2000/svg">
<g clip-path="url(#clip0)">
<path fill-rule="evenodd" clip-rule="evenodd" d="M4.55678 2.48161C4.55557 2.47789 4.55439 2.47416 4.55326 2.47041L4.55678 2.48161ZM5.10763 4.17281L6.99932 9.97971C7.13343 10.3914 7.5172 10.67 7.95014 10.67H16.0501C16.4834 10.67 16.8673 10.391 17.0012 9.97896L18.8869 4.17505L20.7791 9.99896L22.0034 13.6238L12.0001 20.8938L2.03572 13.652L5.10763 4.17281ZM22.1475 13.6983L22.0668 13.5873C22.0778 13.573 22.0913 13.5605 22.1067 13.5505L22.1936 13.6848L22.1475 13.6983ZM22.1706 13.7301L22.6501 14.39L22.2136 13.7156L22.1706 13.7301ZM23.2204 15.2117L12.588 22.9389C12.2375 23.1936 11.7628 23.1936 11.4122 22.9389L0.762244 15.1989L0.757682 15.1956C0.444936 14.9656 0.212952 14.6425 0.0949196 14.2727C-0.0227092 13.9041 -0.0211584 13.5079 0.099294 13.1403L3.75908 1.85096C3.76474 1.83356 3.77087 1.81632 3.77747 1.79925C3.85718 1.59313 3.98391 1.40846 4.14755 1.25995C4.41083 1.0203 4.75407 0.887451 5.11014 0.887451C5.46705 0.887451 5.81105 1.02091 6.07456 1.26161C6.08151 1.26796 6.08837 1.2744 6.09513 1.28094C6.26571 1.44581 6.39221 1.65074 6.46317 1.87697L8.6761 8.66996H15.3236L17.5391 1.85096C17.5447 1.83356 17.5509 1.81632 17.5575 1.79925C17.6372 1.59312 17.7639 1.40846 17.9275 1.25995C18.1908 1.0203 18.5341 0.887451 18.8901 0.887451C19.247 0.887451 19.591 1.02091 19.8546 1.26161C19.8615 1.26796 19.8684 1.2744 19.8751 1.28094C20.0458 1.44593 20.1724 1.65104 20.2433 1.87746L22.6794 9.37535L23.9476 13.13C23.9496 13.1359 23.9515 13.1418 23.9534 13.1478C23.9558 13.1553 23.9581 13.1628 23.9603 13.1704C24.0709 13.5504 24.0561 13.956 23.918 14.3269C23.7836 14.6877 23.5395 14.9971 23.2204 15.2117ZM17.9275 1.25995C17.9282 1.2594 17.9288 1.25885 17.9294 1.2583L18.6001 1.99996L17.9257 1.26161C17.9263 1.26106 17.9269 1.2605 17.9275 1.25995ZM19.2709 2.74162L19.2746 2.73831C19.2734 2.73942 19.2721 2.74052 19.2709 2.74162Z" fill="black"/>
</g>
<defs>
<clipPath id="clip0">
<rect width="24" height="24" fill="white"/>
</clipPath>
</defs>
</svg>
