<svg width="24" height="24" viewBox="0 0 24 24" fill="none" xmlns="http://www.w3.org/2000/svg">
<g clip-path="url(#clip0_0_1679)">
<path fill-rule="evenodd" clip-rule="evenodd" d="M4.55663 2.48185C4.55541 2.47814 4.55424 2.4744 4.5531 2.47066L4.55663 2.48185ZM5.10747 4.17305L6.99917 9.97995C7.13328 10.3916 7.51705 10.6702 7.94999 10.6702H16.05C16.4832 10.6702 16.8672 10.3912 17.0011 9.97921L18.8867 4.1753L20.7789 9.9992L22.0032 13.6241L12 20.894L2.03557 13.6523L5.10747 4.17305ZM22.1473 13.6985L22.0667 13.5875C22.0777 13.5732 22.0912 13.5607 22.1065 13.5508L22.1935 13.6851L22.1473 13.6985ZM22.1705 13.7304L22.65 14.3902L22.2134 13.7159L22.1705 13.7304ZM23.2203 15.2119L12.5879 22.9391C12.2374 23.1939 11.7626 23.1939 11.4121 22.9391L0.762091 15.1991L0.75753 15.1958C0.444783 14.9658 0.212799 14.6428 0.094767 14.2729C-0.0228618 13.9044 -0.021311 13.5081 0.0991414 13.1405L3.75893 1.85121C3.76458 1.8338 3.77071 1.81656 3.77731 1.7995C3.85703 1.59337 3.98376 1.40871 4.14739 1.2602C4.41067 1.02054 4.75391 0.887695 5.10999 0.887695C5.46689 0.887695 5.81089 1.02116 6.07441 1.26186C6.08136 1.2682 6.08821 1.27464 6.09498 1.28118C6.26555 1.44605 6.39206 1.65099 6.46301 1.87722L8.67595 8.67021H15.3234L17.5389 1.8512C17.5446 1.8338 17.5507 1.81656 17.5573 1.7995C17.637 1.59337 17.7638 1.4087 17.9274 1.2602C18.1907 1.02054 18.5339 0.887695 18.89 0.887695C19.2469 0.887695 19.5909 1.02115 19.8544 1.26186C19.8614 1.2682 19.8682 1.27464 19.875 1.28118C20.0457 1.44617 20.1722 1.65128 20.2432 1.87771L22.6792 9.3756L23.9474 13.1302C23.9494 13.1361 23.9514 13.1421 23.9532 13.148C23.9556 13.1555 23.9579 13.1631 23.9601 13.1706C24.0708 13.5506 24.056 13.9562 23.9178 14.3271C23.7835 14.688 23.5394 14.9973 23.2203 15.2119ZM17.9274 1.2602C17.928 1.25964 17.9286 1.25909 17.9292 1.25854L18.6 2.00021L17.9256 1.26186C17.9262 1.2613 17.9268 1.26075 17.9274 1.2602ZM19.2708 2.74187L19.2744 2.73855C19.2732 2.73967 19.272 2.74077 19.2708 2.74187Z" fill="black"/>
</g>
<defs>
<clipPath id="clip0_0_1679">
<rect width="24" height="24" fill="white"/>
</clipPath>
</defs>
</svg>
