<svg width="32" height="32" viewBox="0 0 32 32" fill="none" xmlns="http://www.w3.org/2000/svg">
<path fill-rule="evenodd" clip-rule="evenodd" d="M16.0003 5.33341C13.1714 5.33341 10.4582 6.45722 8.45785 8.45761C6.45746 10.458 5.33366 13.1711 5.33366 16.0001V24.0001C5.33366 24.7365 4.73671 25.3334 4.00033 25.3334C3.26395 25.3334 2.66699 24.7365 2.66699 24.0001V16.0001C2.66699 12.4639 4.07175 9.07248 6.57223 6.57199C9.07272 4.07151 12.4641 2.66675 16.0003 2.66675C19.5365 2.66675 22.9279 4.07151 25.4284 6.57199C27.9289 9.07248 29.3337 12.4639 29.3337 16.0001V24.0001C29.3337 24.7365 28.7367 25.3334 28.0003 25.3334C27.2639 25.3334 26.667 24.7365 26.667 24.0001V16.0001C26.667 13.1711 25.5432 10.458 23.5428 8.45761C21.5424 6.45722 18.8293 5.33341 16.0003 5.33341Z" fill="black"/>
<path fill-rule="evenodd" clip-rule="evenodd" d="M2.66699 18.6667C2.66699 17.9304 3.26395 17.3334 4.00033 17.3334H8.00033C9.06119 17.3334 10.0786 17.7548 10.8288 18.505C11.5789 19.2551 12.0003 20.2725 12.0003 21.3334V25.3334C12.0003 26.3943 11.5789 27.4117 10.8288 28.1618C10.0786 28.912 9.06119 29.3334 8.00033 29.3334H6.66699C5.60613 29.3334 4.58871 28.912 3.83856 28.1618C3.08842 27.4117 2.66699 26.3943 2.66699 25.3334V18.6667ZM5.33366 20.0001V25.3334C5.33366 25.687 5.47413 26.0262 5.72418 26.2762C5.97423 26.5263 6.31337 26.6667 6.66699 26.6667H8.00033C8.35395 26.6667 8.69309 26.5263 8.94313 26.2762C9.19318 26.0262 9.33366 25.687 9.33366 25.3334V21.3334C9.33366 20.9798 9.19318 20.6407 8.94313 20.3906C8.69309 20.1406 8.35395 20.0001 8.00033 20.0001H5.33366ZM24.0003 20.0001C23.6467 20.0001 23.3076 20.1406 23.0575 20.3906C22.8075 20.6407 22.667 20.9798 22.667 21.3334V25.3334C22.667 25.687 22.8075 26.0262 23.0575 26.2762C23.3076 26.5263 23.6467 26.6667 24.0003 26.6667H25.3337C25.6873 26.6667 26.0264 26.5263 26.2765 26.2762C26.5265 26.0262 26.667 25.687 26.667 25.3334V20.0001H24.0003ZM21.1719 18.505C21.922 17.7548 22.9395 17.3334 24.0003 17.3334H28.0003C28.7367 17.3334 29.3337 17.9304 29.3337 18.6667V25.3334C29.3337 26.3943 28.9122 27.4117 28.1621 28.1618C27.4119 28.912 26.3945 29.3334 25.3337 29.3334H24.0003C22.9395 29.3334 21.922 28.912 21.1719 28.1618C20.4218 27.4117 20.0003 26.3943 20.0003 25.3334V21.3334C20.0003 20.2725 20.4218 19.2551 21.1719 18.505Z" fill="black"/>
</svg>
