<svg width="16" height="16" viewBox="0 0 16 16" fill="none" xmlns="http://www.w3.org/2000/svg">
<path fill-rule="evenodd" clip-rule="evenodd" d="M9.94242 1.6633C10.4683 1.4454 11.032 1.33325 11.6012 1.33325C12.1704 1.33325 12.7341 1.4454 13.2599 1.6633C13.7857 1.88116 14.2634 2.20046 14.6658 2.60295C15.0683 3.00532 15.3878 3.48326 15.6057 4.00904C15.8236 4.53491 15.9357 5.09857 15.9357 5.6678C15.9357 6.23704 15.8236 6.80069 15.6057 7.32657C15.3878 7.8524 15.0685 8.33015 14.6659 8.73254C14.6659 8.73258 14.666 8.7325 14.6659 8.73254L8.77259 14.6259C8.51224 14.8862 8.09013 14.8862 7.82978 14.6259L1.93645 8.73254C1.12363 7.91972 0.666992 6.8173 0.666992 5.6678C0.666992 4.5183 1.12363 3.41588 1.93645 2.60306C2.74927 1.79025 3.85169 1.33361 5.00119 1.33361C6.15069 1.33361 7.2531 1.79025 8.06592 2.60306L8.30119 2.83833L8.53634 2.60318C8.53637 2.60314 8.5363 2.60321 8.53634 2.60318C8.93873 2.20062 9.41659 1.88118 9.94242 1.6633ZM11.6012 2.66659C11.2071 2.66659 10.8169 2.74423 10.4528 2.89508C10.0887 3.04593 9.75796 3.26704 9.47937 3.54576L8.77259 4.25254C8.51224 4.51289 8.09013 4.51289 7.82978 4.25254L7.12311 3.54587C6.56034 2.9831 5.79706 2.66694 5.00119 2.66694C4.20531 2.66694 3.44203 2.9831 2.87926 3.54587C2.31649 4.10864 2.00033 4.87192 2.00033 5.6678C2.00033 6.46368 2.31649 7.22696 2.87926 7.78973L8.30119 13.2117L13.7231 7.78973C14.0018 7.51114 14.2231 7.18025 14.3739 6.81618C14.5248 6.45211 14.6024 6.06189 14.6024 5.6678C14.6024 5.27372 14.5248 4.8835 14.3739 4.51943C14.2231 4.15536 14.0019 3.82458 13.7232 3.54598C13.4446 3.26726 13.1136 3.04593 12.7496 2.89508C12.3855 2.74423 11.9953 2.66659 11.6012 2.66659Z" fill="black"/>
<path d="M7.9375 8.125C7.5516 7.3173 7.20569 6.51423 6.875 5.6875" stroke="black" stroke-linecap="round" stroke-linejoin="round"/>
<path d="M6.87471 5.0625C6.54305 4.37967 5.80695 3.74768 5.12471 3.43056C4.54247 3.15991 4.13565 3.69468 4.48582 4.20139C4.8881 4.78352 5.32347 3.34293 5.24276 3.07639C4.95227 2.11701 3.4234 3.17382 3.30873 3.76736C3.2596 4.02172 3.47015 4.28855 3.73235 4.23611C4.00804 4.18097 3.37601 4.48168 3.37471 4.48264C3.2359 4.58501 3.1323 4.84044 2.96498 4.79861C2.8083 4.75944 3.11008 4.50996 3.18721 4.36806C3.69125 3.44062 3.35406 4.45202 3.1386 4.59722C3.03495 4.66707 3.2344 3.83969 3.1386 4.27083C3.12696 4.3232 2.92094 5.26073 2.8886 4.8125C2.85668 4.37029 2.63112 4.64375 2.49971 4.90278C2.45433 4.99221 2.38384 5.28604 2.40248 5.1875C2.44602 4.95737 2.48582 4.72119 2.48582 4.48611C2.48582 4.4212 2.42064 4.7154 2.4754 4.68056C2.56013 4.62664 2.5776 4.85443 2.61429 4.94792C2.84232 5.52884 3.14348 5.91571 3.5761 6.36111C4.26188 7.06717 3.55967 6.56199 3.23582 6.40278C2.97513 6.27462 2.91247 6.27474 2.95804 6.60417C3.01983 7.05082 3.44854 7.74644 3.34693 8.19097C3.29692 8.40977 3.06832 7.83628 2.96151 7.63889C2.84547 7.42443 2.58549 6.94272 2.53096 6.66667C2.4495 6.25429 2.9704 6.8544 2.73235 6.53472C2.65407 6.42961 2.42653 6.11064 2.48929 6.22569C2.64061 6.50311 2.9057 6.79008 3.14901 6.95833C3.73443 7.36314 4.19064 7.53896 4.91637 7.34028C5.23212 7.25384 5.51451 7.06302 5.77748 6.86806C6.08385 6.64092 6.23187 6.19369 6.58998 6.0625C6.64786 6.0413 6.72064 6.22419 6.74276 6.16667C6.76164 6.11759 6.89429 5.37425 6.89554 5.36806C7.01992 4.75271 6.74309 4.06855 6.92679 3.47569C6.99316 3.26149 7.61015 3.99818 7.41985 4.18056C7.34592 4.2514 7.08016 4.05052 7.06568 4.04167C6.96213 3.97839 7.21209 4.23734 7.2636 4.34722C7.41144 4.66262 6.46963 3.95975 6.40943 3.90278C6.15009 3.65736 6.15987 3.50336 6.0761 3.19444C5.97146 2.80861 5.71928 3.91714 5.62471 4.30556C5.30832 5.60502 5.18721 6.936 5.18721 8.27083C5.18721 9.372 5.17369 6.06674 5.08998 4.96875C5.07325 4.74929 5.04811 4.13628 4.93721 4.32639C4.55377 4.9837 4.5093 6.03802 4.35387 6.76389C4.31389 6.9506 4.29501 7.14379 4.22887 7.32292C4.21555 7.35901 4.18966 7.25367 4.18721 7.21528C4.15343 6.68608 4.17295 6.15457 4.14554 5.625C4.05544 3.88438 3.99687 6.13398 3.94762 6.06944C3.7728 5.84037 3.71768 4.52232 3.55526 5.375C3.41747 6.0984 3.25008 5.71322 3.2254 5.28125C3.21732 5.13989 3.42188 5.48555 3.52748 5.57986C4.06226 6.05748 4.51382 6.38982 5.2254 6.62847C6.03416 6.89972 6.64771 6.98305 7.4129 6.56597C7.66595 6.42804 7.8568 6.19356 8.04137 5.97222C8.1685 5.81976 8.38165 5.26872 8.35387 5.46528C8.2963 5.87269 8.0902 6.61988 7.7636 5.90278C7.69192 5.7454 7.65466 5.33528 7.52054 5.44444C7.46676 5.48822 7.48995 5.57991 7.46846 5.64583C7.37444 5.93415 7.47014 5.68585 7.34346 5.69792C7.09354 5.72172 7.32961 6.81732 7.30526 6.11111C7.26954 5.07511 6.75742 6.78572 6.33304 6.28472C6.16792 6.08979 6.16138 5.76269 5.97193 5.54167C5.45373 4.9371 5.50202 6.24454 5.65248 6.27778C5.82325 6.31551 6.3768 5.13416 6.42332 4.9375C6.43246 4.89885 6.39518 4.71047 6.29832 4.73611C6.04064 4.80432 5.97923 5.4585 5.95457 5.625C5.8606 6.25925 5.85914 6.72155 5.52748 7.27431C5.29031 7.6696 5.26468 7.77701 5.19762 8.28125C5.1944 8.30549 5.29742 9.71788 4.89554 9.11806C4.78108 8.94722 4.55257 8.48299 4.47887 8.25C4.45872 8.1863 4.56381 8.38837 4.52748 8.44444C4.43581 8.58594 4.25799 8.47036 4.15248 8.48611C4.03707 8.50334 4.28842 8.74896 4.24971 8.82639C4.22747 8.87085 4.08728 8.84715 4.11429 8.88889C4.20096 9.02283 4.67603 9.3867 4.71498 9.41667C4.88829 9.54998 5.26164 9.79143 5.42332 9.96528C5.61882 10.1755 6.2191 11.0455 6.30526 11.1597C6.49839 11.4157 7.49363 13.0602 8.0379 12.6076C8.40568 12.3018 8.77136 11.7277 8.97887 11.3542C9.61986 10.2004 10.104 8.86031 9.99276 7.51389C9.97087 7.24898 9.80753 6.31141 9.24276 6.36806C8.64286 6.42822 8.10999 7.40389 7.97193 7.79861C7.74724 8.44099 7.62022 9.56836 7.99276 10.2222C8.67594 11.4213 9.64941 9.75411 9.78443 9.23958C9.90193 8.79182 9.96778 8.01055 9.4511 7.70139C9.12556 7.5066 8.76474 7.84035 8.77748 8.14931C8.7935 8.53767 9.26027 8.43268 9.4129 8.29861C9.89319 7.87674 9.04878 7.68715 8.8886 7.50694C8.76666 7.36977 9.10284 7.17478 9.11082 7.15278C9.1901 6.93407 8.64864 7.07019 8.41637 7.08333C8.18354 7.09651 7.95163 7.13532 7.71846 7.13194C7.6292 7.13065 7.42118 7.15075 7.45804 7.06944C7.51682 6.93978 7.70458 6.92504 7.83651 6.87153C8.03662 6.79036 8.24292 6.72407 8.4511 6.66667C8.88748 6.54633 9.25758 6.72196 9.5136 6.25C9.63097 6.03362 9.74924 5.69896 9.54832 5.47222C9.30741 5.20037 9.02548 5.59052 9.22193 5.15625C9.32932 4.91886 9.47017 4.70333 9.39901 4.42708C9.38264 4.36351 9.19228 4.33135 9.20457 4.39583C9.2197 4.47526 9.40733 4.41393 9.44068 4.34028C9.57103 4.05241 9.24596 3.91264 9.24971 3.97917C9.28276 4.56578 10.261 4.10479 10.4719 3.97222C10.5951 3.89484 10.7083 3.79954 10.7636 3.65972C10.7751 3.63069 10.9604 2.89532 10.6525 3.09375C10.1721 3.40332 10.6458 3.8438 11.0553 3.75347C11.5272 3.64936 10.8472 3.7449 11.1073 4.02431C11.3835 4.32088 11.5577 3.62826 11.4615 3.69097C11.3754 3.74713 11.3295 3.94953 11.4025 4.03125C11.6379 4.29489 11.7058 3.51286 11.7011 3.47917C11.6565 3.15685 11.6005 3.42559 11.6247 3.45139C11.7895 3.62701 12.0116 3.62599 12.2358 3.56944C12.4659 3.51141 12.7049 3.37352 12.8261 3.15972C12.8409 3.13358 12.8308 3.06527 12.8018 3.07292C12.7495 3.08669 12.7136 3.14395 12.6942 3.19444C12.5972 3.44602 12.9071 3.74815 12.8192 3.88194C12.7004 4.06264 12.6224 4.01763 12.6039 4.27083C12.5782 4.62228 12.8168 4.40053 12.5448 4.56944C12.0424 4.88158 11.7817 5.86028 12.7115 5.63889C12.8958 5.59502 13.2923 5.16776 13.1837 5.32292C13.1714 5.34054 12.9175 5.62729 13.0587 5.69792C13.4211 5.8791 14.1181 4.48303 13.8018 4.73611C13.7403 4.78529 13.6704 4.98788 13.6455 4.91319C13.6118 4.81204 13.6598 4.0802 13.4094 4.15972C13.2421 4.21288 13.0799 4.6763 13.2983 4.6875C13.3818 4.69178 13.4327 4.7896 13.4858 4.85417C13.8025 5.23895 13.6996 5.60708 13.6073 6.07639C13.5515 6.36045 13.5147 6.65133 13.4164 6.92361C13.395 6.98284 13.2971 6.85357 13.2358 6.86806C13.1386 6.89103 12.8572 7.05091 12.8886 7.21181C12.9412 7.48121 13.7283 7.00664 13.8122 6.97222C13.8507 6.95646 13.8955 6.92808 13.9337 6.94444C13.9606 6.95595 13.8893 6.99962 13.8608 6.99306C13.6992 6.95575 13.7198 6.71503 13.715 6.61806C13.6813 5.9394 13.7627 6.69448 14.09 6.45833C14.5221 6.1465 15.1804 4.6401 14.9928 5.13889C14.8914 5.40831 14.6906 5.94968 14.3747 6.0625C13.6663 6.3155 13.0328 7.48808 12.6664 8.05208C12.4719 8.35138 11.9951 9.30823 12.1247 8.97569C12.31 8.50036 12.4402 8.26304 11.9789 7.95833C11.953 7.94123 11.5979 7.68168 11.4858 7.72917C11.2993 7.8082 11.2513 8.11849 11.09 8.21528C10.9431 8.30341 10.9449 7.89909 10.9233 7.72917C10.8525 7.17223 10.8488 7.30484 10.6212 7.60069C10.2496 8.08382 11.0099 6.44419 11.1629 5.85417C11.1812 5.78341 11.0127 5.81957 10.9615 5.76736C10.8155 5.61836 10.7916 5.37459 10.6421 5.22917C10.5651 5.15438 10.4903 5.3815 10.4233 5.46528C10.2639 5.66453 10.2896 5.50554 10.1386 5.43403C9.90344 5.32264 9.95562 5.7554 9.94415 5.83681C9.86827 6.37554 9.79945 6.93562 9.77054 7.47917C9.74446 7.96941 9.78001 8.46312 9.72887 8.95139C9.68484 9.37184 9.71202 9.2568 9.46498 9.21528C9.15655 9.16344 9.20038 9.15023 9.0136 9.48611C8.82153 9.8315 8.73315 10.2941 8.43721 9.69444C8.12321 9.05819 8.75222 10.238 8.90943 9.83681C8.91469 9.82339 9.01801 9.21595 8.87818 9.14236C8.80912 9.10602 8.74458 9.22488 8.68721 9.27778C8.41098 9.53248 8.33816 9.75585 7.93721 9.82639C7.75053 9.85923 7.55646 9.68927 7.37471 9.74306C7.36326 9.74644 7.22023 9.97383 7.1386 9.85417C7.06734 9.74972 6.92859 9.23529 6.86082 9.13194C6.75661 8.97303 6.64875 9.16321 6.52748 9.09722C6.25358 8.94819 6.09697 8.52273 5.97193 8.29167C5.82894 8.02742 5.78316 7.83997 5.79137 8.26389C5.80719 9.08025 5.86059 8.71781 5.85387 9.5C5.85324 9.5735 5.86913 9.65916 5.8261 9.71875C5.80679 9.74549 5.71078 9.50831 5.72887 9.51736C5.97945 9.64265 5.84641 10.0075 6.22887 10.0521C6.8321 10.1225 7.19987 10.7822 7.14554 11.3472C7.1391 11.4142 7.19734 11.534 7.13165 11.5486C7.09219 11.5574 7.04311 11.4438 7.08304 11.4375C7.20471 11.4183 7.68798 11.9037 7.79485 12.0035C8.12777 12.3142 8.02599 13.0124 8.12818 11.9479C8.14362 11.787 8.1907 10.7634 8.33998 11.5625C8.35793 11.6586 8.38275 12.0562 8.51012 12.1458C8.80457 12.353 9.46731 11.8539 9.68721 11.7361C9.78593 11.6832 10.0594 11.5332 10.0067 11.6319C9.98177 11.6785 9.85364 11.7739 9.88165 11.7292C10.0257 11.499 10.4566 10.9225 10.583 10.75C11.3103 9.75764 10.8297 10.4574 10.7879 10.4062C10.6137 10.1933 11.6539 8.73928 11.7671 8.46181C11.8039 8.3716 11.5903 8.54391 11.4997 8.57986C11.0079 8.77512 11.1807 7.94454 11.215 7.76389C11.3834 6.87636 11.4311 7.7278 11.5692 7.90972C11.6388 8.00149 11.7607 7.08857 11.7636 7C11.7681 6.86419 11.9358 6.59641 12.1108 6.70833C12.3488 6.86051 12.3314 7.19588 12.3747 7.43403C12.3827 7.47798 12.3929 7.34552 12.4129 7.30556C12.4899 7.15148 12.5477 7.09567 12.7358 7.17708C12.9717 7.27917 13.207 7.86439 13.4303 7.84722C13.5988 7.83426 13.7925 7.85427 13.4858 8.02778C12.6435 8.50437 11.7016 8.68222 10.906 9.27083C10.6062 9.4926 10.1139 10.0254 10.715 9.38194C11.3419 8.71092 10.7393 9.44893 10.5865 9.62153C10.1063 10.1638 9.66865 10.6983 9.2636 11.3021C8.92948 11.8001 8.5695 12.2685 8.46498 12.8681C8.45847 12.9054 8.3886 13.4233 8.3886 13.0208C8.3886 11.562 8.69452 10.0788 8.91985 8.64236C8.94486 8.4829 8.99909 7.39326 9.33304 7.99653C9.48548 8.27191 9.49337 8.25272 9.56221 8.5625" stroke="black" stroke-linecap="round" stroke-linejoin="round"/>
<path d="M9.99963 6.68737C9.34908 6.48988 9.43535 6.1899 9.03783 5.68737C8.58119 5.11011 8.0941 5.1868 7.45102 5.31237C7.24476 5.35265 7.8236 5.11761 8.01352 5.02765C8.1627 4.95698 7.59116 5.23469 7.96491 4.89571C8.24013 4.64608 7.99552 4.70679 7.77741 4.63182C7.64592 4.58662 7.70211 4.47039 7.60033 4.45473C7.48922 4.43764 7.82558 4.45815 7.93713 4.47209C8.35974 4.52492 8.20688 4.66087 8.18713 4.93737" stroke="black" stroke-linecap="round" stroke-linejoin="round"/>
<path d="M7.62527 6.87494C7.21616 7.17012 6.79746 7.33594 6.32319 7.51035C4.96676 8.00917 6.67869 7.56456 6.9586 7.54508C7.89754 7.47971 6.68714 8.07563 6.61832 8.37841C6.57401 8.57339 7.63728 8.71701 7.65999 8.72216C8.54718 8.92345 7.51483 8.97334 7.60096 9.44091C7.70895 10.0271 8.67301 9.85904 8.94819 10.2291C9.06971 10.3925 8.22441 10.7794 8.11485 10.8506C8.02616 10.9083 7.75559 11.0416 7.86138 11.0416C7.96223 11.0416 8.57389 10.9371 8.36832 10.8645C8.00836 10.7375 7.58524 10.699 7.28846 10.4305C7.14294 10.2988 7.18539 10.1736 7.11485 10.0208C6.96408 9.6941 7.54364 9.58039 7.71902 9.53119C8.36812 9.34906 9.07131 9.21105 9.67388 8.8923C10.1576 8.63641 10.3515 8.44902 10.7711 8.07633C10.9426 7.92399 11.2942 7.40957 11.3024 7.63883C11.3177 8.06791 10.2627 9.23097 11.594 8.49646C11.8496 8.35545 12.4719 7.72663 12.2503 7.9166C12.0478 8.09018 12.1528 8.27119 12.1044 8.48605C12.047 8.74122 11.9407 9.01952 11.8475 9.26383C11.8265 9.31897 11.7245 9.44022 11.7155 9.38188C11.6695 9.08097 11.8259 8.40575 11.8614 8.22216C11.9096 7.97246 12.1734 6.86103 12.153 6.50688C12.1496 6.44633 12.0735 6.36172 12.0176 6.38535C11.9086 6.43149 11.8571 6.56083 11.7919 6.65966C11.4402 7.19263 12.0454 6.4931 11.7919 6.24299C11.7029 6.15512 11.3993 6.27771 11.3267 6.27077C11.1248 6.25147 10.9722 6.05279 10.8405 5.93744C10.4269 5.57488 10.0512 5.33496 10.4794 4.79855C10.7572 4.45064 10.6851 5.50654 10.7572 5.69438C10.8005 5.80709 10.9598 5.87949 10.9517 5.99994C10.9484 6.04866 10.8273 6.12515 10.8267 6.07633C10.8248 5.93829 10.867 5.54761 10.9169 5.42355C10.9847 5.25508 11.5234 4.07449 10.8336 4.52771C10.5637 4.70503 10.2926 5.06761 10.2017 5.38188C10.182 5.4497 10.1777 5.55674 10.2399 5.59021C10.2929 5.61875 10.3627 5.53606 10.3822 5.4791C10.6108 4.81083 9.57564 4.97304 9.2711 5.00688C9.18159 5.01683 8.71443 5.11073 8.74332 4.86799C8.77236 4.62405 8.68248 4.77018 8.50027 4.74994" stroke="black" stroke-linecap="round" stroke-linejoin="round"/>
<path d="M9.87434 3.93756C10.0719 3.76631 10.2493 3.6239 9.85351 3.64589C9.72112 3.65324 9.34936 3.70555 9.47156 3.757C9.80714 3.8983 10.4768 3.09261 10.7841 2.95145C11.2009 2.75993 11.8897 2.63133 12.2771 2.96533C12.82 3.43334 12.8752 4.67808 12.4091 5.17714C12.2101 5.39018 11.6935 5.74063 11.3743 5.52783C11.1074 5.34986 11.3414 4.88791 11.4299 4.69797C11.6779 4.16541 11.6709 4.54233 11.7424 4.882C11.7844 5.08135 11.7674 4.4738 11.7493 4.27089C11.7442 4.21356 11.7618 4.10422 11.7042 4.10422C11.6326 4.10422 11.6046 4.20892 11.5688 4.27089C11.4755 4.43221 11.4017 4.60401 11.3188 4.77089C11.0628 5.28612 10.8165 5.80864 10.5132 6.29867C10.4645 6.37744 9.95249 7.08298 10.0271 7.0695C10.7874 6.93222 11.5626 6.60872 12.3049 6.40283C12.5982 6.32149 12.89 6.23401 13.1868 6.16672C13.1914 6.16569 13.7679 5.97035 13.8605 6.1945C14.1238 6.83248 13.0093 7.84262 12.673 8.23617C12.1628 8.83319 11.2764 9.50417 11.0827 10.3056C11.0301 10.5229 11.4928 10.1143 11.6625 9.96881C11.8919 9.77225 11.869 9.83811 11.916 9.59381C12.0327 8.98719 11.914 9.30149 12.2667 8.48617C12.6278 7.65157 13.03 6.82071 13.4368 6.007C13.6081 5.66445 13.8509 5.33877 13.9716 4.97228C14.1291 4.49359 13.9932 4.01948 13.6 3.70492C13.461 3.59366 12.9661 3.38028 13.1278 3.45492C13.4548 3.60581 13.5849 3.66684 13.4368 4.00006" stroke="black" stroke-linecap="round" stroke-linejoin="round"/>
<path d="M4.31203 8.5C4.25386 8.40925 4.08553 8.00406 3.89536 8.14236C3.80345 8.2092 3.84227 8.26326 3.83981 8.15972C3.83559 7.98241 3.4787 7.74435 3.40231 7.67014C2.83213 7.11625 2.24238 6.49394 1.99606 5.71875C1.76767 5.00001 2.32643 4.1731 2.81203 3.6875" stroke="black" stroke-linecap="round" stroke-linejoin="round"/>
</svg>
