<?xml version="1.0" standalone="no"?>
<!DOCTYPE svg PUBLIC "-//W3C//DTD SVG 20010904//EN"
 "http://www.w3.org/TR/2001/REC-SVG-20010904/DTD/svg10.dtd">
<svg version="1.0" xmlns="http://www.w3.org/2000/svg"
 width="40.000000pt" height="34.000000pt" viewBox="0 0 40.000000 34.000000"
 preserveAspectRatio="xMidYMid meet">

<g transform="translate(0.000000,34.000000) scale(0.100000,-0.100000)"
fill="#000000" stroke="none">
<path d="M240 324 c0 -11 -6 -14 -20 -9 -13 4 -49 -11 -114 -50 -77 -46 -93
-60 -89 -76 6 -21 36 -42 47 -32 3 3 6 -25 6 -63 0 -81 9 -94 62 -94 l38 0 0
45 c0 45 0 45 35 45 35 0 35 0 35 -45 l0 -45 38 0 c53 0 62 13 62 92 0 61 2
68 19 68 11 0 23 9 26 22 8 23 -16 47 -67 69 -24 10 -28 17 -28 50 0 35 -3 39
-25 39 -16 0 -25 -6 -25 -16z m81 -98 c28 -15 48 -33 46 -39 -6 -17 -16 -13
-91 34 l-66 41 -74 -42 c-79 -45 -89 -48 -94 -28 -1 7 35 35 83 62 82 47 86
48 110 32 25 -16 25 -16 27 11 1 23 2 21 5 -7 3 -31 11 -39 54 -64z m-55 -21
l55 -35 -3 -73 c-3 -70 -4 -72 -30 -75 -27 -3 -28 -2 -28 42 l0 46 -55 0 -55
0 0 -46 c0 -44 -1 -45 -27 -42 -27 3 -28 5 -31 74 l-3 72 58 36 c32 19 59 36
61 36 2 0 28 -16 58 -35z"/>
</g>
</svg>
