<svg width="16" height="16" viewBox="0 0 16 16" fill="none" xmlns="http://www.w3.org/2000/svg">
<path d="M8 10.2784C6.83524 10.2839 5.69292 9.97092 4.70667 9.37601C4.64949 9.34094 4.60013 9.29534 4.56143 9.24184C4.52273 9.18833 4.49546 9.128 4.48121 9.06432C4.46695 9.00064 4.46598 8.93488 4.47836 8.87083C4.49074 8.80679 4.51622 8.74574 4.55333 8.69121C4.5887 8.63602 4.63519 8.58817 4.69009 8.55047C4.74498 8.51277 4.80717 8.48598 4.873 8.47167C4.93883 8.45736 5.00698 8.45582 5.07343 8.46715C5.13989 8.47847 5.20332 8.50243 5.26 8.53761C6.08522 9.02106 7.03326 9.27682 8 9.27682C8.96674 9.27682 9.91478 9.02106 10.74 8.53761C10.7967 8.50243 10.8601 8.47847 10.9266 8.46715C10.993 8.45582 11.0612 8.45736 11.127 8.47167C11.1928 8.48598 11.255 8.51277 11.3099 8.55047C11.3648 8.58817 11.4113 8.63602 11.4467 8.69121C11.4838 8.74574 11.5093 8.80679 11.5216 8.87083C11.534 8.93488 11.5331 9.00064 11.5188 9.06432C11.5045 9.128 11.4773 9.18833 11.4386 9.24184C11.3999 9.29534 11.3505 9.34094 11.2933 9.37601C10.3071 9.97092 9.16476 10.2839 8 10.2784ZM9.33333 11.52L12.6667 12.8L14 13.44V13.6832C14.0008 13.7929 13.9722 13.9009 13.9171 13.9969C13.8619 14.0928 13.782 14.1736 13.6849 14.2315C13.5879 14.2893 13.477 14.3222 13.3629 14.3271C13.2488 14.3319 13.1353 14.3086 13.0333 14.2592L8.66667 12.8H3.92667C3.41568 12.8 2.92563 12.6051 2.56431 12.2583C2.20299 11.9114 2 11.441 2 10.9504V3.76961C2 3.27907 2.20299 2.80862 2.56431 2.46175C2.92563 2.11488 3.41568 1.92001 3.92667 1.92001H12.0733C13.14 1.92001 14 2.74561 14 3.12961V13.44L12.6667 12.8V3.98081C12.6667 3.87828 12.6456 3.77675 12.6048 3.68201C12.5639 3.58728 12.504 3.50121 12.4284 3.4287C12.3529 3.3562 12.2633 3.29869 12.1646 3.25945C12.0659 3.22021 11.9601 3.20001 11.8533 3.20001H4.14667C4.03986 3.20001 3.9341 3.22021 3.83542 3.25945C3.73674 3.29869 3.64708 3.3562 3.57155 3.4287C3.49603 3.50121 3.43612 3.58728 3.39524 3.68201C3.35437 3.77675 3.33333 3.87828 3.33333 3.98081V10.7392C3.33333 11.1706 3.69733 11.52 4.14667 11.52H9.33333Z" fill="#BBBBBC"/>
</svg>
