<svg width="24" height="24" viewBox="0 0 24 24" fill="none" xmlns="http://www.w3.org/2000/svg">
<path d="M21 6.9999H8C7.4 6.9999 7 6.5999 7 5.9999C7 5.3999 7.4 4.9999 8 4.9999H21C21.6 4.9999 22 5.3999 22 5.9999C22 6.5999 21.6 6.9999 21 6.9999Z" fill="black"/>
<path d="M21 12.9999H8C7.4 12.9999 7 12.5999 7 11.9999C7 11.3999 7.4 10.9999 8 10.9999H21C21.6 10.9999 22 11.3999 22 11.9999C22 12.5999 21.6 12.9999 21 12.9999Z" fill="black"/>
<path d="M21 18.9999H8C7.4 18.9999 7 18.5999 7 17.9999C7 17.3999 7.4 16.9999 8 16.9999H21C21.6 16.9999 22 17.3999 22 17.9999C22 18.5999 21.6 18.9999 21 18.9999Z" fill="black"/>
<path d="M3 6.9999C2.9 6.9999 2.9 6.9999 2.8 6.9999C2.7 6.9999 2.7 6.9999 2.6 6.8999C2.5 6.8999 2.5 6.7999 2.4 6.7999C2.3 6.7999 2.3 6.6999 2.3 6.6999C2.2 6.5999 2.1 6.4999 2.1 6.3999C2 6.2999 2 6.0999 2 5.9999C2 5.8999 2 5.6999 2.1 5.5999C2.2 5.4999 2.2 5.3999 2.3 5.2999C2.6 4.9999 3 4.8999 3.4 5.0999C3.5 5.1999 3.6 5.1999 3.7 5.2999C3.9 5.4999 4 5.6999 4 5.9999C4 6.2999 3.9 6.4999 3.7 6.6999C3.5 6.8999 3.3 6.9999 3 6.9999Z" fill="black"/>
<path d="M3 12.9999C2.7 12.9999 2.5 12.8999 2.3 12.6999C2.1 12.4999 2 12.2999 2 11.9999C2 11.8999 2 11.8999 2 11.7999C2 11.6999 2 11.6999 2.1 11.5999C2.1 11.4999 2.2 11.4999 2.2 11.3999C2.2 11.2999 2.3 11.2999 2.3 11.2999C2.4 11.1999 2.5 11.0999 2.6 11.0999C3 10.8999 3.4 10.9999 3.7 11.2999L3.8 11.3999C3.8 11.4999 3.9 11.4999 3.9 11.5999C3.9 11.6999 3.9 11.6999 4 11.7999C4 11.8999 4 11.8999 4 11.9999C4 12.2999 3.9 12.4999 3.7 12.6999C3.5 12.8999 3.3 12.9999 3 12.9999Z" fill="black"/>
<path d="M3 18.9999C2.7 18.9999 2.5 18.8999 2.3 18.6999C2.1 18.4999 2 18.2999 2 17.9999C2 17.8999 2 17.6999 2.1 17.5999C2.2 17.4999 2.2 17.3999 2.3 17.2999C2.7 16.8999 3.3 16.8999 3.7 17.2999C3.9 17.4999 4 17.6999 4 17.9999C4 18.2999 3.9 18.4999 3.7 18.6999C3.5 18.8999 3.3 18.9999 3 18.9999Z" fill="black"/>
</svg>
