<svg width="24" height="24" viewBox="0 0 24 24" fill="none" xmlns="http://www.w3.org/2000/svg">
<path d="M21 7.00015H8C7.4 7.00015 7 6.60015 7 6.00015C7 5.40015 7.4 5.00015 8 5.00015H21C21.6 5.00015 22 5.40015 22 6.00015C22 6.60015 21.6 7.00015 21 7.00015Z" fill="black"/>
<path d="M21 13.0001H8C7.4 13.0001 7 12.6001 7 12.0001C7 11.4001 7.4 11.0001 8 11.0001H21C21.6 11.0001 22 11.4001 22 12.0001C22 12.6001 21.6 13.0001 21 13.0001Z" fill="black"/>
<path d="M21 19.0001H8C7.4 19.0001 7 18.6001 7 18.0001C7 17.4001 7.4 17.0001 8 17.0001H21C21.6 17.0001 22 17.4001 22 18.0001C22 18.6001 21.6 19.0001 21 19.0001Z" fill="black"/>
<path d="M3 7.00015C2.9 7.00015 2.9 7.00015 2.8 7.00015C2.7 7.00015 2.7 7.00015 2.6 6.90015C2.5 6.90015 2.5 6.80015 2.4 6.80015C2.3 6.80015 2.3 6.70015 2.3 6.70015C2.2 6.60015 2.1 6.50015 2.1 6.40015C2 6.30015 2 6.10015 2 6.00015C2 5.90015 2 5.70015 2.1 5.60015C2.2 5.50015 2.2 5.40015 2.3 5.30015C2.6 5.00015 3 4.90015 3.4 5.10015C3.5 5.20015 3.6 5.20015 3.7 5.30015C3.9 5.50015 4 5.70015 4 6.00015C4 6.30015 3.9 6.50015 3.7 6.70015C3.5 6.90015 3.3 7.00015 3 7.00015Z" fill="black"/>
<path d="M3 13.0001C2.7 13.0001 2.5 12.9001 2.3 12.7001C2.1 12.5001 2 12.3001 2 12.0001C2 11.9001 2 11.9001 2 11.8001C2 11.7001 2 11.7001 2.1 11.6001C2.1 11.5001 2.2 11.5001 2.2 11.4001C2.2 11.3001 2.3 11.3001 2.3 11.3001C2.4 11.2001 2.5 11.1001 2.6 11.1001C3 10.9001 3.4 11.0001 3.7 11.3001L3.8 11.4001C3.8 11.5001 3.9 11.5001 3.9 11.6001C3.9 11.7001 3.9 11.7001 4 11.8001C4 11.9001 4 11.9001 4 12.0001C4 12.3001 3.9 12.5001 3.7 12.7001C3.5 12.9001 3.3 13.0001 3 13.0001Z" fill="black"/>
<path d="M3 19.0001C2.7 19.0001 2.5 18.9001 2.3 18.7001C2.1 18.5001 2 18.3001 2 18.0001C2 17.9001 2 17.7001 2.1 17.6001C2.2 17.5001 2.2 17.4001 2.3 17.3001C2.7 16.9001 3.3 16.9001 3.7 17.3001C3.9 17.5001 4 17.7001 4 18.0001C4 18.3001 3.9 18.5001 3.7 18.7001C3.5 18.9001 3.3 19.0001 3 19.0001Z" fill="black"/>
</svg>
