<svg width="16" height="16" viewBox="0 0 16 16" fill="none" xmlns="http://www.w3.org/2000/svg">
<path fill-rule="evenodd" clip-rule="evenodd" d="M3.33325 7.99996C2.96506 7.99996 2.66659 8.29844 2.66659 8.66663V13.3333C2.66659 13.7015 2.96506 14 3.33325 14H12.6666C13.0348 14 13.3333 13.7015 13.3333 13.3333V8.66663C13.3333 8.29844 13.0348 7.99996 12.6666 7.99996H3.33325ZM1.33325 8.66663C1.33325 7.56206 2.22868 6.66663 3.33325 6.66663H12.6666C13.7712 6.66663 14.6666 7.56206 14.6666 8.66663V13.3333C14.6666 14.4379 13.7712 15.3333 12.6666 15.3333H3.33325C2.22868 15.3333 1.33325 14.4379 1.33325 13.3333V8.66663Z" fill="#BBBBBC"/>
<path fill-rule="evenodd" clip-rule="evenodd" d="M8 1.99996C7.29276 1.99996 6.61448 2.28091 6.11438 2.78101C5.61428 3.28111 5.33333 3.95938 5.33333 4.66663V7.33329C5.33333 7.70148 5.03486 7.99996 4.66667 7.99996C4.29848 7.99996 4 7.70148 4 7.33329V4.66663C4 3.60576 4.42143 2.58834 5.17157 1.8382C5.92172 1.08805 6.93913 0.666626 8 0.666626C9.06087 0.666626 10.0783 1.08805 10.8284 1.8382C11.5786 2.58834 12 3.60576 12 4.66663V7.33329C12 7.70148 11.7015 7.99996 11.3333 7.99996C10.9651 7.99996 10.6667 7.70148 10.6667 7.33329V4.66663C10.6667 3.95938 10.3857 3.28111 9.88562 2.78101C9.38552 2.28091 8.70724 1.99996 8 1.99996Z" fill="#BBBBBC"/>
</svg>
