<svg width="196" height="18" viewBox="0 0 196 18" fill="none" xmlns="http://www.w3.org/2000/svg">
<path d="M13.632 14.88L23.088 0.576H26.76L15.072 18H12.096L0.36 0.576H4.152L13.632 14.88ZM29.9012 18V15.504H42.6932C43.5252 15.504 44.2692 15.488 44.9252 15.456C45.5972 15.408 46.1572 15.312 46.6052 15.168C47.0532 15.008 47.3972 14.776 47.6372 14.472C47.8772 14.168 47.9972 13.76 47.9972 13.248C47.9972 12.816 47.9092 12.472 47.7332 12.216C47.5572 11.944 47.3012 11.728 46.9652 11.568C46.6292 11.408 46.2132 11.288 45.7172 11.208C45.2212 11.112 44.6532 11.032 44.0132 10.968L35.5412 10.104C34.5332 10.008 33.6212 9.856 32.8052 9.648C32.0052 9.424 31.3172 9.128 30.7412 8.76C30.1652 8.376 29.7252 7.904 29.4212 7.344C29.1172 6.784 28.9652 6.104 28.9652 5.304C28.9652 4.424 29.1492 3.68 29.5172 3.072C29.9012 2.464 30.4372 1.976 31.1252 1.608C31.8132 1.24 32.6372 0.975999 33.5972 0.816C34.5572 0.656 35.6212 0.576 36.7892 0.576H50.2292V3.072H37.0532C36.1412 3.072 35.3812 3.104 34.7732 3.168C34.1652 3.232 33.6772 3.352 33.3092 3.528C32.9412 3.688 32.6772 3.912 32.5172 4.2C32.3572 4.472 32.2772 4.816 32.2772 5.232C32.2772 5.664 32.3732 6.016 32.5652 6.288C32.7572 6.544 33.0292 6.752 33.3812 6.912C33.7332 7.072 34.1492 7.192 34.6292 7.272C35.1252 7.352 35.6692 7.424 36.2612 7.488L44.8052 8.352C45.8772 8.464 46.8212 8.632 47.6372 8.856C48.4532 9.064 49.1332 9.36 49.6772 9.744C50.2212 10.112 50.6292 10.576 50.9012 11.136C51.1732 11.696 51.3092 12.376 51.3092 13.176C51.3092 14.952 50.6292 16.2 49.2692 16.92C47.9092 17.64 45.8292 18 43.0292 18H29.9012ZM56.5239 0.576H59.8599V18H56.5239V0.576ZM66.0418 18V15.504H78.8338C79.6658 15.504 80.4098 15.488 81.0658 15.456C81.7378 15.408 82.2978 15.312 82.7458 15.168C83.1938 15.008 83.5378 14.776 83.7778 14.472C84.0178 14.168 84.1378 13.76 84.1378 13.248C84.1378 12.816 84.0498 12.472 83.8738 12.216C83.6978 11.944 83.4418 11.728 83.1058 11.568C82.7698 11.408 82.3538 11.288 81.8578 11.208C81.3618 11.112 80.7938 11.032 80.1538 10.968L71.6818 10.104C70.6738 10.008 69.7618 9.856 68.9458 9.648C68.1458 9.424 67.4578 9.128 66.8818 8.76C66.3058 8.376 65.8658 7.904 65.5618 7.344C65.2578 6.784 65.1058 6.104 65.1058 5.304C65.1058 4.424 65.2898 3.68 65.6578 3.072C66.0418 2.464 66.5778 1.976 67.2658 1.608C67.9538 1.24 68.7778 0.975999 69.7378 0.816C70.6978 0.656 71.7618 0.576 72.9298 0.576H86.3698V3.072H73.1938C72.2818 3.072 71.5218 3.104 70.9138 3.168C70.3058 3.232 69.8178 3.352 69.4498 3.528C69.0818 3.688 68.8178 3.912 68.6578 4.2C68.4978 4.472 68.4178 4.816 68.4178 5.232C68.4178 5.664 68.5138 6.016 68.7058 6.288C68.8978 6.544 69.1698 6.752 69.5218 6.912C69.8738 7.072 70.2898 7.192 70.7698 7.272C71.2658 7.352 71.8098 7.424 72.4018 7.488L80.9458 8.352C82.0178 8.464 82.9618 8.632 83.7778 8.856C84.5938 9.064 85.2738 9.36 85.8178 9.744C86.3618 10.112 86.7698 10.576 87.0418 11.136C87.3138 11.696 87.4498 12.376 87.4498 13.176C87.4498 14.952 86.7698 16.2 85.4098 16.92C84.0498 17.64 81.9698 18 79.1698 18H66.0418ZM102.768 18H99.4316V3.096H90.0716V0.576H112.128V3.096H102.768V18ZM136.658 18H116.546V0.576H136.562V3.096H119.882V7.872H131.234V10.344H119.882V15.48H136.658V18ZM169.732 18H166.468V5.496L157.156 17.232H154.252L144.628 5.544V18H141.46V0.576H144.268L155.764 14.568L166.852 0.576H169.732V18ZM195.838 18H175.726V0.576H195.742V3.096H179.062V7.872H190.414V10.344H179.062V15.48H195.838V18Z" fill="white"/>
</svg>
