<?xml version="1.0" standalone="no"?>
<!DOCTYPE svg PUBLIC "-//W3C//DTD SVG 20010904//EN"
 "http://www.w3.org/TR/2001/REC-SVG-20010904/DTD/svg10.dtd">
<svg version="1.0" xmlns="http://www.w3.org/2000/svg"
 width="4105.000000pt" height="3779.000000pt" viewBox="0 0 4105.000000 3779.000000"
 preserveAspectRatio="xMidYMid meet">

<g transform="translate(0.000000,3779.000000) scale(0.100000,-0.100000)"
fill="#000000" stroke="none">
<path d="M18770 34900 l0 -130 129 0 c91 0 131 -4 138 -12 5 -7 114 -234 242
-503 l232 -491 -88 -149 c-93 -160 -122 -227 -123 -288 -1 -103 55 -198 141
-241 l53 -26 823 0 823 0 0 125 0 125 -764 0 c-691 0 -766 2 -781 16 -9 9 -15
20 -13 23 2 4 29 58 62 119 l58 112 502 0 c566 0 577 1 646 68 26 25 115 177
280 477 134 242 249 447 256 456 18 21 18 83 -1 119 -33 63 23 60 -1068 60
l-993 0 -60 133 -60 132 -217 3 -217 2 0 -130z"/>
<path d="M19490 32911 c-71 -23 -131 -74 -166 -141 -27 -52 -26 -172 3 -226
26 -50 74 -97 122 -121 51 -25 172 -25 225 1 155 77 194 280 78 408 -20 22
-54 49 -76 60 -44 22 -145 33 -186 19z"/>
<path d="M20804 32909 c-18 -5 -53 -24 -80 -41 -137 -93 -141 -312 -6 -415
107 -82 264 -67 351 32 47 54 64 100 64 175 1 173 -163 297 -329 249z"/>
<path d="M20240 31895 c0 -7 -438 -1641 -451 -1680 -5 -16 -93 -345 -195 -730
-103 -385 -190 -710 -195 -721 -6 -16 -19 -23 -56 -28 -97 -15 -398 -78 -528
-111 -708 -183 -1398 -512 -1978 -942 l-107 -80 -363 123 c-199 67 -533 180
-743 251 -315 107 -383 127 -393 116 -10 -11 -4 -39 34 -146 26 -73 100 -283
165 -467 65 -184 159 -452 209 -594 51 -143 90 -265 87 -272 -2 -7 -46 -68
-97 -136 -537 -720 -902 -1570 -1054 -2458 -9 -52 -18 -97 -21 -99 -2 -2 -713
-205 -1580 -450 -1289 -365 -1578 -449 -1580 -463 -3 -22 -87 3 851 -248 413
-110 773 -207 800 -215 28 -8 372 -100 765 -205 393 -105 723 -193 732 -196
10 -3 20 -15 23 -27 2 -12 16 -85 30 -162 157 -841 519 -1661 1043 -2365 l99
-132 -128 -376 c-70 -207 -183 -542 -252 -744 -106 -313 -122 -370 -110 -380
12 -9 39 -3 131 29 379 133 728 256 1026 362 l339 120 106 -78 c707 -520 1556
-883 2409 -1030 62 -10 114 -21 116 -22 1 -2 205 -719 452 -1594 401 -1419
451 -1590 469 -1590 17 0 43 86 237 810 119 446 221 826 227 845 8 27 359
1340 401 1500 l10 36 107 18 c848 145 1715 520 2428 1053 l121 90 722 -245
c635 -215 725 -243 738 -231 13 13 -10 83 -182 570 -108 304 -221 626 -252
714 l-56 160 86 115 c524 705 877 1503 1042 2358 14 72 26 140 26 150 0 9 4
23 8 30 5 6 336 100 738 207 401 107 754 202 784 210 30 9 413 112 850 229
686 184 795 215 798 232 2 17 -153 63 -1535 453 -846 239 -1559 441 -1585 448
l-46 14 -12 72 c-145 888 -511 1745 -1061 2488 l-108 145 250 739 c214 631
248 740 237 752 -12 12 -121 -24 -751 -246 l-738 -261 -112 84 c-571 422
-1259 749 -1962 931 -140 36 -471 105 -504 105 -11 0 -22 4 -26 9 -5 9 -895
3146 -895 3157 0 2 -9 4 -20 4 -11 0 -20 -2 -20 -5z m470 -1653 c233 -821 421
-1494 419 -1496 -2 -2 -47 3 -99 10 -127 18 -409 41 -597 50 l-153 6 0 1466
c0 806 2 1463 4 1461 2 -2 194 -676 426 -1497z m-175 -1727 c181 -5 306 -16
515 -46 1429 -202 2723 -969 3600 -2134 441 -587 755 -1245 930 -1949 116
-468 162 -852 162 -1346 0 -487 -45 -872 -158 -1328 -326 -1328 -1155 -2496
-2309 -3257 -776 -512 -1678 -816 -2620 -885 -180 -13 -610 -13 -790 0 -1592
116 -3029 898 -3991 2172 -444 589 -763 1259 -938 1970 -113 456 -158 841
-158 1328 0 494 46 878 162 1346 278 1120 912 2125 1814 2877 841 701 1861
1125 2971 1238 126 12 488 26 585 22 36 -1 137 -5 225 -8z m-4538 -701 c367
-124 674 -229 681 -233 8 -5 -35 -47 -126 -123 -76 -64 -184 -160 -240 -213
l-103 -98 -392 388 c-216 214 -419 415 -452 447 -33 32 -55 58 -48 58 6 0 312
-102 680 -226z m9012 -405 c-116 -343 -221 -653 -233 -687 l-22 -64 -104 124
c-58 67 -156 176 -219 241 l-115 118 449 449 c247 247 451 448 452 446 2 -2
-92 -284 -208 -627z m-10459 -3536 c0 -5 -9 -82 -20 -173 -11 -91 -25 -281
-32 -422 l-12 -258 -1470 0 c-808 0 -1466 3 -1462 8 6 5 2961 848 2989 851 4
1 7 -2 7 -6z m12930 -419 c811 -229 1479 -420 1484 -425 6 -5 -612 -9 -1460
-9 l-1470 0 -12 258 c-7 141 -21 331 -32 422 -11 91 -20 169 -20 173 0 5 8 6
18 3 9 -3 681 -193 1492 -422z m-11603 -4161 c60 -71 158 -179 218 -241 l109
-113 -450 -450 c-247 -247 -450 -445 -452 -441 -1 5 88 276 199 603 271 800
260 769 264 769 2 0 52 -57 112 -127z m8903 -778 c239 -239 430 -435 424 -435
-10 0 -1335 448 -1340 453 -2 1 27 27 64 57 86 71 317 277 361 324 19 20 40
36 46 36 5 0 206 -196 445 -435z m-3650 -1189 c0 -8 -4 -18 -10 -21 -5 -3 -10
3 -10 14 0 12 5 21 10 21 6 0 10 -6 10 -14z m-1465 -21 c77 -8 210 -17 295
-20 85 -3 192 -8 238 -11 l82 -6 -1 -1486 c0 -920 -4 -1479 -10 -1467 -5 11
-196 682 -424 1490 -229 809 -420 1483 -425 1499 l-10 29 58 -6 c31 -4 120
-13 197 -22z"/>
<path d="M20060 28289 c-723 -25 -1421 -200 -2086 -523 -564 -275 -985 -576
-1429 -1021 -223 -223 -366 -388 -533 -618 -913 -1253 -1224 -2841 -852 -4343
170 -688 473 -1324 905 -1899 291 -388 643 -740 1040 -1040 797 -604 1777
-971 2790 -1045 180 -13 550 -13 730 0 902 66 1765 358 2520 854 296 194 561
411 826 676 272 272 484 533 691 850 1189 1822 1128 4187 -154 5947 -167 230
-310 395 -533 618 -444 445 -865 746 -1429 1021 -785 382 -1594 552 -2486 523z
m190 -355 c0 -232 3 -295 13 -292 9 4 13 73 15 293 l2 288 198 -6 c108 -3 252
-11 320 -18 103 -10 122 -15 122 -29 0 -10 -9 -84 -20 -165 -23 -173 -24 -188
-8 -183 8 3 21 68 35 178 12 95 24 175 27 177 11 11 616 -105 634 -122 1 -1
-18 -79 -44 -174 -42 -158 -48 -201 -25 -175 4 5 27 82 51 172 38 145 45 162
64 162 46 0 565 -175 589 -199 6 -6 -15 -69 -58 -171 -38 -94 -63 -166 -58
-171 5 -5 38 61 78 157 67 163 68 166 95 160 65 -12 560 -259 560 -278 0 -5
-40 -78 -90 -163 -50 -86 -84 -155 -76 -155 7 0 51 66 97 147 47 82 92 149
100 151 29 5 529 -330 529 -356 0 -7 -45 -71 -100 -143 -107 -138 -110 -142
-97 -147 5 -2 55 57 111 130 56 73 109 134 117 136 28 5 479 -392 479 -422 0
-6 -131 -142 -291 -302 -160 -160 -287 -294 -282 -297 5 -3 139 124 299 284
159 159 294 289 300 289 31 0 427 -450 422 -479 -2 -8 -63 -61 -136 -117 -73
-56 -132 -106 -130 -111 5 -13 9 -10 147 97 72 55 136 100 143 100 30 0 366
-505 355 -533 -3 -7 -71 -51 -151 -97 -80 -46 -146 -89 -146 -96 0 -8 67 26
155 76 85 50 159 90 163 90 20 0 282 -528 282 -570 0 -13 -41 -34 -165 -85
-97 -41 -162 -72 -156 -78 5 -5 75 19 170 59 100 41 166 63 171 58 27 -27 200
-539 200 -590 0 -19 -18 -25 -162 -64 -90 -23 -167 -46 -172 -51 -25 -23 16
-17 174 26 95 25 174 44 176 42 16 -16 133 -621 122 -632 -2 -2 -80 -14 -174
-26 -160 -21 -197 -30 -181 -45 4 -4 78 3 165 15 87 11 168 21 179 21 18 0 21
-10 32 -117 6 -65 13 -167 16 -228 3 -60 8 -152 10 -202 l5 -93 -396 -2 c-307
-2 -398 -6 -402 -15 -3 -10 81 -13 397 -13 l401 0 -5 -100 c-3 -55 -7 -146
-10 -202 -3 -57 -10 -158 -17 -225 -9 -101 -14 -123 -27 -123 -9 0 -91 11
-183 23 -133 18 -168 20 -168 10 0 -7 1 -13 3 -14 1 0 80 -11 175 -24 95 -13
176 -25 179 -28 9 -10 -43 -307 -89 -499 -26 -111 -32 -128 -50 -128 -11 0
-89 19 -174 42 -137 36 -182 42 -161 22 5 -6 200 -60 310 -88 19 -4 27 -13 27
-29 0 -37 -106 -362 -185 -569 -11 -28 -40 -22 -198 43 -88 37 -152 58 -157
53 -5 -5 57 -36 153 -76 l162 -67 -2 -32 c-2 -45 -253 -543 -276 -547 -15 -3
-109 47 -279 148 -28 16 -38 18 -38 8 0 -7 68 -51 150 -98 82 -47 149 -91 150
-98 0 -20 -162 -276 -260 -409 -65 -89 -91 -117 -105 -115 -10 2 -77 49 -148
104 -71 55 -133 96 -137 91 -5 -4 54 -55 130 -113 77 -58 139 -112 139 -120 1
-31 -395 -480 -422 -480 -7 0 -143 131 -303 291 -160 160 -294 287 -297 282
-3 -5 124 -139 284 -299 159 -159 289 -294 289 -301 0 -25 -448 -422 -477
-423 -7 0 -60 63 -119 140 -59 77 -111 137 -116 134 -5 -3 -5 -11 0 -17 5 -7
53 -70 106 -140 55 -72 96 -134 93 -141 -13 -34 -507 -362 -530 -353 -7 3 -48
67 -91 143 -89 157 -95 166 -106 159 -5 -3 30 -71 76 -152 47 -81 84 -155 82
-166 -2 -14 -44 -42 -153 -98 -166 -87 -387 -189 -408 -189 -9 0 -40 62 -82
165 -37 91 -71 165 -76 165 -16 0 -10 -17 57 -180 39 -93 63 -165 58 -169 -25
-24 -551 -201 -596 -201 -11 0 -24 33 -47 123 -55 208 -62 230 -73 219 -6 -6
5 -62 31 -161 23 -84 41 -162 41 -175 0 -21 -11 -25 -137 -55 -140 -33 -483
-94 -490 -88 -2 2 -13 80 -25 173 -20 160 -29 196 -44 181 -4 -4 3 -84 16
-178 16 -129 19 -173 10 -179 -19 -12 -250 -31 -447 -37 l-183 -6 0 422 c0
368 -2 421 -15 421 -13 0 -15 -54 -15 -422 l0 -421 -207 7 c-213 8 -426 26
-438 38 -4 4 3 83 16 177 12 95 19 174 15 178 -15 15 -24 -21 -44 -181 -12
-93 -23 -171 -25 -173 -7 -6 -350 55 -489 88 -127 30 -138 34 -138 55 0 13 18
91 41 175 26 99 37 155 31 161 -11 11 -18 -11 -73 -219 -23 -90 -36 -123 -47
-123 -45 0 -571 177 -596 201 -5 4 19 76 58 169 67 163 73 180 57 180 -5 0
-39 -74 -76 -165 -42 -103 -73 -165 -82 -165 -21 0 -242 102 -408 189 -112 58
-151 83 -153 99 -2 12 32 81 82 166 46 80 81 148 76 151 -11 7 -16 -2 -106
-159 -43 -76 -84 -140 -91 -143 -23 -9 -517 319 -530 353 -4 11 68 113 199
281 5 7 5 14 0 17 -5 3 -58 -57 -116 -134 -59 -77 -112 -140 -119 -140 -29 1
-477 398 -477 423 0 7 131 143 291 303 160 160 287 294 282 297 -5 3 -139
-124 -299 -284 -159 -159 -294 -289 -301 -289 -27 0 -422 449 -422 480 0 8 62
62 139 120 76 58 135 109 130 113 -4 5 -66 -36 -137 -91 -72 -55 -139 -102
-149 -104 -13 -2 -41 28 -104 115 -98 133 -260 389 -260 409 1 7 68 51 150 98
82 47 150 91 150 98 0 10 -10 8 -37 -8 -171 -101 -265 -151 -280 -148 -23 4
-274 502 -276 547 l-2 32 162 67 c96 40 158 71 153 76 -5 5 -69 -16 -157 -53
-158 -65 -187 -71 -198 -43 -79 207 -185 532 -185 569 0 16 8 25 28 29 109 28
304 82 309 88 21 20 -24 14 -161 -22 -85 -23 -163 -42 -174 -42 -18 0 -24 17
-50 128 -46 192 -98 489 -89 499 3 3 84 15 179 28 95 13 174 24 176 24 1 1 2
7 2 14 0 10 -35 8 -167 -10 -93 -12 -175 -23 -184 -23 -13 0 -18 22 -27 123
-7 67 -14 168 -17 225 -3 56 -7 147 -10 202 l-5 100 401 0 c316 0 400 3 397
13 -4 9 -95 13 -402 15 l-396 2 5 93 c2 50 7 142 10 202 3 61 10 163 16 228
11 107 14 117 32 117 11 0 92 -10 179 -21 87 -12 161 -19 165 -15 16 15 -21
24 -181 45 -94 12 -172 24 -174 26 -11 11 106 616 122 632 2 2 81 -17 176 -42
158 -43 199 -49 174 -26 -5 5 -82 28 -171 51 -145 39 -163 45 -163 64 0 51
173 563 200 590 5 5 71 -17 171 -58 95 -40 165 -64 170 -59 6 6 -59 37 -156
78 -124 51 -165 72 -165 85 0 42 262 570 282 570 4 0 78 -40 163 -90 88 -50
155 -84 155 -76 0 7 -66 50 -146 96 -80 46 -148 90 -151 97 -11 28 325 533
355 533 7 0 71 -45 143 -100 138 -107 142 -110 147 -97 2 5 -57 55 -130 111
-73 56 -134 109 -136 117 -5 28 391 479 422 479 6 0 142 -131 302 -291 160
-160 294 -287 297 -282 3 5 -124 139 -284 299 -159 159 -289 294 -289 300 0
30 451 427 479 422 8 -2 61 -63 117 -136 56 -73 106 -132 111 -130 13 5 10 9
-97 147 -55 72 -100 136 -100 143 0 26 500 361 529 356 8 -2 53 -69 100 -151
46 -81 90 -147 97 -147 8 0 -26 69 -76 155 -50 85 -90 158 -90 163 0 19 495
266 560 278 27 6 28 3 95 -160 40 -96 73 -162 78 -157 5 5 -20 77 -58 171 -43
102 -64 165 -58 171 24 24 543 199 589 199 19 0 26 -17 64 -162 24 -90 47
-167 51 -172 23 -26 17 17 -25 175 -26 95 -45 173 -44 174 18 17 623 133 634
122 3 -2 15 -82 27 -177 14 -110 27 -175 35 -178 16 -5 15 10 -8 184 -11 82
-20 156 -20 165 0 13 23 18 133 29 72 7 213 16 312 20 99 4 186 7 193 8 9 2
12 -63 12 -294z"/>
<path d="M21341 24550 l-1484 -1289 -777 -1464 c-427 -805 -800 -1508 -829
-1562 -30 -56 -45 -93 -35 -85 10 8 628 549 1374 1201 l1355 1186 930 1619
c511 891 938 1634 948 1652 10 17 15 32 10 31 -4 0 -676 -581 -1492 -1289z
m-797 -1175 c317 -67 442 -468 222 -712 -158 -174 -437 -187 -613 -29 -174
158 -187 437 -29 613 57 63 138 110 217 128 84 18 119 18 203 0z"/>
<path d="M31190 24465 c-147 -33 -268 -99 -382 -207 -46 -43 -58 -60 -58 -84
0 -50 22 -61 142 -67 238 -13 392 -87 451 -217 28 -62 35 -189 13 -263 -9 -31
-36 -85 -60 -120 l-43 -65 203 -203 202 -202 69 43 c84 54 209 110 246 110 26
0 27 -1 27 -57 l0 -57 173 -173 c137 -137 178 -173 199 -173 31 0 31 0 302
310 161 184 196 230 196 254 0 25 -22 52 -138 168 l-138 138 -47 0 -47 0 0 48
0 47 -307 306 c-361 359 -416 400 -608 456 -74 21 -314 26 -395 8z"/>
<path d="M10026 24265 c-132 -34 -152 -50 -585 -479 -222 -221 -423 -427 -447
-459 -63 -84 -86 -153 -92 -274 -5 -117 15 -203 67 -285 37 -58 109 -138 125
-138 13 0 213 197 205 203 -2 2 -18 13 -36 25 -38 27 -83 113 -83 161 0 95 -4
90 428 524 224 225 424 417 444 428 46 24 136 25 181 3 117 -59 164 -188 109
-299 -8 -16 -89 -105 -180 -197 l-166 -168 22 -62 c26 -74 46 -196 40 -245 -4
-31 14 -15 249 219 186 186 260 267 282 309 178 332 -45 727 -419 745 -55 2
-106 -2 -144 -11z"/>
<path d="M9602 23327 l-102 -103 28 -16 c49 -29 85 -92 90 -158 8 -109 15 -99
-412 -528 -255 -256 -405 -399 -432 -412 -51 -25 -126 -25 -179 -1 -75 34
-135 122 -135 200 0 72 21 103 188 272 l164 167 -16 30 c-26 50 -46 152 -46
237 l0 80 -244 -245 c-210 -212 -247 -254 -274 -310 -40 -85 -51 -137 -52
-236 -1 -392 423 -627 769 -428 53 31 790 760 856 847 147 193 132 467 -34
650 -29 31 -56 57 -60 57 -3 0 -52 -46 -109 -103z"/>
<path d="M30538 22733 c-417 -419 -624 -633 -640 -663 -20 -38 -23 -60 -23
-145 0 -85 3 -106 23 -143 55 -103 148 -167 260 -178 73 -8 152 13 215 58 43
31 1177 1270 1177 1286 0 4 -89 96 -198 205 l-197 197 -617 -617z"/>
<path d="M19698 13440 c-79 -6 -95 -13 -98 -40 -6 -45 1 -52 117 -106 148 -70
193 -106 234 -189 28 -58 33 -80 46 -227 18 -208 14 -259 -28 -338 -37 -70
-62 -92 -241 -213 -137 -93 -178 -109 -273 -108 -72 0 -78 2 -258 88 -135 64
-138 65 -163 48 -23 -15 -25 -22 -21 -52 9 -54 98 -229 155 -303 168 -222 347
-299 732 -315 311 -14 357 -36 864 -416 313 -234 380 -280 403 -277 26 3 40
26 195 333 92 182 167 342 168 356 0 23 -43 59 -350 289 -354 266 -398 303
-443 381 -48 84 -59 140 -67 364 -6 178 -10 219 -29 270 -52 144 -163 280
-289 354 -162 96 -358 126 -654 101z"/>
<path d="M19375 13281 c-42 -11 -58 -20 -201 -117 -188 -129 -196 -147 -175
-411 13 -161 28 -209 77 -255 16 -14 97 -58 180 -97 132 -62 157 -71 208 -71
68 0 83 7 243 117 194 133 200 147 179 401 -21 249 -23 252 -261 365 -142 67
-196 82 -250 68z m162 -282 c152 -74 162 -290 17 -375 -113 -66 -246 -27 -305
89 -24 47 -27 129 -6 178 46 109 186 160 294 108z"/>
<path d="M7505 9499 c-672 -36 -1125 -252 -1297 -617 -22 -46 -51 -127 -65
-180 -24 -88 -26 -115 -27 -297 -1 -227 12 -307 69 -431 105 -229 289 -388
559 -483 273 -96 494 -127 1081 -151 390 -16 539 -44 624 -116 70 -61 90 -184
45 -280 -33 -70 -129 -119 -309 -157 -91 -19 -132 -21 -465 -22 -225 0 -415 5
-495 13 -319 31 -672 84 -962 142 -80 17 -152 30 -160 30 -11 0 -13 -74 -13
-414 l0 -414 113 -21 c547 -101 899 -134 1447 -135 568 0 803 32 1116 155 265
104 475 291 563 504 63 150 76 228 75 455 0 179 -3 215 -22 285 -108 394 -437
632 -1006 725 -137 23 -315 36 -681 50 -527 21 -669 71 -690 245 -21 163 83
245 375 297 100 17 739 18 900 0 261 -29 781 -117 928 -158 l22 -6 0 410 0
411 -38 10 c-462 125 -1106 182 -1687 150z"/>
<path d="M15230 9499 c-432 -11 -847 -38 -1262 -80 l-118 -12 0 -1673 0 -1674
450 0 450 0 0 550 c0 433 3 550 13 550 6 0 62 -7 122 -15 95 -14 557 -33 800
-35 l80 0 335 -525 335 -525 432 0 433 0 0 96 0 97 -307 485 c-170 267 -309
491 -311 497 -1 6 28 25 65 44 262 128 417 352 480 691 25 135 25 545 0 680
-21 113 -67 254 -104 318 -120 209 -304 346 -592 442 -273 92 -540 110 -1301
89z m840 -812 c110 -26 176 -55 219 -98 54 -55 65 -106 59 -292 -4 -130 -7
-150 -29 -193 -33 -64 -92 -108 -187 -138 -144 -45 -217 -51 -657 -51 -371 1
-511 7 -682 31 l-43 6 0 358 0 357 53 6 c47 6 281 22 432 31 33 2 220 2 415 1
278 -2 369 -6 420 -18z"/>
<path d="M19467 9499 c-698 -40 -1181 -288 -1434 -739 -48 -84 -88 -193 -122
-330 -54 -218 -65 -337 -65 -695 0 -358 11 -477 65 -695 63 -255 150 -418 313
-589 229 -239 563 -393 986 -456 58 -8 212 -20 343 -27 264 -13 625 -1 817 27
423 63 757 217 986 456 163 171 250 334 313 589 54 218 65 337 65 695 0 358
-11 477 -65 695 -63 255 -150 418 -313 589 -229 239 -566 395 -986 455 -222
32 -596 43 -903 25z m733 -824 c262 -48 446 -155 540 -314 79 -134 100 -269
100 -631 0 -362 -21 -497 -100 -631 -94 -160 -277 -266 -545 -315 -146 -27
-664 -27 -810 0 -268 49 -451 155 -545 315 -79 134 -100 269 -100 631 0 362
21 497 100 631 95 161 287 272 545 313 152 24 151 24 445 21 209 -2 298 -7
370 -20z"/>
<path d="M27485 9504 c-400 -30 -659 -90 -914 -210 -490 -232 -738 -615 -790
-1219 -14 -154 -14 -526 0 -680 52 -604 300 -987 790 -1219 315 -149 609 -204
1144 -213 539 -10 1036 32 1530 128 83 16 151 29 153 29 1 0 2 365 2 810 l0
810 -450 0 -450 0 0 -479 0 -479 -47 -6 c-97 -12 -393 -26 -569 -26 -510 0
-826 73 -1000 233 -122 111 -167 222 -185 457 -14 189 -6 619 15 733 59 320
327 484 860 527 339 27 830 -1 1256 -71 155 -25 383 -73 453 -95 16 -5 17 19
17 403 l0 409 -152 32 c-247 52 -489 88 -753 112 -117 11 -810 21 -910 14z"/>
<path d="M32706 9500 c-104 -5 -280 -16 -390 -25 -200 -16 -593 -62 -608 -71
-4 -3 -8 -756 -8 -1674 l0 -1668 38 -6 c86 -14 390 -46 567 -60 500 -40 1250
-46 1520 -12 280 35 498 95 704 192 490 232 738 615 790 1219 14 154 14 526 0
680 -52 604 -300 987 -790 1219 -206 97 -421 156 -704 192 -144 19 -829 27
-1119 14z m820 -800 c533 -43 801 -207 860 -527 21 -114 29 -544 15 -733 -18
-235 -63 -346 -185 -457 -138 -126 -359 -196 -706 -224 -144 -12 -727 -6 -852
7 l-58 7 0 958 0 959 23 1 c12 1 83 5 157 8 215 12 606 12 746 1z"/>
<path d="M9820 9010 l0 -400 650 0 650 0 0 -1275 0 -1275 450 0 450 0 0 1275
0 1275 650 0 650 0 0 400 0 400 -1750 0 -1750 0 0 -400z"/>
<path d="M22000 9314 l0 -97 655 -952 655 -953 0 -626 0 -626 450 0 450 0 0
626 0 626 655 953 655 952 0 97 0 96 -438 0 -437 0 -440 -695 c-242 -382 -442
-695 -445 -695 -3 0 -201 312 -441 693 l-436 692 -441 3 -442 2 0 -96z"/>
<path d="M30100 7735 l0 -1675 450 0 450 0 0 1675 0 1675 -450 0 -450 0 0
-1675z"/>
</g>
</svg>
