<svg width="16" height="16" viewBox="0 0 16 16" fill="none" xmlns="http://www.w3.org/2000/svg">
<path fill-rule="evenodd" clip-rule="evenodd" d="M8.00004 1.33333C6.58555 1.33333 5.229 1.89524 4.2288 2.89543C3.22861 3.89562 2.66671 5.25218 2.66671 6.66667C2.66671 8.73204 4.01053 10.7362 5.48401 12.2915C6.20712 13.0548 6.93249 13.6796 7.47783 14.1139C7.68078 14.2755 7.85806 14.4101 8.00004 14.5151C8.14202 14.4101 8.3193 14.2755 8.52226 14.1139C9.0676 13.6796 9.79297 13.0548 10.5161 12.2915C11.9895 10.7362 13.3334 8.73204 13.3334 6.66667C13.3334 5.25218 12.7715 3.89562 11.7713 2.89543C10.7711 1.89524 9.41453 1.33333 8.00004 1.33333ZM8.00004 15.3333C7.63024 15.888 7.63007 15.8879 7.62988 15.8878L7.62797 15.8865L7.62353 15.8835L7.60825 15.8732C7.59527 15.8644 7.57676 15.8517 7.55308 15.8353C7.50573 15.8025 7.43768 15.7547 7.3519 15.6928C7.1804 15.5689 6.93761 15.3881 6.64726 15.1569C6.0676 14.6954 5.29297 14.0286 4.51607 13.2085C2.98955 11.5972 1.33337 9.26796 1.33337 6.66667C1.33337 4.89856 2.03575 3.20286 3.286 1.95262C4.53624 0.702379 6.23193 0 8.00004 0C9.76815 0 11.4638 0.702379 12.7141 1.95262C13.9643 3.20286 14.6667 4.89856 14.6667 6.66667C14.6667 9.26796 13.0105 11.5972 11.484 13.2085C10.7071 14.0286 9.93249 14.6954 9.35283 15.1569C9.06247 15.3881 8.81968 15.5689 8.64818 15.6928C8.5624 15.7547 8.49435 15.8025 8.447 15.8353C8.42332 15.8517 8.40481 15.8644 8.39183 15.8732L8.37655 15.8835L8.37211 15.8865L8.3707 15.8875C8.37051 15.8876 8.36984 15.888 8.00004 15.3333ZM8.00004 15.3333L8.36984 15.888C8.14591 16.0373 7.85381 16.0371 7.62988 15.8878L8.00004 15.3333Z" fill="#BBBBBC"/>
<path fill-rule="evenodd" clip-rule="evenodd" d="M8.00004 5.33333C7.26366 5.33333 6.66671 5.93029 6.66671 6.66667C6.66671 7.40305 7.26366 8 8.00004 8C8.73642 8 9.33337 7.40305 9.33337 6.66667C9.33337 5.93029 8.73642 5.33333 8.00004 5.33333ZM5.33337 6.66667C5.33337 5.19391 6.52728 4 8.00004 4C9.4728 4 10.6667 5.19391 10.6667 6.66667C10.6667 8.13943 9.4728 9.33333 8.00004 9.33333C6.52728 9.33333 5.33337 8.13943 5.33337 6.66667Z" fill="#BBBBBC"/>
</svg>
