<svg width="32" height="32" viewBox="0 0 32 32" fill="none" xmlns="http://www.w3.org/2000/svg">
<path fill-rule="evenodd" clip-rule="evenodd" d="M10.0051 1.50893C10.3922 1.28775 10.8642 1.27465 11.263 1.47402L21.2914 6.48823L30.0051 1.50893C30.4178 1.27312 30.9248 1.27481 31.3359 1.51337C31.747 1.75194 32 2.19129 32 2.66659V23.9999C32 24.4784 31.7436 24.9202 31.3282 25.1576L21.9949 30.4909C21.6078 30.7121 21.1358 30.7252 20.737 30.5258L10.7086 25.5116L1.99485 30.4909C1.58218 30.7267 1.07518 30.725 0.664098 30.4865C0.253011 30.2479 0 29.8085 0 29.3333V7.99992C0 7.52144 0.256381 7.07965 0.671815 6.84226L10.0051 1.50893ZM10.7086 4.17828L2.66667 8.77368V27.0357L10.0051 22.8423C10.3922 22.6211 10.8642 22.608 11.263 22.8074L21.2914 27.8216L29.3333 23.2262V4.96416L21.9949 9.15758C21.6078 9.37876 21.1358 9.39186 20.737 9.19249L10.7086 4.17828Z" fill="black"/>
<path fill-rule="evenodd" clip-rule="evenodd" d="M10.6666 1.33325C11.403 1.33325 11.9999 1.93021 11.9999 2.66659V23.9999C11.9999 24.7363 11.403 25.3333 10.6666 25.3333C9.93021 25.3333 9.33325 24.7363 9.33325 23.9999V2.66659C9.33325 1.93021 9.93021 1.33325 10.6666 1.33325Z" fill="black"/>
<path fill-rule="evenodd" clip-rule="evenodd" d="M21.3333 6.66675C22.0697 6.66675 22.6667 7.2637 22.6667 8.00008V29.3334C22.6667 30.0698 22.0697 30.6667 21.3333 30.6667C20.597 30.6667 20 30.0698 20 29.3334V8.00008C20 7.2637 20.597 6.66675 21.3333 6.66675Z" fill="black"/>
</svg>
