<svg width="16" height="16" viewBox="0 0 16 16" fill="none" xmlns="http://www.w3.org/2000/svg">
<path fill-rule="evenodd" clip-rule="evenodd" d="M6.66666 8.00002C6.66666 7.26364 7.26361 6.66669 7.99999 6.66669C8.73637 6.66669 9.33332 7.26364 9.33332 8.00002C9.33332 8.7364 8.73637 9.33335 7.99999 9.33335C7.26361 9.33335 6.66666 8.7364 6.66666 8.00002Z" fill="black"/>
<path fill-rule="evenodd" clip-rule="evenodd" d="M6.66666 3.33333C6.66666 2.59695 7.26361 2 7.99999 2C8.73637 2 9.33332 2.59695 9.33332 3.33333C9.33332 4.06971 8.73637 4.66667 7.99999 4.66667C7.26361 4.66667 6.66666 4.06971 6.66666 3.33333Z" fill="black"/>
<path fill-rule="evenodd" clip-rule="evenodd" d="M6.66666 12.6666C6.66666 11.9303 7.26361 11.3333 7.99999 11.3333C8.73637 11.3333 9.33332 11.9303 9.33332 12.6666C9.33332 13.403 8.73637 14 7.99999 14C7.26361 14 6.66666 13.403 6.66666 12.6666Z" fill="black"/>
</svg>
