<svg width="24" height="24" viewBox="0 0 24 24" fill="none" xmlns="http://www.w3.org/2000/svg">
<path fill-rule="evenodd" clip-rule="evenodd" d="M5 4.00024C4.73478 4.00024 4.48043 4.1056 4.29289 4.29314C4.10536 4.48067 4 4.73503 4 5.00024V18.586L6.29289 16.2931C6.48043 16.1056 6.73478 16.0002 7 16.0002H19C19.2652 16.0002 19.5196 15.8949 19.7071 15.7074C19.8946 15.5198 20 15.2655 20 15.0002V5.00024C20 4.73503 19.8946 4.48067 19.7071 4.29314C19.5196 4.1056 19.2652 4.00024 19 4.00024H5ZM2.87868 2.87892C3.44129 2.31631 4.20435 2.00024 5 2.00024H19C19.7957 2.00024 20.5587 2.31631 21.1213 2.87892C21.6839 3.44153 22 4.20459 22 5.00024V15.0002C22 15.7959 21.6839 16.559 21.1213 17.1216C20.5587 17.6842 19.7957 18.0002 19 18.0002H7.41421L3.70711 21.7074C3.42111 21.9933 2.99099 22.0789 2.61732 21.9241C2.24364 21.7693 2 21.4047 2 21.0002V5.00024C2 4.20459 2.31607 3.44153 2.87868 2.87892Z" fill="white"/>
</svg>
