<svg width="24" height="24" viewBox="0 0 24 24" fill="none" xmlns="http://www.w3.org/2000/svg">
<g clip-path="url(#clip0_0_1720)">
<path fill-rule="evenodd" clip-rule="evenodd" d="M9.62762 0.77655C10.4263 0.188222 11.4151 -0.0823603 12.402 0.0173306C13.3889 0.117022 14.3036 0.579873 14.9685 1.31603C15.6332 2.05194 16.0007 3.00849 16 4.00009M16 4.0011L16 9.34009C16 9.89238 15.5523 10.3401 15 10.3401C14.4477 10.3401 14 9.89238 14 9.34009L14 3.99909C14.0005 3.50311 13.8167 3.02464 13.4843 2.65656C13.1518 2.28848 12.6945 2.05705 12.201 2.00721C11.7075 1.95736 11.2131 2.09265 10.8138 2.38681C10.4145 2.68098 10.1387 3.11303 10.04 3.59909C9.9301 4.14033 9.40224 4.49 8.86101 4.3801C8.31977 4.27019 7.9701 3.74234 8.08 3.2011C8.2774 2.22898 8.82896 1.36488 9.62762 0.77655M0.292893 0.292988C0.683417 -0.0975367 1.31658 -0.0975367 1.70711 0.292988L17.4951 16.081C17.5681 16.1226 17.637 16.1742 17.6998 16.2358C17.7678 16.3024 17.8242 16.3763 17.8692 16.455L23.7071 22.293C24.0976 22.6835 24.0976 23.3167 23.7071 23.7072C23.3166 24.0977 22.6834 24.0977 22.2929 23.7072L16.9329 18.3472C15.7863 19.2403 14.4188 19.7948 13 19.9761V22.0001H16C16.5523 22.0001 17 22.4478 17 23.0001C17 23.5524 16.5523 24.0001 16 24.0001H8C7.44772 24.0001 7 23.5524 7 23.0001C7 22.4478 7.44772 22.0001 8 22.0001H11V19.9829C10.3032 19.898 9.61309 19.7207 8.94917 19.4468C5.96365 18.2153 3.97794 15.2258 4 11.9966V10.0001C4 9.44781 4.44772 9.00009 5 9.00009C5.55228 9.00009 6 9.44781 6 10.0001V12.0074C5.98233 14.4228 7.47886 16.6768 9.71183 17.5979C10.3607 17.8656 11.0448 18.0096 11.7304 18.0369C11.8162 18.0129 11.9066 18.0001 12 18.0001C12.0906 18.0001 12.1784 18.0121 12.2619 18.0347C13.4177 17.9796 14.5528 17.5963 15.504 16.9183L14.0298 15.4442C13.6448 15.6709 13.2224 15.8328 12.7794 15.9208C12.0039 16.0748 11.2002 15.9956 10.4697 15.6932C9.73927 15.3907 9.11481 14.8786 8.67524 14.2214C8.23567 13.5643 8.0007 12.7916 8 12.001L8 9.41431L0.292893 1.7072C-0.0976311 1.31668 -0.0976311 0.683512 0.292893 0.292988ZM10 11.4143V11.9992C10.0003 12.3945 10.1178 12.7809 10.3376 13.1094C10.5574 13.438 10.8696 13.6941 11.2349 13.8453C11.6001 13.9965 12.002 14.0361 12.3897 13.9591C12.432 13.9507 12.474 13.9409 12.5156 13.9299L10 11.4143ZM19 9.00009C19.5523 9.00009 20 9.44781 20 10.0001C20 10.2073 20.0039 10.4277 20.0079 10.6578C20.0229 11.5049 20.0401 12.4824 19.8743 13.4067C19.7768 13.9503 19.257 14.3119 18.7134 14.2144C18.1698 14.1169 17.8082 13.5971 17.9057 13.0535C18.0336 12.3406 18.022 11.6291 18.0087 10.8181C18.0044 10.5569 18 10.2853 18 10.0001C18 9.44781 18.4477 9.00009 19 9.00009Z" fill="black"/>
</g>
<defs>
<clipPath id="clip0_0_1720">
<rect width="24" height="24" fill="white"/>
</clipPath>
</defs>
</svg>
