<svg width="22" height="22" viewBox="0 0 22 22" fill="none" xmlns="http://www.w3.org/2000/svg">
<path fill-rule="evenodd" clip-rule="evenodd" d="M8.40695 1.07394C9.09458 0.386308 10.0272 0 10.9997 0C11.9721 0 12.9048 0.386308 13.5924 1.07394C14.28 1.76158 14.6663 2.69421 14.6663 3.66667V11C14.6663 11.9725 14.28 12.9051 13.5924 13.5927C12.9048 14.2804 11.9721 14.6667 10.9997 14.6667C10.0272 14.6667 9.09458 14.2804 8.40695 13.5927C7.71932 12.9051 7.33301 11.9725 7.33301 11V3.66667C7.33301 2.69421 7.71932 1.76158 8.40695 1.07394ZM10.9997 1.83333C10.5134 1.83333 10.0471 2.02649 9.70331 2.3703C9.3595 2.71412 9.16634 3.18044 9.16634 3.66667V11C9.16634 11.4862 9.3595 11.9525 9.70331 12.2964C10.0471 12.6402 10.5134 12.8333 10.9997 12.8333C11.4859 12.8333 11.9522 12.6402 12.296 12.2964C12.6399 11.9525 12.833 11.4862 12.833 11V3.66667C12.833 3.18044 12.6399 2.71412 12.296 2.3703C11.9522 2.02649 11.4859 1.83333 10.9997 1.83333Z" fill="#BBBBBC"/>
<path fill-rule="evenodd" clip-rule="evenodd" d="M4.58366 8.25C5.08992 8.25 5.50033 8.66041 5.50033 9.16667V11C5.50033 12.4587 6.07979 13.8576 7.11124 14.8891C8.14269 15.9205 9.54163 16.5 11.0003 16.5C12.459 16.5 13.858 15.9205 14.8894 14.8891C15.9209 13.8576 16.5003 12.4587 16.5003 11V9.16667C16.5003 8.66041 16.9107 8.25 17.417 8.25C17.9233 8.25 18.3337 8.66041 18.3337 9.16667V11C18.3337 12.9449 17.561 14.8102 16.1858 16.1854C14.8105 17.5607 12.9452 18.3333 11.0003 18.3333C9.0554 18.3333 7.19014 17.5607 5.81488 16.1854C4.43961 14.8102 3.66699 12.9449 3.66699 11V9.16667C3.66699 8.66041 4.0774 8.25 4.58366 8.25Z" fill="#BBBBBC"/>
<path fill-rule="evenodd" clip-rule="evenodd" d="M10.9997 16.5C11.5059 16.5 11.9163 16.9104 11.9163 17.4167V21.0833C11.9163 21.5896 11.5059 22 10.9997 22C10.4934 22 10.083 21.5896 10.083 21.0833V17.4167C10.083 16.9104 10.4934 16.5 10.9997 16.5Z" fill="#BBBBBC"/>
<path fill-rule="evenodd" clip-rule="evenodd" d="M6.41699 21.0833C6.41699 20.577 6.8274 20.1666 7.33366 20.1666H14.667C15.1733 20.1666 15.5837 20.577 15.5837 21.0833C15.5837 21.5896 15.1733 22 14.667 22H7.33366C6.8274 22 6.41699 21.5896 6.41699 21.0833Z" fill="#BBBBBC"/>
</svg>
