<svg width="24" height="24" viewBox="0 0 24 24" fill="none" xmlns="http://www.w3.org/2000/svg">
<path d="M12.1 22.0001C11.8 22.0001 11.5 22.0001 11.2 22.0001C5.7 21.5001 1.7 16.6001 2.2 11.1001C2.6 6.3001 6.4 2.5001 11.2 2.1001C11.6 2.1001 12 2.3001 12.2 2.6001C12.4 2.9001 12.4 3.4001 12.1 3.7001C11.1 5.0001 10.8 6.6001 11 8.2001C11.2 9.8001 12.1 11.2001 13.4 12.1001C15.5 13.7001 18.4 13.7001 20.5 12.1001C20.8 11.9001 21.2 11.8001 21.6 12.0001C21.9 12.2001 22.1 12.6001 22.1 13.0001C21.9 15.7001 20.6 18.1001 18.5 19.8001C16.6 21.2001 14.4 22.0001 12.1 22.0001ZM9.3 4.4001C6.4 5.4001 4.4 8.0001 4.1 11.2001C3.7 15.6001 6.9 19.5001 11.3 19.9001C13.4 20.1001 15.5 19.5001 17.1 18.1001C18.2 17.2001 19 16.0001 19.5 14.7001C17 15.6001 14.2 15.2001 12 13.6001C10.3 12.3001 9.2 10.5001 8.8 8.4001C8.7 7.0001 8.9 5.7001 9.3 4.4001Z" fill="black"/>
</svg>
