<svg width="16" height="16" viewBox="0 0 16 16" fill="none" xmlns="http://www.w3.org/2000/svg">
<path fill-rule="evenodd" clip-rule="evenodd" d="M15.1378 0.861785C15.337 1.06101 15.3895 1.36396 15.2688 1.61858L9.26885 14.2852C9.14831 14.5397 8.88088 14.691 8.60067 14.6633C8.32045 14.6355 8.08789 14.4347 8.0196 14.1615L6.78328 9.21627L1.838 7.97995C1.56483 7.91166 1.36402 7.67909 1.33627 7.39888C1.30852 7.11867 1.45982 6.85124 1.7143 6.7307L14.381 0.730698C14.6356 0.610088 14.9385 0.662563 15.1378 0.861785ZM3.96859 7.13823L7.49471 8.01976C7.73357 8.07947 7.92007 8.26598 7.97979 8.50483L8.86132 12.031L13.2648 2.73478L3.96859 7.13823Z" fill="#BBBBBC"/>
</svg>
