<svg width="22" height="23" viewBox="0 0 22 23" fill="none" xmlns="http://www.w3.org/2000/svg">
<path fill-rule="evenodd" clip-rule="evenodd" d="M14.7798 2.38782C13.9836 2.38782 13.2199 2.70412 12.6569 3.26715L3.46691 12.4571C2.5286 13.3955 2.00146 14.6681 2.00146 15.995C2.00146 17.322 2.5286 18.5946 3.46691 19.5329C4.40522 20.4712 5.67783 20.9984 7.0048 20.9984C8.33177 20.9984 9.60439 20.4712 10.5427 19.5329L19.7327 10.3429C20.1232 9.95241 20.7564 9.95241 21.1469 10.3429C21.5374 10.7335 21.5374 11.3666 21.1469 11.7571L11.9569 20.9471C10.6435 22.2605 8.8622 22.9984 7.0048 22.9984C5.1474 22.9984 3.36607 22.2605 2.05269 20.9471C0.739314 19.6338 0.00146484 17.8524 0.00146484 15.995C0.00146484 14.1376 0.739314 12.3563 2.05269 11.0429L11.2427 1.85293C12.1808 0.914836 13.4531 0.387817 14.7798 0.387817C16.1065 0.387817 17.3788 0.914836 18.3169 1.85293C19.255 2.79103 19.782 4.06337 19.782 5.39004C19.782 6.71671 19.255 7.98905 18.3169 8.92715L9.11691 18.1171C8.55409 18.68 7.79075 18.9962 6.9948 18.9962C6.19886 18.9962 5.43551 18.68 4.87269 18.1171C4.30988 17.5543 3.99369 16.791 3.99369 15.995C3.99369 15.1991 4.30988 14.4358 4.87269 13.8729L13.3631 5.39252C13.7539 5.00222 14.387 5.0026 14.7773 5.39335C15.1676 5.78411 15.1672 6.41727 14.7765 6.80756L6.28691 15.2871C6.09942 15.4749 5.99369 15.7297 5.99369 15.995C5.99369 16.2606 6.09916 16.5152 6.28691 16.7029C6.47465 16.8907 6.72929 16.9962 6.9948 16.9962C7.26031 16.9962 7.51495 16.8907 7.70269 16.7029L16.9027 7.51294C17.4655 6.94995 17.782 6.1861 17.782 5.39004C17.782 4.5938 17.4657 3.83017 16.9027 3.26715C16.3397 2.70412 15.576 2.38782 14.7798 2.38782Z" fill="#BBBBBC"/>
</svg>
