<svg width="24" height="24" viewBox="0 0 24 24" fill="none" xmlns="http://www.w3.org/2000/svg">
<g clip-path="url(#clip0_0_1749)">
<path d="M20 22.8999C19.9 22.8999 19.8 22.8999 19.7 22.8999C16.5 22.4999 13.3 21.3999 10.6 19.6999C8.09998 18.0999 5.89998 15.8999 4.29998 13.3999C2.49998 10.6999 1.39998 7.4999 1.09998 4.2999C1.09998 3.4999 1.29998 2.6999 1.79998 2.0999C2.29998 1.4999 2.99998 1.0999 3.79998 0.999902C3.89998 0.999902 3.99998 0.999902 4.09998 0.999902H7.09998C8.59998 0.999902 9.89998 2.0999 10.1 3.5999C10.2 4.4999 10.4 5.3999 10.7 6.1999C11.1 7.2999 10.8 8.4999 9.99998 9.3999L9.29998 10.0999C10.5 11.8999 12 13.4999 13.9 14.6999L14.6 13.9999C15.4 13.1999 16.7 12.8999 17.8 13.2999C18.6 13.5999 19.5 13.7999 20.4 13.8999C21.9 14.0999 23 15.3999 23 16.8999V19.8999C23 20.6999 22.7 21.4999 22.1 21.9999C21.5 22.4999 20.8 22.8999 20 22.8999ZM7.09998 2.9999H4.09998C3.79998 2.9999 3.49998 3.1999 3.29998 3.3999C3.19998 3.5999 3.09998 3.7999 3.09998 4.0999C3.39998 6.9999 4.39998 9.7999 5.99998 12.2999C7.49998 14.5999 9.39997 16.5999 11.7 17.9999C14.2 19.5999 17 20.5999 19.9 20.8999C20.3 20.8999 20.5 20.7999 20.7 20.5999C20.9 20.3999 21 20.1999 21 19.8999V16.8999C21 16.3999 20.6 15.9999 20.1 15.8999C19.1 15.7999 18.1 15.4999 17.1 15.0999C16.7 14.9999 16.3 14.9999 16 15.2999L14.7 16.5999C14.4 16.8999 13.9 16.9999 13.5 16.7999C10.8 15.2999 8.59998 13.0999 7.09998 10.3999C6.99998 9.9999 7.09998 9.4999 7.39998 9.1999L8.69998 7.8999C8.89998 7.6999 8.99998 7.1999 8.89998 6.8999C8.49998 5.8999 8.29998 4.8999 8.09998 3.8999C8.09998 3.3999 7.59998 2.9999 7.09998 2.9999ZM19 9.9999C18.5 9.9999 18.1 9.6999 18 9.1999C17.7 7.5999 16.4 6.3999 14.8 5.9999C14.3 5.8999 13.9 5.3999 14 4.7999C14.1 4.2999 14.6 3.8999 15.2 3.9999C17.6 4.4999 19.5 6.2999 19.9 8.6999C20 9.1999 19.7 9.7999 19.1 9.8999C19.1 9.8999 19.1 9.9999 19 9.9999ZM23 9.8999C22.5 9.8999 22.1 9.4999 22 8.9999C21.6 5.2999 18.7 2.3999 14.9 1.8999C14.4 1.7999 14 1.2999 14 0.799902C14 0.299902 14.6 -0.100098 15.1 -0.100098C19.8 0.399902 23.4 3.9999 23.9 8.6999C24 9.1999 23.6 9.6999 23 9.7999C23.1 9.8999 23 9.8999 23 9.8999Z" fill="black"/>
</g>
<defs>
<clipPath id="clip0_0_1749">
<rect width="24" height="24" fill="white"/>
</clipPath>
</defs>
</svg>
