<svg width="16" height="22" viewBox="0 0 16 22" fill="none" xmlns="http://www.w3.org/2000/svg">
<path d="M13 22H3C1.3 22 0 20.7 0 19V3C0 1.3 1.3 0 3 0H13C14.7 0 16 1.3 16 3V19C16 20.7 14.7 22 13 22ZM3 2C2.4 2 2 2.4 2 3V19C2 19.6 2.4 20 3 20H13C13.6 20 14 19.6 14 19V3C14 2.4 13.6 2 13 2H3Z" fill="black"/>
<path d="M8 18C7.9 18 7.7 18 7.6 17.9C7.5 17.9 7.4 17.8 7.3 17.7C7.1 17.5 7 17.3 7 17C7 16.9 7 16.7 7.1 16.6C7.2 16.5 7.2 16.4 7.3 16.3C7.7 15.9 8.3 15.9 8.7 16.3C8.9 16.5 9 16.8 9 17C9 17.3 8.9 17.5 8.7 17.7C8.5 17.9 8.3 18 8 18Z" fill="black"/>
</svg>
