<svg width="16" height="16" viewBox="0 0 16 16" fill="none" xmlns="http://www.w3.org/2000/svg">
<path d="M11.3334 15.3333H4.66675C3.53341 15.3333 2.66675 14.4666 2.66675 13.3333V2.66663C2.66675 1.53329 3.53341 0.666626 4.66675 0.666626H11.3334C12.4667 0.666626 13.3334 1.53329 13.3334 2.66663V13.3333C13.3334 14.4666 12.4667 15.3333 11.3334 15.3333ZM4.66675 1.99996C4.26675 1.99996 4.00008 2.26663 4.00008 2.66663V13.3333C4.00008 13.7333 4.26675 14 4.66675 14H11.3334C11.7334 14 12.0001 13.7333 12.0001 13.3333V2.66663C12.0001 2.26663 11.7334 1.99996 11.3334 1.99996H4.66675Z" fill="#BBBBBC"/>
<path d="M8.00008 12.6666C7.93341 12.6666 7.80008 12.6666 7.73341 12.6C7.66675 12.6 7.60008 12.5333 7.53341 12.4666C7.40008 12.3333 7.33341 12.2 7.33341 12C7.33341 11.9333 7.33341 11.8 7.40008 11.7333C7.46675 11.6666 7.46675 11.6 7.53341 11.5333C7.80008 11.2666 8.20008 11.2666 8.46675 11.5333C8.60008 11.6666 8.66675 11.8666 8.66675 12C8.66675 12.2 8.60008 12.3333 8.46675 12.4666C8.33341 12.6 8.20008 12.6666 8.00008 12.6666Z" fill="#BBBBBC"/>
</svg>
