<svg width="25" height="24" viewBox="0 0 25 24" fill="none" xmlns="http://www.w3.org/2000/svg">
<g clip-path="url(#clip0_0_1905)">
<path fill-rule="evenodd" clip-rule="evenodd" d="M11.4583 2C11.182 2 10.9171 2.10536 10.7217 2.29289C10.5264 2.48043 10.4166 2.73478 10.4166 3V11.382L13.0758 10.1056C13.2204 10.0361 13.3799 10 13.5416 10H21.875C22.1512 10 22.4162 9.89464 22.6115 9.70711C22.8069 9.51957 22.9166 9.26522 22.9166 9V3C22.9166 2.73478 22.8069 2.48043 22.6115 2.29289C22.4162 2.10536 22.1512 2 21.875 2H11.4583ZM9.2486 0.87868C9.83466 0.316071 10.6295 0 11.4583 0H21.875C22.7038 0 23.4986 0.316071 24.0847 0.87868C24.6707 1.44129 25 2.20435 25 3V9C25 9.79565 24.6707 10.5587 24.0847 11.1213C23.4986 11.6839 22.7038 12 21.875 12H13.7876L9.84083 13.8944C9.51792 14.0494 9.13444 14.0329 8.82734 13.8507C8.52024 13.6684 8.33331 13.3466 8.33331 13V3C8.33331 2.20435 8.66255 1.44129 9.2486 0.87868Z" fill="#111111"/>
<path fill-rule="evenodd" clip-rule="evenodd" d="M1.95695 2.87868C2.543 2.31607 3.33786 2 4.16666 2H5.72916C6.30445 2 6.77082 2.44772 6.77082 3C6.77082 3.55228 6.30445 4 5.72916 4H4.16666C3.89039 4 3.62544 4.10536 3.43009 4.29289C3.23474 4.48043 3.12499 4.73478 3.12499 5V21C3.12499 21.2652 3.23474 21.5196 3.43009 21.7071C3.62544 21.8946 3.89039 22 4.16666 22H15.625C15.9013 22 16.1662 21.8946 16.3616 21.7071C16.5569 21.5196 16.6667 21.2652 16.6667 21V15C16.6667 14.4477 17.133 14 17.7083 14C18.2836 14 18.75 14.4477 18.75 15V21C18.75 21.7957 18.4207 22.5587 17.8347 23.1213C17.2486 23.6839 16.4538 24 15.625 24H4.16666C3.33785 24 2.543 23.6839 1.95695 23.1213C1.3709 22.5587 1.04166 21.7957 1.04166 21V5C1.04166 4.20435 1.3709 3.44129 1.95695 2.87868Z" fill="#111111"/>
<ellipse cx="10.4167" cy="19" rx="1.04167" ry="1" fill="#111111"/>
</g>
<defs>
<clipPath id="clip0_0_1905">
<rect width="25" height="24" fill="white"/>
</clipPath>
</defs>
</svg>
