<svg width="24" height="24" viewBox="0 0 24 24" fill="none" xmlns="http://www.w3.org/2000/svg">
<path d="M23 0H17C16.4 0 16 0.4 16 1C16 1.6 16.4 2 17 2H21.2L15.7 7.5C15.4 7.8 15.4 8.4 15.7 8.8C15.9 8.9 16.2 9 16.4 9C16.6 9 16.9 8.9 17 8.7L22 3.7V7C22 7.6 22.4 8 23 8C23.6 8 24 7.6 24 7V1C24 0.4 23.6 0 23 0Z" fill="black"/>
<path d="M20 22.9C19.9 22.9 19.8 22.9 19.7 22.9C16.5 22.5 13.3 21.4 10.6 19.7C8.10001 18.1 5.90001 15.9 4.30001 13.4C2.50001 10.7 1.40001 7.5 1.10001 4.3C1.10001 3.5 1.30001 2.7 1.80001 2.1C2.30001 1.5 3.00001 1.1 3.80001 1C3.90001 1 4.00001 1 4.10001 1H7.10001C8.60001 1 9.90001 2.1 10.1 3.6C10.2 4.5 10.4 5.4 10.7 6.2C11.1 7.3 10.8 8.5 10 9.4L9.30001 10.1C10.5 11.9 12 13.5 13.9 14.7L14.6 14C15.4 13.2 16.7 12.9 17.8 13.3C18.6 13.6 19.5 13.8 20.4 13.9C21.9 14.1 23 15.4 23 16.9V19.9C23 20.7 22.7 21.5 22.1 22C21.5 22.5 20.8 22.9 20 22.9ZM7.10001 3H4.10001C3.80001 3 3.50001 3.2 3.30001 3.4C3.20001 3.6 3.10001 3.8 3.10001 4.1C3.40001 7 4.40001 9.8 6.00001 12.3C7.50001 14.6 9.40001 16.6 11.7 18C14.2 19.6 17 20.6 19.9 20.9C20.3 20.9 20.5 20.8 20.7 20.6C20.9 20.4 21 20.2 21 19.9V16.9C21 16.4 20.6 16 20.1 15.9C19.1 15.8 18.1 15.5 17.1 15.1C16.7 15 16.3 15 16 15.3L14.7 16.6C14.4 16.9 13.9 17 13.5 16.8C10.8 15.3 8.60001 13.1 7.10001 10.4C7.00001 10 7.10001 9.5 7.40001 9.2L8.70001 7.9C8.90001 7.7 9.00001 7.2 8.90001 6.9C8.50001 5.9 8.30001 4.9 8.10001 3.9C8.10001 3.4 7.60001 3 7.10001 3Z" fill="black"/>
</svg>
