<svg width="24" height="24" viewBox="0 0 24 24" fill="none" xmlns="http://www.w3.org/2000/svg">
<g clip-path="url(#clip0_0_1868)">
<path d="M23.7 0.3C23.3 -0.1 22.7 -0.1 22.3 0.3L17 5.6V2C17 1.4 16.6 1 16 1C15.4 1 15 1.4 15 2V8C15 8.1 15 8.3 15.1 8.4C15.2 8.6 15.4 8.8 15.6 8.9C15.7 9 15.9 9 16 9H22C22.6 9 23 8.6 23 8C23 7.4 22.6 7 22 7H18.4L23.7 1.7C24.1 1.3 24.1 0.7 23.7 0.3Z" fill="black"/>
<path d="M20 22.9C19.9 22.9 19.8 22.9 19.7 22.9C16.5 22.5 13.3 21.4 10.6 19.7C8.09998 18.1 5.89998 15.9 4.29998 13.4C2.49998 10.7 1.39998 7.5 1.09998 4.3C1.09998 3.5 1.29998 2.7 1.79998 2.1C2.29998 1.5 2.99998 1.1 3.79998 1C3.89998 1 3.99998 1 4.09998 1H7.09998C8.59998 1 9.89998 2.1 10.1 3.6C10.2 4.5 10.4 5.4 10.7 6.2C11.1 7.3 10.8 8.5 9.99998 9.4L9.29998 10.1C10.5 11.9 12 13.5 13.9 14.7L14.6 14C15.4 13.2 16.7 12.9 17.8 13.3C18.6 13.6 19.5 13.8 20.4 13.9C21.9 14.1 23 15.4 23 16.9V19.9C23 20.7 22.7 21.5 22.1 22C21.5 22.5 20.8 22.9 20 22.9ZM7.09998 3H4.09998C3.79998 3 3.49998 3.2 3.29998 3.4C3.19998 3.6 3.09998 3.8 3.09998 4.1C3.39998 7 4.39998 9.8 5.99998 12.3C7.49998 14.6 9.39997 16.6 11.7 18C14.2 19.6 17 20.6 19.9 20.9C20.3 20.9 20.5 20.8 20.7 20.6C20.9 20.4 21 20.2 21 19.9V16.9C21 16.4 20.6 16 20.1 15.9C19.1 15.8 18.1 15.5 17.1 15.1C16.7 15 16.3 15 16 15.3L14.7 16.6C14.4 16.9 13.9 17 13.5 16.8C10.8 15.3 8.59998 13.1 7.09998 10.4C6.99998 10 7.09998 9.5 7.39998 9.2L8.69998 7.9C8.89998 7.7 8.99998 7.2 8.89998 6.9C8.49998 5.9 8.29998 4.9 8.09998 3.9C8.09998 3.4 7.59998 3 7.09998 3Z" fill="black"/>
</g>
<defs>
<clipPath id="clip0_0_1868">
<rect width="24" height="24" fill="white"/>
</clipPath>
</defs>
</svg>
