<svg width="24" height="24" viewBox="0 0 24 24" fill="none" xmlns="http://www.w3.org/2000/svg">
<path fill-rule="evenodd" clip-rule="evenodd" d="M8.91654 2.43013C9.13743 2.93631 8.90615 3.52573 8.39997 3.74662C7.05256 4.33461 5.8697 5.24371 4.95481 6.39445C4.03991 7.54518 3.42084 8.90252 3.1517 10.3478C2.88257 11.7931 2.97158 13.2823 3.41094 14.6852C3.8503 16.0881 4.62664 17.362 5.67208 18.3956C6.71753 19.4292 8.00025 20.1909 9.4081 20.6142C10.8159 21.0375 12.3061 21.1095 13.7482 20.8239C15.1903 20.5383 16.5404 19.9038 17.6807 18.9758C18.8209 18.0478 19.7164 16.8547 20.289 15.5006C20.5041 14.9919 21.0908 14.754 21.5995 14.969C22.1082 15.1841 22.3461 15.7709 22.131 16.2796C21.4312 17.9345 20.3367 19.3928 18.9431 20.527C17.5495 21.6612 15.8993 22.4367 14.1367 22.7858C12.3742 23.1349 10.5529 23.0469 8.83221 22.5295C7.1115 22.0121 5.54374 21.0811 4.26597 19.8179C2.9882 18.5546 2.03934 16.9976 1.50235 15.2829C0.965348 13.5682 0.856564 11.7481 1.1855 9.98165C1.51444 8.21521 2.27109 6.55624 3.3893 5.14979C4.5075 3.74333 5.95322 2.6322 7.60005 1.91355C8.10623 1.69266 8.69565 1.92394 8.91654 2.43013Z" fill="white"/>
<path fill-rule="evenodd" clip-rule="evenodd" d="M11.2929 1.29289C11.4804 1.10536 11.7348 1 12 1C13.4445 1 14.8749 1.28452 16.2095 1.83733C17.5441 2.39013 18.7567 3.20038 19.7782 4.22183C20.7996 5.24327 21.6099 6.4559 22.1627 7.79048C22.7155 9.12506 23 10.5555 23 12C23 12.5523 22.5523 13 22 13H12C11.4477 13 11 12.5523 11 12V2C11 1.73478 11.1054 1.48043 11.2929 1.29289ZM13 3.05573V11H20.9443C20.8505 10.1614 20.6391 9.33849 20.3149 8.55585C19.8626 7.46392 19.1997 6.47177 18.364 5.63604C17.5282 4.80031 16.5361 4.13738 15.4442 3.68508C14.6615 3.3609 13.8386 3.14949 13 3.05573Z" fill="white"/>
</svg>
