<svg width="16" height="16" viewBox="0 0 16 16" fill="none" xmlns="http://www.w3.org/2000/svg">
<path fill-rule="evenodd" clip-rule="evenodd" d="M10.52 1.59163C9.98918 1.59163 9.4801 1.8025 9.10475 2.17785L2.97808 8.30452C2.35254 8.93006 2.00112 9.77847 2.00112 10.6631C2.00112 11.5478 2.35254 12.3962 2.97808 13.0217C3.60362 13.6473 4.45203 13.9987 5.33668 13.9987C6.22132 13.9987 7.06973 13.6473 7.69527 13.0217L13.8219 6.89505C14.0823 6.6347 14.5044 6.6347 14.7647 6.89505C15.0251 7.1554 15.0251 7.57751 14.7647 7.83786L8.63808 13.9645C7.76249 14.8401 6.57494 15.332 5.33668 15.332C4.09841 15.332 2.91086 14.8401 2.03527 13.9645C1.15969 13.0889 0.667786 11.9014 0.667786 10.6631C0.667786 9.42485 1.15969 8.2373 2.03527 7.36171L8.16194 1.23505C8.78734 0.609646 9.63556 0.258301 10.52 0.258301C11.4045 0.258301 12.2527 0.609646 12.8781 1.23505C13.5035 1.86045 13.8548 2.70867 13.8548 3.59312C13.8548 4.47756 13.5035 5.32579 12.8781 5.95119L6.74475 12.0779C6.36954 12.4531 5.86064 12.6639 5.33001 12.6639C4.79938 12.6639 4.29048 12.4531 3.91527 12.0779C3.54006 11.7026 3.32927 11.1937 3.32927 10.6631C3.32927 10.1325 3.54006 9.62359 3.91527 9.24838L9.57555 3.59477C9.83605 3.33457 10.2582 3.33482 10.5184 3.59532C10.7786 3.85583 10.7783 4.27794 10.5178 4.53813L4.85808 10.1912C4.73309 10.3163 4.6626 10.4862 4.6626 10.6631C4.6626 10.8401 4.73292 11.0099 4.85808 11.135C4.98325 11.2602 5.153 11.3305 5.33001 11.3305C5.50702 11.3305 5.67678 11.2602 5.80194 11.135L11.9353 5.00838C12.3105 4.63305 12.5215 4.12382 12.5215 3.59312C12.5215 3.06229 12.3106 2.55321 11.9353 2.17785C11.5599 1.8025 11.0508 1.59163 10.52 1.59163Z" fill="black"/>
</svg>
