<svg width="15" height="15" viewBox="0 0 15 15" fill="none" xmlns="http://www.w3.org/2000/svg">
<path fill-rule="evenodd" clip-rule="evenodd" d="M14.1378 0.862273C14.337 1.0615 14.3895 1.36445 14.2688 1.61907L8.26885 14.2857C8.14831 14.5402 7.88088 14.6915 7.60067 14.6638C7.32045 14.636 7.08789 14.4352 7.0196 14.162L5.78328 9.21676L0.838001 7.98044C0.564825 7.91215 0.364015 7.67958 0.336269 7.39937C0.308522 7.11916 0.459823 6.85173 0.7143 6.73119L13.381 0.731186C13.6356 0.610576 13.9385 0.663051 14.1378 0.862273ZM2.96859 7.13872L6.49471 8.02025C6.73357 8.07996 6.92007 8.26646 6.97979 8.50532L7.86132 12.0314L12.2648 2.73526L2.96859 7.13872Z" fill="#BBBBBC"/>
</svg>
