<svg width="24" height="24" viewBox="0 0 24 24" fill="none" xmlns="http://www.w3.org/2000/svg">
<path fill-rule="evenodd" clip-rule="evenodd" d="M5 4.00024C4.44772 4.00024 4 4.44796 4 5.00024V19.0002C4 19.5525 4.44772 20.0002 5 20.0002H19C19.5523 20.0002 20 19.5525 20 19.0002V5.00024C20 4.44796 19.5523 4.00024 19 4.00024H5ZM2 5.00024C2 3.34339 3.34315 2.00024 5 2.00024H19C20.6569 2.00024 22 3.34339 22 5.00024V19.0002C22 20.6571 20.6569 22.0002 19 22.0002H5C3.34315 22.0002 2 20.6571 2 19.0002V5.00024Z" fill="white"/>
<path fill-rule="evenodd" clip-rule="evenodd" d="M12 7.00024C12.5523 7.00024 13 7.44796 13 8.00024V16.0002C13 16.5525 12.5523 17.0002 12 17.0002C11.4477 17.0002 11 16.5525 11 16.0002V8.00024C11 7.44796 11.4477 7.00024 12 7.00024Z" fill="white"/>
<path fill-rule="evenodd" clip-rule="evenodd" d="M7 12.0002C7 11.448 7.44772 11.0002 8 11.0002H16C16.5523 11.0002 17 11.448 17 12.0002C17 12.5525 16.5523 13.0002 16 13.0002H8C7.44772 13.0002 7 12.5525 7 12.0002Z" fill="white"/>
</svg>
