<svg width="129" height="129" viewBox="0 0 129 129" fill="none" xmlns="http://www.w3.org/2000/svg">
<path fill-rule="evenodd" clip-rule="evenodd" d="M0 16.125C0 13.1565 2.40647 10.75 5.375 10.75H86C88.9685 10.75 91.375 13.1565 91.375 16.125V86C91.375 88.9685 88.9685 91.375 86 91.375H5.375C2.40647 91.375 0 88.9685 0 86V16.125ZM10.75 21.5V80.625H80.625V21.5H10.75Z" fill="#F7F7F7"/>
<path fill-rule="evenodd" clip-rule="evenodd" d="M80.625 43C80.625 40.0315 83.0315 37.625 86 37.625H107.5C108.926 37.625 110.293 38.1913 111.301 39.1993L127.426 55.3243C128.434 56.3323 129 57.6995 129 59.125V86C129 88.9685 126.594 91.375 123.625 91.375H86C83.0315 91.375 80.625 88.9685 80.625 86V43ZM91.375 48.375V80.625H118.25V61.3514L105.274 48.375H91.375Z" fill="#F7F7F7"/>
<path fill-rule="evenodd" clip-rule="evenodd" d="M29.5625 91.375C25.1097 91.375 21.5 94.9847 21.5 99.4375C21.5 103.89 25.1097 107.5 29.5625 107.5C34.0153 107.5 37.625 103.89 37.625 99.4375C37.625 94.9847 34.0153 91.375 29.5625 91.375ZM10.75 99.4375C10.75 89.0476 19.1726 80.625 29.5625 80.625C39.9524 80.625 48.375 89.0476 48.375 99.4375C48.375 109.827 39.9524 118.25 29.5625 118.25C19.1726 118.25 10.75 109.827 10.75 99.4375Z" fill="#F7F7F7"/>
<path fill-rule="evenodd" clip-rule="evenodd" d="M99.4375 91.375C94.9847 91.375 91.375 94.9847 91.375 99.4375C91.375 103.89 94.9847 107.5 99.4375 107.5C103.89 107.5 107.5 103.89 107.5 99.4375C107.5 94.9847 103.89 91.375 99.4375 91.375ZM80.625 99.4375C80.625 89.0476 89.0476 80.625 99.4375 80.625C109.827 80.625 118.25 89.0476 118.25 99.4375C118.25 109.827 109.827 118.25 99.4375 118.25C89.0476 118.25 80.625 109.827 80.625 99.4375Z" fill="#F7F7F7"/>
</svg>
