<svg width="24" height="24" viewBox="0 0 24 24" fill="none" xmlns="http://www.w3.org/2000/svg">
<path fill-rule="evenodd" clip-rule="evenodd" d="M12 11C11.4477 11 11 11.4477 11 12C11 12.5523 11.4477 13 12 13C12.5523 13 13 12.5523 13 12C13 11.4477 12.5523 11 12 11ZM9 12C9 10.3431 10.3431 9 12 9C13.6569 9 15 10.3431 15 12C15 13.6569 13.6569 15 12 15C10.3431 15 9 13.6569 9 12Z" fill="black"/>
<path fill-rule="evenodd" clip-rule="evenodd" d="M5.637 4.22272C6.02758 4.61318 6.02768 5.24635 5.63721 5.63693C3.94997 7.32468 3.00214 9.61345 3.00214 11.9999C3.00214 14.3864 3.94997 16.6752 5.63721 18.3629C6.02768 18.7535 6.02758 19.3867 5.637 19.7771C5.24642 20.1676 4.61325 20.1675 4.22279 19.7769C2.16061 17.7141 1.00214 14.9167 1.00214 11.9999C1.00214 9.08313 2.16061 6.28574 4.22279 4.22293C4.61325 3.83235 5.24642 3.83225 5.637 4.22272ZM18.363 4.22272C18.7536 3.83225 19.3867 3.83235 19.7772 4.22293C21.8394 6.28574 22.9979 9.08313 22.9979 11.9999C22.9979 14.9167 21.8394 17.7141 19.7772 19.7769C19.3867 20.1675 18.7536 20.1676 18.363 19.7771C17.9724 19.3867 17.9723 18.7535 18.3628 18.3629C20.05 16.6752 20.9979 14.3864 20.9979 11.9999C20.9979 9.61345 20.05 7.32468 18.3628 5.63693C17.9723 5.24635 17.9724 4.61318 18.363 4.22272ZM8.4675 7.04322C8.85781 7.43396 8.85746 8.06712 8.46671 8.45743C8.00183 8.9218 7.63304 9.47324 7.38142 10.0802C7.12979 10.6872 7.00028 11.3379 7.00028 11.9949C7.00028 12.652 7.12979 13.3026 7.38142 13.9096C7.63304 14.5166 8.00183 15.0681 8.46671 15.5324C8.85746 15.9227 8.85781 16.5559 8.4675 16.9466C8.07719 17.3374 7.44403 17.3377 7.05329 16.9474C6.40245 16.2973 5.88614 15.5253 5.53387 14.6755C5.1816 13.8257 5.00028 12.9148 5.00028 11.9949C5.00028 11.075 5.1816 10.1641 5.53387 9.31435C5.88614 8.46456 6.40245 7.69254 7.05329 7.04243C7.44403 6.65212 8.07719 6.65248 8.4675 7.04322ZM15.5325 7.05322C15.9228 6.66248 16.556 6.66213 16.9467 7.05243C17.5975 7.70254 18.1139 8.47456 18.4661 9.32435C18.8184 10.1741 18.9997 11.085 18.9997 12.0049C18.9997 12.9248 18.8184 13.8357 18.4661 14.6855C18.1139 15.5353 17.5975 16.3073 16.9467 16.9574C16.556 17.3477 15.9228 17.3474 15.5325 16.9566C15.1422 16.5659 15.1425 15.9327 15.5333 15.5424C15.9982 15.0781 16.367 14.5266 16.6186 13.9196C16.8702 13.3126 16.9997 12.662 16.9997 12.0049C16.9997 11.3479 16.8702 10.6972 16.6186 10.0902C16.367 9.48324 15.9982 8.9318 15.5333 8.46743C15.1425 8.07713 15.1422 7.44396 15.5325 7.05322Z" fill="black"/>
</svg>
