<svg width="80" height="16" viewBox="0 0 80 16" fill="none" xmlns="http://www.w3.org/2000/svg">
<path fill-rule="evenodd" clip-rule="evenodd" d="M7.99888 12.5147L4.30212 14.401C3.93446 14.5886 3.51067 14.2751 3.5825 13.8686L4.2846 9.89548L1.32432 7.09481C1.02006 6.80696 1.18338 6.29499 1.59812 6.2365L5.70333 5.65753L7.55319 2.01957C7.73854 1.65507 8.25923 1.65507 8.44457 2.01957L10.2944 5.65753L14.3996 6.2365C14.8144 6.29499 14.9777 6.80696 14.6734 7.09481L11.7132 9.89548L12.4153 13.8686C12.4871 14.2751 12.0633 14.5886 11.6956 14.401L7.99888 12.5147Z" fill="#BBBBBC"/>
<path fill-rule="evenodd" clip-rule="evenodd" d="M23.9989 12.5147L20.3021 14.401C19.9345 14.5886 19.5107 14.2751 19.5825 13.8686L20.2846 9.89548L17.3243 7.09481C17.0201 6.80696 17.1834 6.29499 17.5981 6.2365L21.7033 5.65753L23.5532 2.01957C23.7385 1.65507 24.2592 1.65507 24.4446 2.01957L26.2944 5.65753L30.3996 6.2365C30.8144 6.29499 30.9777 6.80696 30.6734 7.09481L27.7132 9.89548L28.4153 13.8686C28.4871 14.2751 28.0633 14.5886 27.6956 14.401L23.9989 12.5147Z" fill="#BBBBBC"/>
<path fill-rule="evenodd" clip-rule="evenodd" d="M39.9989 12.5147L36.3021 14.401C35.9345 14.5886 35.5107 14.2751 35.5825 13.8686L36.2846 9.89548L33.3243 7.09481C33.0201 6.80696 33.1834 6.29499 33.5981 6.2365L37.7033 5.65753L39.5532 2.01957C39.7385 1.65507 40.2592 1.65507 40.4446 2.01957L42.2944 5.65753L46.3996 6.2365C46.8144 6.29499 46.9777 6.80696 46.6734 7.09481L43.7132 9.89548L44.4153 13.8686C44.4871 14.2751 44.0633 14.5886 43.6956 14.401L39.9989 12.5147Z" fill="#BBBBBC"/>
<path fill-rule="evenodd" clip-rule="evenodd" d="M55.9989 12.5147L52.3021 14.401C51.9345 14.5886 51.5107 14.2751 51.5825 13.8686L52.2846 9.89548L49.3243 7.09481C49.0201 6.80696 49.1834 6.29499 49.5981 6.2365L53.7033 5.65753L55.5532 2.01957C55.7385 1.65507 56.2592 1.65507 56.4446 2.01957L58.2944 5.65753L62.3996 6.2365C62.8144 6.29499 62.9777 6.80696 62.6734 7.09481L59.7132 9.89548L60.4153 13.8686C60.4871 14.2751 60.0633 14.5886 59.6956 14.401L55.9989 12.5147Z" fill="#BBBBBC"/>
<path fill-rule="evenodd" clip-rule="evenodd" d="M71.9989 12.5147L68.3021 14.401C67.9345 14.5886 67.5107 14.2751 67.5825 13.8686L68.2846 9.89548L65.3243 7.09481C65.0201 6.80696 65.1834 6.29499 65.5981 6.2365L69.7033 5.65753L71.5532 2.01957C71.7385 1.65507 72.2592 1.65507 72.4446 2.01957L74.2944 5.65753L78.3996 6.2365C78.8144 6.29499 78.9777 6.80696 78.6734 7.09481L75.7132 9.89548L76.4153 13.8686C76.4871 14.2751 76.0633 14.5886 75.6956 14.401L71.9989 12.5147Z" fill="#BBBBBC"/>
</svg>
