<svg width="80" height="16" viewBox="0 0 80 16" fill="none" xmlns="http://www.w3.org/2000/svg">
<path fill-rule="evenodd" clip-rule="evenodd" d="M7.99888 12.5144L4.30212 14.4008C3.93446 14.5884 3.51067 14.2748 3.5825 13.8684L4.2846 9.89523L1.32432 7.09457C1.02006 6.80671 1.18338 6.29475 1.59812 6.23626L5.70333 5.65729L7.55319 2.01932C7.73854 1.65483 8.25923 1.65483 8.44457 2.01932L10.2944 5.65729L14.3996 6.23626C14.8144 6.29475 14.9777 6.80671 14.6734 7.09457L11.7132 9.89523L12.4153 13.8684C12.4871 14.2748 12.0633 14.5884 11.6956 14.4008L7.99888 12.5144Z" fill="#FF9900"/>
<path fill-rule="evenodd" clip-rule="evenodd" d="M23.9989 12.5144L20.3021 14.4008C19.9345 14.5884 19.5107 14.2748 19.5825 13.8684L20.2846 9.89523L17.3243 7.09457C17.0201 6.80671 17.1834 6.29475 17.5981 6.23626L21.7033 5.65729L23.5532 2.01932C23.7385 1.65483 24.2592 1.65483 24.4446 2.01932L26.2944 5.65729L30.3996 6.23626C30.8144 6.29475 30.9777 6.80671 30.6734 7.09457L27.7132 9.89523L28.4153 13.8684C28.4871 14.2748 28.0633 14.5884 27.6956 14.4008L23.9989 12.5144Z" fill="#FF9900"/>
<path fill-rule="evenodd" clip-rule="evenodd" d="M39.9989 12.5144L36.3021 14.4008C35.9345 14.5884 35.5107 14.2748 35.5825 13.8684L36.2846 9.89523L33.3243 7.09457C33.0201 6.80671 33.1834 6.29475 33.5981 6.23626L37.7033 5.65729L39.5532 2.01932C39.7385 1.65483 40.2592 1.65483 40.4446 2.01932L42.2944 5.65729L46.3996 6.23626C46.8144 6.29475 46.9777 6.80671 46.6734 7.09457L43.7132 9.89523L44.4153 13.8684C44.4871 14.2748 44.0633 14.5884 43.6956 14.4008L39.9989 12.5144Z" fill="#FF9900"/>
<path fill-rule="evenodd" clip-rule="evenodd" d="M55.9989 12.5144L52.3021 14.4008C51.9345 14.5884 51.5107 14.2748 51.5825 13.8684L52.2846 9.89523L49.3243 7.09457C49.0201 6.80671 49.1834 6.29475 49.5981 6.23626L53.7033 5.65729L55.5532 2.01932C55.7385 1.65483 56.2592 1.65483 56.4446 2.01932L58.2944 5.65729L62.3996 6.23626C62.8144 6.29475 62.9777 6.80671 62.6734 7.09457L59.7132 9.89523L60.4153 13.8684C60.4871 14.2748 60.0633 14.5884 59.6956 14.4008L55.9989 12.5144Z" fill="#FF9900"/>
<path fill-rule="evenodd" clip-rule="evenodd" d="M71.9989 12.5144L68.3021 14.4008C67.9345 14.5884 67.5107 14.2748 67.5825 13.8684L68.2846 9.89523L65.3243 7.09457C65.0201 6.80671 65.1834 6.29475 65.5981 6.23626L69.7033 5.65729L71.5532 2.01932C71.7385 1.65483 72.2592 1.65483 72.4446 2.01932L74.2944 5.65729L78.3996 6.23626C78.8144 6.29475 78.9777 6.80671 78.6734 7.09457L75.7132 9.89523L76.4153 13.8684C76.4871 14.2748 76.0633 14.5884 75.6956 14.4008L71.9989 12.5144Z" fill="#FF9900"/>
</svg>
