<svg width="12" height="12" viewBox="0 0 12 12" fill="none" xmlns="http://www.w3.org/2000/svg">
<path fill-rule="evenodd" clip-rule="evenodd" d="M8.98093 3.01885C9.1545 3.19241 9.1545 3.47382 8.98093 3.64739L3.6476 8.98072C3.47403 9.15429 3.19263 9.15429 3.01906 8.98072C2.84549 8.80715 2.84549 8.52575 3.01906 8.35218L8.35239 3.01885C8.52596 2.84528 8.80737 2.84528 8.98093 3.01885Z" fill="white"/>
<path fill-rule="evenodd" clip-rule="evenodd" d="M3.01906 3.01885C3.19263 2.84528 3.47403 2.84528 3.6476 3.01885L8.98093 8.35218C9.1545 8.52575 9.1545 8.80715 8.98093 8.98072C8.80737 9.15429 8.52596 9.15429 8.35239 8.98072L3.01906 3.64739C2.84549 3.47382 2.84549 3.19241 3.01906 3.01885Z" fill="white"/>
</svg>
