<svg width="24" height="24" viewBox="0 0 24 24" fill="none" xmlns="http://www.w3.org/2000/svg">
<path fill-rule="evenodd" clip-rule="evenodd" d="M11 4.00024C7.13401 4.00024 4 7.13425 4 11.0002C4 14.8662 7.13401 18.0002 11 18.0002C14.866 18.0002 18 14.8662 18 11.0002C18 7.13425 14.866 4.00024 11 4.00024ZM2 11.0002C2 6.02968 6.02944 2.00024 11 2.00024C15.9706 2.00024 20 6.02968 20 11.0002C20 15.9708 15.9706 20.0002 11 20.0002C6.02944 20.0002 2 15.9708 2 11.0002Z" fill="white"/>
<path fill-rule="evenodd" clip-rule="evenodd" d="M15.9433 15.9431C16.3338 15.5526 16.967 15.5526 17.3575 15.9431L21.7075 20.2931C22.098 20.6837 22.098 21.3168 21.7075 21.7073C21.317 22.0979 20.6838 22.0979 20.2933 21.7073L15.9433 17.3573C15.5528 16.9668 15.5528 16.3337 15.9433 15.9431Z" fill="white"/>
</svg>
