<svg width="16" height="16" viewBox="0 0 16 16" fill="none" xmlns="http://www.w3.org/2000/svg">
<path fill-rule="evenodd" clip-rule="evenodd" d="M7.33334 2.66683C4.75601 2.66683 2.66668 4.75617 2.66668 7.3335C2.66668 9.91083 4.75601 12.0002 7.33334 12.0002C9.91067 12.0002 12 9.91083 12 7.3335C12 4.75617 9.91067 2.66683 7.33334 2.66683ZM1.33334 7.3335C1.33334 4.01979 4.01963 1.3335 7.33334 1.3335C10.6471 1.3335 13.3333 4.01979 13.3333 7.3335C13.3333 10.6472 10.6471 13.3335 7.33334 13.3335C4.01963 13.3335 1.33334 10.6472 1.33334 7.3335Z" fill="#BBBBBC"/>
<path fill-rule="evenodd" clip-rule="evenodd" d="M10.6286 10.6284C10.8889 10.368 11.311 10.368 11.5714 10.6284L14.4714 13.5284C14.7317 13.7887 14.7317 14.2108 14.4714 14.4712C14.211 14.7315 13.7889 14.7315 13.5286 14.4712L10.6286 11.5712C10.3682 11.3108 10.3682 10.8887 10.6286 10.6284Z" fill="#BBBBBC"/>
</svg>
