<svg width="16" height="16" viewBox="0 0 16 16" fill="none" xmlns="http://www.w3.org/2000/svg">
<g clip-path="url(#clip0_7480_13523)">
<path fill-rule="evenodd" clip-rule="evenodd" d="M7.76678 0.70879C7.91749 0.652514 8.08346 0.652629 8.23408 0.709114L13.5674 2.70911C13.8276 2.80669 14 3.05544 14 3.33333V8.00439C13.9966 8.52211 13.9168 9.0365 13.7634 9.53096C13.6542 9.8826 13.2807 10.0792 12.929 9.97003C12.5774 9.86089 12.3808 9.48735 12.49 9.13571C12.6044 8.7671 12.6639 8.38367 12.6667 7.99774V3.79533L7.99951 2.04515L6.12655 2.74454C5.78162 2.87335 5.39759 2.69814 5.26879 2.35322C5.13999 2.00829 5.31519 1.62426 5.66012 1.49546L7.76678 0.70879Z" fill="#BBBBBC"/>
<path fill-rule="evenodd" clip-rule="evenodd" d="M3.7786 2.92207C3.90633 3.2674 3.72992 3.65088 3.3846 3.7786L3.33333 3.79756V8C3.33333 9.70238 4.47884 11.1998 5.77234 12.3316C6.40508 12.8853 7.04097 13.3228 7.52 13.6222C7.70837 13.7399 7.87138 13.8356 7.99899 13.9079C9.21681 13.2219 10.3154 12.3416 11.2509 11.301C11.4971 11.0272 11.9186 11.0047 12.1924 11.2509C12.4662 11.4971 12.4886 11.9186 12.2424 12.1924C11.123 13.4376 9.79203 14.4749 8.31112 15.2563C8.12099 15.3566 7.89414 15.3591 7.70186 15.263L8 14.6667C7.70186 15.263 7.70207 15.2631 7.70186 15.263L7.69948 15.2618L7.69516 15.2596L7.68083 15.2523C7.66878 15.2461 7.6518 15.2373 7.63021 15.226C7.58705 15.2033 7.52542 15.1704 7.44796 15.1275C7.29312 15.0418 7.07452 14.9161 6.81333 14.7528C6.29236 14.4272 5.59492 13.9481 4.89433 13.3351C3.52116 12.1335 2 10.2976 2 8V3.33333C2 3.05434 2.17373 2.80485 2.4354 2.70806L2.92207 2.52806C3.2674 2.40034 3.65088 2.57674 3.7786 2.92207Z" fill="#BBBBBC"/>
<path fill-rule="evenodd" clip-rule="evenodd" d="M0.195262 0.195262C0.455612 -0.0650874 0.877722 -0.0650874 1.13807 0.195262L15.8047 14.8619C16.0651 15.1223 16.0651 15.5444 15.8047 15.8047C15.5444 16.0651 15.1223 16.0651 14.8619 15.8047L0.195262 1.13807C-0.0650874 0.877722 -0.0650874 0.455612 0.195262 0.195262Z" fill="#BBBBBC"/>
</g>
<defs>
<clipPath id="clip0_7480_13523">
<rect width="16" height="16" fill="white"/>
</clipPath>
</defs>
</svg>
