<svg width="24" height="24" viewBox="0 0 24 24" fill="none" xmlns="http://www.w3.org/2000/svg">
<path fill-rule="evenodd" clip-rule="evenodd" d="M20 5C20 4.44772 19.5523 4 19 4L5 4C4.44772 4 4 4.44772 4 5V19C4 19.5523 4.44772 20 5 20H19C19.5523 20 20 19.5523 20 19V5ZM19 2C20.6569 2 22 3.34315 22 5V19C22 20.6569 20.6569 22 19 22H5C3.34315 22 2 20.6569 2 19V5C2 3.34315 3.34315 2 5 2L19 2Z" fill="black"/>
<path fill-rule="evenodd" clip-rule="evenodd" d="M22 9C22 9.55228 21.5523 10 21 10L3 10C2.44772 10 2 9.55228 2 9C2 8.44772 2.44772 8 3 8L21 8C21.5523 8 22 8.44772 22 9Z" fill="black"/>
</svg>
