<svg width="24" height="24" viewBox="0 0 24 24" fill="none" xmlns="http://www.w3.org/2000/svg">
<g clip-path="url(#clip0_0_1788)">
<path fill-rule="evenodd" clip-rule="evenodd" d="M17.9918 0.882805C20.4044 2.18722 21.8873 4.86606 23.0377 8.71236C24.1896 12.5386 24.4093 15.5809 23.0973 17.9939C21.787 20.4037 19.1108 21.8867 15.2883 23.0375C11.4617 24.1895 8.41919 24.4093 6.00604 23.0972C3.59625 21.787 2.11325 19.1108 0.962431 15.2882C-0.189597 11.4617 -0.409408 8.41918 0.902695 6.00603C2.21298 3.59623 4.88916 2.11323 8.7117 0.962417C12.5346 -0.188514 15.5777 -0.422465 17.9918 0.882805ZM17.0406 2.64212C15.3673 1.73739 13.0053 1.75844 9.28826 2.87751C5.57079 3.99669 3.57198 5.28369 2.65976 6.9614C1.74936 8.63575 1.75955 10.9982 2.87752 14.7117C3.99671 18.4291 5.28371 20.428 6.96141 21.3402C8.63576 22.2506 10.9983 22.2404 14.7117 21.1224C18.4292 20.0032 20.428 18.7162 21.3402 17.0385C22.2506 15.3642 22.2404 13.0017 21.1224 9.28824L21.1219 9.2865C20.0024 5.54338 18.7153 3.54758 17.0406 2.64212Z" fill="black"/>
<path fill-rule="evenodd" clip-rule="evenodd" d="M12.2445 5.04447C12.7667 4.86471 13.3358 5.14232 13.5155 5.66453L17.0955 16.0645C17.2753 16.5867 16.9977 17.1558 16.4755 17.3356C15.9532 17.5153 15.3842 17.2377 15.2044 16.7155L11.6244 6.3155C11.4447 5.79329 11.7223 5.22423 12.2445 5.04447Z" fill="black"/>
<path fill-rule="evenodd" clip-rule="evenodd" d="M7.52452 6.66434C8.04673 6.48458 8.61579 6.76219 8.79555 7.28441L12.3756 17.6844C12.5553 18.2066 12.2777 18.7757 11.7555 18.9554C11.2333 19.1352 10.6642 18.8576 10.4845 18.3354L6.90446 7.93538C6.7247 7.41317 7.00231 6.84411 7.52452 6.66434Z" fill="black"/>
<path fill-rule="evenodd" clip-rule="evenodd" d="M17.3356 7.5244C17.5153 8.04661 17.2377 8.61567 16.7155 8.79543L6.3155 12.3754C5.79329 12.5552 5.22423 12.2776 5.04447 11.7554C4.86471 11.2332 5.14232 10.6641 5.66453 10.4843L16.0645 6.90433C16.5867 6.72457 17.1558 7.00218 17.3356 7.5244Z" fill="black"/>
<path fill-rule="evenodd" clip-rule="evenodd" d="M18.9556 12.2446C19.1353 12.7668 18.8577 13.3359 18.3355 13.5156L7.9355 17.0956C7.41329 17.2754 6.84423 16.9978 6.66447 16.4756C6.48471 15.9534 6.76232 15.3843 7.28453 15.2045L17.6845 11.6245C18.2067 11.4448 18.7758 11.7224 18.9556 12.2446Z" fill="black"/>
</g>
<defs>
<clipPath id="clip0_0_1788">
<rect width="24" height="24" fill="white"/>
</clipPath>
</defs>
</svg>
