<svg width="16" height="16" viewBox="0 0 16 16" fill="none" xmlns="http://www.w3.org/2000/svg">
<g clip-path="url(#clip0)">
<path fill-rule="evenodd" clip-rule="evenodd" d="M7.99984 1.99996C4.68613 1.99996 1.99984 4.68625 1.99984 7.99996C1.99984 11.3137 4.68613 14 7.99984 14C11.3135 14 13.9998 11.3137 13.9998 7.99996C13.9998 4.68625 11.3135 1.99996 7.99984 1.99996ZM0.666504 7.99996C0.666504 3.94987 3.94975 0.666626 7.99984 0.666626C12.0499 0.666626 15.3332 3.94987 15.3332 7.99996C15.3332 12.05 12.0499 15.3333 7.99984 15.3333C3.94975 15.3333 0.666504 12.05 0.666504 7.99996Z" fill="#D80808"/>
<path fill-rule="evenodd" clip-rule="evenodd" d="M2.81514 2.81526C3.07548 2.55491 3.49759 2.55491 3.75794 2.81526L13.1846 12.2419C13.445 12.5023 13.445 12.9244 13.1846 13.1847C12.9243 13.4451 12.5021 13.4451 12.2418 13.1847L2.81514 3.75807C2.55479 3.49772 2.55479 3.07561 2.81514 2.81526Z" fill="#D80808"/>
</g>
<defs>
<clipPath id="clip0">
<path d="M-0.000244141 0H15.9998V16H-0.000244141V0Z" fill="white"/>
</clipPath>
</defs>
</svg>
