<svg width="16" height="16" viewBox="0 0 16 16" fill="none" xmlns="http://www.w3.org/2000/svg">
<path fill-rule="evenodd" clip-rule="evenodd" d="M7.99999 2.00008C4.68628 2.00008 1.99999 4.68637 1.99999 8.00008C1.99999 11.3138 4.68628 14.0001 7.99999 14.0001C11.3137 14.0001 14 11.3138 14 8.00008C14 4.68637 11.3137 2.00008 7.99999 2.00008ZM0.666656 8.00008C0.666656 3.94999 3.9499 0.666748 7.99999 0.666748C12.0501 0.666748 15.3333 3.94999 15.3333 8.00008C15.3333 12.0502 12.0501 15.3334 7.99999 15.3334C3.9499 15.3334 0.666656 12.0502 0.666656 8.00008Z" fill="black"/>
<path d="M6.33332 6.83333C6.33332 7.29357 5.96023 7.66667 5.49999 7.66667C5.03975 7.66667 4.66666 7.29357 4.66666 6.83333C4.66666 6.3731 5.03975 6 5.49999 6C5.96023 6 6.33332 6.3731 6.33332 6.83333Z" fill="#111111"/>
<path d="M11 6.83333C11 7.29357 10.6269 7.66667 10.1667 7.66667C9.70644 7.66667 9.33334 7.29357 9.33334 6.83333C9.33334 6.3731 9.70644 6 10.1667 6C10.6269 6 11 6.3731 11 6.83333Z" fill="#111111"/>
<path fill-rule="evenodd" clip-rule="evenodd" d="M11.1181 9.52859C11.4051 9.78897 11.4051 10.2111 11.118 10.4714C10.291 11.2213 9.16942 11.6425 8.00001 11.6425C6.8306 11.6425 5.70906 11.2213 4.88204 10.4714C4.59495 10.2111 4.59488 9.78897 4.88188 9.52859C5.16888 9.2682 5.63427 9.26813 5.92136 9.52844C6.47271 10.0284 7.2204 10.3092 8.00001 10.3092C8.77962 10.3092 9.52731 10.0284 10.0787 9.52844C10.3657 9.26813 10.8311 9.2682 11.1181 9.52859Z" fill="black"/>
</svg>
