<svg width="32" height="32" viewBox="0 0 32 32" fill="none" xmlns="http://www.w3.org/2000/svg">
<path fill-rule="evenodd" clip-rule="evenodd" d="M24.0003 12C24.7367 12 25.3337 12.597 25.3337 13.3333V26.6667C25.3337 27.403 24.7367 28 24.0003 28C23.2639 28 22.667 27.403 22.667 26.6667V13.3333C22.667 12.597 23.2639 12 24.0003 12Z" fill="black"/>
<path fill-rule="evenodd" clip-rule="evenodd" d="M16.0003 4C16.7367 4 17.3337 4.59695 17.3337 5.33333V26.6667C17.3337 27.403 16.7367 28 16.0003 28C15.2639 28 14.667 27.403 14.667 26.6667V5.33333C14.667 4.59695 15.2639 4 16.0003 4Z" fill="black"/>
<path fill-rule="evenodd" clip-rule="evenodd" d="M8.00033 17.3333C8.73671 17.3333 9.33366 17.9302 9.33366 18.6666V26.6666C9.33366 27.403 8.73671 27.9999 8.00033 27.9999C7.26395 27.9999 6.66699 27.403 6.66699 26.6666V18.6666C6.66699 17.9302 7.26395 17.3333 8.00033 17.3333Z" fill="black"/>
</svg>
