<?xml version="1.0" standalone="no"?>
<!DOCTYPE svg PUBLIC "-//W3C//DTD SVG 20010904//EN"
 "http://www.w3.org/TR/2001/REC-SVG-20010904/DTD/svg10.dtd">
<svg version="1.0" xmlns="http://www.w3.org/2000/svg"
 width="40.000000pt" height="34.000000pt" viewBox="0 0 40.000000 34.000000"
 preserveAspectRatio="xMidYMid meet">

<g transform="translate(0.000000,34.000000) scale(0.100000,-0.100000)"
fill="#000000" stroke="none">
<path d="M195 308 c-22 -11 -41 -22 -43 -23 -8 -7 33 -75 45 -75 15 0 93 38
93 45 0 15 -36 75 -44 75 -6 -1 -29 -10 -51 -22z m63 -23 c11 -23 9 -26 -25
-40 -41 -17 -38 -18 -47 12 -6 17 -1 25 21 37 37 20 38 20 51 -9z"/>
<path d="M58 287 c-16 -6 -28 -14 -28 -19 0 -11 17 -10 40 2 18 9 25 0 70 -90
44 -87 49 -103 38 -120 -29 -46 37 -81 67 -36 9 13 34 31 56 40 21 9 39 20 39
26 0 14 -5 13 -50 -10 -56 -29 -71 -16 -136 113 -30 59 -58 107 -62 106 -4 -1
-19 -6 -34 -12z m168 -238 c10 -17 -13 -36 -27 -22 -12 12 -4 33 11 33 5 0 12
-5 16 -11z"/>
<path d="M247 204 l-47 -24 20 -40 20 -40 38 16 c20 9 43 18 50 21 6 3 12 9
12 14 0 13 -33 79 -39 79 -3 -1 -27 -12 -54 -26z m63 -24 c9 -17 6 -22 -25
-37 -31 -15 -37 -15 -45 -3 -15 24 -12 36 13 48 33 16 45 14 57 -8z"/>
</g>
</svg>
