<svg width="16" height="16" viewBox="0 0 16 16" fill="none" xmlns="http://www.w3.org/2000/svg">
<path fill-rule="evenodd" clip-rule="evenodd" d="M6.72396 1.06266C6.83096 0.821904 7.06971 0.666748 7.33317 0.666748C8.04041 0.666748 8.71869 0.9477 9.21879 1.4478C9.71889 1.94789 9.99984 2.62617 9.99984 3.33341V5.33341H13.1031C13.3916 5.33074 13.6773 5.39053 13.9405 5.50867C14.205 5.62739 14.4406 5.80219 14.6308 6.02097C14.8211 6.23975 14.9615 6.49728 15.0423 6.77571C15.1231 7.05414 15.1425 7.34681 15.099 7.63346L14.179 13.6334C14.1789 13.6335 14.179 13.6332 14.179 13.6334C14.1065 14.1101 13.8643 14.5451 13.4969 14.8574C13.1304 15.1689 12.6639 15.3379 12.183 15.3334H2.6665C2.13607 15.3334 1.62736 15.1227 1.25229 14.7476C0.877218 14.3726 0.666504 13.8638 0.666504 13.3334V8.66675C0.666504 8.13631 0.877218 7.62761 1.25229 7.25253C1.62736 6.87746 2.13607 6.66675 2.6665 6.66675H4.23325L6.72396 1.06266ZM5.33317 7.47489L7.73839 2.06315C7.93931 2.12725 8.12408 2.23871 8.27598 2.39061C8.52603 2.64065 8.6665 2.97979 8.6665 3.33341V6.00008C8.6665 6.36827 8.96498 6.66675 9.33317 6.66675H13.1065L13.1141 6.66671C13.2107 6.66561 13.3064 6.68554 13.3946 6.72511C13.4827 6.76468 13.5613 6.82295 13.6247 6.89588C13.6881 6.9688 13.7349 7.05465 13.7618 7.14746C13.7888 7.24018 13.7952 7.33764 13.7808 7.43311C13.7808 7.43302 13.7807 7.4332 13.7808 7.43311L12.8607 13.4335C12.8366 13.5924 12.7559 13.7373 12.6333 13.8415C12.5108 13.9456 12.3548 14.0019 12.194 14.0001L5.33317 14.0001V7.47489ZM3.99984 14.0001V8.00008H2.6665C2.48969 8.00008 2.32012 8.07032 2.1951 8.19534C2.07007 8.32037 1.99984 8.48994 1.99984 8.66675V13.3334C1.99984 13.5102 2.07007 13.6798 2.1951 13.8048C2.32012 13.9298 2.48969 14.0001 2.6665 14.0001H3.99984Z" fill="#996699"/>
</svg>
