<svg width="16" height="16" viewBox="0 0 16 16" fill="none" xmlns="http://www.w3.org/2000/svg">
<path fill-rule="evenodd" clip-rule="evenodd" d="M6.72445 1.06258C6.83145 0.821827 7.0702 0.666672 7.33366 0.666672C8.0409 0.666672 8.71918 0.947623 9.21928 1.44772C9.71937 1.94782 10.0003 2.62609 10.0003 3.33334V5.33334H13.1036C13.3921 5.33067 13.6778 5.39045 13.941 5.5086C14.2055 5.62731 14.4411 5.80212 14.6313 6.0209C14.8215 6.23968 14.9619 6.4972 15.0428 6.77563C15.1236 7.05406 15.143 7.34674 15.0994 7.63338L14.1795 13.6333C14.1794 13.6335 14.1795 13.6331 14.1795 13.6333C14.107 14.11 13.8648 14.545 13.4974 14.8573C13.1309 15.1688 12.6644 15.3378 12.1835 15.3333H2.66699C2.13656 15.3333 1.62785 15.1226 1.25278 14.7476C0.877706 14.3725 0.666992 13.8638 0.666992 13.3333V8.66667C0.666992 8.13624 0.877706 7.62753 1.25278 7.25246C1.62785 6.87739 2.13656 6.66667 2.66699 6.66667H4.23374L6.72445 1.06258ZM5.33366 7.47481L7.73888 2.06307C7.9398 2.12717 8.12457 2.23863 8.27647 2.39053C8.52652 2.64058 8.66699 2.97972 8.66699 3.33334V6C8.66699 6.36819 8.96547 6.66667 9.33366 6.66667H13.107L13.1145 6.66663C13.2112 6.66553 13.3069 6.68546 13.3951 6.72503C13.4832 6.76461 13.5617 6.82287 13.6252 6.8958C13.6886 6.96873 13.7354 7.05457 13.7623 7.14738C13.7892 7.2401 13.7957 7.33757 13.7812 7.43303C13.7813 7.43294 13.7812 7.43312 13.7812 7.43303L12.8612 13.4334C12.8371 13.5923 12.7563 13.7372 12.6338 13.8414C12.5113 13.9455 12.3553 14.0019 12.1945 14L5.33366 14V7.47481ZM4.00033 14V8H2.66699C2.49018 8 2.32061 8.07024 2.19559 8.19527C2.07056 8.32029 2.00033 8.48986 2.00033 8.66667V13.3333C2.00033 13.5101 2.07056 13.6797 2.19559 13.8047C2.32061 13.9298 2.49018 14 2.66699 14H4.00033Z" fill="#996699"/>
</svg>
