<svg width="16" height="16" viewBox="0 0 16 16" fill="none" xmlns="http://www.w3.org/2000/svg">
<path fill-rule="evenodd" clip-rule="evenodd" d="M13.7091 2.21037C13.5467 2.07098 13.3388 1.99607 13.1248 1.99985L13.113 1.99996H11.9997V7.99996H13.113L13.1248 8.00006C13.3388 8.00384 13.5467 7.92893 13.7091 7.78955C13.8617 7.65855 13.9641 7.47919 13.9997 7.28205V2.71787C13.9641 2.52072 13.8617 2.34136 13.7091 2.21037ZM10.6664 8.52515L8.26114 13.9369C8.06022 13.8728 7.87545 13.7613 7.72355 13.6094C7.4735 13.3594 7.33303 13.0202 7.33303 12.6666V9.99996C7.33303 9.63177 7.03455 9.33329 6.66636 9.33329H2.89303L2.88548 9.33333C2.78884 9.33443 2.69312 9.3145 2.60495 9.27493C2.51679 9.23535 2.43827 9.17709 2.37486 9.10416C2.31145 9.03123 2.26464 8.94539 2.2377 8.85258C2.21079 8.75989 2.20433 8.66247 2.21875 8.56705C2.21874 8.56717 2.21877 8.56692 2.21875 8.56705L3.13883 2.56658C3.16293 2.40761 3.24368 2.26271 3.36619 2.15858C3.4887 2.05445 3.64472 1.9981 3.80549 1.99991L10.6664 1.99996V8.52515ZM13.1077 0.666623C13.646 0.658667 14.1688 0.847841 14.5775 1.19864C14.9878 1.55083 15.2545 2.04141 15.327 2.57726C15.331 2.60688 15.333 2.63673 15.333 2.66662V7.33329C15.333 7.36318 15.331 7.39303 15.327 7.42265C15.2545 7.9585 14.9878 8.44908 14.5775 8.80127C14.1688 9.15207 13.646 9.34124 13.1077 9.33329H11.7663L9.27557 14.9374C9.16857 15.1781 8.92982 15.3333 8.66636 15.3333C7.95912 15.3333 7.28084 15.0523 6.78074 14.5522C6.28065 14.0521 5.99969 13.3739 5.99969 12.6666V10.6666H2.89644C2.60794 10.6693 2.32225 10.6095 2.05901 10.4914C1.7945 10.3726 1.55896 10.1978 1.36872 9.97907C1.17847 9.76029 1.03807 9.50276 0.957238 9.22433C0.876403 8.9459 0.85707 8.65322 0.900577 8.36658L1.82056 2.36667C1.82059 2.36646 1.82053 2.36687 1.82056 2.36667C1.893 1.89 2.13529 1.45493 2.50266 1.14266C2.86913 0.831156 3.33555 0.662183 3.81642 0.666623H13.1077Z" fill="#BBBBBC"/>
</svg>
