<svg width="24" height="24" viewBox="0 0 24 24" fill="none" xmlns="http://www.w3.org/2000/svg">
<path fill-rule="evenodd" clip-rule="evenodd" d="M20.5641 3.31573C20.3205 3.10665 20.0086 2.99428 19.6877 2.99996L19.67 3.00012H18V12.0001H19.67L19.6877 12.0003C20.0086 12.0059 20.3205 11.8936 20.5641 11.6845C20.793 11.488 20.9466 11.219 21 10.9233V4.07698C20.9466 3.78126 20.793 3.51222 20.5641 3.31573ZM16 12.7879L12.3922 20.9055C12.0908 20.8094 11.8136 20.6422 11.5858 20.4143C11.2107 20.0393 11 19.5306 11 19.0001V15.0001C11 14.4478 10.5523 14.0001 10 14.0001H4.34L4.32868 14.0002C4.18372 14.0018 4.04014 13.9719 3.90789 13.9126C3.77564 13.8532 3.65787 13.7658 3.56275 13.6564C3.46763 13.547 3.39742 13.4183 3.35701 13.2791C3.31664 13.14 3.30695 12.9939 3.32859 12.8508C3.32856 12.8509 3.32862 12.8506 3.32859 12.8508L4.7087 3.85005C4.74486 3.6116 4.86598 3.39425 5.04974 3.23805C5.23351 3.08185 5.46753 2.99733 5.7087 3.00005L16 3.00012V12.7879ZM19.6619 1.00012C20.4695 0.988184 21.2537 1.27194 21.8667 1.79814C22.4822 2.32643 22.8823 3.0623 22.991 3.86607C22.997 3.9105 23 3.95528 23 4.00012V11.0001C23 11.045 22.997 11.0897 22.991 11.1342C22.8823 11.9379 22.4822 12.6738 21.8667 13.2021C21.2537 13.7283 20.4695 14.012 19.662 14.0001H17.6499L13.9138 22.4063C13.7533 22.7674 13.3952 23.0001 13 23.0001C11.9391 23.0001 10.9217 22.5787 10.1716 21.8285C9.42143 21.0784 9 20.061 9 19.0001V16.0001H4.34511C3.91236 16.0041 3.48384 15.9144 3.08897 15.7372C2.6922 15.5592 2.3389 15.297 2.05354 14.9688C1.76817 14.6406 1.55757 14.2543 1.43631 13.8367C1.31506 13.419 1.28606 12.98 1.35132 12.5501L2.7313 3.55018C2.73135 3.54988 2.73126 3.55048 2.7313 3.55018C2.83996 2.83518 3.20339 2.18257 3.75445 1.71417C4.30416 1.24692 5.00379 0.993458 5.72508 1.00012H19.6619Z" fill="black"/>
</svg>
