<svg width="16" height="16" viewBox="0 0 16 16" fill="none" xmlns="http://www.w3.org/2000/svg">
<path fill-rule="evenodd" clip-rule="evenodd" d="M1.3335 3.99992C1.3335 3.63173 1.63197 3.33325 2.00016 3.33325H14.0002C14.3684 3.33325 14.6668 3.63173 14.6668 3.99992C14.6668 4.36811 14.3684 4.66659 14.0002 4.66659H2.00016C1.63197 4.66659 1.3335 4.36811 1.3335 3.99992Z" fill="#BBBBBC"/>
<path fill-rule="evenodd" clip-rule="evenodd" d="M6.6665 2.00008C6.48969 2.00008 6.32012 2.07032 6.1951 2.19534C6.07007 2.32037 5.99984 2.48994 5.99984 2.66675V3.33341H9.99984V2.66675C9.99984 2.48994 9.9296 2.32037 9.80457 2.19534C9.67955 2.07032 9.50998 2.00008 9.33317 2.00008H6.6665ZM11.3332 3.33341V2.66675C11.3332 2.13631 11.1225 1.62761 10.7474 1.25253C10.3723 0.877462 9.8636 0.666748 9.33317 0.666748H6.6665C6.13607 0.666748 5.62736 0.877462 5.25229 1.25253C4.87722 1.62761 4.6665 2.13631 4.6665 2.66675V3.33341H3.33317C2.96498 3.33341 2.6665 3.63189 2.6665 4.00008V13.3334C2.6665 13.8638 2.87722 14.3726 3.25229 14.7476C3.62736 15.1227 4.13607 15.3334 4.6665 15.3334H11.3332C11.8636 15.3334 12.3723 15.1227 12.7474 14.7476C13.1225 14.3726 13.3332 13.8638 13.3332 13.3334V4.00008C13.3332 3.63189 13.0347 3.33341 12.6665 3.33341H11.3332ZM3.99984 4.66675V13.3334C3.99984 13.5102 4.07007 13.6798 4.1951 13.8048C4.32012 13.9298 4.48969 14.0001 4.6665 14.0001H11.3332C11.51 14.0001 11.6795 13.9298 11.8046 13.8048C11.9296 13.6798 11.9998 13.5102 11.9998 13.3334V4.66675H3.99984Z" fill="#BBBBBC"/>
</svg>
