<svg width="16" height="16" viewBox="0 0 16 16" fill="none" xmlns="http://www.w3.org/2000/svg">
<path fill-rule="evenodd" clip-rule="evenodd" d="M1.33334 4.00016C1.33334 3.63197 1.63182 3.3335 2.00001 3.3335H14C14.3682 3.3335 14.6667 3.63197 14.6667 4.00016C14.6667 4.36835 14.3682 4.66683 14 4.66683H2.00001C1.63182 4.66683 1.33334 4.36835 1.33334 4.00016Z" fill="black"/>
<path fill-rule="evenodd" clip-rule="evenodd" d="M6.66666 1.99984C6.48985 1.99984 6.32028 2.07007 6.19525 2.1951C6.07023 2.32012 5.99999 2.48969 5.99999 2.6665V3.33317H9.99999V2.6665C9.99999 2.48969 9.92975 2.32012 9.80473 2.1951C9.6797 2.07007 9.51013 1.99984 9.33332 1.99984H6.66666ZM11.3333 3.33317V2.6665C11.3333 2.13607 11.1226 1.62736 10.7475 1.25229C10.3725 0.877218 9.86376 0.666504 9.33332 0.666504H6.66666C6.13622 0.666504 5.62752 0.877218 5.25244 1.25229C4.87737 1.62736 4.66666 2.13607 4.66666 2.6665V3.33317H3.33332C2.96513 3.33317 2.66666 3.63165 2.66666 3.99984V13.3332C2.66666 13.8636 2.87737 14.3723 3.25244 14.7474C3.62752 15.1225 4.13622 15.3332 4.66666 15.3332H11.3333C11.8638 15.3332 12.3725 15.1225 12.7475 14.7474C13.1226 14.3723 13.3333 13.8636 13.3333 13.3332V3.99984C13.3333 3.63165 13.0348 3.33317 12.6667 3.33317H11.3333ZM3.99999 4.6665V13.3332C3.99999 13.51 4.07023 13.6795 4.19525 13.8046C4.32028 13.9296 4.48985 13.9998 4.66666 13.9998H11.3333C11.5101 13.9998 11.6797 13.9296 11.8047 13.8046C11.9298 13.6795 12 13.51 12 13.3332V4.6665H3.99999Z" fill="black"/>
</svg>
