<svg width="32" height="32" viewBox="0 0 32 32" fill="none" xmlns="http://www.w3.org/2000/svg">
<path fill-rule="evenodd" clip-rule="evenodd" d="M0 4.00008C0 3.2637 0.596954 2.66675 1.33333 2.66675H21.3333C22.0697 2.66675 22.6667 3.2637 22.6667 4.00008V21.3334C22.6667 22.0698 22.0697 22.6667 21.3333 22.6667H1.33333C0.596954 22.6667 0 22.0698 0 21.3334V4.00008ZM2.66667 5.33341V20.0001H20V5.33341H2.66667Z" fill="black"/>
<path fill-rule="evenodd" clip-rule="evenodd" d="M20 10.6667C20 9.93037 20.597 9.33342 21.3333 9.33342H26.6667C27.0203 9.33342 27.3594 9.47389 27.6095 9.72394L31.6095 13.7239C31.8595 13.974 32 14.3131 32 14.6667V21.3334C32 22.0698 31.403 22.6667 30.6667 22.6667H21.3333C20.597 22.6667 20 22.0698 20 21.3334V10.6667ZM22.6667 12.0001V20.0001H29.3333V15.219L26.1144 12.0001H22.6667Z" fill="black"/>
<path fill-rule="evenodd" clip-rule="evenodd" d="M7.33333 22.6667C6.22876 22.6667 5.33333 23.5622 5.33333 24.6667C5.33333 25.7713 6.22876 26.6667 7.33333 26.6667C8.4379 26.6667 9.33333 25.7713 9.33333 24.6667C9.33333 23.5622 8.4379 22.6667 7.33333 22.6667ZM2.66667 24.6667C2.66667 22.0894 4.756 20.0001 7.33333 20.0001C9.91066 20.0001 12 22.0894 12 24.6667C12 27.2441 9.91066 29.3334 7.33333 29.3334C4.756 29.3334 2.66667 27.2441 2.66667 24.6667Z" fill="black"/>
<path fill-rule="evenodd" clip-rule="evenodd" d="M24.6667 22.6667C23.5621 22.6667 22.6667 23.5622 22.6667 24.6667C22.6667 25.7713 23.5621 26.6667 24.6667 26.6667C25.7712 26.6667 26.6667 25.7713 26.6667 24.6667C26.6667 23.5622 25.7712 22.6667 24.6667 22.6667ZM20 24.6667C20 22.0894 22.0893 20.0001 24.6667 20.0001C27.244 20.0001 29.3333 22.0894 29.3333 24.6667C29.3333 27.2441 27.244 29.3334 24.6667 29.3334C22.0893 29.3334 20 27.2441 20 24.6667Z" fill="black"/>
</svg>
