<svg width="16" height="16" viewBox="0 0 16 16" fill="none" xmlns="http://www.w3.org/2000/svg">
<path fill-rule="evenodd" clip-rule="evenodd" d="M0 2.00016C0 1.63197 0.298477 1.3335 0.666667 1.3335H10.6667C11.0349 1.3335 11.3333 1.63197 11.3333 2.00016V10.6668C11.3333 11.035 11.0349 11.3335 10.6667 11.3335H0.666667C0.298477 11.3335 0 11.035 0 10.6668V2.00016ZM1.33333 2.66683V10.0002H10V2.66683H1.33333Z" fill="#BBBBBC"/>
<path fill-rule="evenodd" clip-rule="evenodd" d="M10 5.3335C10 4.96531 10.2985 4.66683 10.6667 4.66683H13.3333C13.5101 4.66683 13.6797 4.73707 13.8047 4.86209L15.8047 6.86209C15.9298 6.98712 16 7.15669 16 7.3335V10.6668C16 11.035 15.7015 11.3335 15.3333 11.3335H10.6667C10.2985 11.3335 10 11.035 10 10.6668V5.3335ZM11.3333 6.00016V10.0002H14.6667V7.60964L13.0572 6.00016H11.3333Z" fill="#BBBBBC"/>
<path fill-rule="evenodd" clip-rule="evenodd" d="M3.66667 11.3335C3.11438 11.3335 2.66667 11.7812 2.66667 12.3335C2.66667 12.8858 3.11438 13.3335 3.66667 13.3335C4.21895 13.3335 4.66667 12.8858 4.66667 12.3335C4.66667 11.7812 4.21895 11.3335 3.66667 11.3335ZM1.33333 12.3335C1.33333 11.0448 2.378 10.0002 3.66667 10.0002C4.95533 10.0002 6 11.0448 6 12.3335C6 13.6222 4.95533 14.6668 3.66667 14.6668C2.378 14.6668 1.33333 13.6222 1.33333 12.3335Z" fill="#BBBBBC"/>
<path fill-rule="evenodd" clip-rule="evenodd" d="M12.3333 11.3335C11.781 11.3335 11.3333 11.7812 11.3333 12.3335C11.3333 12.8858 11.781 13.3335 12.3333 13.3335C12.8856 13.3335 13.3333 12.8858 13.3333 12.3335C13.3333 11.7812 12.8856 11.3335 12.3333 11.3335ZM10 12.3335C10 11.0448 11.0447 10.0002 12.3333 10.0002C13.622 10.0002 14.6667 11.0448 14.6667 12.3335C14.6667 13.6222 13.622 14.6668 12.3333 14.6668C11.0447 14.6668 10 13.6222 10 12.3335Z" fill="#BBBBBC"/>
</svg>
