<svg width="24" height="24" viewBox="0 0 24 24" fill="none" xmlns="http://www.w3.org/2000/svg">
<g clip-path="url(#clip0_0_1824)">
<path d="M8.30001 21.9C5.70001 21.9 3.00001 21.1999 0.600007 19.7999C0.200007 19.5999 7.32392e-06 19.1 0.100007 18.7C0.200007 18.3 0.600007 18 1.00001 18C2.70001 18.1 4.40001 17.7 5.90001 17C2.20001 14.7 1.20001 11.5 1.10001 8.99995C1.00001 6.09995 2.00001 3.69995 2.10001 3.59995C2.20001 3.29995 2.50001 2.99995 2.90001 2.99995C3.30001 2.99995 3.60001 3.09995 3.80001 3.39995C5.50001 5.79995 8.10001 7.29995 11 7.49995C11 5.89995 11.7 4.39995 12.9 3.29995C15 1.49995 18.1 1.49995 20.2 3.29995C21 2.99995 21.8 2.59995 22.5 2.09995C22.8 1.89995 23.3 1.89995 23.6 2.09995C23.9 2.29995 24.1 2.79995 24 3.19995C23.7 4.59995 23 5.89995 22 6.99995C22 7.19995 22 7.29995 22 7.49995C22 13 19.6 17.6 15.3 20C13.2 21.2999 10.8 21.9 8.30001 21.9ZM5.00001 19.5C8.30001 20.2999 11.6 19.9 14.4 18.2999C18 16.1999 20.1 12.2 20.1 7.49995C20.1 7.29995 20.1 7.09995 20 6.89995C19.9 6.59995 20 6.19995 20.3 5.99995C20.5 5.79995 20.7 5.49995 20.9 5.29995C20.7 5.39995 20.4 5.49995 20.2 5.49995C19.8 5.59995 19.4 5.49995 19.2 5.19995C17.9 3.79995 15.7 3.59995 14.3 4.89995C13.4 5.49995 13 6.49995 13 7.49995V8.49995C13 8.99995 12.6 9.49995 12 9.49995C8.70001 9.59995 5.60001 8.29995 3.40001 5.99995C2.80001 8.59995 2.60001 13.5 8.40001 16C8.70001 16.2 9.00001 16.5 9.00001 16.9C9.00001 17.3 8.90001 17.6 8.60001 17.8C7.40001 18.6 6.20001 19.2 5.00001 19.5Z" fill="black"/>
</g>
<defs>
<clipPath id="clip0_0_1824">
<rect width="24" height="24" fill="white"/>
</clipPath>
</defs>
</svg>
