<svg width="129" height="129" viewBox="0 0 129 129" fill="none" xmlns="http://www.w3.org/2000/svg">
<path fill-rule="evenodd" clip-rule="evenodd" d="M23.9965 83.1215C29.0365 78.0815 35.8723 75.25 43 75.25H86C93.1277 75.25 99.9635 78.0815 105.003 83.1215C110.044 88.1615 112.875 94.9973 112.875 102.125V112.875C112.875 115.844 110.469 118.25 107.5 118.25C104.531 118.25 102.125 115.844 102.125 112.875V102.125C102.125 97.8484 100.426 93.7469 97.4021 90.7229C94.3781 87.6989 90.2766 86 86 86H43C38.7234 86 34.6219 87.6989 31.5979 90.7229C28.5739 93.7469 26.875 97.8484 26.875 102.125V112.875C26.875 115.844 24.4685 118.25 21.5 118.25C18.5315 118.25 16.125 115.844 16.125 112.875V102.125C16.125 94.9973 18.9565 88.1615 23.9965 83.1215Z" fill="#F6F6F6"/>
<path fill-rule="evenodd" clip-rule="evenodd" d="M64.5 21.5C55.5944 21.5 48.375 28.7194 48.375 37.625C48.375 46.5306 55.5944 53.75 64.5 53.75C73.4056 53.75 80.625 46.5306 80.625 37.625C80.625 28.7194 73.4056 21.5 64.5 21.5ZM37.625 37.625C37.625 22.7823 49.6573 10.75 64.5 10.75C79.3427 10.75 91.375 22.7823 91.375 37.625C91.375 52.4677 79.3427 64.5 64.5 64.5C49.6573 64.5 37.625 52.4677 37.625 37.625Z" fill="#F6F6F6"/>
</svg>
