<svg width="129" height="129" viewBox="0 0 129 129" fill="none" xmlns="http://www.w3.org/2000/svg">
<path fill-rule="evenodd" clip-rule="evenodd" d="M7.87151 83.1215C12.9115 78.0815 19.7473 75.25 26.875 75.25H64.5C71.6277 75.25 78.4635 78.0815 83.5035 83.1215C88.5435 88.1616 91.375 94.9973 91.375 102.125V112.875C91.375 115.844 88.9685 118.25 86 118.25C83.0315 118.25 80.625 115.844 80.625 112.875V102.125C80.625 97.8484 78.9261 93.7469 75.9021 90.7229C72.8781 87.6989 68.7766 86 64.5 86H26.875C22.5984 86 18.4969 87.6989 15.4729 90.7229C12.4489 93.7469 10.75 97.8484 10.75 102.125V112.875C10.75 115.844 8.34353 118.25 5.375 118.25C2.40647 118.25 0 115.844 0 112.875V102.125C0 94.9973 2.83147 88.1616 7.87151 83.1215Z" fill="#F7F7F7"/>
<path fill-rule="evenodd" clip-rule="evenodd" d="M45.6875 21.5C36.7819 21.5 29.5625 28.7194 29.5625 37.625C29.5625 46.5306 36.7819 53.75 45.6875 53.75C54.5931 53.75 61.8125 46.5306 61.8125 37.625C61.8125 28.7194 54.5931 21.5 45.6875 21.5ZM18.8125 37.625C18.8125 22.7823 30.8448 10.75 45.6875 10.75C60.5302 10.75 72.5625 22.7823 72.5625 37.625C72.5625 52.4677 60.5302 64.5 45.6875 64.5C30.8448 64.5 18.8125 52.4677 18.8125 37.625Z" fill="#F7F7F7"/>
<path fill-rule="evenodd" clip-rule="evenodd" d="M127.426 44.5743C129.525 46.6734 129.525 50.0766 127.426 52.1757L105.926 73.6757C103.827 75.7748 100.423 75.7748 98.3243 73.6757L87.5743 62.9257C85.4752 60.8266 85.4752 57.4234 87.5743 55.3243C89.6734 53.2252 93.0766 53.2252 95.1757 55.3243L102.125 62.2736L119.824 44.5743C121.923 42.4752 125.327 42.4752 127.426 44.5743Z" fill="#F7F7F7"/>
</svg>
