<svg width="129" height="129" viewBox="0 0 129 129" fill="none" xmlns="http://www.w3.org/2000/svg">
<path fill-rule="evenodd" clip-rule="evenodd" d="M62.1132 12.604C62.1116 12.6048 62.11 12.6056 62.1084 12.6064L19.1203 34.1005L19.1084 34.1064C18.2129 34.5514 17.4593 35.2374 16.9323 36.0872C16.4054 36.9368 16.126 37.9164 16.1253 38.916C16.1253 38.9157 16.1253 38.9164 16.1253 38.916V90.1216C16.1183 91.1233 16.3913 92.1071 16.9136 92.9618C17.4351 93.8152 18.1843 94.5061 19.077 94.9569C19.0755 94.9562 19.0784 94.9576 19.077 94.9569L62.0665 116.452C62.8133 116.825 63.6384 117.021 64.4734 117.021C65.3084 117.021 66.1319 116.826 66.8787 116.452L109.88 94.9517L109.892 94.9457C110.788 94.5007 111.541 93.8148 112.068 92.9649C112.595 92.1151 112.875 91.1351 112.875 90.1351V38.9171C112.875 37.9171 112.595 36.9371 112.068 36.0872C111.541 35.2374 110.788 34.5514 109.892 34.1064L109.88 34.1005L66.8921 12.6064C66.8905 12.6056 66.8889 12.6048 66.8873 12.604C66.1453 12.2363 65.3284 12.0449 64.5003 12.0449C63.6721 12.0449 62.8552 12.2363 62.1132 12.604ZM69.284 7.79297L71.6759 2.97949C69.4462 1.87151 66.9901 1.29492 64.5003 1.29492C62.0104 1.29492 59.5544 1.87151 57.3246 2.97949L57.3127 2.98542L14.3246 24.4795C14.3224 24.4806 14.3202 24.4817 14.318 24.4828C11.6344 25.8178 9.37595 27.8745 7.79626 30.4219C6.21528 32.9714 5.37685 35.9114 5.37526 38.9114L5.37526 90.0674C5.35822 93.0654 6.17734 96.009 7.74083 98.5674C9.30789 101.132 11.5604 103.207 14.2441 104.559L14.259 104.567L57.2575 126.066C59.4977 127.187 61.9683 127.771 64.4734 127.771C66.9779 127.771 69.448 127.187 71.6878 126.067C71.6883 126.067 71.6873 126.067 71.6878 126.067L114.676 104.573C114.678 104.572 114.679 104.571 114.681 104.57C117.365 103.235 119.624 101.178 121.204 98.6303C122.785 96.0808 123.624 93.1407 123.625 90.1408V38.9142C123.624 35.9143 122.785 32.9714 121.204 30.4219C119.625 27.8746 117.366 25.818 114.683 24.4829C114.68 24.4818 114.678 24.4806 114.676 24.4795L71.6878 2.98542L69.284 7.79297Z" fill="#F7F7F7"/>
<path fill-rule="evenodd" clip-rule="evenodd" d="M7.66271 30.7054C8.99028 28.0503 12.2189 26.9741 14.874 28.3017L64.5003 53.1148L114.126 28.3017C116.782 26.9741 120.01 28.0503 121.338 30.7054C122.665 33.3606 121.589 36.5892 118.934 37.9168L66.904 63.9318C65.3908 64.6884 63.6097 64.6884 62.0965 63.9318L10.0665 37.9168C7.41135 36.5892 6.33515 33.3606 7.66271 30.7054Z" fill="#F7F7F7"/>
<path fill-rule="evenodd" clip-rule="evenodd" d="M64.5003 53.7492C67.4688 53.7492 69.8753 56.1557 69.8753 59.1242V122.334C69.8753 125.303 67.4688 127.709 64.5003 127.709C61.5317 127.709 59.1253 125.303 59.1253 122.334V59.1242C59.1253 56.1557 61.5317 53.7492 64.5003 53.7492Z" fill="#F7F7F7"/>
<path fill-rule="evenodd" clip-rule="evenodd" d="M32.8177 16.4079C34.1453 13.7528 37.3739 12.6766 40.029 14.0042L93.779 40.8792C96.4342 42.2067 97.5104 45.4354 96.1828 48.0905C94.8552 50.7456 91.6266 51.8218 88.9715 50.4943L35.2215 23.6193C32.5664 22.2917 31.4901 19.0631 32.8177 16.4079Z" fill="#F7F7F7"/>
</svg>
