<svg width="129" height="129" viewBox="0 0 129 129" fill="none" xmlns="http://www.w3.org/2000/svg">
<path d="M112.875 37.6243H43C39.775 37.6243 37.625 35.4743 37.625 32.2493C37.625 29.0243 39.775 26.8743 43 26.8743H112.875C116.1 26.8743 118.25 29.0243 118.25 32.2493C118.25 35.4743 116.1 37.6243 112.875 37.6243Z" fill="#F7F7F7"/>
<path d="M112.875 69.8743H43C39.775 69.8743 37.625 67.7243 37.625 64.4993C37.625 61.2743 39.775 59.1243 43 59.1243H112.875C116.1 59.1243 118.25 61.2743 118.25 64.4993C118.25 67.7243 116.1 69.8743 112.875 69.8743Z" fill="#F7F7F7"/>
<path d="M112.875 102.124H43C39.775 102.124 37.625 99.9743 37.625 96.7493C37.625 93.5243 39.775 91.3743 43 91.3743H112.875C116.1 91.3743 118.25 93.5243 118.25 96.7493C118.25 99.9743 116.1 102.124 112.875 102.124Z" fill="#F7F7F7"/>
<path d="M16.125 37.6243C15.5875 37.6243 15.5875 37.6243 15.05 37.6243C14.5125 37.6243 14.5125 37.6243 13.975 37.0868C13.4375 37.0868 13.4375 36.5493 12.9 36.5493C12.3625 36.5493 12.3625 36.0118 12.3625 36.0118C11.825 35.4743 11.2875 34.9368 11.2875 34.3993C10.75 33.8618 10.75 32.7868 10.75 32.2493C10.75 31.7118 10.75 30.6368 11.2875 30.0993C11.825 29.5618 11.825 29.0243 12.3625 28.4868C13.975 26.8743 16.125 26.3368 18.275 27.4118C18.8125 27.9493 19.35 27.9493 19.8875 28.4868C20.9625 29.5618 21.5 30.6368 21.5 32.2493C21.5 33.8618 20.9625 34.9368 19.8875 36.0118C18.8125 37.0868 17.7375 37.6243 16.125 37.6243Z" fill="#F7F7F7"/>
<path d="M16.125 69.8743C14.5125 69.8743 13.4375 69.3368 12.3625 68.2618C11.2875 67.1868 10.75 66.1118 10.75 64.4993C10.75 63.9618 10.75 63.9618 10.75 63.4243C10.75 62.8868 10.75 62.8868 11.2875 62.3493C11.2875 61.8118 11.825 61.8118 11.825 61.2743C11.825 60.7368 12.3625 60.7368 12.3625 60.7368C12.9 60.1993 13.4375 59.6618 13.975 59.6618C16.125 58.5868 18.275 59.1243 19.8875 60.7368L20.425 61.2743C20.425 61.8118 20.9625 61.8118 20.9625 62.3493C20.9625 62.8868 20.9625 62.8868 21.5 63.4243C21.5 63.9618 21.5 63.9618 21.5 64.4993C21.5 66.1118 20.9625 67.1868 19.8875 68.2618C18.8125 69.3368 17.7375 69.8743 16.125 69.8743Z" fill="#F7F7F7"/>
<path d="M16.125 102.124C14.5125 102.124 13.4375 101.587 12.3625 100.512C11.2875 99.4368 10.75 98.3618 10.75 96.7493C10.75 96.2118 10.75 95.1368 11.2875 94.5993C11.825 94.0618 11.825 93.5243 12.3625 92.9868C14.5125 90.8368 17.7375 90.8368 19.8875 92.9868C20.9625 94.0618 21.5 95.1368 21.5 96.7493C21.5 98.3618 20.9625 99.4368 19.8875 100.512C18.8125 101.587 17.7375 102.124 16.125 102.124Z" fill="#F7F7F7"/>
</svg>
