<svg width="129" height="129" viewBox="0 0 129 129" fill="none" xmlns="http://www.w3.org/2000/svg">
<path fill-rule="evenodd" clip-rule="evenodd" d="M26.875 21.5C23.9065 21.5 21.5 23.9065 21.5 26.875V102.125C21.5 105.094 23.9065 107.5 26.875 107.5H102.125C105.094 107.5 107.5 105.094 107.5 102.125V26.875C107.5 23.9065 105.094 21.5 102.125 21.5H26.875ZM10.75 26.875C10.75 17.9694 17.9694 10.75 26.875 10.75H102.125C111.031 10.75 118.25 17.9694 118.25 26.875V102.125C118.25 111.031 111.031 118.25 102.125 118.25H26.875C17.9694 118.25 10.75 111.031 10.75 102.125V26.875Z" fill="#F7F7F7"/>
<path fill-rule="evenodd" clip-rule="evenodd" d="M45.6875 43C44.2032 43 43 44.2032 43 45.6875C43 47.1718 44.2032 48.375 45.6875 48.375C47.1718 48.375 48.375 47.1718 48.375 45.6875C48.375 44.2032 47.1718 43 45.6875 43ZM32.25 45.6875C32.25 38.2662 38.2662 32.25 45.6875 32.25C53.1088 32.25 59.125 38.2662 59.125 45.6875C59.125 53.1088 53.1088 59.125 45.6875 59.125C38.2662 59.125 32.25 53.1088 32.25 45.6875Z" fill="#F7F7F7"/>
<path fill-rule="evenodd" clip-rule="evenodd" d="M82.1993 49.9493C84.2984 47.8502 87.7016 47.8502 89.8007 49.9493L116.676 76.8243C118.775 78.9234 118.775 82.3266 116.676 84.4257C114.577 86.5248 111.173 86.5248 109.074 84.4257L86 61.3514L30.6757 116.676C28.5766 118.775 25.1734 118.775 23.0743 116.676C20.9752 114.577 20.9752 111.173 23.0743 109.074L82.1993 49.9493Z" fill="#F7F7F7"/>
</svg>
