<svg width="129" height="129" viewBox="0 0 129 129" fill="none" xmlns="http://www.w3.org/2000/svg">
<path fill-rule="evenodd" clip-rule="evenodd" d="M21.5 69.875C24.4685 69.875 26.875 72.2815 26.875 75.25V112.875C26.875 115.844 24.4685 118.25 21.5 118.25C18.5315 118.25 16.125 115.844 16.125 112.875V75.25C16.125 72.2815 18.5315 69.875 21.5 69.875Z" fill="#F7F7F7"/>
<path fill-rule="evenodd" clip-rule="evenodd" d="M21.5 10.75C24.4685 10.75 26.875 13.1565 26.875 16.125V53.75C26.875 56.7185 24.4685 59.125 21.5 59.125C18.5315 59.125 16.125 56.7185 16.125 53.75V16.125C16.125 13.1565 18.5315 10.75 21.5 10.75Z" fill="#F7F7F7"/>
<path fill-rule="evenodd" clip-rule="evenodd" d="M64.5 59.125C67.4685 59.125 69.875 61.5315 69.875 64.5V112.875C69.875 115.844 67.4685 118.25 64.5 118.25C61.5315 118.25 59.125 115.844 59.125 112.875V64.5C59.125 61.5315 61.5315 59.125 64.5 59.125Z" fill="#F7F7F7"/>
<path fill-rule="evenodd" clip-rule="evenodd" d="M64.5 10.75C67.4685 10.75 69.875 13.1565 69.875 16.125V43C69.875 45.9685 67.4685 48.375 64.5 48.375C61.5315 48.375 59.125 45.9685 59.125 43V16.125C59.125 13.1565 61.5315 10.75 64.5 10.75Z" fill="#F7F7F7"/>
<path fill-rule="evenodd" clip-rule="evenodd" d="M107.5 80.625C110.469 80.625 112.875 83.0315 112.875 86V112.875C112.875 115.844 110.469 118.25 107.5 118.25C104.531 118.25 102.125 115.844 102.125 112.875V86C102.125 83.0315 104.531 80.625 107.5 80.625Z" fill="#F7F7F7"/>
<path fill-rule="evenodd" clip-rule="evenodd" d="M107.5 10.75C110.469 10.75 112.875 13.1565 112.875 16.125V64.5C112.875 67.4685 110.469 69.875 107.5 69.875C104.531 69.875 102.125 67.4685 102.125 64.5V16.125C102.125 13.1565 104.531 10.75 107.5 10.75Z" fill="#F7F7F7"/>
<path fill-rule="evenodd" clip-rule="evenodd" d="M0 75.25C0 72.2815 2.40647 69.875 5.375 69.875H37.625C40.5935 69.875 43 72.2815 43 75.25C43 78.2185 40.5935 80.625 37.625 80.625H5.375C2.40647 80.625 0 78.2185 0 75.25Z" fill="#F7F7F7"/>
<path fill-rule="evenodd" clip-rule="evenodd" d="M43 43C43 40.0315 45.4065 37.625 48.375 37.625H80.625C83.5935 37.625 86 40.0315 86 43C86 45.9685 83.5935 48.375 80.625 48.375H48.375C45.4065 48.375 43 45.9685 43 43Z" fill="#F7F7F7"/>
<path fill-rule="evenodd" clip-rule="evenodd" d="M86 86C86 83.0315 88.4065 80.625 91.375 80.625H123.625C126.594 80.625 129 83.0315 129 86C129 88.9685 126.594 91.375 123.625 91.375H91.375C88.4065 91.375 86 88.9685 86 86Z" fill="#F7F7F7"/>
</svg>
