<svg width="129" height="129" viewBox="0 0 129 129" fill="none" xmlns="http://www.w3.org/2000/svg">
<path fill-rule="evenodd" clip-rule="evenodd" d="M7.87151 83.1215C12.9115 78.0815 19.7473 75.25 26.875 75.25H69.875C77.0027 75.25 83.8385 78.0815 88.8785 83.1215C93.9185 88.1615 96.75 94.9973 96.75 102.125V112.875C96.75 115.844 94.3435 118.25 91.375 118.25C88.4065 118.25 86 115.844 86 112.875V102.125C86 97.8484 84.3011 93.7469 81.2771 90.7229C78.2531 87.6989 74.1516 86 69.875 86H26.875C22.5984 86 18.4969 87.6989 15.4729 90.7229C12.4489 93.7469 10.75 97.8484 10.75 102.125V112.875C10.75 115.844 8.34353 118.25 5.375 118.25C2.40647 118.25 0 115.844 0 112.875V102.125C0 94.9973 2.83147 88.1615 7.87151 83.1215Z" fill="#F6F6F6"/>
<path fill-rule="evenodd" clip-rule="evenodd" d="M48.375 21.5C39.4694 21.5 32.25 28.7194 32.25 37.625C32.25 46.5306 39.4694 53.75 48.375 53.75C57.2806 53.75 64.5 46.5306 64.5 37.625C64.5 28.7194 57.2806 21.5 48.375 21.5ZM21.5 37.625C21.5 22.7823 33.5323 10.75 48.375 10.75C63.2177 10.75 75.25 22.7823 75.25 37.625C75.25 52.4677 63.2177 64.5 48.375 64.5C33.5323 64.5 21.5 52.4677 21.5 37.625Z" fill="#F6F6F6"/>
<path fill-rule="evenodd" clip-rule="evenodd" d="M102.296 79.9796C103.038 77.1053 105.97 75.3769 108.844 76.119C114.609 77.6077 119.717 80.969 123.365 85.6752C127.014 90.3814 128.996 96.1659 129 102.121L129 112.875C129 115.843 126.594 118.25 123.625 118.25C120.656 118.25 118.25 115.843 118.25 112.875L118.25 102.129C118.25 102.128 118.25 102.129 118.25 102.129C118.247 98.5564 117.058 95.0846 114.869 92.2614C112.68 89.4376 109.616 87.4208 106.156 86.5276C103.282 85.7855 101.554 82.8538 102.296 79.9796Z" fill="#F6F6F6"/>
<path fill-rule="evenodd" clip-rule="evenodd" d="M80.793 15.4899C81.5293 12.6141 84.4575 10.8797 87.3332 11.616C93.1141 13.0962 98.238 16.4583 101.897 21.1722C105.556 25.8861 107.542 31.6838 107.542 37.6512C107.542 43.6186 105.556 49.4163 101.897 54.1302C98.238 58.8441 93.1141 62.2062 87.3332 63.6864C84.4575 64.4227 81.5293 62.6883 80.793 59.8125C80.0567 56.9368 81.791 54.0086 84.6668 53.2723C88.1353 52.3842 91.2097 50.367 93.4051 47.5386C95.6005 44.7102 96.7922 41.2316 96.7922 37.6512C96.7922 34.0708 95.6005 30.5922 93.4051 27.7638C91.2097 24.9354 88.1353 22.9182 84.6668 22.0301C81.791 21.2938 80.0567 18.3656 80.793 15.4899Z" fill="#F6F6F6"/>
</svg>
