<svg width="129" height="129" viewBox="0 0 129 129" fill="none" xmlns="http://www.w3.org/2000/svg">
<path fill-rule="evenodd" clip-rule="evenodd" d="M64.5 5.375C66.5458 5.375 68.4143 6.53639 69.3198 8.3709L84.6792 39.4873L119.027 44.5078C121.051 44.8036 122.732 46.2226 123.363 48.1684C123.994 50.1142 123.466 52.2495 122 53.6767L97.1506 77.8803L103.015 112.074C103.361 114.091 102.532 116.129 100.877 117.331C99.2212 118.534 97.0266 118.692 95.2157 117.74L64.5 101.587L33.7843 117.74C31.9734 118.692 29.7788 118.534 28.1234 117.331C26.4681 116.129 25.639 114.091 25.9849 112.074L31.8495 77.8803L6.99969 53.6767C5.53437 52.2495 5.00615 50.1142 5.63706 48.1684C6.26796 46.2226 7.94862 44.8036 9.97263 44.5078L44.3208 39.4873L59.6802 8.3709C60.5857 6.53639 62.4542 5.375 64.5 5.375ZM64.5 22.8935L52.7111 46.7766C51.9288 48.3614 50.4174 49.4604 48.6686 49.716L22.2977 53.5705L41.3753 72.1521C42.6431 73.3869 43.2218 75.1668 42.9226 76.9111L38.4215 103.155L61.9982 90.7565C63.5644 89.9328 65.4356 89.9328 67.0018 90.7565L90.5785 103.155L86.0774 76.9111C85.7782 75.1668 86.3569 73.3869 87.6247 72.1521L106.702 53.5705L80.3314 49.716C78.5826 49.4604 77.0712 48.3614 76.289 46.7766L64.5 22.8935Z" fill="#F6F6F6"/>
</svg>
