<svg width="129" height="129" viewBox="0 0 129 129" fill="none" xmlns="http://www.w3.org/2000/svg">
<path fill-rule="evenodd" clip-rule="evenodd" d="M20.8479 10.0979C23.8719 7.07388 27.9734 5.375 32.25 5.375H75.25C76.6755 5.375 78.0427 5.94129 79.0507 6.9493L111.301 39.1993C112.309 40.2073 112.875 41.5745 112.875 43V107.5C112.875 111.777 111.176 115.878 108.152 118.902C105.128 121.926 101.027 123.625 96.75 123.625H32.25C27.9734 123.625 23.8719 121.926 20.8479 118.902C17.8239 115.878 16.125 111.777 16.125 107.5V21.5C16.125 17.2234 17.8239 13.1219 20.8479 10.0979ZM32.25 16.125C30.8245 16.125 29.4573 16.6913 28.4493 17.6993C27.4413 18.7073 26.875 20.0745 26.875 21.5V107.5C26.875 108.926 27.4413 110.293 28.4493 111.301C29.4573 112.309 30.8245 112.875 32.25 112.875H96.75C98.1755 112.875 99.5427 112.309 100.551 111.301C101.559 110.293 102.125 108.926 102.125 107.5V45.2264L73.0236 16.125H32.25Z" fill="#F6F6F6"/>
<path fill-rule="evenodd" clip-rule="evenodd" d="M75.25 5.375C78.2185 5.375 80.625 7.78147 80.625 10.75V37.625H107.5C110.469 37.625 112.875 40.0315 112.875 43C112.875 45.9685 110.469 48.375 107.5 48.375H75.25C72.2815 48.375 69.875 45.9685 69.875 43V10.75C69.875 7.78147 72.2815 5.375 75.25 5.375Z" fill="#F6F6F6"/>
<path fill-rule="evenodd" clip-rule="evenodd" d="M37.625 69.875C37.625 66.9065 40.0315 64.5 43 64.5H86C88.9685 64.5 91.375 66.9065 91.375 69.875C91.375 72.8435 88.9685 75.25 86 75.25H43C40.0315 75.25 37.625 72.8435 37.625 69.875Z" fill="#F6F6F6"/>
<path fill-rule="evenodd" clip-rule="evenodd" d="M37.625 91.375C37.625 88.4065 40.0315 86 43 86H86C88.9685 86 91.375 88.4065 91.375 91.375C91.375 94.3435 88.9685 96.75 86 96.75H43C40.0315 96.75 37.625 94.3435 37.625 91.375Z" fill="#F6F6F6"/>
<path fill-rule="evenodd" clip-rule="evenodd" d="M37.625 48.375C37.625 45.4065 40.0315 43 43 43H53.75C56.7185 43 59.125 45.4065 59.125 48.375C59.125 51.3435 56.7185 53.75 53.75 53.75H43C40.0315 53.75 37.625 51.3435 37.625 48.375Z" fill="#F6F6F6"/>
</svg>
