<svg width="118" height="118" viewBox="0 0 118 118" fill="none" xmlns="http://www.w3.org/2000/svg">
<g clip-path="url(#clip0)">
<path fill-rule="evenodd" clip-rule="evenodd" d="M116.56 26.0233C118.48 27.9434 118.48 31.0565 116.56 32.9765L69.8516 79.6849C67.9315 81.6049 64.8185 81.6049 62.8984 79.6849L41.7917 58.5781L8.39328 91.9765C6.4732 93.8966 3.36014 93.8966 1.44006 91.9765C-0.48002 90.0565 -0.48002 86.9434 1.44006 85.0233L38.3151 48.1483C40.2351 46.2282 43.3482 46.2282 45.2683 48.1483L66.375 69.255L109.607 26.0233C111.527 24.1032 114.64 24.1032 116.56 26.0233Z" fill="#F6F6F6"/>
<path fill-rule="evenodd" clip-rule="evenodd" d="M78.6667 29.4999C78.6667 26.7845 80.8679 24.5833 83.5833 24.5833H113.083C115.799 24.5833 118 26.7845 118 29.4999V58.9999C118 61.7153 115.799 63.9166 113.083 63.9166C110.368 63.9166 108.167 61.7153 108.167 58.9999V34.4166H83.5833C80.8679 34.4166 78.6667 32.2153 78.6667 29.4999Z" fill="#F6F6F6"/>
</g>
<defs>
<clipPath id="clip0">
<rect width="118" height="118" fill="white"/>
</clipPath>
</defs>
</svg>
