<svg width="129" height="129" viewBox="0 0 129 129" fill="none" xmlns="http://www.w3.org/2000/svg">
<path fill-rule="evenodd" clip-rule="evenodd" d="M21.5 26.875C20.0745 26.875 18.7073 27.4413 17.6993 28.4493C16.6913 29.4573 16.125 30.8245 16.125 32.25V107.5C16.125 108.926 16.6913 110.293 17.6993 111.301C18.7073 112.309 20.0745 112.875 21.5 112.875H96.75C98.1755 112.875 99.5427 112.309 100.551 111.301C101.559 110.293 102.125 108.926 102.125 107.5V78.7975C102.125 75.829 104.531 73.4225 107.5 73.4225C110.469 73.4225 112.875 75.829 112.875 78.7975V107.5C112.875 111.777 111.176 115.878 108.152 118.902C105.128 121.926 101.027 123.625 96.75 123.625H21.5C17.2234 123.625 13.1219 121.926 10.0979 118.902C7.07388 115.878 5.375 111.777 5.375 107.5V32.25C5.375 27.9734 7.07388 23.8719 10.0979 20.8479C13.1219 17.8239 17.2234 16.125 21.5 16.125H50.2025C53.171 16.125 55.5775 18.5315 55.5775 21.5C55.5775 24.4685 53.171 26.875 50.2025 26.875H21.5Z" fill="#F6F6F6"/>
<path fill-rule="evenodd" clip-rule="evenodd" d="M92.9493 6.9493C95.0484 4.85023 98.4516 4.85023 100.551 6.9493L122.051 28.4493C124.15 30.5484 124.15 33.9516 122.051 36.0507L68.3007 89.8007C67.2927 90.8087 65.9255 91.375 64.5 91.375H43C40.0315 91.375 37.625 88.9685 37.625 86V64.5C37.625 63.0745 38.1913 61.7073 39.1993 60.6993L92.9493 6.9493ZM48.375 66.7264V80.625H62.2736L110.649 32.25L96.75 18.3514L48.375 66.7264Z" fill="#F6F6F6"/>
</svg>
