<svg width="129" height="129" viewBox="0 0 129 129" fill="none" xmlns="http://www.w3.org/2000/svg">
<path fill-rule="evenodd" clip-rule="evenodd" d="M80.1581 13.411C84.398 11.6542 88.9425 10.75 93.5319 10.75C98.1214 10.75 102.666 11.6542 106.906 13.411C111.145 15.1675 114.996 17.7418 118.24 20.987C121.486 24.2311 124.062 28.0844 125.818 32.3235C127.575 36.5634 128.479 41.1079 128.479 45.6973C128.479 50.2868 127.575 54.8312 125.818 59.0711C124.062 63.3106 121.487 67.1625 118.241 70.4068C118.241 70.4071 118.242 70.4065 118.241 70.4068L70.7264 117.922C68.6273 120.021 65.2241 120.021 63.125 117.922L15.61 70.4068C9.05664 63.8534 5.375 54.9652 5.375 45.6973C5.375 36.4295 9.05664 27.5412 15.61 20.9879C22.1633 14.4345 31.0516 10.7529 40.3194 10.7529C49.5873 10.7529 58.4755 14.4345 65.0289 20.9879L66.9257 22.8847L68.8216 20.9888C68.8219 20.9885 68.8213 20.9891 68.8216 20.9888C72.0659 17.7432 75.9187 15.1677 80.1581 13.411ZM93.5319 21.5C90.3546 21.5 87.2085 22.126 84.2732 23.3423C81.3379 24.5585 78.671 26.3411 76.4248 28.5884L70.7264 34.2868C68.6273 36.3858 65.2241 36.3858 63.125 34.2868L57.4275 28.5893C52.8901 24.0519 46.7362 21.5029 40.3194 21.5029C33.9027 21.5029 27.7487 24.0519 23.2114 28.5893C18.674 33.1266 16.125 39.2805 16.125 45.6973C16.125 52.1141 18.6741 58.268 23.2114 62.8054L66.9257 106.52L110.64 62.8054C112.887 60.5592 114.671 57.8914 115.887 54.9561C117.103 52.0208 117.729 48.8746 117.729 45.6973C117.729 42.52 117.103 39.3738 115.887 36.4385C114.671 33.5032 112.888 30.8363 110.641 28.5902C108.395 26.3429 105.726 24.5585 102.791 23.3423C99.8554 22.126 96.7092 21.5 93.5319 21.5Z" fill="#F6F6F6"/>
</svg>
