<svg width="135" height="129" viewBox="0 0 135 129" fill="none" xmlns="http://www.w3.org/2000/svg">
<path d="M111.716 64.5C111.716 52.1375 106.13 41.3875 97.7512 33.325L96.0755 14.5125C94.9583 6.45 88.2554 0 79.3181 0H54.7407C46.362 0 39.1005 6.45 37.9833 14.5125L36.3076 33.325C27.9289 40.85 22.3431 52.1375 22.3431 64.5C22.3431 76.8625 27.9289 88.15 36.3076 95.675L37.9833 114.487C39.1005 122.55 46.362 129 54.7407 129H78.7596C87.6968 129 94.3998 122.55 95.5169 114.487L97.1926 96.2125C106.13 88.15 111.716 76.8625 111.716 64.5ZM49.1549 15.5875C49.1549 12.9 51.9478 10.75 54.7407 10.75H79.3181C82.111 10.75 84.3453 12.9 84.9039 15.5875L86.0211 25.2625C79.8767 23.1125 73.7324 21.5 67.0294 21.5C60.3265 21.5 54.1821 23.1125 48.5963 25.2625L49.1549 15.5875ZM33.5147 64.5C33.5147 46.7625 48.5963 32.25 67.0294 32.25C85.4625 32.25 100.544 46.7625 100.544 64.5C100.544 74.175 96.0755 83.3125 88.814 89.225C83.2282 94.0625 75.4081 96.75 67.0294 96.75C48.5963 96.75 33.5147 82.2375 33.5147 64.5ZM84.9039 113.412C84.9039 116.1 82.111 118.25 79.3181 118.25H54.7407C51.9478 118.25 49.7135 116.1 49.1549 113.412L48.0377 103.737C53.6235 106.425 59.7679 107.5 66.4708 107.5C73.1738 107.5 79.3181 105.887 84.9039 103.737V113.412Z" fill="#F7F7F7"/>
<path d="M71.498 76.325C72.6152 77.4 74.2909 77.9375 75.4081 77.9375C76.5252 77.9375 78.201 77.4 79.3181 76.325C81.5524 74.175 81.5524 70.95 79.3181 68.8L72.6152 62.35V48.375C72.6152 45.15 70.3809 43 67.0294 43C63.6779 43 61.4436 45.15 61.4436 48.375V64.5C61.4436 66.1125 62.0022 67.1875 63.1194 68.2625L71.498 76.325Z" fill="#F7F7F7"/>
</svg>
