<svg width="129" height="129" viewBox="0 0 129 129" fill="none" xmlns="http://www.w3.org/2000/svg">
<path fill-rule="evenodd" clip-rule="evenodd" d="M89.7668 24.603C86.6763 30.7841 84.6097 39.6992 84.6097 49.8402C84.6097 59.9811 86.6763 68.8963 89.7668 75.0774C93.0181 81.5799 96.5152 83.5554 98.7798 83.5554C101.044 83.5554 104.541 81.5799 107.793 75.0774C110.883 68.8963 112.95 59.9811 112.95 49.8402C112.95 39.6992 110.883 30.7841 107.793 24.603C104.541 18.1005 101.044 16.125 98.7798 16.125C96.5152 16.125 93.0181 18.1005 89.7668 24.603ZM22.232 40.3024L79.0391 22.1905C75.7417 29.8349 73.8597 39.5041 73.8597 49.8402C73.8597 60.1763 75.7417 69.8455 79.0391 77.4899L22.232 59.378L22.1323 59.3473C20.2512 58.7875 18.6252 57.587 17.5365 55.9539C16.4478 54.3209 15.965 52.3583 16.1718 50.4065C16.2117 50.03 16.2117 49.6504 16.1718 49.2738C15.965 47.3221 16.4478 45.3595 17.5365 43.7265C18.6252 42.0934 20.2511 40.8929 22.1323 40.3331L22.232 40.3024ZM19.0122 30.0458L93.3166 6.35517C95.0197 5.72481 96.8415 5.375 98.7798 5.375C107.31 5.375 113.585 12.1502 117.408 19.7955C121.391 27.7623 123.7 38.3922 123.7 49.8402C123.7 61.2882 121.391 71.9181 117.408 79.8849C113.585 87.5302 107.31 94.3054 98.7798 94.3054C96.8415 94.3054 95.0196 93.9556 93.3165 93.3252L64.1987 84.0415L68.9432 98.3792C70.3688 102.06 70.3024 106.154 68.7532 109.789C67.1797 113.482 64.2052 116.398 60.4829 117.9L60.4753 117.903C56.7507 119.398 52.5849 119.354 48.8926 117.781C45.2003 116.207 42.2834 113.233 40.7823 109.51C40.7553 109.443 40.7296 109.376 40.7053 109.308L27.5031 72.3418L19.0122 69.6346C14.7477 68.3519 11.0628 65.6232 8.59199 61.9169C6.21602 58.353 5.10621 54.1004 5.43013 49.8402C5.10621 45.58 6.21602 41.3274 8.59199 37.7634C11.0628 34.0572 14.7477 31.3285 19.0122 30.0458ZM51.5398 80.0054L40.385 76.4489L50.7855 105.57C51.2303 106.613 52.0616 107.446 53.107 107.891C54.178 108.348 55.3862 108.361 56.4668 107.928C57.5456 107.492 58.4075 106.645 58.8637 105.575C59.3206 104.503 59.3333 103.293 58.8991 102.212C58.8576 102.108 58.8193 102.004 58.7843 101.898L51.5398 80.0054ZM101.768 40.1164C104.164 42.7897 105.491 46.2512 105.498 49.8408C105.491 53.4304 104.164 56.892 101.768 59.5652C99.3724 62.2384 96.0766 63.9362 92.5091 64.3348C91.3775 59.5872 90.8164 54.7214 90.8379 49.8408C90.8164 44.9602 91.3775 40.0945 92.5091 35.3468C96.0766 35.7454 99.3724 37.4432 101.768 40.1164Z" fill="#F7F7F7"/>
</svg>
