<svg width="14" height="14" viewBox="0 0 14 14" fill="none" xmlns="http://www.w3.org/2000/svg">
<path fill-rule="evenodd" clip-rule="evenodd" d="M0.999674 8.3335C1.36786 8.3335 1.66634 8.63197 1.66634 9.00016V11.6668C1.66634 11.8436 1.73658 12.0132 1.8616 12.1382C1.98663 12.2633 2.1562 12.3335 2.33301 12.3335H11.6663C11.8432 12.3335 12.0127 12.2633 12.1377 12.1382C12.2628 12.0132 12.333 11.8436 12.333 11.6668V9.00016C12.333 8.63197 12.6315 8.3335 12.9997 8.3335C13.3679 8.3335 13.6663 8.63197 13.6663 9.00016V11.6668C13.6663 12.1973 13.4556 12.706 13.0806 13.081C12.7055 13.4561 12.1968 13.6668 11.6663 13.6668H2.33301C1.80257 13.6668 1.29387 13.4561 0.918794 13.081C0.543721 12.706 0.333008 12.1973 0.333008 11.6668V9.00016C0.333008 8.63197 0.631485 8.3335 0.999674 8.3335Z" fill="black"/>
<path fill-rule="evenodd" clip-rule="evenodd" d="M6.52827 0.528758C6.78862 0.268409 7.21073 0.268409 7.47108 0.528758L10.8044 3.86209C11.0648 4.12244 11.0648 4.54455 10.8044 4.8049C10.5441 5.06525 10.122 5.06525 9.8616 4.8049L6.99967 1.94297L4.13775 4.8049C3.8774 5.06525 3.45529 5.06525 3.19494 4.8049C2.93459 4.54455 2.93459 4.12244 3.19494 3.86209L6.52827 0.528758Z" fill="black"/>
<path fill-rule="evenodd" clip-rule="evenodd" d="M6.99967 0.333496C7.36786 0.333496 7.66634 0.631973 7.66634 1.00016V9.00016C7.66634 9.36835 7.36786 9.66683 6.99967 9.66683C6.63148 9.66683 6.33301 9.36835 6.33301 9.00016V1.00016C6.33301 0.631973 6.63148 0.333496 6.99967 0.333496Z" fill="black"/>
</svg>
