<?xml version="1.0" standalone="no"?>
<!DOCTYPE svg PUBLIC "-//W3C//DTD SVG 20010904//EN"
 "http://www.w3.org/TR/2001/REC-SVG-20010904/DTD/svg10.dtd">
<svg version="1.0" xmlns="http://www.w3.org/2000/svg"
 width="40.000000pt" height="34.000000pt" viewBox="0 0 40.000000 34.000000"
 preserveAspectRatio="xMidYMid meet">

<g transform="translate(0.000000,34.000000) scale(0.100000,-0.100000)"
fill="#000000" stroke="none">
<path d="M0 300 c0 -29 4 -40 15 -40 13 0 15 -21 15 -130 l0 -130 165 0 165 0
0 130 c0 123 1 130 20 130 17 0 20 7 20 40 l0 40 -200 0 -200 0 0 -40z m380 0
c0 -19 -7 -20 -180 -20 -173 0 -180 1 -180 20 0 19 7 20 180 20 173 0 180 -1
180 -20z m-40 -160 l0 -120 -145 0 -145 0 0 120 0 120 145 0 145 0 0 -120z"/>
<path d="M120 206 c-6 -8 -10 -25 -8 -38 3 -22 7 -23 83 -23 76 0 80 1 83 23
6 39 -14 52 -83 52 -42 0 -66 -5 -75 -14z m138 -28 c-3 -21 -8 -23 -63 -23
-55 0 -60 2 -63 23 -3 21 0 22 63 22 63 0 66 -1 63 -22z"/>
</g>
</svg>
