<svg width="16" height="16" viewBox="0 0 16 16" fill="none" xmlns="http://www.w3.org/2000/svg">
<path fill-rule="evenodd" clip-rule="evenodd" d="M2.97631 10.3096C3.60143 9.6845 4.44928 9.33331 5.33333 9.33331H10.6667C11.5507 9.33331 12.3986 9.6845 13.0237 10.3096C13.6488 10.9347 14 11.7826 14 12.6666V14C14 14.3682 13.7015 14.6666 13.3333 14.6666C12.9651 14.6666 12.6667 14.3682 12.6667 14V12.6666C12.6667 12.1362 12.456 11.6275 12.0809 11.2524C11.7058 10.8774 11.1971 10.6666 10.6667 10.6666H5.33333C4.8029 10.6666 4.29419 10.8774 3.91912 11.2524C3.54405 11.6275 3.33333 12.1362 3.33333 12.6666V14C3.33333 14.3682 3.03486 14.6666 2.66667 14.6666C2.29848 14.6666 2 14.3682 2 14V12.6666C2 11.7826 2.35119 10.9347 2.97631 10.3096Z" fill="#BBBBBC"/>
<path fill-rule="evenodd" clip-rule="evenodd" d="M8.00008 2.66665C6.89551 2.66665 6.00008 3.56208 6.00008 4.66665C6.00008 5.77122 6.89551 6.66665 8.00008 6.66665C9.10465 6.66665 10.0001 5.77122 10.0001 4.66665C10.0001 3.56208 9.10465 2.66665 8.00008 2.66665ZM4.66675 4.66665C4.66675 2.8257 6.15913 1.33331 8.00008 1.33331C9.84103 1.33331 11.3334 2.8257 11.3334 4.66665C11.3334 6.5076 9.84103 7.99998 8.00008 7.99998C6.15913 7.99998 4.66675 6.5076 4.66675 4.66665Z" fill="#BBBBBC"/>
</svg>
