<svg width="16" height="16" viewBox="0 0 16 16" fill="none" xmlns="http://www.w3.org/2000/svg">
<path fill-rule="evenodd" clip-rule="evenodd" d="M0.976311 10.3098C1.60143 9.68469 2.44928 9.3335 3.33333 9.3335H8.66667C9.55072 9.3335 10.3986 9.68469 11.0237 10.3098C11.6488 10.9349 12 11.7828 12 12.6668V14.0002C12 14.3684 11.7015 14.6668 11.3333 14.6668C10.9651 14.6668 10.6667 14.3684 10.6667 14.0002V12.6668C10.6667 12.1364 10.456 11.6277 10.0809 11.2526C9.70581 10.8775 9.1971 10.6668 8.66667 10.6668H3.33333C2.8029 10.6668 2.29419 10.8775 1.91912 11.2526C1.54405 11.6277 1.33333 12.1364 1.33333 12.6668V14.0002C1.33333 14.3684 1.03486 14.6668 0.666667 14.6668C0.298477 14.6668 0 14.3684 0 14.0002V12.6668C0 11.7828 0.35119 10.9349 0.976311 10.3098Z" fill="black"/>
<path fill-rule="evenodd" clip-rule="evenodd" d="M5.99984 2.66683C4.89527 2.66683 3.99984 3.56226 3.99984 4.66683C3.99984 5.7714 4.89527 6.66683 5.99984 6.66683C7.10441 6.66683 7.99984 5.7714 7.99984 4.66683C7.99984 3.56226 7.10441 2.66683 5.99984 2.66683ZM2.6665 4.66683C2.6665 2.82588 4.15889 1.3335 5.99984 1.3335C7.84079 1.3335 9.33317 2.82588 9.33317 4.66683C9.33317 6.50778 7.84079 8.00016 5.99984 8.00016C4.15889 8.00016 2.6665 6.50778 2.6665 4.66683Z" fill="black"/>
<path fill-rule="evenodd" clip-rule="evenodd" d="M12.6878 9.92008C12.7799 9.56359 13.1435 9.34921 13.5 9.44125C14.2151 9.62589 14.8486 10.0428 15.3011 10.6265C15.7536 11.2102 15.9994 11.9277 16 12.6663L16 14.0001C16 14.3683 15.7015 14.6668 15.3333 14.6668C14.9651 14.6668 14.6667 14.3683 14.6667 14.0001L14.6667 12.6672C14.6667 12.6672 14.6667 12.6673 14.6667 12.6672C14.6663 12.2242 14.5188 11.7936 14.2473 11.4434C13.9759 11.0932 13.5957 10.843 13.1667 10.7322C12.8102 10.6402 12.5958 10.2766 12.6878 9.92008Z" fill="black"/>
<path fill-rule="evenodd" clip-rule="evenodd" d="M10.021 1.92139C10.1123 1.56471 10.4755 1.34959 10.8322 1.44092C11.5492 1.6245 12.1847 2.0415 12.6386 2.62617C13.0924 3.21085 13.3387 3.92994 13.3387 4.67008C13.3387 5.41022 13.0924 6.12932 12.6386 6.71399C12.1847 7.29866 11.5492 7.71566 10.8322 7.89925C10.4755 7.99057 10.1123 7.77546 10.021 7.41877C9.92967 7.06209 10.1448 6.69891 10.5015 6.60758C10.9317 6.49743 11.313 6.24723 11.5853 5.89643C11.8576 5.54562 12.0054 5.11417 12.0054 4.67008C12.0054 4.226 11.8576 3.79454 11.5853 3.44374C11.313 3.09293 10.9317 2.84273 10.5015 2.73258C10.1448 2.64126 9.92967 2.27807 10.021 1.92139Z" fill="black"/>
</svg>
