<svg width="52" height="18" viewBox="0 0 52 18" fill="none" xmlns="http://www.w3.org/2000/svg">
<path d="M13.714 14.88L23.17 0.576H26.842L15.154 18H12.178L0.442031 0.576H4.23403L13.714 14.88ZM29.9832 18V15.504H42.7752C43.6072 15.504 44.3512 15.488 45.0072 15.456C45.6792 15.408 46.2392 15.312 46.6872 15.168C47.1352 15.008 47.4792 14.776 47.7192 14.472C47.9592 14.168 48.0792 13.76 48.0792 13.248C48.0792 12.816 47.9912 12.472 47.8152 12.216C47.6392 11.944 47.3832 11.728 47.0472 11.568C46.7112 11.408 46.2952 11.288 45.7992 11.208C45.3032 11.112 44.7352 11.032 44.0952 10.968L35.6232 10.104C34.6152 10.008 33.7032 9.856 32.8872 9.648C32.0872 9.424 31.3992 9.128 30.8232 8.76C30.2472 8.376 29.8072 7.904 29.5032 7.344C29.1992 6.784 29.0472 6.104 29.0472 5.304C29.0472 4.424 29.2312 3.68 29.5992 3.072C29.9832 2.464 30.5192 1.976 31.2072 1.608C31.8952 1.24 32.7192 0.975999 33.6792 0.816C34.6392 0.656 35.7032 0.576 36.8712 0.576H50.3112V3.072H37.1352C36.2232 3.072 35.4632 3.104 34.8552 3.168C34.2472 3.232 33.7592 3.352 33.3912 3.528C33.0232 3.688 32.7592 3.912 32.5992 4.2C32.4392 4.472 32.3592 4.816 32.3592 5.232C32.3592 5.664 32.4552 6.016 32.6472 6.288C32.8392 6.544 33.1112 6.752 33.4632 6.912C33.8152 7.072 34.2312 7.192 34.7112 7.272C35.2072 7.352 35.7512 7.424 36.3432 7.488L44.8872 8.352C45.9592 8.464 46.9032 8.632 47.7192 8.856C48.5352 9.064 49.2152 9.36 49.7592 9.744C50.3032 10.112 50.7112 10.576 50.9832 11.136C51.2552 11.696 51.3912 12.376 51.3912 13.176C51.3912 14.952 50.7112 16.2 49.3512 16.92C47.9912 17.64 45.9112 18 43.1112 18H29.9832Z" fill="white"/>
</svg>
