<svg width="24" height="24" viewBox="0 0 24 24" fill="none" xmlns="http://www.w3.org/2000/svg">
<path d="M4.99998 13.5001C4.69998 13.5001 4.39998 13.4001 4.19998 13.1001C3.79998 12.7001 3.89998 12.0001 4.29998 11.7001C8.79998 8.0001 15.2 8.0001 19.7 11.7001C20.1 12.1001 20.2 12.7001 19.8 13.1001C19.4 13.5001 18.8 13.6001 18.4 13.2001C14.7 10.1001 9.29998 10.1001 5.59998 13.2001C5.49998 13.5001 5.19998 13.5001 4.99998 13.5001Z" fill="black"/>
<path d="M1.39998 10.0001C1.09998 10.0001 0.799977 9.9001 0.599977 9.7001C0.199977 9.3001 0.299977 8.7001 0.699977 8.3001C7.09998 2.7001 16.8 2.7001 23.2 8.3001C23.6 8.7001 23.7 9.3001 23.3 9.7001C22.9 10.1001 22.3 10.2001 21.9 9.8001C16.2 4.8001 7.69998 4.8001 2.09998 9.8001C1.89998 9.9001 1.69998 10.0001 1.39998 10.0001Z" fill="black"/>
<path d="M15.5 17.1001C15.3 17.1001 15.1 17.0001 14.9 16.9001C13.2 15.7001 10.8 15.7001 9.09998 16.9001C8.59998 17.2001 7.99998 17.1001 7.69998 16.7001C7.39998 16.2001 7.49998 15.6001 7.89998 15.3001C10.3 13.6001 13.6 13.6001 16 15.3001C16.5 15.6001 16.6 16.2001 16.2 16.7001C16.1 17.0001 15.8 17.1001 15.5 17.1001Z" fill="black"/>
<path d="M12 21.0001C11.9 21.0001 11.7 21.0001 11.6 20.9001C11.5 20.9001 11.4 20.8001 11.3 20.7001C11.1 20.5001 11 20.3001 11 20.0001C11 19.9001 11 19.7001 11.1 19.6001C11.2 19.5001 11.2 19.4001 11.3 19.3001C11.7 18.9001 12.3 18.9001 12.7 19.3001C12.9 19.5001 13 19.8001 13 20.0001C13 20.3001 12.9 20.5001 12.7 20.7001C12.5 20.9001 12.3 21.0001 12 21.0001Z" fill="black"/>
</svg>
