<svg width="16" height="16" viewBox="0 0 16 16" fill="none" xmlns="http://www.w3.org/2000/svg">
<rect width="16" height="16" rx="5" fill="#BBBBBC"/>
<path d="M6.75195 6.31543L5.48633 6.021C5.75879 4.97217 6.53369 4.44775 7.81104 4.44775C8.56689 4.44775 9.13672 4.61475 9.52051 4.94873C9.90723 5.27979 10.1006 5.66943 10.1006 6.11768C10.1006 6.42529 10.0127 6.70361 9.83691 6.95264C9.66113 7.19873 9.39746 7.41553 9.0459 7.60303C9.47363 7.74951 9.79443 7.95752 10.0083 8.22705C10.2222 8.49365 10.3291 8.82324 10.3291 9.21582C10.3291 9.78125 10.1211 10.2383 9.70508 10.5869C9.29199 10.9355 8.67236 11.1099 7.84619 11.1099C7.17236 11.1099 6.64062 10.9985 6.25098 10.7759C5.86133 10.5503 5.56836 10.1299 5.37207 9.51465L6.56299 9.12354C6.68604 9.51025 6.84863 9.76074 7.05078 9.875C7.25586 9.98926 7.50781 10.0464 7.80664 10.0464C8.2168 10.0464 8.51562 9.9585 8.70312 9.78271C8.89062 9.604 8.98438 9.40039 8.98438 9.17188C8.98438 8.9082 8.87744 8.6958 8.66357 8.53467C8.45264 8.37354 8.1333 8.29297 7.70557 8.29297H7.41113V7.32178H7.56055C7.95898 7.32178 8.26367 7.23242 8.47461 7.05371C8.68555 6.875 8.79102 6.6377 8.79102 6.3418C8.79102 6.10742 8.70459 5.90967 8.53174 5.74854C8.36182 5.5874 8.11719 5.50684 7.79785 5.50684C7.25293 5.50684 6.9043 5.77637 6.75195 6.31543Z" fill="white"/>
</svg>
